<?xml version="1.0" encoding="UTF-8"?>
<svg id="_レイヤー_2" data-name="レイヤー 2" xmlns="http://www.w3.org/2000/svg" viewBox="0 0 423.08 500.21">
  <defs>
    <style>
      .cls-1 {
        fill: #fff;
      }
    </style>
  </defs>
  <g id="_レイヤー_1-2" data-name="レイヤー 1">
    <g>
      <polygon class="cls-1" points="230.8 346.33 269.25 346.33 269.25 384.79 307.71 384.79 307.71 423.24 346.17 423.24 346.17 461.76 384.62 461.76 384.62 500.21 423.08 500.21 423.08 461.76 423.08 423.24 384.62 423.24 384.62 384.79 346.17 384.79 346.17 346.33 307.71 346.33 307.71 307.82 269.25 307.82 269.25 269.36 230.8 269.36 230.8 230.85 192.28 230.85 192.28 269.36 153.83 269.36 153.83 307.82 115.37 307.82 115.37 346.33 76.91 346.33 76.91 384.79 38.46 384.79 38.46 423.24 0 423.24 0 461.76 0 500.21 38.46 500.21 38.46 461.76 76.91 461.76 76.91 423.24 115.37 423.24 115.37 384.79 153.83 384.79 153.83 346.33 192.28 346.33 192.28 307.82 230.8 307.82 230.8 346.33"/>
      <polygon class="cls-1" points="76.91 307.82 76.91 269.36 115.37 269.36 115.37 230.85 153.83 230.85 153.83 192.39 192.28 192.39 192.28 153.88 230.8 153.88 230.8 192.39 269.25 192.39 269.25 230.85 307.71 230.85 307.71 269.36 346.17 269.36 346.17 307.82 384.62 307.82 384.62 346.33 423.08 346.33 423.08 307.82 423.08 269.36 384.62 269.36 384.62 230.85 346.17 230.85 346.17 192.39 307.71 192.39 307.71 153.88 269.25 153.88 269.25 115.43 230.8 115.43 230.8 76.91 269.25 76.91 307.71 76.91 346.17 76.91 384.62 76.91 423.08 76.91 423.08 38.46 384.62 38.46 384.62 0 346.17 0 307.71 0 269.25 0 230.8 0 192.28 0 153.83 0 115.37 0 76.91 0 38.46 0 38.46 38.46 0 38.46 0 76.91 38.46 76.91 76.91 76.91 115.37 76.91 153.83 76.91 192.28 76.91 192.28 115.43 153.83 115.43 153.83 153.88 115.37 153.88 115.37 192.39 76.91 192.39 76.91 230.85 38.46 230.85 38.46 269.36 0 269.36 0 307.82 0 346.33 38.46 346.33 38.46 307.82 76.91 307.82"/>
    </g>
  </g>
</svg>