<?xml version="1.0" encoding="UTF-8"?>
<svg id="_レイヤー_2" data-name="レイヤー 2" xmlns="http://www.w3.org/2000/svg" viewBox="0 0 423.08 269.33">
  <defs>
    <style>
      .cls-1 {
        fill: #fff;
      }
    </style>
  </defs>
  <g id="_レイヤー_1-2" data-name="レイヤー 1">
    <polygon class="cls-1" points="38.51 38.51 76.96 38.51 76.96 76.96 115.41 76.96 115.41 115.46 153.86 115.46 153.86 153.92 192.31 153.92 192.31 192.42 230.77 192.42 230.77 153.92 269.27 153.92 269.27 115.46 307.72 115.46 307.72 76.96 346.18 76.96 346.18 38.51 384.63 38.51 384.63 0 423.08 0 423.08 38.51 423.08 76.96 384.63 76.96 384.63 115.46 346.18 115.46 346.18 153.92 307.72 153.92 307.72 192.42 269.27 192.42 269.27 230.88 230.77 230.88 230.77 269.33 192.31 269.33 192.31 230.88 153.86 230.88 153.86 192.42 115.41 192.42 115.41 153.92 76.96 153.92 76.96 115.46 38.51 115.46 38.51 76.96 0 76.96 0 38.51 0 0 38.51 0 38.51 38.51"/>
  </g>
</svg>