<?xml version="1.0" encoding="UTF-8"?>
<svg id="_レイヤー_2" data-name="レイヤー 2" xmlns="http://www.w3.org/2000/svg" viewBox="0 0 423.08 500.21">
  <defs>
    <style>
      .cls-1 {
        fill: #fff;
      }
    </style>
  </defs>
  <g id="_レイヤー_1-2" data-name="レイヤー 1">
    <g>
      <polygon class="cls-1" points="230.8 153.88 269.25 153.88 269.25 115.42 307.71 115.42 307.71 76.97 346.17 76.97 346.17 38.46 384.62 38.46 384.62 0 423.08 0 423.08 38.46 423.08 76.97 384.62 76.97 384.62 115.42 346.17 115.42 346.17 153.88 307.71 153.88 307.71 192.39 269.25 192.39 269.25 230.85 230.8 230.85 230.8 269.36 192.28 269.36 192.28 230.85 153.83 230.85 153.83 192.39 115.37 192.39 115.37 153.88 76.91 153.88 76.91 115.42 38.46 115.42 38.46 76.97 0 76.97 0 38.46 0 0 38.46 0 38.46 38.46 76.91 38.46 76.91 76.97 115.37 76.97 115.37 115.42 153.83 115.42 153.83 153.88 192.28 153.88 192.28 192.39 230.8 192.39 230.8 153.88"/>
      <polygon class="cls-1" points="76.91 192.39 76.91 230.85 115.37 230.85 115.37 269.36 153.83 269.36 153.83 307.82 192.28 307.82 192.28 346.33 230.8 346.33 230.8 307.82 269.25 307.82 269.25 269.36 307.71 269.36 307.71 230.85 346.17 230.85 346.17 192.39 384.62 192.39 384.62 153.88 423.08 153.88 423.08 192.39 423.08 230.85 384.62 230.85 384.62 269.36 346.17 269.36 346.17 307.82 307.71 307.82 307.71 346.33 269.25 346.33 269.25 384.79 230.8 384.79 230.8 423.3 269.25 423.3 307.71 423.3 346.17 423.3 384.62 423.3 423.08 423.3 423.08 461.76 384.62 461.76 384.62 500.21 346.17 500.21 307.71 500.21 269.25 500.21 230.8 500.21 192.28 500.21 153.83 500.21 115.37 500.21 76.91 500.21 38.46 500.21 38.46 461.76 0 461.76 0 423.3 38.46 423.3 76.91 423.3 115.37 423.3 153.83 423.3 192.28 423.3 192.28 384.79 153.83 384.79 153.83 346.33 115.37 346.33 115.37 307.82 76.91 307.82 76.91 269.36 38.46 269.36 38.46 230.85 0 230.85 0 192.39 0 153.88 38.46 153.88 38.46 192.39 76.91 192.39"/>
    </g>
  </g>
</svg>