<?xml version="1.0" encoding="UTF-8"?>
<svg id="_レイヤー_2" data-name="レイヤー 2" xmlns="http://www.w3.org/2000/svg" viewBox="0 0 423.08 269.33">
  <defs>
    <style>
      .cls-1 {
        fill: #fff;
      }
    </style>
  </defs>
  <g id="_レイヤー_1-2" data-name="レイヤー 1">
    <polygon class="cls-1" points="38.51 230.82 76.96 230.82 76.96 192.37 115.41 192.37 115.41 153.86 153.86 153.86 153.86 115.41 192.31 115.41 192.31 76.9 230.77 76.9 230.77 115.41 269.27 115.41 269.27 153.86 307.72 153.86 307.72 192.37 346.18 192.37 346.18 230.82 384.63 230.82 384.63 269.33 423.08 269.33 423.08 230.82 423.08 192.37 384.63 192.37 384.63 153.86 346.18 153.86 346.18 115.41 307.72 115.41 307.72 76.9 269.27 76.9 269.27 38.45 230.77 38.45 230.77 0 192.31 0 192.31 38.45 153.86 38.45 153.86 76.9 115.41 76.9 115.41 115.41 76.96 115.41 76.96 153.86 38.51 153.86 38.51 192.37 0 192.37 0 230.82 0 269.33 38.51 269.33 38.51 230.82"/>
  </g>
</svg>