<?xml version="1.0" encoding="UTF-8"?>
<svg id="_レイヤー_2" data-name="レイヤー_2" xmlns="http://www.w3.org/2000/svg" viewBox="0 0 192.3 192.31">
  <defs>
    <style>
      .cls-1 {
        fill: #fff;
      }
    </style>
  </defs>
  <g id="_レイヤー_1-2" data-name="レイヤー_1">
    <g>
      <polygon class="cls-1" points="38.46 76.93 38.46 38.47 0 38.47 0 76.93 0 115.39 0 153.85 38.46 153.85 38.46 115.39 38.46 76.93"/>
      <polygon class="cls-1" points="76.92 153.85 38.46 153.85 38.46 192.31 76.92 192.31 115.38 192.31 153.84 192.31 153.84 153.85 115.38 153.85 76.92 153.85"/>
      <polygon class="cls-1" points="153.84 76.93 153.84 115.39 153.84 153.85 192.3 153.85 192.3 115.39 192.3 76.93 192.3 38.47 153.84 38.47 153.84 76.93"/>
      <polygon class="cls-1" points="115.38 38.47 153.84 38.47 153.84 0 115.38 0 76.92 0 38.46 0 38.46 38.47 76.92 38.47 115.38 38.47"/>
    </g>
  </g>
</svg>