<?xml version="1.0" encoding="UTF-8"?>
<svg id="_レイヤー_2" data-name="レイヤー 2" xmlns="http://www.w3.org/2000/svg" viewBox="0 0 390.96 433.06">
  <defs>
    <style>
      .cls-1 {
        fill: #3200cc;
      }

      .cls-2 {
        fill: #3b0c79;
      }

      .cls-3 {
        fill: #4800ff;
      }

      .cls-4 {
        fill: #fff;
      }

      .cls-5 {
        fill: #e5ff00;
      }

      .cls-6 {
        fill: none;
      }

      .cls-7 {
        fill: red;
      }

      .cls-8 {
        fill: #b2ff00;
      }

      .cls-9 {
        fill: #4a1999;
      }
    </style>
  </defs>
  <g id="_レイヤー_1-2" data-name="レイヤー 1">
    <g>
      <rect class="cls-6" x="306.43" y="63.38" width="10.56" height="10.56"/>
      <rect class="cls-6" x="73.97" y="63.38" width="10.58" height="10.56"/>
      <polygon class="cls-4" points="380.4 137.31 380.4 147.87 380.4 158.43 380.4 168.99 380.4 168.99 380.4 179.56 380.4 190.12 380.4 190.12 380.4 200.69 380.4 211.25 380.4 221.81 380.4 232.38 380.4 242.94 380.4 253.5 380.4 253.5 380.4 264.06 380.4 274.62 380.4 285.18 380.4 295.75 380.4 306.31 380.4 316.88 380.4 316.88 380.4 327.44 380.4 338 380.4 348.56 380.4 359.13 380.4 369.69 380.4 380.25 380.4 380.25 380.4 390.81 380.4 401.37 380.4 411.94 380.4 422.5 390.96 422.5 390.96 411.94 390.96 401.37 390.96 390.81 390.96 380.25 390.96 380.25 390.96 369.69 390.96 359.13 390.96 348.56 390.96 338 390.96 327.44 390.96 316.88 390.96 316.88 390.96 306.31 390.96 295.75 390.96 285.18 390.96 274.62 390.96 264.06 390.96 253.5 390.96 253.5 390.96 242.94 390.96 232.38 390.96 221.81 390.96 211.25 390.96 200.69 390.96 190.12 390.96 190.12 390.96 179.56 390.96 168.99 390.96 168.99 390.96 158.43 390.96 147.87 390.96 137.31 380.4 137.31"/>
      <polygon class="cls-2" points="380.4 401.37 380.4 390.81 380.4 380.25 380.4 380.25 380.4 369.69 380.4 359.13 380.4 348.56 380.4 338 380.4 327.44 380.4 316.88 380.4 316.88 380.4 306.31 380.4 295.75 380.4 285.18 380.4 274.62 380.4 264.06 380.4 253.5 380.4 253.5 380.4 242.94 380.4 232.38 380.4 221.81 380.4 211.25 380.4 200.69 380.4 190.12 380.4 190.12 380.4 179.56 380.4 168.99 380.4 168.99 380.4 158.43 380.4 147.87 380.4 137.31 369.83 137.31 359.27 137.31 348.71 137.31 348.71 147.87 348.71 158.43 348.71 168.99 348.71 168.99 359.27 168.99 359.27 179.56 359.27 190.12 359.27 190.12 359.27 200.69 359.27 211.25 359.27 221.81 359.27 232.38 359.27 242.94 359.27 253.5 359.27 253.5 359.27 264.06 359.27 274.62 359.27 285.18 359.27 295.75 359.27 306.31 359.27 316.88 359.27 316.88 359.27 327.44 359.27 338 359.27 348.56 359.27 359.13 359.27 369.69 359.27 380.25 359.27 380.25 359.27 390.81 359.27 401.37 359.27 411.94 359.27 422.5 369.83 422.5 380.4 422.5 380.4 411.94 380.4 401.37"/>
      <rect class="cls-4" x="369.83" y="126.75" width="10.57" height="10.56"/>
      <polygon class="cls-4" points="359.27 422.5 348.71 422.5 348.71 433.06 359.27 433.06 369.83 433.06 380.4 433.06 380.4 422.5 369.83 422.5 359.27 422.5"/>
      <polygon class="cls-9" points="369.83 137.31 369.83 126.75 359.27 126.75 348.71 126.75 348.71 137.31 359.27 137.31 369.83 137.31"/>
      <polygon class="cls-4" points="369.83 126.75 369.83 116.19 359.27 116.19 348.71 116.19 348.71 126.75 359.27 126.75 369.83 126.75"/>
      <polygon class="cls-9" points="359.27 411.94 359.27 401.37 359.27 390.81 359.27 380.25 359.27 380.25 359.27 369.69 359.27 359.13 359.27 348.56 359.27 338 359.27 327.44 359.27 316.88 359.27 316.88 359.27 306.31 359.27 295.75 359.27 285.18 359.27 274.62 359.27 264.06 359.27 253.5 359.27 253.5 359.27 242.94 359.27 232.38 359.27 221.81 359.27 211.25 359.27 200.69 359.27 190.12 359.27 190.12 359.27 179.56 359.27 168.99 348.71 168.99 348.71 179.56 348.71 190.12 348.71 190.12 348.71 200.69 348.71 211.25 348.71 221.81 348.71 232.38 348.71 242.94 348.71 253.5 348.71 253.5 348.71 264.06 348.71 274.62 348.71 285.18 348.71 295.75 348.71 306.31 348.71 316.88 348.71 316.88 348.71 327.44 348.71 338 348.71 348.56 348.71 359.13 348.71 369.69 348.71 380.25 348.71 380.25 348.71 390.81 348.71 401.37 348.71 411.94 348.71 422.5 359.27 422.5 359.27 411.94"/>
      <rect class="cls-4" x="348.71" y="52.81" width="10.56" height="10.56"/>
      <polygon class="cls-4" points="338.13 116.19 338.13 126.75 348.7 126.75 348.7 116.19 348.7 105.61 348.7 95.06 338.13 95.06 338.13 105.61 338.13 116.19"/>
      <rect class="cls-4" x="338.13" y="63.38" width="10.57" height="10.56"/>
      <rect class="cls-5" x="338.13" y="52.81" width="10.57" height="10.56"/>
      <rect class="cls-4" x="338.13" y="42.24" width="10.57" height="10.58"/>
      <polygon class="cls-4" points="327.57 158.43 316.99 158.43 316.99 168.99 316.99 168.99 327.57 168.99 327.57 179.56 327.57 190.12 327.57 190.12 327.57 200.69 338.13 200.69 338.13 211.25 338.13 221.81 338.13 232.38 338.13 242.94 338.13 253.5 338.13 253.5 338.13 264.06 338.13 274.62 338.13 285.18 338.13 295.75 338.13 306.31 338.13 316.88 338.13 316.88 338.13 327.44 338.13 338 338.13 348.56 338.13 359.13 338.13 369.69 338.13 380.25 338.13 380.25 338.13 390.81 338.13 401.37 338.13 411.94 338.13 422.5 348.7 422.5 348.7 411.94 348.7 401.37 348.7 390.81 348.7 380.25 348.7 380.25 348.7 369.69 348.7 359.13 348.7 348.56 348.7 338 348.7 327.44 348.7 316.88 348.7 316.88 348.7 306.31 348.7 295.75 348.7 285.18 348.7 274.62 348.7 264.06 348.7 253.5 348.7 253.5 348.7 242.94 348.7 232.38 348.7 221.81 348.7 211.25 348.7 200.69 348.7 190.12 348.7 190.12 348.7 179.56 348.7 168.99 348.7 168.99 348.7 158.43 338.13 158.43 327.57 158.43"/>
      <polygon class="cls-2" points="327.57 137.31 316.99 137.31 316.99 126.75 316.99 116.19 316.99 105.61 316.99 95.06 327.57 95.06 327.57 84.5 316.99 84.5 306.43 84.5 306.43 95.06 295.86 95.06 295.86 105.61 306.43 105.61 306.43 116.19 306.43 126.75 306.43 137.31 306.43 147.87 295.86 147.87 295.86 158.43 285.3 158.43 274.73 158.43 264.16 158.43 253.6 158.43 243.03 158.43 232.47 158.43 221.9 158.43 211.34 158.43 200.76 158.43 190.2 158.43 179.64 158.43 169.07 158.43 158.51 158.43 147.93 158.43 137.37 158.43 126.8 158.43 116.24 158.43 105.66 158.43 95.1 158.43 95.1 147.87 84.54 147.87 84.54 137.31 84.54 126.75 84.54 116.19 84.54 105.61 95.1 105.61 95.1 95.06 84.54 95.06 84.54 84.5 73.97 84.5 63.41 84.5 63.41 95.06 73.97 95.06 73.97 105.61 73.97 116.19 73.97 126.75 73.97 137.31 63.41 137.31 52.83 137.31 42.27 137.31 31.7 137.31 31.7 147.87 21.14 147.87 21.14 158.43 21.14 168.99 21.14 168.99 21.14 179.56 21.14 190.12 21.14 190.12 21.14 200.69 21.14 211.25 21.14 221.81 21.14 232.38 21.14 242.94 21.14 253.5 21.14 253.5 21.14 264.06 21.14 274.62 21.14 285.18 21.14 295.75 21.14 306.31 21.14 316.88 21.14 316.88 21.14 327.44 21.14 338 21.14 348.56 21.14 359.13 21.14 369.69 21.14 380.25 21.14 380.25 21.14 390.81 21.14 401.37 21.14 411.94 21.14 422.5 31.7 422.5 42.27 422.5 42.27 411.94 42.27 401.37 42.27 390.81 42.27 380.25 42.27 380.25 42.27 369.69 42.27 359.13 42.27 348.56 42.27 338 42.27 327.44 42.27 316.88 42.27 316.88 42.27 306.31 42.27 295.75 42.27 285.18 42.27 274.62 42.27 264.06 42.27 253.5 42.27 253.5 42.27 242.94 42.27 232.38 42.27 221.81 42.27 211.25 42.27 200.69 42.27 190.12 42.27 190.12 42.27 179.56 42.27 168.99 42.27 168.99 42.27 158.43 52.83 158.43 63.41 158.43 73.97 158.43 84.54 158.43 84.54 168.99 84.54 168.99 95.1 168.99 105.66 168.99 116.24 168.99 126.8 168.99 137.37 168.99 147.93 168.99 158.51 168.99 169.07 168.99 179.64 168.99 190.2 168.99 200.76 168.99 211.34 168.99 221.9 168.99 232.47 168.99 243.03 168.99 253.6 168.99 264.16 168.99 274.73 168.99 285.3 168.99 295.86 168.99 306.43 168.99 306.43 179.56 316.99 179.56 316.99 190.12 316.99 190.12 306.43 190.12 306.43 200.69 295.86 200.69 285.3 200.69 274.73 200.69 264.16 200.69 253.6 200.69 243.03 200.69 232.47 200.69 221.9 200.69 211.34 200.69 200.76 200.69 190.2 200.69 179.64 200.69 169.07 200.69 158.51 200.69 147.93 200.69 137.37 200.69 126.8 200.69 116.24 200.69 105.66 200.69 95.1 200.69 84.54 200.69 84.54 211.25 95.1 211.25 105.66 211.25 116.24 211.25 126.8 211.25 137.37 211.25 147.93 211.25 158.51 211.25 169.07 211.25 179.64 211.25 190.2 211.25 200.76 211.25 211.34 211.25 221.9 211.25 232.47 211.25 243.03 211.25 253.6 211.25 264.16 211.25 274.73 211.25 285.3 211.25 295.86 211.25 306.43 211.25 316.99 211.25 316.99 200.69 327.57 200.69 327.57 190.12 327.57 190.12 327.57 179.56 327.57 168.99 316.99 168.99 316.99 168.99 316.99 158.43 327.57 158.43 338.13 158.43 348.7 158.43 348.7 147.87 348.7 137.31 338.13 137.31 327.57 137.31"/>
      <polygon class="cls-9" points="327.57 126.75 316.99 126.75 316.99 137.31 327.57 137.31 338.13 137.31 348.7 137.31 348.7 126.75 338.13 126.75 327.57 126.75"/>
      <polygon class="cls-2" points="327.57 105.61 327.57 116.19 327.57 126.75 338.13 126.75 338.13 116.19 338.13 105.61 338.13 95.06 327.57 95.06 327.57 105.61"/>
      <rect class="cls-5" x="327.57" y="63.38" width="10.56" height="10.56"/>
      <rect class="cls-8" x="327.57" y="52.81" width="10.56" height="10.56"/>
      <rect class="cls-5" x="327.57" y="42.24" width="10.56" height="10.58"/>
      <rect class="cls-4" x="327.57" y="31.68" width="10.56" height="10.56"/>
      <rect class="cls-4" x="316.99" y="200.69" width="10.58" height="10.56"/>
      <polygon class="cls-4" points="316.99 105.61 316.99 116.19 316.99 126.75 327.57 126.75 327.57 116.19 327.57 105.61 327.57 95.06 316.99 95.06 316.99 105.61"/>
      <polygon class="cls-4" points="327.57 63.38 316.99 63.38 316.99 73.94 306.43 73.94 306.43 84.5 316.99 84.5 327.57 84.5 327.57 95.06 338.13 95.06 338.13 84.5 338.13 73.94 327.57 73.94 327.57 63.38"/>
      <rect class="cls-5" x="316.99" y="52.81" width="10.58" height="10.56"/>
      <rect class="cls-4" x="316.99" y="42.24" width="10.58" height="10.58"/>
      <polygon class="cls-1" points="306.43 190.12 316.99 190.12 316.99 190.12 316.99 179.56 306.43 179.56 306.43 190.12 306.43 190.12"/>
      <rect class="cls-4" x="306.43" y="52.81" width="10.56" height="10.56"/>
      <polygon class="cls-4" points="295.86 211.25 285.3 211.25 274.73 211.25 264.16 211.25 253.6 211.25 243.03 211.25 232.47 211.25 221.9 211.25 211.34 211.25 200.76 211.25 190.2 211.25 179.64 211.25 169.07 211.25 158.51 211.25 147.93 211.25 137.37 211.25 126.8 211.25 116.24 211.25 105.66 211.25 95.1 211.25 84.54 211.25 73.97 211.25 73.97 221.81 84.54 221.81 95.1 221.81 105.66 221.81 116.24 221.81 126.8 221.81 137.37 221.81 147.93 221.81 158.51 221.81 169.07 221.81 179.64 221.81 190.2 221.81 200.76 221.81 211.34 221.81 221.9 221.81 232.47 221.81 243.03 221.81 253.6 221.81 264.16 221.81 274.73 221.81 285.3 221.81 295.86 221.81 306.43 221.81 316.99 221.81 316.99 211.25 306.43 211.25 295.86 211.25"/>
      <rect class="cls-4" x="295.86" y="84.5" width="10.58" height="10.56"/>
      <polygon class="cls-3" points="285.3 179.56 274.73 179.56 264.16 179.56 253.6 179.56 243.03 179.56 232.47 179.56 221.9 179.56 211.34 179.56 200.76 179.56 190.2 179.56 179.64 179.56 169.07 179.56 158.51 179.56 147.93 179.56 137.37 179.56 126.8 179.56 116.24 179.56 105.66 179.56 95.1 179.56 84.54 179.56 84.54 190.12 84.54 190.12 84.54 200.69 95.1 200.69 105.66 200.69 116.24 200.69 126.8 200.69 137.37 200.69 147.93 200.69 158.51 200.69 169.07 200.69 179.64 200.69 190.2 200.69 200.76 200.69 211.34 200.69 221.9 200.69 232.47 200.69 243.03 200.69 253.6 200.69 264.16 200.69 274.73 200.69 285.3 200.69 295.86 200.69 306.43 200.69 306.43 190.12 306.43 190.12 306.43 179.56 295.86 179.56 285.3 179.56"/>
      <polygon class="cls-2" points="285.3 73.94 285.3 84.5 285.3 95.06 295.86 95.06 295.86 84.5 306.43 84.5 306.43 73.94 295.86 73.94 285.3 73.94"/>
      <polygon class="cls-4" points="295.86 73.94 306.43 73.94 306.43 63.38 295.86 63.38 285.3 63.38 285.3 73.94 295.86 73.94"/>
      <rect class="cls-7" x="274.73" y="137.31" width="10.57" height="10.56"/>
      <rect class="cls-7" x="274.73" y="116.19" width="10.57" height="10.56"/>
      <path class="cls-8" d="M274.73,95.06H95.1v10.56h-10.56v42.26h10.56v10.56h200.76v-10.56h10.58v-42.26h-10.58v-10.56h-21.13ZM137.37,147.87v-10.56h-10.57v-10.56h-10.56v21.12h-10.58v-21.12h10.58v-10.56h-10.58v-10.58h10.58v10.58h10.56v-10.58h21.13v10.58h-21.13v10.56h10.57v10.56h10.56v10.56h-10.56ZM179.64,147.87v-10.56h-21.14v-10.56h10.56v-10.56h10.58v-10.58h21.12v10.58h10.58v-10.58h10.56v10.58h-10.56v21.12h-10.58v-21.12h-21.12v21.12h10.56v10.56h-10.56ZM274.73,147.87v-10.56h-10.56v-10.56h-10.56v21.12h-10.57v-21.12h-10.56v-10.56h10.56v-10.58h10.57v10.58h10.56v-10.58h10.56v10.58h10.57v10.56h-10.57v10.56h10.57v10.56h-10.57Z"/>
      <polygon class="cls-4" points="285.3 84.5 285.3 73.94 274.73 73.94 274.73 84.5 274.73 95.06 285.3 95.06 285.3 84.5"/>
      <rect class="cls-4" x="274.73" y="21.12" width="10.57" height="10.56"/>
      <rect class="cls-7" x="264.16" y="126.75" width="10.56" height="10.56"/>
      <rect class="cls-8" x="264.16" y="116.19" width="10.56" height="10.56"/>
      <rect class="cls-7" x="264.16" y="105.61" width="10.56" height="10.58"/>
      <polygon class="cls-2" points="264.16 63.38 264.16 73.94 264.16 84.5 264.16 95.06 274.73 95.06 274.73 84.5 274.73 73.94 285.3 73.94 285.3 63.38 274.73 63.38 264.16 63.38"/>
      <polygon class="cls-4" points="274.73 63.38 285.3 63.38 285.3 52.81 274.73 52.81 264.16 52.81 264.16 63.38 274.73 63.38"/>
      <rect class="cls-4" x="264.16" y="31.68" width="10.56" height="10.56"/>
      <rect class="cls-5" x="264.16" y="21.12" width="10.56" height="10.56"/>
      <rect class="cls-4" x="264.16" y="10.56" width="10.56" height="10.56"/>
      <polygon class="cls-7" points="253.6 116.19 253.6 105.61 243.03 105.61 243.03 116.19 232.47 116.19 232.47 126.75 243.03 126.75 243.03 137.31 243.03 147.87 253.6 147.87 253.6 137.31 253.6 126.75 264.16 126.75 264.16 116.19 253.6 116.19"/>
      <polygon class="cls-4" points="264.16 84.5 264.16 73.94 264.16 63.38 253.6 63.38 253.6 73.94 253.6 84.5 253.6 95.06 264.16 95.06 264.16 84.5"/>
      <rect class="cls-5" x="253.6" y="31.68" width="10.56" height="10.56"/>
      <rect class="cls-8" x="253.6" y="21.12" width="10.56" height="10.56"/>
      <rect class="cls-5" x="253.6" y="10.56" width="10.56" height="10.56"/>
      <rect class="cls-4" x="253.6" width="10.56" height="10.56"/>
      <polygon class="cls-2" points="243.03 52.81 243.03 63.38 243.03 73.94 243.03 84.5 243.03 95.06 253.6 95.06 253.6 84.5 253.6 73.94 253.6 63.38 264.16 63.38 264.16 52.81 253.6 52.81 243.03 52.81"/>
      <rect class="cls-5" x="243.03" y="21.12" width="10.57" height="10.56"/>
      <rect class="cls-4" x="243.03" y="10.56" width="10.57" height="10.56"/>
      <polygon class="cls-4" points="232.47 63.38 232.47 73.94 232.47 84.5 232.47 95.06 243.03 95.06 243.03 84.5 243.03 73.94 243.03 63.38 243.03 52.81 232.47 52.81 232.47 63.38"/>
      <polygon class="cls-2" points="221.9 63.38 221.9 73.94 221.9 84.5 221.9 95.06 232.47 95.06 232.47 84.5 232.47 73.94 232.47 63.38 232.47 52.81 243.03 52.81 243.03 42.24 232.47 42.24 221.9 42.24 221.9 52.81 221.9 63.38"/>
      <polygon class="cls-4" points="232.47 42.24 243.03 42.24 243.03 52.81 253.6 52.81 264.16 52.81 264.16 42.24 253.6 42.24 253.6 31.68 243.03 31.68 243.03 21.12 232.47 21.12 232.47 31.68 221.9 31.68 221.9 42.24 232.47 42.24"/>
      <rect class="cls-7" x="211.34" y="105.61" width="10.56" height="10.58"/>
      <polygon class="cls-4" points="221.9 84.5 221.9 73.94 221.9 63.38 221.9 52.81 221.9 42.24 211.34 42.24 211.34 52.81 211.34 63.38 211.34 73.94 211.34 84.5 211.34 95.06 221.9 95.06 221.9 84.5"/>
      <polygon class="cls-7" points="200.76 137.31 211.34 137.31 211.34 126.75 211.34 116.19 200.76 116.19 200.76 126.75 200.76 137.31"/>
      <polygon class="cls-7" points="200.76 116.19 200.76 105.61 190.2 105.61 179.64 105.61 179.64 116.19 190.2 116.19 200.76 116.19"/>
      <polygon class="cls-4" points="200.76 84.5 200.76 73.94 200.76 63.38 200.76 52.81 200.76 42.24 190.2 42.24 190.2 52.81 190.2 63.38 190.2 73.94 190.2 84.5 190.2 95.06 200.76 95.06 200.76 84.5"/>
      <rect class="cls-7" x="179.64" y="137.31" width="10.56" height="10.56"/>
      <polygon class="cls-4" points="190.2 31.68 200.76 31.68 211.34 31.68 221.9 31.68 221.9 21.12 211.34 21.12 200.76 21.12 190.2 21.12 179.64 21.12 169.07 21.12 169.07 31.68 179.64 31.68 190.2 31.68"/>
      <polygon class="cls-7" points="179.64 116.19 169.07 116.19 169.07 126.75 158.51 126.75 158.51 137.31 169.07 137.31 179.64 137.31 179.64 126.75 179.64 116.19"/>
      <polygon class="cls-4" points="169.07 63.38 169.07 73.94 169.07 84.5 169.07 95.06 179.64 95.06 179.64 84.5 179.64 73.94 179.64 63.38 179.64 52.81 179.64 42.24 169.07 42.24 169.07 52.81 169.07 63.38"/>
      <polygon class="cls-2" points="179.64 42.24 179.64 52.81 179.64 63.38 179.64 73.94 179.64 84.5 179.64 95.06 190.2 95.06 190.2 84.5 190.2 73.94 190.2 63.38 190.2 52.81 190.2 42.24 200.76 42.24 200.76 52.81 200.76 63.38 200.76 73.94 200.76 84.5 200.76 95.06 211.34 95.06 211.34 84.5 211.34 73.94 211.34 63.38 211.34 52.81 211.34 42.24 221.9 42.24 221.9 31.68 211.34 31.68 200.76 31.68 190.2 31.68 179.64 31.68 169.07 31.68 169.07 42.24 179.64 42.24"/>
      <polygon class="cls-2" points="158.51 63.38 158.51 73.94 158.51 84.5 158.51 95.06 169.07 95.06 169.07 84.5 169.07 73.94 169.07 63.38 169.07 52.81 169.07 42.24 158.51 42.24 147.93 42.24 147.93 52.81 158.51 52.81 158.51 63.38"/>
      <polygon class="cls-4" points="158.51 84.5 158.51 73.94 158.51 63.38 158.51 52.81 147.93 52.81 147.93 63.38 147.93 73.94 147.93 84.5 147.93 95.06 158.51 95.06 158.51 84.5"/>
      <rect class="cls-7" x="137.37" y="137.31" width="10.56" height="10.56"/>
      <polygon class="cls-7" points="147.93 116.19 147.93 105.61 137.37 105.61 126.8 105.61 126.8 116.19 137.37 116.19 147.93 116.19"/>
      <polygon class="cls-4" points="147.93 52.81 147.93 42.24 158.51 42.24 169.07 42.24 169.07 31.68 158.51 31.68 158.51 21.12 147.93 21.12 147.93 31.68 137.37 31.68 137.37 42.24 126.8 42.24 126.8 52.81 137.37 52.81 147.93 52.81"/>
      <rect class="cls-5" x="137.37" y="21.12" width="10.56" height="10.56"/>
      <rect class="cls-4" x="137.37" y="10.56" width="10.56" height="10.56"/>
      <rect class="cls-7" x="126.8" y="126.75" width="10.57" height="10.56"/>
      <polygon class="cls-4" points="137.37 84.5 137.37 73.94 137.37 63.38 126.8 63.38 126.8 73.94 126.8 84.5 126.8 95.06 137.37 95.06 137.37 84.5"/>
      <polygon class="cls-2" points="137.37 63.38 137.37 73.94 137.37 84.5 137.37 95.06 147.93 95.06 147.93 84.5 147.93 73.94 147.93 63.38 147.93 52.81 137.37 52.81 126.8 52.81 126.8 63.38 137.37 63.38"/>
      <rect class="cls-5" x="126.8" y="31.68" width="10.57" height="10.56"/>
      <rect class="cls-8" x="126.8" y="21.12" width="10.57" height="10.56"/>
      <rect class="cls-5" x="126.8" y="10.56" width="10.57" height="10.56"/>
      <rect class="cls-4" x="126.8" width="10.57" height="10.56"/>
      <rect class="cls-7" x="116.24" y="116.19" width="10.56" height="10.56"/>
      <polygon class="cls-4" points="126.8 63.38 126.8 52.81 116.24 52.81 105.66 52.81 105.66 63.38 116.24 63.38 126.8 63.38"/>
      <rect class="cls-4" x="116.24" y="31.68" width="10.56" height="10.56"/>
      <rect class="cls-5" x="116.24" y="21.12" width="10.56" height="10.56"/>
      <rect class="cls-4" x="116.24" y="10.56" width="10.56" height="10.56"/>
      <polygon class="cls-7" points="105.66 137.31 105.66 147.87 116.24 147.87 116.24 137.31 116.24 126.75 105.66 126.75 105.66 137.31"/>
      <rect class="cls-7" x="105.66" y="105.61" width="10.58" height="10.58"/>
      <polygon class="cls-4" points="105.66 95.06 116.24 95.06 116.24 84.5 116.24 73.94 105.66 73.94 105.66 84.5 105.66 95.06"/>
      <polygon class="cls-2" points="116.24 73.94 116.24 84.5 116.24 95.06 126.8 95.06 126.8 84.5 126.8 73.94 126.8 63.38 116.24 63.38 105.66 63.38 105.66 73.94 116.24 73.94"/>
      <rect class="cls-4" x="105.66" y="21.12" width="10.58" height="10.56"/>
      <polygon class="cls-2" points="105.66 84.5 105.66 73.94 95.1 73.94 84.54 73.94 84.54 84.5 95.1 84.5 95.1 95.06 105.66 95.06 105.66 84.5"/>
      <polygon class="cls-1" points="95.1 179.56 105.66 179.56 116.24 179.56 126.8 179.56 137.37 179.56 147.93 179.56 158.51 179.56 169.07 179.56 179.64 179.56 190.2 179.56 200.76 179.56 211.34 179.56 221.9 179.56 232.47 179.56 243.03 179.56 253.6 179.56 264.16 179.56 274.73 179.56 285.3 179.56 295.86 179.56 306.43 179.56 306.43 168.99 295.86 168.99 285.3 168.99 274.73 168.99 264.16 168.99 253.6 168.99 243.03 168.99 232.47 168.99 221.9 168.99 211.34 168.99 200.76 168.99 190.2 168.99 179.64 168.99 169.07 168.99 158.51 168.99 147.93 168.99 137.37 168.99 126.8 168.99 116.24 168.99 105.66 168.99 95.1 168.99 84.54 168.99 84.54 179.56 95.1 179.56"/>
      <rect class="cls-4" x="84.54" y="84.5" width="10.56" height="10.56"/>
      <polygon class="cls-4" points="95.1 73.94 105.66 73.94 105.66 63.38 95.1 63.38 84.54 63.38 84.54 73.94 95.1 73.94"/>
      <rect class="cls-9" x="73.97" y="200.69" width="10.58" height="10.56"/>
      <rect class="cls-2" x="73.97" y="190.12" width="10.58" height="10.56"/>
      <polygon class="cls-1" points="84.54 190.12 84.54 179.56 73.97 179.56 73.97 190.12 73.97 190.12 84.54 190.12 84.54 190.12"/>
      <rect class="cls-2" x="73.97" y="168.99" width="10.58" height="10.57"/>
      <polygon class="cls-9" points="73.97 168.99 84.54 168.99 84.54 168.99 84.54 158.43 73.97 158.43 73.97 168.99 73.97 168.99"/>
      <rect class="cls-4" x="73.97" y="52.81" width="10.58" height="10.56"/>
      <rect class="cls-4" x="63.41" y="200.69" width="10.56" height="10.56"/>
      <polygon class="cls-9" points="73.97 190.12 73.97 190.12 73.97 179.56 73.97 168.99 63.41 168.99 63.41 179.56 63.41 190.12 63.41 190.12 63.41 200.69 73.97 200.69 73.97 190.12"/>
      <polygon class="cls-4" points="63.41 116.19 63.41 126.75 73.97 126.75 73.97 116.19 73.97 105.61 73.97 95.06 63.41 95.06 63.41 105.61 63.41 116.19"/>
      <rect class="cls-5" x="63.41" y="52.81" width="10.56" height="10.56"/>
      <rect class="cls-4" x="63.41" y="42.24" width="10.56" height="10.58"/>
      <polygon class="cls-4" points="63.41 190.12 63.41 179.56 63.41 168.99 73.97 168.99 73.97 168.99 73.97 158.43 63.41 158.43 52.83 158.43 42.27 158.43 42.27 168.99 42.27 168.99 42.27 179.56 42.27 190.12 42.27 190.12 42.27 200.69 42.27 211.25 42.27 221.81 42.27 232.38 42.27 242.94 42.27 253.5 42.27 253.5 42.27 264.06 42.27 274.62 42.27 285.18 42.27 295.75 42.27 306.31 42.27 316.88 42.27 316.88 42.27 327.44 42.27 338 42.27 348.56 42.27 359.13 42.27 369.69 42.27 380.25 42.27 380.25 42.27 390.81 42.27 401.37 42.27 411.94 42.27 422.5 52.83 422.5 52.83 411.94 52.83 401.37 52.83 390.81 52.83 380.25 52.83 380.25 52.83 369.69 52.83 359.13 52.83 348.56 52.83 338 52.83 327.44 52.83 316.88 52.83 316.88 52.83 306.31 52.83 295.75 52.83 285.18 52.83 274.62 52.83 264.06 52.83 253.5 52.83 253.5 52.83 242.94 52.83 232.38 52.83 221.81 52.83 211.25 52.83 200.69 63.41 200.69 63.41 190.12 63.41 190.12"/>
      <polygon class="cls-2" points="52.83 116.19 52.83 126.75 63.41 126.75 63.41 116.19 63.41 105.61 63.41 95.06 52.83 95.06 52.83 105.61 52.83 116.19"/>
      <polygon class="cls-4" points="63.41 84.5 73.97 84.5 84.54 84.5 84.54 73.94 73.97 73.94 73.97 63.38 63.41 63.38 63.41 73.94 52.83 73.94 52.83 84.5 52.83 95.06 63.41 95.06 63.41 84.5"/>
      <rect class="cls-5" x="52.83" y="63.38" width="10.58" height="10.56"/>
      <rect class="cls-8" x="52.83" y="52.81" width="10.58" height="10.56"/>
      <rect class="cls-5" x="52.83" y="42.24" width="10.58" height="10.58"/>
      <rect class="cls-4" x="52.83" y="31.68" width="10.58" height="10.56"/>
      <rect class="cls-4" x="42.27" y="63.38" width="10.56" height="10.56"/>
      <rect class="cls-5" x="42.27" y="52.81" width="10.56" height="10.56"/>
      <rect class="cls-4" x="42.27" y="42.24" width="10.56" height="10.58"/>
      <polygon class="cls-4" points="42.27 126.75 52.83 126.75 52.83 116.19 52.83 105.61 52.83 95.06 42.27 95.06 42.27 105.61 42.27 116.19 31.7 116.19 21.14 116.19 21.14 126.75 31.7 126.75 42.27 126.75"/>
      <rect class="cls-4" x="31.7" y="52.81" width="10.58" height="10.56"/>
      <polygon class="cls-4" points="21.14 422.5 10.56 422.5 10.56 433.06 21.14 433.06 31.7 433.06 42.27 433.06 42.27 422.5 31.7 422.5 21.14 422.5"/>
      <polygon class="cls-9" points="21.14 411.94 21.14 401.37 21.14 390.81 21.14 380.25 21.14 380.25 21.14 369.69 21.14 359.13 21.14 348.56 21.14 338 21.14 327.44 21.14 316.88 21.14 316.88 21.14 306.31 21.14 295.75 21.14 285.18 21.14 274.62 21.14 264.06 21.14 253.5 21.14 253.5 21.14 242.94 21.14 232.38 21.14 221.81 21.14 211.25 21.14 200.69 21.14 190.12 21.14 190.12 21.14 179.56 21.14 168.99 21.14 168.99 21.14 158.43 21.14 147.87 31.7 147.87 31.7 137.31 42.27 137.31 52.83 137.31 63.41 137.31 73.97 137.31 73.97 126.75 63.41 126.75 52.83 126.75 42.27 126.75 31.7 126.75 21.14 126.75 21.14 137.31 10.56 137.31 10.56 147.87 10.56 158.43 10.56 168.99 10.56 168.99 10.56 179.56 10.56 190.12 10.56 190.12 10.56 200.69 10.56 211.25 10.56 221.81 10.56 232.38 10.56 242.94 10.56 253.5 10.56 253.5 10.56 264.06 10.56 274.62 10.56 285.18 10.56 295.75 10.56 306.31 10.56 316.88 10.56 316.88 10.56 327.44 10.56 338 10.56 348.56 10.56 359.13 10.56 369.69 10.56 380.25 10.56 380.25 10.56 390.81 10.56 401.37 10.56 411.94 10.56 422.5 21.14 422.5 21.14 411.94"/>
      <rect class="cls-4" x="10.56" y="126.75" width="10.57" height="10.56"/>
      <polygon class="cls-4" points="0 147.87 0 158.43 0 168.99 0 168.99 0 179.56 0 190.12 0 190.12 0 200.69 0 211.25 0 221.81 0 232.38 0 242.94 0 253.5 0 253.5 0 264.06 0 274.62 0 285.18 0 295.75 0 306.31 0 316.88 0 316.88 0 327.44 0 338 0 348.56 0 359.13 0 369.69 0 380.25 0 380.25 0 390.81 0 401.37 0 411.94 0 422.5 10.56 422.5 10.56 411.94 10.56 401.37 10.56 390.81 10.56 380.25 10.56 380.25 10.56 369.69 10.56 359.13 10.56 348.56 10.56 338 10.56 327.44 10.56 316.88 10.56 316.88 10.56 306.31 10.56 295.75 10.56 285.18 10.56 274.62 10.56 264.06 10.56 253.5 10.56 253.5 10.56 242.94 10.56 232.38 10.56 221.81 10.56 211.25 10.56 200.69 10.56 190.12 10.56 190.12 10.56 179.56 10.56 168.99 10.56 168.99 10.56 158.43 10.56 147.87 10.56 137.31 0 137.31 0 147.87"/>
    </g>
  </g>
</svg>