<?xml version="1.0" encoding="UTF-8"?>
<svg id="_レイヤー_2" data-name="レイヤー 2" xmlns="http://www.w3.org/2000/svg" viewBox="0 0 665.7 316.88">
  <defs>
    <style>
      .cls-1 {
        fill: #3b0c79;
      }

      .cls-2 {
        fill: #4800ff;
      }

      .cls-3 {
        fill: #fff;
      }

      .cls-4 {
        fill: #abd2ff;
      }

      .cls-5 {
        fill: red;
      }

      .cls-6 {
        fill: #a400fc;
      }

      .cls-7 {
        fill: #b2ff00;
      }

      .cls-8 {
        fill: #4a1999;
      }
    </style>
  </defs>
  <g id="_レイヤー_1-2" data-name="レイヤー 1">
    <g>
      <polygon class="cls-3" points="655.14 190.12 655.14 190.12 655.14 200.69 655.14 211.25 655.14 221.81 655.14 232.38 655.14 242.94 655.14 253.5 655.14 253.5 655.14 264.06 655.14 274.62 655.14 285.18 655.14 295.75 655.14 306.31 665.7 306.31 665.7 295.75 665.7 285.18 665.7 274.62 665.7 264.06 665.7 253.5 665.7 253.5 665.7 242.94 665.7 232.38 665.7 221.81 665.7 211.25 665.7 200.69 665.7 190.12 665.7 190.12 665.7 179.56 655.14 179.56 655.14 190.12"/>
      <polygon class="cls-3" points="655.14 116.19 655.14 116.19 655.14 126.75 655.14 137.31 655.14 147.87 655.14 158.43 655.14 168.99 655.14 168.99 655.14 179.56 665.7 179.56 665.7 168.99 665.7 168.99 665.7 158.43 665.7 147.87 665.7 137.31 665.7 126.75 665.7 116.19 665.7 116.19 665.7 105.61 655.14 105.61 655.14 116.19"/>
      <polygon class="cls-3" points="655.14 95.06 655.14 105.61 665.7 105.61 665.7 95.06 665.7 84.5 655.14 84.5 655.14 95.06"/>
      <polygon class="cls-3" points="655.14 73.94 655.14 84.5 665.7 84.5 665.7 73.94 665.7 63.38 655.14 63.38 655.14 73.94"/>
      <polygon class="cls-3" points="655.14 52.81 655.14 52.81 655.14 63.38 665.7 63.38 665.7 52.81 665.7 52.81 665.7 42.24 655.14 42.24 655.14 52.81"/>
      <rect class="cls-3" x="655.14" y="31.68" width="10.56" height="10.56"/>
      <rect class="cls-3" x="644.57" y="306.31" width="10.58" height="10.56"/>
      <polygon class="cls-1" points="655.14 285.18 655.14 274.62 655.14 264.06 655.14 253.5 655.14 253.5 655.14 242.94 655.14 232.38 655.14 221.81 655.14 211.25 655.14 200.69 655.14 190.12 655.14 190.12 655.14 179.56 644.57 179.56 644.57 190.12 644.57 190.12 644.57 200.69 644.57 211.25 644.57 221.81 644.57 232.38 644.57 242.94 644.57 253.5 644.57 253.5 644.57 264.06 644.57 274.62 644.57 285.18 644.57 295.75 644.57 306.31 655.14 306.31 655.14 295.75 655.14 285.18"/>
      <polygon class="cls-1" points="655.14 168.99 655.14 158.43 655.14 147.87 655.14 137.31 655.14 126.75 655.14 116.19 655.14 116.19 655.14 105.61 644.57 105.61 644.57 116.19 644.57 116.19 644.57 126.75 644.57 137.31 644.57 147.87 644.57 158.43 644.57 168.99 644.57 168.99 644.57 179.56 655.14 179.56 655.14 168.99 655.14 168.99"/>
      <polygon class="cls-1" points="655.14 84.5 644.57 84.5 644.57 95.06 644.57 105.61 655.14 105.61 655.14 95.06 655.14 84.5"/>
      <polygon class="cls-1" points="655.14 63.38 644.57 63.38 644.57 73.94 644.57 84.5 655.14 84.5 655.14 73.94 655.14 63.38"/>
      <polygon class="cls-1" points="655.14 52.81 655.14 42.24 644.57 42.24 644.57 52.81 644.57 52.81 644.57 63.38 655.14 63.38 655.14 52.81 655.14 52.81"/>
      <rect class="cls-1" x="644.57" y="31.68" width="10.58" height="10.56"/>
      <rect class="cls-3" x="644.57" y="21.12" width="10.58" height="10.56"/>
      <rect class="cls-3" x="634" y="306.31" width="10.56" height="10.56"/>
      <polygon class="cls-8" points="634 253.5 634 253.5 634 264.06 634 274.62 634 285.18 634 295.75 634 306.31 644.56 306.31 644.56 295.75 644.56 285.18 644.56 274.62 644.56 264.06 644.56 253.5 644.56 253.5 644.56 242.94 634 242.94 634 253.5"/>
      <polygon class="cls-1" points="634 190.12 634 190.12 634 200.69 634 211.25 634 221.81 623.43 221.81 623.43 232.38 612.87 232.38 612.87 242.94 623.43 242.94 634 242.94 644.56 242.94 644.56 232.38 644.56 221.81 644.56 211.25 644.56 200.69 644.56 190.12 644.56 190.12 644.56 179.56 634 179.56 634 190.12"/>
      <polygon class="cls-1" points="634 116.19 634 116.19 634 126.75 634 137.31 634 147.87 634 158.43 634 168.99 634 168.99 634 179.56 644.56 179.56 644.56 168.99 644.56 168.99 644.56 158.43 644.56 147.87 644.56 137.31 644.56 126.75 644.56 116.19 644.56 116.19 644.56 105.61 634 105.61 634 116.19"/>
      <polygon class="cls-1" points="634 95.06 634 105.61 644.56 105.61 644.56 95.06 644.56 84.5 634 84.5 634 95.06"/>
      <polygon class="cls-1" points="634 73.94 634 84.5 644.56 84.5 644.56 73.94 644.56 63.38 634 63.38 634 73.94"/>
      <polygon class="cls-1" points="634 52.81 634 52.81 634 63.38 644.56 63.38 644.56 52.81 644.56 52.81 644.56 42.24 634 42.24 634 52.81"/>
      <rect class="cls-3" x="634" y="21.12" width="10.56" height="10.56"/>
      <polygon class="cls-3" points="634 285.18 634 274.62 634 264.06 634 253.5 634 253.5 634 242.94 623.43 242.94 612.87 242.94 612.87 253.5 623.43 253.5 623.43 264.06 623.43 274.62 623.43 285.18 623.43 295.75 623.43 306.31 634 306.31 634 295.75 634 285.18"/>
      <polygon class="cls-2" points="634 168.99 634 158.43 634 147.87 634 137.31 634 126.75 634 116.19 634 116.19 634 105.61 623.43 105.61 612.87 105.61 612.87 116.19 612.87 116.19 612.87 126.75 612.87 137.31 612.87 147.87 612.87 158.43 612.87 168.99 612.87 168.99 612.87 179.56 623.43 179.56 634 179.56 634 168.99 634 168.99"/>
      <polygon class="cls-2" points="634 84.5 623.43 84.5 612.87 84.5 612.87 95.06 612.87 105.61 623.43 105.61 634 105.61 634 95.06 634 84.5"/>
      <polygon class="cls-2" points="634 63.38 623.43 63.38 612.87 63.38 612.87 73.94 612.87 84.5 623.43 84.5 634 84.5 634 73.94 634 63.38"/>
      <polygon class="cls-2" points="634 52.81 634 42.24 623.43 42.24 612.87 42.24 612.87 52.81 612.87 52.81 612.87 63.38 623.43 63.38 634 63.38 634 52.81 634 52.81"/>
      <polygon class="cls-1" points="634 21.12 623.43 21.12 612.87 21.12 612.87 31.68 623.43 31.68 623.43 42.24 634 42.24 644.56 42.24 644.56 31.68 634 31.68 634 21.12"/>
      <rect class="cls-3" x="623.43" y="10.56" width="10.57" height="10.56"/>
      <polygon class="cls-2" points="623.43 221.81 634 221.81 634 211.25 634 200.69 634 190.12 634 190.12 634 179.56 623.43 179.56 612.87 179.56 612.87 190.12 612.87 190.12 612.87 200.69 612.87 211.25 612.87 221.81 612.87 232.38 623.43 232.38 623.43 221.81"/>
      <rect class="cls-2" x="612.87" y="31.68" width="10.56" height="10.56"/>
      <rect class="cls-8" x="612.87" y="10.56" width="10.56" height="10.56"/>
      <rect class="cls-3" x="612.87" width="10.56" height="10.56"/>
      <polygon class="cls-2" points="602.29 190.12 602.29 190.12 602.29 200.69 591.73 200.69 591.73 211.25 591.73 221.81 581.16 221.81 581.16 232.38 591.73 232.38 602.29 232.38 612.87 232.38 612.87 221.81 612.87 211.25 612.87 200.69 612.87 190.12 612.87 190.12 612.87 179.56 602.29 179.56 602.29 190.12"/>
      <rect class="cls-2" x="602.29" y="168.99" width="10.57" height="10.58"/>
      <polygon class="cls-2" points="602.29 116.19 602.29 116.19 602.29 126.75 602.29 137.31 612.87 137.31 612.87 126.75 612.87 116.19 612.87 116.19 612.87 105.61 602.29 105.61 602.29 116.19"/>
      <polygon class="cls-2" points="602.29 95.06 602.29 105.61 612.87 105.61 612.87 95.06 612.87 84.5 602.29 84.5 602.29 95.06"/>
      <polygon class="cls-3" points="591.73 242.94 581.16 242.94 570.6 242.94 570.6 242.94 560.04 242.94 549.47 242.94 549.46 242.94 538.91 242.94 538.91 253.5 549.46 253.5 549.47 253.5 560.04 253.5 570.6 253.5 570.6 253.5 581.16 253.5 591.73 253.5 602.29 253.5 612.87 253.5 612.87 242.94 602.29 242.94 591.73 242.94"/>
      <polygon class="cls-1" points="591.73 232.38 581.16 232.38 570.6 232.38 570.6 232.38 560.04 232.38 549.47 232.38 549.46 232.38 538.91 232.38 538.91 242.94 549.46 242.94 549.47 242.94 560.04 242.94 570.6 242.94 570.6 242.94 581.16 242.94 591.73 242.94 602.29 242.94 612.87 242.94 612.87 232.38 602.29 232.38 591.73 232.38"/>
      <polygon class="cls-4" points="602.29 126.75 602.29 116.19 602.29 116.19 602.29 105.61 591.73 105.61 581.16 105.61 570.6 105.61 570.6 105.61 560.04 105.61 549.47 105.61 549.46 105.61 538.91 105.61 538.91 116.19 538.91 116.19 538.91 126.75 549.46 126.75 549.47 126.75 549.47 137.31 549.47 147.87 549.47 158.43 549.47 168.99 549.47 168.99 549.47 179.56 560.04 179.56 570.6 179.56 570.6 179.56 581.16 179.56 591.73 179.56 602.29 179.56 602.29 168.99 612.87 168.99 612.87 168.99 612.87 158.43 612.87 147.87 612.87 137.31 602.29 137.31 602.29 126.75"/>
      <polygon class="cls-4" points="602.29 84.5 591.73 84.5 581.16 84.5 570.6 84.5 570.6 84.5 560.04 84.5 549.47 84.5 549.46 84.5 538.91 84.5 538.91 95.06 538.91 105.61 549.46 105.61 549.47 105.61 560.04 105.61 570.6 105.61 570.6 105.61 581.16 105.61 591.73 105.61 602.29 105.61 602.29 95.06 602.29 84.5"/>
      <polygon class="cls-4" points="591.73 73.94 591.73 63.38 581.16 63.38 570.6 63.38 570.6 63.38 560.04 63.38 549.47 63.38 549.46 63.38 538.91 63.38 538.91 73.94 538.91 84.5 549.46 84.5 549.47 84.5 560.04 84.5 570.6 84.5 570.6 84.5 581.16 84.5 591.73 84.5 602.29 84.5 602.29 73.94 591.73 73.94"/>
      <polygon class="cls-2" points="591.73 63.38 591.73 73.94 602.29 73.94 602.29 84.5 612.87 84.5 612.87 73.94 612.87 63.38 602.29 63.38 591.73 63.38"/>
      <polygon class="cls-2" points="591.73 42.24 581.16 42.24 581.16 52.81 581.16 52.81 591.73 52.81 591.73 63.38 602.29 63.38 612.87 63.38 612.87 52.81 612.87 52.81 612.87 42.24 602.29 42.24 591.73 42.24"/>
      <polygon class="cls-2" points="591.73 31.68 581.16 31.68 581.16 42.24 591.73 42.24 602.29 42.24 612.87 42.24 612.87 31.68 602.29 31.68 591.73 31.68"/>
      <polygon class="cls-1" points="591.73 21.12 581.16 21.12 570.6 21.12 570.6 21.12 560.04 21.12 549.47 21.12 549.46 21.12 538.91 21.12 538.91 31.68 549.46 31.68 549.47 31.68 560.04 31.68 570.6 31.68 570.6 31.68 581.16 31.68 591.73 31.68 602.29 31.68 612.87 31.68 612.87 21.12 602.29 21.12 591.73 21.12"/>
      <polygon class="cls-8" points="591.73 10.56 581.16 10.56 570.6 10.56 570.6 10.56 560.04 10.56 549.47 10.56 549.46 10.56 538.91 10.56 538.91 21.12 549.46 21.12 549.47 21.12 560.04 21.12 570.6 21.12 570.6 21.12 581.16 21.12 591.73 21.12 602.29 21.12 612.87 21.12 612.87 10.56 602.29 10.56 591.73 10.56"/>
      <polygon class="cls-3" points="591.73 0 581.16 0 570.6 0 570.6 0 560.04 0 549.47 0 549.46 0 538.91 0 538.91 10.56 549.46 10.56 549.47 10.56 560.04 10.56 570.6 10.56 570.6 10.56 581.16 10.56 591.73 10.56 602.29 10.56 612.87 10.56 612.87 0 602.29 0 591.73 0"/>
      <polygon class="cls-4" points="581.16 52.81 581.16 52.81 581.16 42.24 570.6 42.24 570.6 42.24 560.04 42.24 549.47 42.24 549.46 42.24 538.91 42.24 538.91 52.81 538.91 52.81 538.91 63.38 549.46 63.38 549.47 63.38 560.04 63.38 570.6 63.38 570.6 63.38 581.16 63.38 591.73 63.38 591.73 52.81 581.16 52.81"/>
      <polygon class="cls-4" points="570.6 31.68 570.6 31.68 560.04 31.68 549.47 31.68 549.46 31.68 538.91 31.68 538.91 42.24 549.46 42.24 549.47 42.24 560.04 42.24 570.6 42.24 570.6 42.24 581.16 42.24 581.16 31.68 570.6 31.68"/>
      <polygon class="cls-4" points="549.47 232.38 560.04 232.38 570.6 232.38 570.6 232.38 581.16 232.38 581.16 221.81 591.73 221.81 591.73 211.25 591.73 200.69 602.29 200.69 602.29 190.12 602.29 190.12 602.29 179.56 591.73 179.56 581.16 179.56 570.6 179.56 570.6 179.56 560.04 179.56 549.47 179.56 549.47 190.12 549.47 190.12 549.47 200.69 549.46 200.69 538.91 200.69 538.91 211.25 538.91 221.81 538.91 232.38 549.46 232.38 549.47 232.38"/>
      <polygon class="cls-7" points="549.47 200.69 549.47 190.12 549.47 190.12 549.47 179.56 549.46 179.56 538.91 179.56 538.91 190.12 538.91 190.12 538.91 200.69 549.46 200.69 549.47 200.69"/>
      <polygon class="cls-7" points="549.47 168.99 549.47 158.43 549.47 147.87 549.47 137.31 549.47 126.75 549.46 126.75 538.91 126.75 538.91 137.31 538.91 147.87 538.91 158.43 538.91 168.99 538.91 168.99 538.91 179.56 549.46 179.56 549.47 179.56 549.47 168.99 549.47 168.99"/>
      <polygon class="cls-4" points="528.33 221.81 517.77 221.81 507.2 221.81 507.2 232.38 517.77 232.38 528.33 232.38 538.9 232.38 538.9 221.81 538.9 211.25 528.33 211.25 528.33 221.81"/>
      <polygon class="cls-4" points="528.33 95.06 528.33 105.61 538.9 105.61 538.9 95.06 538.9 84.5 528.33 84.5 528.33 95.06"/>
      <polygon class="cls-3" points="517.77 242.94 507.2 242.94 496.64 242.94 486.08 242.94 486.08 253.5 496.64 253.5 507.2 253.5 517.77 253.5 528.33 253.5 538.9 253.5 538.9 242.94 528.33 242.94 517.77 242.94"/>
      <polygon class="cls-1" points="517.77 232.38 507.2 232.38 496.64 232.38 486.08 232.38 486.08 242.94 496.64 242.94 507.2 242.94 517.77 242.94 528.33 242.94 538.9 242.94 538.9 232.38 528.33 232.38 517.77 232.38"/>
      <polygon class="cls-7" points="517.77 179.56 507.2 179.56 496.64 179.56 486.08 179.56 486.08 190.12 486.08 190.12 486.08 200.69 486.08 211.25 486.08 221.81 486.08 232.38 496.64 232.38 507.2 232.38 507.2 221.81 517.77 221.81 528.33 221.81 528.33 211.25 538.9 211.25 538.9 200.69 538.9 190.12 538.9 190.12 538.9 179.56 528.33 179.56 517.77 179.56"/>
      <polygon class="cls-7" points="517.77 105.61 507.2 105.61 496.64 105.61 486.08 105.61 486.08 116.19 486.08 116.19 486.08 126.75 486.08 137.31 486.08 147.87 496.64 147.87 496.64 158.43 496.64 168.99 496.64 168.99 496.64 179.56 507.2 179.56 517.77 179.56 528.33 179.56 538.9 179.56 538.9 168.99 538.9 168.99 538.9 158.43 538.9 147.87 538.9 137.31 538.9 126.75 538.9 116.19 538.9 116.19 538.9 105.61 528.33 105.61 517.77 105.61"/>
      <polygon class="cls-7" points="528.33 84.5 517.77 84.5 507.2 84.5 496.64 84.5 486.08 84.5 486.08 95.06 486.08 105.61 496.64 105.61 507.2 105.61 517.77 105.61 528.33 105.61 528.33 95.06 528.33 84.5"/>
      <polygon class="cls-4" points="517.77 63.38 507.2 63.38 507.2 73.94 517.77 73.94 517.77 84.5 528.33 84.5 538.9 84.5 538.9 73.94 538.9 63.38 528.33 63.38 517.77 63.38"/>
      <polygon class="cls-4" points="517.77 42.24 507.2 42.24 496.64 42.24 496.64 52.81 496.64 52.81 507.2 52.81 507.2 63.38 517.77 63.38 528.33 63.38 538.9 63.38 538.9 52.81 538.9 52.81 538.9 42.24 528.33 42.24 517.77 42.24"/>
      <polygon class="cls-4" points="517.77 31.68 507.2 31.68 496.64 31.68 486.08 31.68 486.08 42.24 496.64 42.24 507.2 42.24 517.77 42.24 528.33 42.24 538.9 42.24 538.9 31.68 528.33 31.68 517.77 31.68"/>
      <polygon class="cls-1" points="517.77 21.12 507.2 21.12 496.64 21.12 486.08 21.12 486.08 31.68 496.64 31.68 507.2 31.68 517.77 31.68 528.33 31.68 538.9 31.68 538.9 21.12 528.33 21.12 517.77 21.12"/>
      <polygon class="cls-8" points="517.77 10.56 507.2 10.56 496.64 10.56 486.08 10.56 486.08 21.12 496.64 21.12 507.2 21.12 517.77 21.12 528.33 21.12 538.9 21.12 538.9 10.56 528.33 10.56 517.77 10.56"/>
      <polygon class="cls-3" points="517.77 0 507.2 0 496.64 0 486.08 0 486.08 10.56 496.64 10.56 507.2 10.56 517.77 10.56 528.33 10.56 538.9 10.56 538.9 0 528.33 0 517.77 0"/>
      <polygon class="cls-7" points="507.2 73.94 507.2 63.38 496.64 63.38 486.08 63.38 486.08 73.94 486.08 84.5 496.64 84.5 507.2 84.5 517.77 84.5 517.77 73.94 507.2 73.94"/>
      <polygon class="cls-7" points="496.64 52.81 496.64 52.81 496.64 42.24 486.08 42.24 486.08 52.81 486.08 52.81 486.08 63.38 496.64 63.38 507.2 63.38 507.2 52.81 496.64 52.81"/>
      <polygon class="cls-2" points="496.64 168.99 496.64 158.43 496.64 147.87 486.08 147.87 486.08 158.43 486.08 168.99 486.08 168.99 486.08 179.56 496.64 179.56 496.64 168.99 496.64 168.99"/>
      <polygon class="cls-7" points="475.5 211.25 464.94 211.25 464.94 221.81 464.94 232.38 475.5 232.38 486.07 232.38 486.07 221.81 486.07 211.25 486.07 200.69 475.5 200.69 475.5 211.25"/>
      <polygon class="cls-7" points="475.5 116.19 475.5 116.19 475.5 126.75 486.07 126.75 486.07 116.19 486.07 116.19 486.07 105.61 475.5 105.61 475.5 116.19"/>
      <polygon class="cls-3" points="464.94 242.94 454.36 242.94 443.8 242.94 433.23 242.94 422.67 242.94 412.1 242.94 401.53 242.94 390.97 242.94 380.4 242.94 369.84 242.94 359.27 242.94 348.71 242.94 338.13 242.94 327.57 242.94 317.01 242.94 306.43 242.94 295.88 242.94 285.3 242.94 274.74 242.94 264.17 242.94 253.6 242.94 243.03 242.94 232.47 242.94 232.47 253.5 243.03 253.5 253.6 253.5 264.17 253.5 274.74 253.5 285.3 253.5 295.88 253.5 306.43 253.5 317.01 253.5 327.57 253.5 338.13 253.5 348.71 253.5 359.27 253.5 369.84 253.5 380.4 253.5 390.97 253.5 401.53 253.5 412.1 253.5 422.67 253.5 433.23 253.5 443.8 253.5 454.36 253.5 464.94 253.5 475.5 253.5 486.07 253.5 486.07 242.94 475.5 242.94 464.94 242.94"/>
      <polygon class="cls-1" points="464.94 232.38 454.36 232.38 443.8 232.38 433.23 232.38 422.67 232.38 412.1 232.38 401.53 232.38 390.97 232.38 380.4 232.38 369.84 232.38 359.27 232.38 348.71 232.38 338.13 232.38 327.57 232.38 317.01 232.38 306.43 232.38 295.88 232.38 285.3 232.38 274.74 232.38 264.17 232.38 253.6 232.38 243.03 232.38 232.47 232.38 232.47 242.94 243.03 242.94 253.6 242.94 264.17 242.94 274.74 242.94 285.3 242.94 295.88 242.94 306.43 242.94 317.01 242.94 327.57 242.94 338.13 242.94 348.71 242.94 359.27 242.94 369.84 242.94 380.4 242.94 390.97 242.94 401.53 242.94 412.1 242.94 422.67 242.94 433.23 242.94 443.8 242.94 454.36 242.94 464.94 242.94 475.5 242.94 486.07 242.94 486.07 232.38 475.5 232.38 464.94 232.38"/>
      <polygon class="cls-2" points="464.94 179.56 454.36 179.56 443.8 179.56 433.23 179.56 422.67 179.56 412.1 179.56 401.53 179.56 390.97 179.56 380.4 179.56 369.84 179.56 359.27 179.56 359.27 190.12 359.27 190.12 348.71 190.12 348.71 200.69 338.13 200.69 338.13 211.25 327.57 211.25 327.57 221.81 317.01 221.81 317.01 232.38 327.57 232.38 338.13 232.38 348.71 232.38 359.27 232.38 369.84 232.38 380.4 232.38 390.97 232.38 401.53 232.38 412.1 232.38 422.67 232.38 433.23 232.38 443.8 232.38 454.36 232.38 464.94 232.38 464.94 221.81 464.94 211.25 475.5 211.25 475.5 200.69 486.07 200.69 486.07 190.12 486.07 190.12 486.07 179.56 475.5 179.56 464.94 179.56"/>
      <polygon class="cls-2" points="475.5 116.19 475.5 116.19 475.5 105.61 464.94 105.61 454.36 105.61 443.8 105.61 433.23 105.61 422.67 105.61 412.1 105.61 401.53 105.61 390.97 105.61 380.4 105.61 369.84 105.61 359.27 105.61 348.71 105.61 348.71 116.19 348.71 116.19 359.27 116.19 359.27 126.75 359.27 137.31 359.27 147.87 359.27 158.43 359.27 168.99 359.27 168.99 359.27 179.56 369.84 179.56 380.4 179.56 390.97 179.56 401.53 179.56 412.1 179.56 422.67 179.56 433.23 179.56 443.8 179.56 454.36 179.56 464.94 179.56 475.5 179.56 486.07 179.56 486.07 168.99 486.07 168.99 486.07 158.43 486.07 147.87 486.07 137.31 486.07 126.75 475.5 126.75 475.5 116.19"/>
      <polygon class="cls-7" points="464.94 84.5 464.94 95.06 464.94 105.61 475.5 105.61 486.07 105.61 486.07 95.06 486.07 84.5 475.5 84.5 464.94 84.5"/>
      <polygon class="cls-7" points="464.94 63.38 454.36 63.38 443.8 63.38 443.8 73.94 454.36 73.94 454.36 84.5 464.94 84.5 475.5 84.5 486.07 84.5 486.07 73.94 486.07 63.38 475.5 63.38 464.94 63.38"/>
      <polygon class="cls-7" points="464.94 42.24 454.36 42.24 443.8 42.24 433.23 42.24 422.67 42.24 422.67 52.81 422.67 52.81 433.23 52.81 433.23 63.38 443.8 63.38 454.36 63.38 464.94 63.38 475.5 63.38 486.07 63.38 486.07 52.81 486.07 52.81 486.07 42.24 475.5 42.24 464.94 42.24"/>
      <polygon class="cls-7" points="464.94 31.68 454.36 31.68 443.8 31.68 433.23 31.68 422.67 31.68 412.1 31.68 401.53 31.68 401.53 42.24 412.1 42.24 422.67 42.24 433.23 42.24 443.8 42.24 454.36 42.24 464.94 42.24 475.5 42.24 486.07 42.24 486.07 31.68 475.5 31.68 464.94 31.68"/>
      <polygon class="cls-1" points="464.94 21.12 454.36 21.12 443.8 21.12 433.23 21.12 422.67 21.12 412.1 21.12 401.53 21.12 390.97 21.12 380.4 21.12 369.84 21.12 359.27 21.12 348.71 21.12 338.13 21.12 327.57 21.12 317.01 21.12 306.43 21.12 295.88 21.12 285.3 21.12 274.74 21.12 264.17 21.12 253.6 21.12 243.03 21.12 232.47 21.12 232.47 31.68 243.03 31.68 253.6 31.68 264.17 31.68 274.74 31.68 285.3 31.68 295.88 31.68 306.43 31.68 317.01 31.68 327.57 31.68 338.13 31.68 348.71 31.68 359.27 31.68 369.84 31.68 380.4 31.68 390.97 31.68 401.53 31.68 412.1 31.68 422.67 31.68 433.23 31.68 443.8 31.68 454.36 31.68 464.94 31.68 475.5 31.68 486.07 31.68 486.07 21.12 475.5 21.12 464.94 21.12"/>
      <polygon class="cls-8" points="464.94 10.56 454.36 10.56 443.8 10.56 433.23 10.56 422.67 10.56 412.1 10.56 401.53 10.56 390.97 10.56 380.4 10.56 369.84 10.56 359.27 10.56 348.71 10.56 338.13 10.56 327.57 10.56 317.01 10.56 306.43 10.56 295.88 10.56 285.3 10.56 274.74 10.56 264.17 10.56 253.6 10.56 243.03 10.56 232.47 10.56 232.47 21.12 243.03 21.12 253.6 21.12 264.17 21.12 274.74 21.12 285.3 21.12 295.88 21.12 306.43 21.12 317.01 21.12 327.57 21.12 338.13 21.12 348.71 21.12 359.27 21.12 369.84 21.12 380.4 21.12 390.97 21.12 401.53 21.12 412.1 21.12 422.67 21.12 433.23 21.12 443.8 21.12 454.36 21.12 464.94 21.12 475.5 21.12 486.07 21.12 486.07 10.56 475.5 10.56 464.94 10.56"/>
      <polygon class="cls-3" points="464.94 0 454.36 0 443.8 0 433.23 0 422.67 0 412.1 0 401.53 0 390.97 0 380.4 0 369.84 0 359.27 0 348.71 0 338.13 0 327.57 0 317.01 0 306.43 0 295.88 0 285.3 0 274.74 0 264.17 0 253.6 0 243.03 0 232.47 0 232.47 10.56 243.03 10.56 253.6 10.56 264.17 10.56 274.74 10.56 285.3 10.56 295.88 10.56 306.43 10.56 317.01 10.56 327.57 10.56 338.13 10.56 348.71 10.56 359.27 10.56 369.84 10.56 380.4 10.56 390.97 10.56 401.53 10.56 412.1 10.56 422.67 10.56 433.23 10.56 443.8 10.56 454.36 10.56 464.94 10.56 475.5 10.56 486.07 10.56 486.07 0 475.5 0 464.94 0"/>
      <polygon class="cls-2" points="464.94 84.5 454.36 84.5 443.8 84.5 433.23 84.5 422.67 84.5 412.1 84.5 401.53 84.5 390.97 84.5 380.4 84.5 369.84 84.5 359.27 84.5 348.71 84.5 338.13 84.5 338.13 95.06 338.13 105.61 348.71 105.61 359.27 105.61 369.84 105.61 380.4 105.61 390.97 105.61 401.53 105.61 412.1 105.61 422.67 105.61 433.23 105.61 443.8 105.61 454.36 105.61 464.94 105.61 464.94 95.06 464.94 84.5"/>
      <polygon class="cls-2" points="443.8 73.94 443.8 63.38 433.23 63.38 422.67 63.38 412.1 63.38 401.53 63.38 390.97 63.38 380.4 63.38 369.84 63.38 359.27 63.38 348.71 63.38 338.13 63.38 327.57 63.38 317.01 63.38 317.01 73.94 327.57 73.94 327.57 84.5 338.13 84.5 348.71 84.5 359.27 84.5 369.84 84.5 380.4 84.5 390.97 84.5 401.53 84.5 412.1 84.5 422.67 84.5 433.23 84.5 443.8 84.5 454.36 84.5 454.36 73.94 443.8 73.94"/>
      <polygon class="cls-2" points="422.67 52.81 422.67 52.81 422.67 42.24 412.1 42.24 401.53 42.24 390.97 42.24 380.4 42.24 369.84 42.24 359.27 42.24 348.71 42.24 338.13 42.24 327.57 42.24 317.01 42.24 306.43 42.24 295.88 42.24 295.88 52.81 295.88 52.81 306.43 52.81 306.43 63.38 317.01 63.38 327.57 63.38 338.13 63.38 348.71 63.38 359.27 63.38 369.84 63.38 380.4 63.38 390.97 63.38 401.53 63.38 412.1 63.38 422.67 63.38 433.23 63.38 433.23 52.81 422.67 52.81"/>
      <polygon class="cls-2" points="390.97 31.68 380.4 31.68 369.84 31.68 359.27 31.68 348.71 31.68 338.13 31.68 327.57 31.68 317.01 31.68 306.43 31.68 295.88 31.68 295.88 42.24 306.43 42.24 317.01 42.24 327.57 42.24 338.13 42.24 348.71 42.24 359.27 42.24 369.84 42.24 380.4 42.24 390.97 42.24 401.53 42.24 401.53 31.68 390.97 31.68"/>
      <polygon class="cls-6" points="359.27 168.99 359.27 158.43 359.27 147.87 359.27 137.31 359.27 126.75 359.27 116.19 348.71 116.19 348.71 116.19 348.71 105.61 338.13 105.61 327.57 105.61 317.01 105.61 306.43 105.61 295.88 105.61 285.3 105.61 274.74 105.61 274.74 116.19 274.74 116.19 274.74 126.75 285.3 126.75 285.3 137.31 285.3 147.87 285.3 158.43 285.3 168.99 285.3 168.99 285.3 179.56 295.88 179.56 306.43 179.56 317.01 179.56 327.57 179.56 338.13 179.56 348.71 179.56 359.27 179.56 359.27 168.99 359.27 168.99"/>
      <polygon class="cls-6" points="338.13 84.5 327.57 84.5 317.01 84.5 306.43 84.5 295.88 84.5 285.3 84.5 274.74 84.5 264.17 84.5 264.17 95.06 274.74 95.06 274.74 105.61 285.3 105.61 295.88 105.61 306.43 105.61 317.01 105.61 327.57 105.61 338.13 105.61 338.13 95.06 338.13 84.5"/>
      <polygon class="cls-6" points="317.01 73.94 317.01 63.38 306.43 63.38 295.88 63.38 285.3 63.38 274.74 63.38 264.17 63.38 253.6 63.38 243.03 63.38 243.03 73.94 253.6 73.94 253.6 84.5 264.17 84.5 274.74 84.5 285.3 84.5 295.88 84.5 306.43 84.5 317.01 84.5 327.57 84.5 327.57 73.94 317.01 73.94"/>
      <polygon class="cls-6" points="295.88 52.81 295.88 52.81 295.88 42.24 285.3 42.24 274.74 42.24 264.17 42.24 253.6 42.24 243.03 42.24 232.47 42.24 232.47 52.81 232.47 52.81 232.47 63.38 243.03 63.38 253.6 63.38 264.17 63.38 274.74 63.38 285.3 63.38 295.88 63.38 306.43 63.38 306.43 52.81 295.88 52.81"/>
      <polygon class="cls-6" points="285.3 190.12 285.3 200.69 274.74 200.69 274.74 211.25 264.17 211.25 264.17 221.81 253.6 221.81 253.6 232.38 264.17 232.38 274.74 232.38 285.3 232.38 295.88 232.38 306.43 232.38 317.01 232.38 317.01 221.81 327.57 221.81 327.57 211.25 338.13 211.25 338.13 200.69 348.71 200.69 348.71 190.12 359.27 190.12 359.27 190.12 359.27 179.56 348.71 179.56 338.13 179.56 327.57 179.56 317.01 179.56 306.43 179.56 295.88 179.56 285.3 179.56 285.3 190.12 285.3 190.12"/>
      <polygon class="cls-6" points="285.3 31.68 274.74 31.68 264.17 31.68 253.6 31.68 243.03 31.68 232.47 31.68 232.47 42.24 243.03 42.24 253.6 42.24 264.17 42.24 274.74 42.24 285.3 42.24 295.88 42.24 295.88 31.68 285.3 31.68"/>
      <polygon class="cls-5" points="285.3 168.99 285.3 158.43 285.3 147.87 285.3 137.31 285.3 126.75 274.74 126.75 274.74 116.19 274.74 116.19 274.74 105.61 264.17 105.61 253.6 105.61 243.03 105.61 232.47 105.61 232.47 116.19 232.47 116.19 232.47 126.75 232.47 137.31 232.47 147.87 232.47 158.43 232.47 168.99 232.47 168.99 232.47 179.56 243.03 179.56 253.6 179.56 264.17 179.56 274.74 179.56 285.3 179.56 285.3 168.99 285.3 168.99"/>
      <polygon class="cls-5" points="264.17 95.06 264.17 84.5 253.6 84.5 243.03 84.5 232.47 84.5 232.47 95.06 232.47 105.61 243.03 105.61 253.6 105.61 264.17 105.61 274.74 105.61 274.74 95.06 264.17 95.06"/>
      <polygon class="cls-5" points="253.6 232.38 253.6 221.81 264.17 221.81 264.17 211.25 274.74 211.25 274.74 200.69 285.3 200.69 285.3 190.12 285.3 190.12 285.3 179.56 274.74 179.56 264.17 179.56 253.6 179.56 243.03 179.56 232.47 179.56 232.47 190.12 232.47 190.12 232.47 200.69 232.47 211.25 232.47 221.81 232.47 232.38 243.03 232.38 253.6 232.38"/>
      <polygon class="cls-5" points="243.03 73.94 243.03 63.38 232.47 63.38 232.47 73.94 232.47 84.5 243.03 84.5 253.6 84.5 253.6 73.94 243.03 73.94"/>
      <polygon class="cls-6" points="221.91 52.81 221.91 52.81 232.47 52.81 232.47 52.81 232.47 42.24 221.91 42.24 221.91 52.81"/>
      <polygon class="cls-3" points="211.34 242.94 200.78 242.94 190.2 242.94 179.64 242.94 169.07 242.94 158.51 242.94 147.93 242.94 137.37 242.94 126.81 242.94 116.23 242.94 105.67 242.94 95.1 242.94 95.1 253.5 105.67 253.5 116.23 253.5 126.81 253.5 137.37 253.5 147.93 253.5 158.51 253.5 169.07 253.5 179.64 253.5 190.2 253.5 200.78 253.5 211.34 253.5 221.91 253.5 232.47 253.5 232.47 242.94 221.91 242.94 211.34 242.94"/>
      <polygon class="cls-1" points="211.34 232.38 200.78 232.38 190.2 232.38 179.64 232.38 169.07 232.38 158.51 232.38 147.93 232.38 137.37 232.38 126.81 232.38 116.23 232.38 105.67 232.38 95.1 232.38 95.1 242.94 105.67 242.94 116.23 242.94 126.81 242.94 137.37 242.94 147.93 242.94 158.51 242.94 169.07 242.94 179.64 242.94 190.2 242.94 200.78 242.94 211.34 242.94 221.91 242.94 232.47 242.94 232.47 232.38 221.91 232.38 211.34 232.38"/>
      <polygon class="cls-5" points="211.34 179.56 200.78 179.56 200.78 190.12 200.78 190.12 200.78 200.69 200.78 211.25 190.2 211.25 190.2 221.81 179.64 221.81 179.64 232.38 190.2 232.38 200.78 232.38 211.34 232.38 221.91 232.38 232.47 232.38 232.47 221.81 232.47 211.25 232.47 200.69 232.47 190.12 232.47 190.12 232.47 179.56 221.91 179.56 211.34 179.56"/>
      <polygon class="cls-5" points="211.34 105.61 200.78 105.61 190.2 105.61 179.64 105.61 179.64 116.19 179.64 116.19 179.64 126.75 190.2 126.75 190.2 137.31 190.2 147.87 190.2 158.43 200.78 158.43 200.78 168.99 200.78 168.99 200.78 179.56 211.34 179.56 221.91 179.56 232.47 179.56 232.47 168.99 232.47 168.99 232.47 158.43 232.47 147.87 232.47 137.31 232.47 126.75 232.47 116.19 232.47 116.19 232.47 105.61 221.91 105.61 211.34 105.61"/>
      <polygon class="cls-5" points="211.34 84.5 200.78 84.5 190.2 84.5 179.64 84.5 169.07 84.5 169.07 95.06 169.07 105.61 179.64 105.61 190.2 105.61 200.78 105.61 211.34 105.61 221.91 105.61 232.47 105.61 232.47 95.06 232.47 84.5 221.91 84.5 211.34 84.5"/>
      <polygon class="cls-5" points="211.34 63.38 200.78 63.38 190.2 63.38 179.64 63.38 169.07 63.38 158.51 63.38 158.51 73.94 158.51 84.5 169.07 84.5 179.64 84.5 190.2 84.5 200.78 84.5 211.34 84.5 221.91 84.5 232.47 84.5 232.47 73.94 232.47 63.38 221.91 63.38 211.34 63.38"/>
      <polygon class="cls-5" points="221.91 52.81 221.91 42.24 211.34 42.24 200.78 42.24 190.2 42.24 179.64 42.24 169.07 42.24 158.51 42.24 147.93 42.24 147.93 52.81 147.93 52.81 158.51 52.81 158.51 63.38 169.07 63.38 179.64 63.38 190.2 63.38 200.78 63.38 211.34 63.38 221.91 63.38 232.47 63.38 232.47 52.81 221.91 52.81 221.91 52.81"/>
      <polygon class="cls-6" points="211.34 31.68 211.34 42.24 221.91 42.24 232.47 42.24 232.47 31.68 221.91 31.68 211.34 31.68"/>
      <polygon class="cls-1" points="211.34 21.12 200.78 21.12 190.2 21.12 179.64 21.12 169.07 21.12 158.51 21.12 147.93 21.12 137.37 21.12 126.81 21.12 116.23 21.12 105.67 21.12 95.1 21.12 95.1 31.68 105.67 31.68 116.23 31.68 126.81 31.68 137.37 31.68 147.93 31.68 158.51 31.68 169.07 31.68 179.64 31.68 190.2 31.68 200.78 31.68 211.34 31.68 221.91 31.68 232.47 31.68 232.47 21.12 221.91 21.12 211.34 21.12"/>
      <polygon class="cls-8" points="211.34 10.56 200.78 10.56 190.2 10.56 179.64 10.56 169.07 10.56 158.51 10.56 147.93 10.56 137.37 10.56 126.81 10.56 116.23 10.56 105.67 10.56 95.1 10.56 95.1 21.12 105.67 21.12 116.23 21.12 126.81 21.12 137.37 21.12 147.93 21.12 158.51 21.12 169.07 21.12 179.64 21.12 190.2 21.12 200.78 21.12 211.34 21.12 221.91 21.12 232.47 21.12 232.47 10.56 221.91 10.56 211.34 10.56"/>
      <polygon class="cls-3" points="211.34 0 200.78 0 190.2 0 179.64 0 169.07 0 158.51 0 147.93 0 137.37 0 126.81 0 116.23 0 105.67 0 95.1 0 95.1 10.56 105.67 10.56 116.23 10.56 126.81 10.56 137.37 10.56 147.93 10.56 158.51 10.56 169.07 10.56 179.64 10.56 190.2 10.56 200.78 10.56 211.34 10.56 221.91 10.56 232.47 10.56 232.47 0 221.91 0 211.34 0"/>
      <polygon class="cls-5" points="200.78 31.68 190.2 31.68 179.64 31.68 169.07 31.68 158.51 31.68 147.93 31.68 147.93 42.24 158.51 42.24 169.07 42.24 179.64 42.24 190.2 42.24 200.78 42.24 211.34 42.24 211.34 31.68 200.78 31.68"/>
      <polygon class="cls-6" points="200.78 168.99 200.78 158.43 190.2 158.43 190.2 147.87 190.2 137.31 190.2 126.75 179.64 126.75 179.64 116.19 179.64 116.19 179.64 105.61 169.07 105.61 158.51 105.61 147.93 105.61 137.37 105.61 126.81 105.61 116.23 105.61 105.67 105.61 105.67 116.19 105.67 116.19 105.67 126.75 105.67 137.31 116.23 137.31 116.23 147.87 116.23 158.43 116.23 168.99 116.23 168.99 116.23 179.56 126.81 179.56 137.37 179.56 147.93 179.56 158.51 179.56 169.07 179.56 179.64 179.56 190.2 179.56 200.78 179.56 200.78 168.99 200.78 168.99"/>
      <polygon class="cls-6" points="169.07 84.5 158.51 84.5 147.93 84.5 137.37 84.5 126.81 84.5 116.23 84.5 105.67 84.5 105.67 95.06 105.67 105.61 116.23 105.61 126.81 105.61 137.37 105.61 147.93 105.61 158.51 105.61 169.07 105.61 169.07 95.06 169.07 84.5"/>
      <polygon class="cls-6" points="158.51 63.38 147.93 63.38 137.37 63.38 126.81 63.38 116.23 63.38 105.67 63.38 95.1 63.38 95.1 73.94 95.1 84.5 105.67 84.5 116.23 84.5 126.81 84.5 137.37 84.5 147.93 84.5 158.51 84.5 158.51 73.94 158.51 63.38"/>
      <polygon class="cls-6" points="147.93 52.81 147.93 52.81 147.93 42.24 137.37 42.24 126.81 42.24 116.23 42.24 105.67 42.24 95.1 42.24 95.1 52.81 95.1 52.81 95.1 63.38 105.67 63.38 116.23 63.38 126.81 63.38 137.37 63.38 147.93 63.38 158.51 63.38 158.51 52.81 147.93 52.81"/>
      <polygon class="cls-6" points="137.37 31.68 126.81 31.68 116.23 31.68 105.67 31.68 95.1 31.68 95.1 42.24 105.67 42.24 116.23 42.24 126.81 42.24 137.37 42.24 147.93 42.24 147.93 31.68 137.37 31.68"/>
      <polygon class="cls-6" points="116.23 232.38 126.81 232.38 137.37 232.38 147.93 232.38 158.51 232.38 169.07 232.38 179.64 232.38 179.64 221.81 190.2 221.81 190.2 211.25 200.78 211.25 200.78 200.69 200.78 190.12 200.78 190.12 200.78 179.56 190.2 179.56 179.64 179.56 169.07 179.56 158.51 179.56 147.93 179.56 137.37 179.56 126.81 179.56 116.23 179.56 105.67 179.56 105.67 190.12 105.67 190.12 105.67 200.69 105.67 211.25 105.67 221.81 95.1 221.81 95.1 232.38 105.67 232.38 116.23 232.38"/>
      <polygon class="cls-2" points="116.23 168.99 116.23 158.43 116.23 147.87 116.23 137.31 105.67 137.31 105.67 126.75 105.67 116.19 105.67 116.19 105.67 105.61 95.1 105.61 95.1 116.19 95.1 116.19 95.1 126.75 95.1 137.31 95.1 147.87 95.1 158.43 95.1 168.99 95.1 168.99 95.1 179.56 105.67 179.56 116.23 179.56 116.23 168.99 116.23 168.99"/>
      <polygon class="cls-2" points="105.67 211.25 105.67 200.69 105.67 190.12 105.67 190.12 105.67 179.56 95.1 179.56 95.1 190.12 95.1 190.12 95.1 200.69 95.1 211.25 95.1 221.81 105.67 221.81 105.67 211.25"/>
      <polygon class="cls-2" points="105.67 84.5 95.1 84.5 95.1 95.06 95.1 105.61 105.67 105.61 105.67 95.06 105.67 84.5"/>
      <polygon class="cls-6" points="84.54 52.81 84.54 52.81 84.54 63.38 95.1 63.38 95.1 52.81 95.1 52.81 95.1 42.24 84.54 42.24 84.54 52.81"/>
      <polygon class="cls-3" points="73.96 242.94 63.41 242.94 52.85 242.94 42.27 242.94 31.71 242.94 31.71 253.5 31.71 253.5 31.71 264.06 31.71 274.62 31.71 285.18 31.71 295.75 31.71 306.31 42.27 306.31 42.27 295.75 42.27 285.18 42.27 274.62 42.27 264.06 42.27 253.5 52.85 253.5 63.41 253.5 73.96 253.5 84.54 253.5 95.1 253.5 95.1 242.94 84.54 242.94 73.96 242.94"/>
      <polygon class="cls-1" points="73.96 232.38 63.41 232.38 52.85 232.38 42.27 232.38 42.27 221.81 31.71 221.81 31.71 211.25 31.71 200.69 31.71 190.12 31.71 190.12 31.71 179.56 21.14 179.56 21.14 190.12 21.14 190.12 21.14 200.69 21.14 211.25 21.14 221.81 21.14 232.38 21.14 242.94 21.14 253.5 21.14 253.5 21.14 264.06 21.14 274.62 21.14 285.18 21.14 295.75 21.14 306.31 31.71 306.31 31.71 295.75 31.71 285.18 31.71 274.62 31.71 264.06 31.71 253.5 31.71 253.5 31.71 242.94 42.27 242.94 52.85 242.94 63.41 242.94 73.96 242.94 84.54 242.94 95.1 242.94 95.1 232.38 84.54 232.38 73.96 232.38"/>
      <polygon class="cls-2" points="73.96 179.56 63.41 179.56 52.85 179.56 42.27 179.56 31.71 179.56 31.71 190.12 31.71 190.12 31.71 200.69 31.71 211.25 31.71 221.81 42.27 221.81 42.27 232.38 52.85 232.38 63.41 232.38 73.96 232.38 84.54 232.38 95.1 232.38 95.1 221.81 95.1 211.25 95.1 200.69 95.1 190.12 95.1 190.12 95.1 179.56 84.54 179.56 73.96 179.56"/>
      <polygon class="cls-2" points="73.96 105.61 63.41 105.61 52.85 105.61 42.27 105.61 31.71 105.61 31.71 116.19 31.71 116.19 31.71 126.75 31.71 137.31 31.71 147.87 31.71 158.43 31.71 168.99 31.71 168.99 31.71 179.56 42.27 179.56 52.85 179.56 63.41 179.56 73.96 179.56 84.54 179.56 95.1 179.56 95.1 168.99 95.1 168.99 95.1 158.43 95.1 147.87 95.1 137.31 95.1 126.75 95.1 116.19 95.1 116.19 95.1 105.61 84.54 105.61 73.96 105.61"/>
      <polygon class="cls-2" points="73.96 84.5 63.41 84.5 52.85 84.5 42.27 84.5 31.71 84.5 31.71 95.06 31.71 105.61 42.27 105.61 52.85 105.61 63.41 105.61 73.96 105.61 84.54 105.61 95.1 105.61 95.1 95.06 95.1 84.5 84.54 84.5 73.96 84.5"/>
      <polygon class="cls-2" points="73.96 63.38 63.41 63.38 52.85 63.38 42.27 63.38 31.71 63.38 31.71 73.94 31.71 84.5 42.27 84.5 52.85 84.5 63.41 84.5 73.96 84.5 84.54 84.5 95.1 84.5 95.1 73.94 95.1 63.38 84.54 63.38 73.96 63.38"/>
      <polygon class="cls-2" points="84.54 52.81 84.54 42.24 73.96 42.24 63.41 42.24 52.85 42.24 42.27 42.24 31.71 42.24 31.71 52.81 31.71 52.81 31.71 63.38 42.27 63.38 52.85 63.38 63.41 63.38 73.96 63.38 84.54 63.38 84.54 52.81 84.54 52.81"/>
      <polygon class="cls-6" points="73.96 31.68 73.96 42.24 84.54 42.24 95.1 42.24 95.1 31.68 84.54 31.68 73.96 31.68"/>
      <polygon class="cls-1" points="73.96 21.12 63.41 21.12 52.85 21.12 42.27 21.12 42.27 31.68 52.85 31.68 63.41 31.68 73.96 31.68 84.54 31.68 95.1 31.68 95.1 21.12 84.54 21.12 73.96 21.12"/>
      <polygon class="cls-8" points="73.96 10.56 63.41 10.56 52.85 10.56 42.27 10.56 42.27 21.12 52.85 21.12 63.41 21.12 73.96 21.12 84.54 21.12 95.1 21.12 95.1 10.56 84.54 10.56 73.96 10.56"/>
      <polygon class="cls-3" points="73.96 0 63.41 0 52.85 0 42.27 0 42.27 10.56 52.85 10.56 63.41 10.56 73.96 10.56 84.54 10.56 95.1 10.56 95.1 0 84.54 0 73.96 0"/>
      <polygon class="cls-2" points="63.41 31.68 52.85 31.68 42.27 31.68 42.27 42.24 52.85 42.24 63.41 42.24 73.96 42.24 73.96 31.68 63.41 31.68"/>
      <rect class="cls-1" x="31.71" y="31.68" width="10.56" height="10.56"/>
      <rect class="cls-8" x="31.71" y="21.12" width="10.56" height="10.56"/>
      <rect class="cls-3" x="31.71" y="10.56" width="10.56" height="10.56"/>
      <polygon class="cls-1" points="31.71 168.99 31.71 158.43 31.71 147.87 31.71 137.31 31.71 126.75 31.71 116.19 31.71 116.19 31.71 105.61 21.14 105.61 21.14 116.19 21.14 116.19 21.14 126.75 21.14 137.31 21.14 147.87 21.14 158.43 21.14 168.99 21.14 168.99 21.14 179.56 31.71 179.56 31.71 168.99 31.71 168.99"/>
      <polygon class="cls-1" points="31.71 84.5 21.14 84.5 21.14 95.06 21.14 105.61 31.71 105.61 31.71 95.06 31.71 84.5"/>
      <polygon class="cls-1" points="31.71 63.38 21.14 63.38 21.14 73.94 21.14 84.5 31.71 84.5 31.71 73.94 31.71 63.38"/>
      <polygon class="cls-1" points="31.71 52.81 31.71 42.24 21.14 42.24 21.14 52.81 21.14 52.81 21.14 63.38 31.71 63.38 31.71 52.81 31.71 52.81"/>
      <polygon class="cls-8" points="21.14 31.68 10.58 31.68 10.58 42.24 21.14 42.24 31.71 42.24 31.71 31.68 21.14 31.68"/>
      <polygon class="cls-3" points="31.71 31.68 31.71 21.12 21.14 21.12 10.58 21.12 10.58 31.68 21.14 31.68 31.71 31.68"/>
      <polygon class="cls-3" points="10.58 306.31 10.58 316.88 21.14 316.88 31.71 316.88 31.71 306.31 21.14 306.31 10.58 306.31"/>
      <polygon class="cls-8" points="21.14 295.75 21.14 285.18 21.14 274.62 21.14 264.06 21.14 253.5 21.14 253.5 21.14 242.94 21.14 232.38 21.14 221.81 21.14 211.25 21.14 200.69 21.14 190.12 21.14 190.12 21.14 179.56 10.58 179.56 10.58 190.12 10.58 190.12 10.58 200.69 10.58 211.25 10.58 221.81 10.58 232.38 10.58 242.94 10.58 253.5 10.58 253.5 10.58 264.06 10.58 274.62 10.58 285.18 10.58 295.75 10.58 306.31 21.14 306.31 21.14 295.75"/>
      <polygon class="cls-8" points="21.14 168.99 21.14 158.43 21.14 147.87 21.14 137.31 21.14 126.75 21.14 116.19 21.14 116.19 21.14 105.61 10.58 105.61 10.58 116.19 10.58 116.19 10.58 126.75 10.58 137.31 10.58 147.87 10.58 158.43 10.58 168.99 10.58 168.99 10.58 179.56 21.14 179.56 21.14 168.99 21.14 168.99"/>
      <polygon class="cls-8" points="21.14 84.5 10.58 84.5 10.58 95.06 10.58 105.61 21.14 105.61 21.14 95.06 21.14 84.5"/>
      <polygon class="cls-8" points="21.14 63.38 10.58 63.38 10.58 73.94 10.58 84.5 21.14 84.5 21.14 73.94 21.14 63.38"/>
      <polygon class="cls-8" points="21.14 52.81 21.14 42.24 10.58 42.24 10.58 52.81 10.58 52.81 10.58 63.38 21.14 63.38 21.14 52.81 21.14 52.81"/>
      <polygon class="cls-3" points="10.58 285.18 10.58 274.62 10.58 264.06 10.58 253.5 10.58 253.5 10.58 242.94 10.58 232.38 10.58 221.81 10.58 211.25 10.58 200.69 10.58 190.12 10.58 190.12 10.58 179.56 0 179.56 0 190.12 0 190.12 0 200.69 0 211.25 0 221.81 0 232.38 0 242.94 0 253.5 0 253.5 0 264.06 0 274.62 0 285.18 0 295.75 0 306.31 10.58 306.31 10.58 295.75 10.58 285.18"/>
      <polygon class="cls-3" points="10.58 168.99 10.58 158.43 10.58 147.87 10.58 137.31 10.58 126.75 10.58 116.19 10.58 116.19 10.58 105.61 0 105.61 0 116.19 0 116.19 0 126.75 0 137.31 0 147.87 0 158.43 0 168.99 0 168.99 0 179.56 10.58 179.56 10.58 168.99 10.58 168.99"/>
      <polygon class="cls-3" points="10.58 84.5 0 84.5 0 95.06 0 105.61 10.58 105.61 10.58 95.06 10.58 84.5"/>
      <polygon class="cls-3" points="10.58 63.38 0 63.38 0 73.94 0 84.5 10.58 84.5 10.58 73.94 10.58 63.38"/>
      <polygon class="cls-3" points="10.58 52.81 10.58 42.24 0 42.24 0 52.81 0 52.81 0 63.38 10.58 63.38 10.58 52.81 10.58 52.81"/>
      <rect class="cls-3" y="31.68" width="10.58" height="10.56"/>
    </g>
  </g>
</svg>