<?xml version="1.0" encoding="UTF-8"?>
<svg id="_レイヤー_2" data-name="レイヤー 2" xmlns="http://www.w3.org/2000/svg" xmlns:xlink="http://www.w3.org/1999/xlink" viewBox="0 0 665.7 316.87">
  <defs>
    <style>
      .cls-1 {
        fill: #3b0c79;
      }

      .cls-2 {
        fill: url(#_新規パターンスウォッチ_4);
      }

      .cls-3 {
        fill: #4800ff;
      }

      .cls-4 {
        fill: #abd2ff;
      }

      .cls-5 {
        fill: none;
      }

      .cls-6 {
        fill: red;
      }

      .cls-7 {
        fill: #fff;
        opacity: 0;
      }

      .cls-8 {
        fill: #a400fc;
      }

      .cls-9 {
        fill: #b2ff00;
      }

      .cls-10 {
        fill: #4a1999;
      }
    </style>
    <pattern id="_新規パターンスウォッチ_4" data-name="新規パターンスウォッチ 4" x="0" y="0" width="117.68" height="117.68" patternTransform="translate(579.87 -6739.45)" patternUnits="userSpaceOnUse" viewBox="0 0 117.68 117.68">
      <g>
        <rect class="cls-5" width="117.68" height="117.68"/>
        <rect class="cls-7" width="117.68" height="117.68"/>
      </g>
    </pattern>
  </defs>
  <g id="_レイヤー_1-2" data-name="レイヤー 1">
    <g>
      <polygon class="cls-2" points="634.01 306.31 634.01 316.87 644.57 316.87 655.14 316.87 655.14 306.31 644.57 306.31 634.01 306.31"/>
      <polygon class="cls-2" points="644.57 31.68 655.14 31.68 655.14 21.12 644.57 21.12 634.01 21.12 634.01 31.68 644.57 31.68"/>
      <polygon class="cls-2" points="634.01 285.18 634.01 274.62 634.01 264.06 634.01 253.5 634.01 242.94 623.43 242.94 612.87 242.94 602.3 242.94 591.74 242.94 581.16 242.94 570.6 242.94 560.04 242.94 549.47 242.94 538.91 242.94 528.33 242.94 517.77 242.94 507.2 242.94 496.64 242.94 486.08 242.94 475.5 242.94 464.94 242.94 454.37 242.94 443.81 242.94 433.23 242.94 422.67 242.94 412.1 242.94 401.54 242.94 390.98 242.94 380.4 242.94 369.84 242.94 359.27 242.94 348.71 242.94 338.13 242.94 327.57 242.94 317.01 242.94 306.44 242.94 295.88 242.94 285.3 242.94 274.74 242.94 264.17 242.94 253.61 242.94 243.03 242.94 232.47 242.94 221.91 242.94 211.34 242.94 200.78 242.94 190.2 242.94 179.64 242.94 169.07 242.94 158.51 242.94 147.93 242.94 137.37 242.94 126.81 242.94 116.24 242.94 105.68 242.94 95.1 242.94 84.54 242.94 73.97 242.94 63.41 242.94 52.85 242.94 42.27 242.94 31.71 242.94 31.71 253.5 31.71 264.06 31.71 274.62 31.71 285.18 31.71 295.75 31.71 306.31 42.27 306.31 42.27 295.75 42.27 285.18 42.27 274.62 42.27 264.06 42.27 253.5 52.85 253.5 63.41 253.5 73.97 253.5 84.54 253.5 95.1 253.5 105.68 253.5 116.24 253.5 126.81 253.5 137.37 253.5 147.93 253.5 158.51 253.5 169.07 253.5 179.64 253.5 190.2 253.5 200.78 253.5 211.34 253.5 221.91 253.5 232.47 253.5 243.03 253.5 253.61 253.5 264.17 253.5 274.74 253.5 285.3 253.5 295.88 253.5 306.44 253.5 317.01 253.5 327.57 253.5 338.13 253.5 348.71 253.5 359.27 253.5 369.84 253.5 380.4 253.5 390.98 253.5 401.54 253.5 412.1 253.5 422.67 253.5 433.23 253.5 443.81 253.5 454.37 253.5 464.94 253.5 475.5 253.5 486.08 253.5 496.64 253.5 507.2 253.5 517.77 253.5 528.33 253.5 538.91 253.5 549.47 253.5 560.04 253.5 570.6 253.5 581.16 253.5 591.74 253.5 602.3 253.5 612.87 253.5 623.43 253.5 623.43 264.06 623.43 274.62 623.43 285.18 623.43 295.75 623.43 306.31 634.01 306.31 634.01 295.75 634.01 285.18"/>
      <rect class="cls-2" x="623.43" y="10.56" width="10.58" height="10.56"/>
      <polygon class="cls-2" points="63.41 10.56 73.97 10.56 84.54 10.56 95.1 10.56 105.68 10.56 116.24 10.56 126.81 10.56 137.37 10.56 147.93 10.56 158.51 10.56 169.07 10.56 179.64 10.56 190.2 10.56 200.78 10.56 211.34 10.56 221.91 10.56 232.47 10.56 243.03 10.56 253.61 10.56 264.17 10.56 274.74 10.56 285.3 10.56 295.88 10.56 306.44 10.56 317.01 10.56 327.57 10.56 338.13 10.56 348.71 10.56 359.27 10.56 369.84 10.56 380.4 10.56 390.98 10.56 401.54 10.56 412.1 10.56 422.67 10.56 433.23 10.56 443.81 10.56 454.37 10.56 464.94 10.56 475.5 10.56 486.08 10.56 496.64 10.56 507.2 10.56 517.77 10.56 528.33 10.56 538.91 10.56 549.47 10.56 560.04 10.56 570.6 10.56 581.16 10.56 591.74 10.56 602.3 10.56 612.87 10.56 623.43 10.56 623.43 0 612.87 0 602.3 0 591.74 0 581.16 0 570.6 0 560.04 0 549.47 0 538.91 0 528.33 0 517.77 0 507.2 0 496.64 0 486.08 0 475.5 0 464.94 0 454.37 0 443.81 0 433.23 0 422.67 0 412.1 0 401.54 0 390.98 0 380.4 0 369.84 0 359.27 0 348.71 0 338.13 0 327.57 0 317.01 0 306.44 0 295.88 0 285.3 0 274.74 0 264.17 0 253.61 0 243.03 0 232.47 0 221.91 0 211.34 0 200.78 0 190.2 0 179.64 0 169.07 0 158.51 0 147.93 0 137.37 0 126.81 0 116.24 0 105.68 0 95.1 0 84.54 0 73.97 0 63.41 0 52.85 0 42.27 0 42.27 10.56 52.85 10.56 63.41 10.56"/>
      <rect class="cls-2" x="31.71" y="10.56" width="10.56" height="10.56"/>
      <polygon class="cls-2" points="31.71 31.68 31.71 21.12 21.14 21.12 10.58 21.12 10.58 31.68 21.14 31.68 31.71 31.68"/>
      <polygon class="cls-2" points="10.58 306.31 10.58 316.87 21.14 316.87 31.71 316.87 31.71 306.31 21.14 306.31 10.58 306.31"/>
      <polygon class="cls-2" points="10.58 285.18 10.58 274.62 10.58 264.06 10.58 253.5 10.58 242.94 10.58 232.38 10.58 221.8 10.58 211.24 10.58 200.68 10.58 190.12 10.58 179.56 10.58 168.99 10.58 158.43 10.58 147.87 10.58 137.31 10.58 126.75 10.58 116.19 10.58 105.61 10.58 95.05 10.58 84.49 10.58 73.93 10.58 63.37 10.58 52.81 10.58 42.24 10.58 31.68 0 31.68 0 42.24 0 52.81 0 63.37 0 73.93 0 84.49 0 95.05 0 105.61 0 116.19 0 126.75 0 137.31 0 147.87 0 158.43 0 168.99 0 179.56 0 190.12 0 200.68 0 211.24 0 221.8 0 232.38 0 242.94 0 253.5 0 264.06 0 274.62 0 285.18 0 295.75 0 306.31 10.58 306.31 10.58 295.75 10.58 285.18"/>
      <polygon class="cls-2" points="655.14 31.68 655.14 42.24 655.14 52.81 655.14 63.37 655.14 73.93 655.14 84.49 655.14 95.05 655.14 105.61 655.14 116.19 655.14 126.75 655.14 137.31 655.14 147.87 655.14 158.43 655.14 168.99 655.14 179.56 655.14 190.12 655.14 200.68 655.14 211.24 655.14 221.8 655.14 232.38 655.14 242.94 655.14 253.5 655.14 264.06 655.14 274.62 655.14 285.18 655.14 295.75 655.14 306.31 665.7 306.31 665.7 295.75 665.7 285.18 665.7 274.62 665.7 264.06 665.7 253.5 665.7 242.94 665.7 232.38 665.7 221.8 665.7 211.24 665.7 200.68 665.7 190.12 665.7 179.56 665.7 168.99 665.7 158.43 665.7 147.87 665.7 137.31 665.7 126.75 665.7 116.19 665.7 105.61 665.7 95.05 665.7 84.49 665.7 73.93 665.7 63.37 665.7 52.81 665.7 42.24 665.7 31.68 655.14 31.68"/>
      <polygon class="cls-1" points="655.14 285.18 655.14 274.62 655.14 264.06 655.14 253.5 655.14 242.94 655.14 232.38 655.14 221.8 655.14 211.24 655.14 200.68 655.14 190.12 655.14 179.56 655.14 168.99 655.14 158.43 655.14 147.87 655.14 137.31 655.14 126.75 655.14 116.19 655.14 105.61 655.14 95.05 655.14 84.49 655.14 73.93 655.14 63.37 655.14 52.81 655.14 42.24 655.14 31.68 644.57 31.68 634.01 31.68 634.01 21.12 623.43 21.12 612.87 21.12 602.3 21.12 591.74 21.12 581.16 21.12 570.6 21.12 560.04 21.12 549.47 21.12 538.91 21.12 528.33 21.12 517.77 21.12 507.2 21.12 496.64 21.12 486.08 21.12 475.5 21.12 464.94 21.12 454.37 21.12 443.81 21.12 433.23 21.12 422.67 21.12 412.1 21.12 401.54 21.12 390.98 21.12 380.4 21.12 369.84 21.12 359.27 21.12 348.71 21.12 338.13 21.12 327.57 21.12 317.01 21.12 306.44 21.12 295.88 21.12 285.3 21.12 274.74 21.12 264.17 21.12 253.61 21.12 243.03 21.12 232.47 21.12 221.91 21.12 211.34 21.12 200.78 21.12 190.2 21.12 179.64 21.12 169.07 21.12 158.51 21.12 147.93 21.12 137.37 21.12 126.81 21.12 116.24 21.12 105.68 21.12 95.1 21.12 84.54 21.12 73.97 21.12 63.41 21.12 52.85 21.12 42.27 21.12 42.27 31.68 52.85 31.68 63.41 31.68 73.97 31.68 84.54 31.68 95.1 31.68 105.68 31.68 116.24 31.68 126.81 31.68 137.37 31.68 147.93 31.68 158.51 31.68 169.07 31.68 179.64 31.68 190.2 31.68 200.78 31.68 211.34 31.68 221.91 31.68 232.47 31.68 243.03 31.68 253.61 31.68 264.17 31.68 274.74 31.68 285.3 31.68 295.88 31.68 306.44 31.68 317.01 31.68 327.57 31.68 338.13 31.68 348.71 31.68 359.27 31.68 369.84 31.68 380.4 31.68 390.98 31.68 401.54 31.68 412.1 31.68 422.67 31.68 433.23 31.68 443.81 31.68 454.37 31.68 464.94 31.68 475.5 31.68 486.08 31.68 496.64 31.68 507.2 31.68 517.77 31.68 528.33 31.68 538.91 31.68 549.47 31.68 560.04 31.68 570.6 31.68 581.16 31.68 591.74 31.68 602.3 31.68 612.87 31.68 623.43 31.68 623.43 42.24 634.01 42.24 634.01 52.81 634.01 63.37 634.01 73.93 634.01 84.49 634.01 95.05 634.01 105.61 634.01 116.19 634.01 126.75 634.01 137.31 634.01 147.87 634.01 158.43 634.01 168.99 634.01 179.56 634.01 190.12 634.01 200.68 634.01 211.24 634.01 221.8 623.43 221.8 623.43 232.38 612.87 232.38 602.3 232.38 591.74 232.38 581.16 232.38 570.6 232.38 560.04 232.38 549.47 232.38 538.91 232.38 528.33 232.38 517.77 232.38 507.2 232.38 496.64 232.38 486.08 232.38 475.5 232.38 464.94 232.38 454.37 232.38 443.81 232.38 433.23 232.38 422.67 232.38 412.1 232.38 401.54 232.38 390.98 232.38 380.4 232.38 369.84 232.38 359.27 232.38 348.71 232.38 338.13 232.38 327.57 232.38 317.01 232.38 306.44 232.38 295.88 232.38 285.3 232.38 274.74 232.38 264.17 232.38 253.61 232.38 243.03 232.38 232.47 232.38 221.91 232.38 211.34 232.38 200.78 232.38 190.2 232.38 179.64 232.38 169.07 232.38 158.51 232.38 147.93 232.38 137.37 232.38 126.81 232.38 116.24 232.38 105.68 232.38 95.1 232.38 84.54 232.38 73.97 232.38 63.41 232.38 52.85 232.38 42.27 232.38 42.27 221.8 31.71 221.8 31.71 211.24 31.71 200.68 31.71 190.12 31.71 179.56 31.71 168.99 31.71 158.43 31.71 147.87 31.71 137.31 31.71 126.75 31.71 116.19 31.71 105.61 31.71 95.05 31.71 84.49 31.71 73.93 31.71 63.37 31.71 52.81 31.71 42.24 21.14 42.24 21.14 52.81 21.14 63.37 21.14 73.93 21.14 84.49 21.14 95.05 21.14 105.61 21.14 116.19 21.14 126.75 21.14 137.31 21.14 147.87 21.14 158.43 21.14 168.99 21.14 179.56 21.14 190.12 21.14 200.68 21.14 211.24 21.14 221.8 21.14 232.38 21.14 242.94 21.14 253.5 21.14 264.06 21.14 274.62 21.14 285.18 21.14 295.75 21.14 306.31 31.71 306.31 31.71 295.75 31.71 285.18 31.71 274.62 31.71 264.06 31.71 253.5 31.71 242.94 42.27 242.94 52.85 242.94 63.41 242.94 73.97 242.94 84.54 242.94 95.1 242.94 105.68 242.94 116.24 242.94 126.81 242.94 137.37 242.94 147.93 242.94 158.51 242.94 169.07 242.94 179.64 242.94 190.2 242.94 200.78 242.94 211.34 242.94 221.91 242.94 232.47 242.94 243.03 242.94 253.61 242.94 264.17 242.94 274.74 242.94 285.3 242.94 295.88 242.94 306.44 242.94 317.01 242.94 327.57 242.94 338.13 242.94 348.71 242.94 359.27 242.94 369.84 242.94 380.4 242.94 390.98 242.94 401.54 242.94 412.1 242.94 422.67 242.94 433.23 242.94 443.81 242.94 454.37 242.94 464.94 242.94 475.5 242.94 486.08 242.94 496.64 242.94 507.2 242.94 517.77 242.94 528.33 242.94 538.91 242.94 549.47 242.94 560.04 242.94 570.6 242.94 581.16 242.94 591.74 242.94 602.3 242.94 612.87 242.94 623.43 242.94 634.01 242.94 644.57 242.94 644.57 253.5 644.57 264.06 644.57 274.62 644.57 285.18 644.57 295.75 644.57 306.31 655.14 306.31 655.14 295.75 655.14 285.18"/>
      <polygon class="cls-10" points="644.57 295.75 644.57 285.18 644.57 274.62 644.57 264.06 644.57 253.5 644.57 242.94 634.01 242.94 634.01 253.5 634.01 264.06 634.01 274.62 634.01 285.18 634.01 295.75 634.01 306.31 644.57 306.31 644.57 295.75"/>
      <polygon class="cls-3" points="581.16 52.81 591.74 52.81 591.74 63.37 591.74 73.93 602.3 73.93 602.3 84.49 602.3 95.05 602.3 105.61 602.3 116.19 602.3 126.75 602.3 137.31 612.87 137.31 612.87 147.87 612.87 158.43 612.87 168.99 602.3 168.99 602.3 179.56 602.3 190.12 602.3 200.68 591.74 200.68 591.74 211.24 591.74 221.8 581.16 221.8 581.16 232.38 591.74 232.38 602.3 232.38 612.87 232.38 623.43 232.38 623.43 221.8 634.01 221.8 634.01 211.24 634.01 200.68 634.01 190.12 634.01 179.56 634.01 168.99 634.01 158.43 634.01 147.87 634.01 137.31 634.01 126.75 634.01 116.19 634.01 105.61 634.01 95.05 634.01 84.49 634.01 73.93 634.01 63.37 634.01 52.81 634.01 42.24 623.43 42.24 623.43 31.68 612.87 31.68 602.3 31.68 591.74 31.68 581.16 31.68 581.16 42.24 581.16 52.81"/>
      <polygon class="cls-4" points="496.64 42.24 496.64 52.81 507.2 52.81 507.2 63.37 507.2 73.93 517.77 73.93 517.77 84.49 528.33 84.49 528.33 95.05 528.33 105.61 538.91 105.61 538.91 116.19 538.91 126.75 549.47 126.75 549.47 137.31 549.47 147.87 549.47 158.43 549.47 168.99 549.47 179.56 549.47 190.12 549.47 200.68 538.91 200.68 538.91 211.24 528.33 211.24 528.33 221.8 517.77 221.8 507.2 221.8 507.2 232.38 517.77 232.38 528.33 232.38 538.91 232.38 549.47 232.38 560.04 232.38 570.6 232.38 581.16 232.38 581.16 221.8 591.74 221.8 591.74 211.24 591.74 200.68 602.3 200.68 602.3 190.12 602.3 179.56 602.3 168.99 612.87 168.99 612.87 158.43 612.87 147.87 612.87 137.31 602.3 137.31 602.3 126.75 602.3 116.19 602.3 105.61 602.3 95.05 602.3 84.49 602.3 73.93 591.74 73.93 591.74 63.37 591.74 52.81 581.16 52.81 581.16 42.24 581.16 31.68 570.6 31.68 560.04 31.68 549.47 31.68 538.91 31.68 528.33 31.68 517.77 31.68 507.2 31.68 496.64 31.68 486.08 31.68 486.08 42.24 496.64 42.24"/>
      <polygon class="cls-9" points="412.1 42.24 422.67 42.24 422.67 52.81 433.23 52.81 433.23 63.37 443.81 63.37 443.81 73.93 454.37 73.93 454.37 84.49 464.94 84.49 464.94 95.05 464.94 105.61 475.5 105.61 475.5 116.19 475.5 126.75 486.08 126.75 486.08 137.31 486.08 147.87 496.64 147.87 496.64 158.43 496.64 168.99 496.64 179.56 486.08 179.56 486.08 190.12 486.08 200.68 475.5 200.68 475.5 211.24 464.94 211.24 464.94 221.8 464.94 232.38 475.5 232.38 486.08 232.38 496.64 232.38 507.2 232.38 507.2 221.8 517.77 221.8 528.33 221.8 528.33 211.24 538.91 211.24 538.91 200.68 549.47 200.68 549.47 190.12 549.47 179.56 549.47 168.99 549.47 158.43 549.47 147.87 549.47 137.31 549.47 126.75 538.91 126.75 538.91 116.19 538.91 105.61 528.33 105.61 528.33 95.05 528.33 84.49 517.77 84.49 517.77 73.93 507.2 73.93 507.2 63.37 507.2 52.81 496.64 52.81 496.64 42.24 486.08 42.24 486.08 31.68 475.5 31.68 464.94 31.68 454.37 31.68 443.81 31.68 433.23 31.68 422.67 31.68 412.1 31.68 401.54 31.68 401.54 42.24 412.1 42.24"/>
      <polygon class="cls-3" points="295.88 52.81 306.44 52.81 306.44 63.37 317.01 63.37 317.01 73.93 327.57 73.93 327.57 84.49 338.13 84.49 338.13 95.05 338.13 105.61 348.71 105.61 348.71 116.19 359.27 116.19 359.27 126.75 359.27 137.31 359.27 147.87 359.27 158.43 359.27 168.99 359.27 179.56 359.27 190.12 348.71 190.12 348.71 200.68 338.13 200.68 338.13 211.24 327.57 211.24 327.57 221.8 317.01 221.8 317.01 232.38 327.57 232.38 338.13 232.38 348.71 232.38 359.27 232.38 369.84 232.38 380.4 232.38 390.98 232.38 401.54 232.38 412.1 232.38 422.67 232.38 433.23 232.38 443.81 232.38 454.37 232.38 464.94 232.38 464.94 221.8 464.94 211.24 475.5 211.24 475.5 200.68 486.08 200.68 486.08 190.12 486.08 179.56 496.64 179.56 496.64 168.99 496.64 158.43 496.64 147.87 486.08 147.87 486.08 137.31 486.08 126.75 475.5 126.75 475.5 116.19 475.5 105.61 464.94 105.61 464.94 95.05 464.94 84.49 454.37 84.49 454.37 73.93 443.81 73.93 443.81 63.37 433.23 63.37 433.23 52.81 422.67 52.81 422.67 42.24 412.1 42.24 401.54 42.24 401.54 31.68 390.98 31.68 380.4 31.68 369.84 31.68 359.27 31.68 348.71 31.68 338.13 31.68 327.57 31.68 317.01 31.68 306.44 31.68 295.88 31.68 295.88 42.24 295.88 52.81"/>
      <polygon class="cls-8" points="221.91 42.24 221.91 52.81 232.47 52.81 232.47 63.37 243.03 63.37 243.03 73.93 253.61 73.93 253.61 84.49 264.17 84.49 264.17 95.05 274.74 95.05 274.74 105.61 274.74 116.19 274.74 126.75 285.3 126.75 285.3 137.31 285.3 147.87 285.3 158.43 285.3 168.99 285.3 179.56 285.3 190.12 285.3 200.68 274.74 200.68 274.74 211.24 264.17 211.24 264.17 221.8 253.61 221.8 253.61 232.38 264.17 232.38 274.74 232.38 285.3 232.38 295.88 232.38 306.44 232.38 317.01 232.38 317.01 221.8 327.57 221.8 327.57 211.24 338.13 211.24 338.13 200.68 348.71 200.68 348.71 190.12 359.27 190.12 359.27 179.56 359.27 168.99 359.27 158.43 359.27 147.87 359.27 137.31 359.27 126.75 359.27 116.19 348.71 116.19 348.71 105.61 338.13 105.61 338.13 95.05 338.13 84.49 327.57 84.49 327.57 73.93 317.01 73.93 317.01 63.37 306.44 63.37 306.44 52.81 295.88 52.81 295.88 42.24 295.88 31.68 285.3 31.68 274.74 31.68 264.17 31.68 253.61 31.68 243.03 31.68 232.47 31.68 221.91 31.68 211.34 31.68 211.34 42.24 221.91 42.24"/>
      <polygon class="cls-6" points="147.93 52.81 158.51 52.81 158.51 63.37 158.51 73.93 158.51 84.49 169.07 84.49 169.07 95.05 169.07 105.61 179.64 105.61 179.64 116.19 179.64 126.75 190.2 126.75 190.2 137.31 190.2 147.87 190.2 158.43 200.78 158.43 200.78 168.99 200.78 179.56 200.78 190.12 200.78 200.68 200.78 211.24 190.2 211.24 190.2 221.8 179.64 221.8 179.64 232.38 190.2 232.38 200.78 232.38 211.34 232.38 221.91 232.38 232.47 232.38 243.03 232.38 253.61 232.38 253.61 221.8 264.17 221.8 264.17 211.24 274.74 211.24 274.74 200.68 285.3 200.68 285.3 190.12 285.3 179.56 285.3 168.99 285.3 158.43 285.3 147.87 285.3 137.31 285.3 126.75 274.74 126.75 274.74 116.19 274.74 105.61 274.74 95.05 264.17 95.05 264.17 84.49 253.61 84.49 253.61 73.93 243.03 73.93 243.03 63.37 232.47 63.37 232.47 52.81 221.91 52.81 221.91 42.24 211.34 42.24 211.34 31.68 200.78 31.68 190.2 31.68 179.64 31.68 169.07 31.68 158.51 31.68 147.93 31.68 147.93 42.24 147.93 52.81"/>
      <polygon class="cls-8" points="84.54 42.24 84.54 52.81 84.54 63.37 95.1 63.37 95.1 73.93 95.1 84.49 105.68 84.49 105.68 95.05 105.68 105.61 105.68 116.19 105.68 126.75 105.68 137.31 116.24 137.31 116.24 147.87 116.24 158.43 116.24 168.99 116.24 179.56 105.68 179.56 105.68 190.12 105.68 200.68 105.68 211.24 105.68 221.8 95.1 221.8 95.1 232.38 105.68 232.38 116.24 232.38 126.81 232.38 137.37 232.38 147.93 232.38 158.51 232.38 169.07 232.38 179.64 232.38 179.64 221.8 190.2 221.8 190.2 211.24 200.78 211.24 200.78 200.68 200.78 190.12 200.78 179.56 200.78 168.99 200.78 158.43 190.2 158.43 190.2 147.87 190.2 137.31 190.2 126.75 179.64 126.75 179.64 116.19 179.64 105.61 169.07 105.61 169.07 95.05 169.07 84.49 158.51 84.49 158.51 73.93 158.51 63.37 158.51 52.81 147.93 52.81 147.93 42.24 147.93 31.68 137.37 31.68 126.81 31.68 116.24 31.68 105.68 31.68 95.1 31.68 84.54 31.68 73.97 31.68 73.97 42.24 84.54 42.24"/>
      <polygon class="cls-10" points="52.85 21.12 63.41 21.12 73.97 21.12 84.54 21.12 95.1 21.12 105.68 21.12 116.24 21.12 126.81 21.12 137.37 21.12 147.93 21.12 158.51 21.12 169.07 21.12 179.64 21.12 190.2 21.12 200.78 21.12 211.34 21.12 221.91 21.12 232.47 21.12 243.03 21.12 253.61 21.12 264.17 21.12 274.74 21.12 285.3 21.12 295.88 21.12 306.44 21.12 317.01 21.12 327.57 21.12 338.13 21.12 348.71 21.12 359.27 21.12 369.84 21.12 380.4 21.12 390.98 21.12 401.54 21.12 412.1 21.12 422.67 21.12 433.23 21.12 443.81 21.12 454.37 21.12 464.94 21.12 475.5 21.12 486.08 21.12 496.64 21.12 507.2 21.12 517.77 21.12 528.33 21.12 538.91 21.12 549.47 21.12 560.04 21.12 570.6 21.12 581.16 21.12 591.74 21.12 602.3 21.12 612.87 21.12 623.43 21.12 623.43 10.56 612.87 10.56 602.3 10.56 591.74 10.56 581.16 10.56 570.6 10.56 560.04 10.56 549.47 10.56 538.91 10.56 528.33 10.56 517.77 10.56 507.2 10.56 496.64 10.56 486.08 10.56 475.5 10.56 464.94 10.56 454.37 10.56 443.81 10.56 433.23 10.56 422.67 10.56 412.1 10.56 401.54 10.56 390.98 10.56 380.4 10.56 369.84 10.56 359.27 10.56 348.71 10.56 338.13 10.56 327.57 10.56 317.01 10.56 306.44 10.56 295.88 10.56 285.3 10.56 274.74 10.56 264.17 10.56 253.61 10.56 243.03 10.56 232.47 10.56 221.91 10.56 211.34 10.56 200.78 10.56 190.2 10.56 179.64 10.56 169.07 10.56 158.51 10.56 147.93 10.56 137.37 10.56 126.81 10.56 116.24 10.56 105.68 10.56 95.1 10.56 84.54 10.56 73.97 10.56 63.41 10.56 52.85 10.56 42.27 10.56 42.27 21.12 52.85 21.12"/>
      <polygon class="cls-3" points="31.71 42.24 31.71 52.81 31.71 63.37 31.71 73.93 31.71 84.49 31.71 95.05 31.71 105.61 31.71 116.19 31.71 126.75 31.71 137.31 31.71 147.87 31.71 158.43 31.71 168.99 31.71 179.56 31.71 190.12 31.71 200.68 31.71 211.24 31.71 221.8 42.27 221.8 42.27 232.38 52.85 232.38 63.41 232.38 73.97 232.38 84.54 232.38 95.1 232.38 95.1 221.8 105.68 221.8 105.68 211.24 105.68 200.68 105.68 190.12 105.68 179.56 116.24 179.56 116.24 168.99 116.24 158.43 116.24 147.87 116.24 137.31 105.68 137.31 105.68 126.75 105.68 116.19 105.68 105.61 105.68 95.05 105.68 84.49 95.1 84.49 95.1 73.93 95.1 63.37 84.54 63.37 84.54 52.81 84.54 42.24 73.97 42.24 73.97 31.68 63.41 31.68 52.85 31.68 42.27 31.68 42.27 42.24 31.71 42.24"/>
      <rect class="cls-1" x="31.71" y="31.68" width="10.56" height="10.56"/>
      <rect class="cls-10" x="31.71" y="21.12" width="10.56" height="10.56"/>
      <polygon class="cls-10" points="21.14 295.75 21.14 285.18 21.14 274.62 21.14 264.06 21.14 253.5 21.14 242.94 21.14 232.38 21.14 221.8 21.14 211.24 21.14 200.68 21.14 190.12 21.14 179.56 21.14 168.99 21.14 158.43 21.14 147.87 21.14 137.31 21.14 126.75 21.14 116.19 21.14 105.61 21.14 95.05 21.14 84.49 21.14 73.93 21.14 63.37 21.14 52.81 21.14 42.24 31.71 42.24 31.71 31.68 21.14 31.68 10.58 31.68 10.58 42.24 10.58 52.81 10.58 63.37 10.58 73.93 10.58 84.49 10.58 95.05 10.58 105.61 10.58 116.19 10.58 126.75 10.58 137.31 10.58 147.87 10.58 158.43 10.58 168.99 10.58 179.56 10.58 190.12 10.58 200.68 10.58 211.24 10.58 221.8 10.58 232.38 10.58 242.94 10.58 253.5 10.58 264.06 10.58 274.62 10.58 285.18 10.58 295.75 10.58 306.31 21.14 306.31 21.14 295.75"/>
    </g>
  </g>
</svg>