<?xml version="1.0" encoding="UTF-8"?>
<svg id="_レイヤー_2" data-name="レイヤー 2" xmlns="http://www.w3.org/2000/svg" xmlns:xlink="http://www.w3.org/1999/xlink" viewBox="0 0 306.44 644.33">
  <defs>
    <style>
      .cls-1 {
        fill: #3200cc;
      }

      .cls-2 {
        fill: url(#_新規パターンスウォッチ_4);
      }

      .cls-3 {
        fill: none;
      }

      .cls-4 {
        fill: #fff;
        opacity: 0;
      }

      .cls-5 {
        fill: #a400fc;
      }

      .cls-6 {
        fill: #b2ff00;
      }
    </style>
    <pattern id="_新規パターンスウォッチ_4" data-name="新規パターンスウォッチ 4" x="0" y="0" width="117.68" height="117.68" patternTransform="translate(-1480.6 -6945.41)" patternUnits="userSpaceOnUse" viewBox="0 0 117.68 117.68">
      <g>
        <rect class="cls-3" width="117.68" height="117.68"/>
        <rect class="cls-4" width="117.68" height="117.68"/>
      </g>
    </pattern>
  </defs>
  <g id="_レイヤー_1-2" data-name="レイヤー 1">
    <g>
      <polygon class="cls-2" points="295.88 602.07 295.88 612.63 295.88 623.19 306.44 623.19 306.44 612.63 306.44 602.07 295.88 602.07"/>
      <rect class="cls-2" x="285.3" y="623.19" width="10.58" height="10.56"/>
      <rect class="cls-2" x="285.3" y="591.51" width="10.58" height="10.56"/>
      <rect class="cls-2" x="274.74" y="580.95" width="10.56" height="10.56"/>
      <polygon class="cls-2" points="264.17 633.75 253.61 633.75 243.03 633.75 232.47 633.75 221.9 633.75 211.34 633.75 200.78 633.75 190.2 633.75 179.64 633.75 169.07 633.75 158.51 633.75 147.93 633.75 137.37 633.75 126.81 633.75 116.24 633.75 105.68 633.75 95.1 633.75 84.54 633.75 73.97 633.75 63.41 633.75 52.83 633.75 42.27 633.75 31.71 633.75 21.14 633.75 21.14 644.33 31.71 644.33 42.27 644.33 52.83 644.33 63.41 644.33 73.97 644.33 84.54 644.33 95.1 644.33 105.68 644.33 116.24 644.33 126.81 644.33 137.37 644.33 147.93 644.33 158.51 644.33 169.07 644.33 179.64 644.33 190.2 644.33 200.78 644.33 211.34 644.33 221.9 644.33 232.47 644.33 243.03 644.33 253.61 644.33 264.17 644.33 274.74 644.33 285.3 644.33 285.3 633.75 274.74 633.75 264.17 633.75"/>
      <rect class="cls-2" x="264.17" y="570.38" width="10.57" height="10.57"/>
      <rect class="cls-2" x="253.61" y="559.82" width="10.56" height="10.56"/>
      <rect class="cls-2" x="243.03" y="549.26" width="10.58" height="10.56"/>
      <rect class="cls-2" x="232.47" y="538.7" width="10.56" height="10.56"/>
      <polygon class="cls-2" points="211.34 264.06 211.34 274.62 211.34 285.2 211.34 295.76 211.34 306.32 221.9 306.32 221.9 295.76 221.9 285.2 221.9 274.62 221.9 264.06 221.9 253.5 221.9 242.94 211.34 242.94 211.34 253.5 211.34 264.06"/>
      <polygon class="cls-2" points="200.78 316.88 200.78 327.44 200.78 338 200.78 348.57 200.78 359.13 211.34 359.13 211.34 348.57 211.34 338 211.34 327.44 211.34 316.88 211.34 306.32 200.78 306.32 200.78 316.88"/>
      <polygon class="cls-2" points="200.78 232.38 200.78 242.94 211.34 242.94 211.34 232.38 211.34 221.82 211.34 211.25 200.78 211.25 200.78 221.82 200.78 232.38"/>
      <polygon class="cls-2" points="200.78 169.01 200.78 179.57 200.78 190.13 211.34 190.13 211.34 179.57 211.34 169.01 211.34 158.43 200.78 158.43 200.78 169.01"/>
      <rect class="cls-2" x="200.78" y="84.5" width="10.56" height="10.56"/>
      <polygon class="cls-2" points="200.78 538.7 211.34 538.7 221.9 538.7 232.47 538.7 232.47 528.14 221.9 528.14 211.34 528.14 200.78 528.14 190.2 528.14 190.2 538.7 200.78 538.7"/>
      <polygon class="cls-2" points="190.2 369.69 190.2 380.25 190.2 390.81 190.2 401.39 190.2 411.95 200.78 411.95 200.78 401.39 200.78 390.81 200.78 380.25 200.78 369.69 200.78 359.13 190.2 359.13 190.2 369.69"/>
      <polygon class="cls-2" points="190.2 200.69 190.2 211.25 200.78 211.25 200.78 200.69 200.78 190.13 190.2 190.13 190.2 200.69"/>
      <polygon class="cls-2" points="190.2 73.94 190.2 84.5 200.78 84.5 200.78 73.94 200.78 63.38 200.78 52.82 190.2 52.82 190.2 63.38 190.2 73.94"/>
      <rect class="cls-2" x="179.64" y="517.56" width="10.56" height="10.58"/>
      <polygon class="cls-2" points="179.64 422.51 179.64 433.07 179.64 443.63 179.64 454.19 190.2 454.19 190.2 443.63 190.2 433.07 190.2 422.51 190.2 411.95 179.64 411.95 179.64 422.51"/>
      <polygon class="cls-2" points="179.64 52.82 190.2 52.82 190.2 42.26 190.2 31.68 179.64 31.68 179.64 42.26 179.64 52.82"/>
      <polygon class="cls-2" points="169.07 464.76 169.07 475.32 169.07 485.88 169.07 496.44 169.07 507 169.07 517.56 179.64 517.56 179.64 507 179.64 496.44 179.64 485.88 179.64 475.32 179.64 464.76 179.64 454.19 169.07 454.19 169.07 464.76"/>
      <rect class="cls-2" x="169.07" y="21.12" width="10.57" height="10.56"/>
      <rect class="cls-2" x="158.51" y="10.56" width="10.56" height="10.56"/>
      <polygon class="cls-2" points="147.93 10.56 158.51 10.56 158.51 0 147.93 0 137.37 0 126.81 0 126.81 10.56 137.37 10.56 147.93 10.56"/>
      <polygon class="cls-2" points="126.81 528.14 137.37 528.14 137.37 517.56 137.37 507 137.37 496.44 137.37 485.88 126.81 485.88 126.81 496.44 126.81 507 126.81 517.56 116.24 517.56 105.68 517.56 105.68 528.14 116.24 528.14 126.81 528.14"/>
      <polygon class="cls-2" points="126.81 464.76 126.81 454.19 126.81 443.63 126.81 433.07 116.24 433.07 116.24 443.63 116.24 454.19 116.24 464.76 116.24 475.32 116.24 485.88 126.81 485.88 126.81 475.32 126.81 464.76"/>
      <rect class="cls-2" x="116.24" y="10.56" width="10.57" height="10.56"/>
      <polygon class="cls-2" points="116.24 411.95 116.24 401.39 105.68 401.39 105.68 411.95 105.68 422.51 105.68 433.07 116.24 433.07 116.24 422.51 116.24 411.95"/>
      <polygon class="cls-2" points="116.24 52.82 116.24 42.26 116.24 31.68 116.24 21.12 105.68 21.12 105.68 31.68 105.68 42.26 105.68 52.82 105.68 63.38 116.24 63.38 116.24 52.82"/>
      <polygon class="cls-2" points="105.68 380.25 95.1 380.25 95.1 390.81 95.1 401.39 105.68 401.39 105.68 390.81 105.68 380.25"/>
      <polygon class="cls-2" points="105.68 84.5 105.68 73.94 105.68 63.38 95.1 63.38 95.1 73.94 95.1 84.5 95.1 95.06 105.68 95.06 105.68 84.5"/>
      <polygon class="cls-2" points="95.1 538.7 105.68 538.7 105.68 528.14 95.1 528.14 84.54 528.14 73.97 528.14 73.97 538.7 84.54 538.7 95.1 538.7"/>
      <polygon class="cls-2" points="95.1 359.13 95.1 348.57 95.1 338 84.54 338 84.54 348.57 84.54 359.13 84.54 369.69 84.54 380.25 95.1 380.25 95.1 369.69 95.1 359.13"/>
      <rect class="cls-2" x="84.54" y="95.06" width="10.56" height="10.57"/>
      <polygon class="cls-2" points="84.54 316.88 84.54 306.32 84.54 295.76 84.54 285.2 84.54 274.62 84.54 264.06 84.54 253.5 73.97 253.5 73.97 264.06 73.97 274.62 73.97 285.2 73.97 295.76 73.97 306.32 73.97 316.88 73.97 327.44 73.97 338 84.54 338 84.54 327.44 84.54 316.88"/>
      <polygon class="cls-2" points="84.54 169.01 84.54 158.43 84.54 147.87 84.54 137.31 84.54 126.75 84.54 116.19 84.54 105.63 73.97 105.63 73.97 116.19 73.97 126.75 73.97 137.31 73.97 147.87 73.97 158.43 73.97 169.01 73.97 179.57 84.54 179.57 84.54 169.01"/>
      <rect class="cls-2" x="63.41" y="538.7" width="10.56" height="10.56"/>
      <polygon class="cls-2" points="73.97 232.38 73.97 221.82 73.97 211.25 73.97 200.69 73.97 190.13 73.97 179.57 63.41 179.57 63.41 190.13 63.41 200.69 63.41 211.25 63.41 221.82 63.41 232.38 63.41 242.94 63.41 253.5 73.97 253.5 73.97 242.94 73.97 232.38"/>
      <rect class="cls-2" x="52.83" y="549.26" width="10.58" height="10.56"/>
      <rect class="cls-2" x="42.27" y="559.82" width="10.56" height="10.56"/>
      <rect class="cls-2" x="31.71" y="570.38" width="10.56" height="10.57"/>
      <rect class="cls-2" x="21.14" y="580.95" width="10.57" height="10.56"/>
      <rect class="cls-2" x="10.58" y="623.19" width="10.56" height="10.56"/>
      <rect class="cls-2" x="10.58" y="591.51" width="10.56" height="10.56"/>
      <polygon class="cls-2" points="10.58 602.07 0 602.07 0 612.63 0 623.19 10.58 623.19 10.58 612.63 10.58 602.07"/>
      <polygon class="cls-2" points="211.34 116.19 211.34 126.75 211.34 137.31 211.34 147.87 211.34 158.43 221.9 158.43 221.9 147.87 221.9 137.31 221.9 126.75 221.9 116.19 221.9 105.63 221.9 95.06 211.34 95.06 211.34 105.63 211.34 116.19"/>
      <polygon class="cls-1" points="295.88 602.07 285.3 602.07 285.3 591.51 274.74 591.51 274.74 580.95 264.17 580.95 264.17 570.38 253.61 570.38 253.61 559.82 243.03 559.82 243.03 549.26 232.47 549.26 232.47 538.7 221.9 538.7 211.34 538.7 200.78 538.7 190.2 538.7 190.2 528.14 179.64 528.14 179.64 517.56 169.07 517.56 169.07 507 169.07 496.44 169.07 485.88 169.07 475.32 169.07 464.76 169.07 454.19 179.64 454.19 179.64 443.63 179.64 433.07 179.64 422.51 179.64 411.95 190.2 411.95 190.2 401.39 190.2 390.81 190.2 380.25 190.2 369.69 190.2 359.13 200.78 359.13 200.78 348.57 200.78 338 190.2 338 190.2 327.44 179.64 327.44 179.64 316.88 169.07 316.88 169.07 327.44 169.07 338 158.51 338 158.51 348.57 158.51 359.13 147.93 359.13 147.93 369.69 147.93 380.25 137.37 380.25 137.37 390.81 126.81 390.81 126.81 401.39 126.81 411.95 126.81 422.51 126.81 433.07 137.37 433.07 137.37 443.63 137.37 454.19 137.37 464.76 137.37 475.32 137.37 485.88 147.93 485.88 147.93 496.44 147.93 507 147.93 517.56 147.93 528.14 137.37 528.14 137.37 538.7 126.81 538.7 116.24 538.7 105.68 538.7 105.68 549.26 95.1 549.26 95.1 559.82 84.54 559.82 84.54 570.38 73.97 570.38 73.97 580.95 84.54 580.95 95.1 580.95 105.68 580.95 116.24 580.95 126.81 580.95 137.37 580.95 147.93 580.95 158.51 580.95 169.07 580.95 179.64 580.95 190.2 580.95 200.78 580.95 211.34 580.95 221.9 580.95 232.47 580.95 243.03 580.95 253.61 580.95 253.61 591.51 243.03 591.51 232.47 591.51 221.9 591.51 211.34 591.51 200.78 591.51 190.2 591.51 179.64 591.51 169.07 591.51 158.51 591.51 147.93 591.51 137.37 591.51 126.81 591.51 116.24 591.51 105.68 591.51 95.1 591.51 84.54 591.51 73.97 591.51 63.41 591.51 52.83 591.51 42.27 591.51 31.71 591.51 31.71 602.07 21.14 602.07 21.14 612.63 21.14 623.19 21.14 633.75 31.71 633.75 42.27 633.75 52.83 633.75 63.41 633.75 73.97 633.75 84.54 633.75 95.1 633.75 105.68 633.75 116.24 633.75 126.81 633.75 137.37 633.75 147.93 633.75 158.51 633.75 169.07 633.75 179.64 633.75 190.2 633.75 200.78 633.75 211.34 633.75 221.9 633.75 232.47 633.75 243.03 633.75 253.61 633.75 264.17 633.75 274.74 633.75 285.3 633.75 285.3 623.19 295.88 623.19 295.88 612.63 295.88 602.07"/>
      <polygon class="cls-5" points="200.78 316.88 190.2 316.88 190.2 306.32 179.64 306.32 179.64 295.76 169.07 295.76 169.07 285.2 158.51 285.2 158.51 295.76 158.51 306.32 169.07 306.32 169.07 316.88 179.64 316.88 179.64 327.44 190.2 327.44 190.2 338 200.78 338 200.78 327.44 200.78 316.88"/>
      <polygon class="cls-5" points="169.07 84.5 169.07 73.94 158.51 73.94 147.93 73.94 147.93 84.5 137.37 84.5 126.81 84.5 126.81 95.06 126.81 105.63 137.37 105.63 137.37 95.06 147.93 95.06 158.51 95.06 169.07 95.06 169.07 105.63 179.64 105.63 179.64 116.19 190.2 116.19 200.78 116.19 200.78 105.63 190.2 105.63 190.2 95.06 179.64 95.06 179.64 84.5 169.07 84.5"/>
      <polygon class="cls-1" points="158.51 306.32 158.51 295.76 158.51 285.2 147.93 285.2 147.93 295.76 147.93 306.32 137.37 306.32 137.37 316.88 126.81 316.88 126.81 327.44 126.81 338 116.24 338 116.24 348.57 105.68 348.57 105.68 359.13 105.68 369.69 105.68 380.25 116.24 380.25 126.81 380.25 126.81 369.69 137.37 369.69 137.37 359.13 137.37 348.57 147.93 348.57 147.93 338 147.93 327.44 158.51 327.44 158.51 316.88 169.07 316.88 169.07 306.32 158.51 306.32"/>
      <rect class="cls-6" x="158.51" y="42.26" width="10.56" height="10.56"/>
      <polygon class="cls-5" points="158.51 274.62 158.51 264.06 147.93 264.06 147.93 253.5 147.93 242.94 137.37 242.94 137.37 232.38 137.37 221.82 137.37 211.25 126.81 211.25 126.81 221.82 126.81 232.38 126.81 242.94 126.81 253.5 137.37 253.5 137.37 264.06 137.37 274.62 147.93 274.62 147.93 285.2 158.51 285.2 158.51 274.62"/>
      <path class="cls-1" d="M147.93,21.12h-10.56v10.56h-10.56v42.26h-10.57v31.69h-21.14v52.8h10.58v-21.12h10.56v-10.56h10.57v-10.56h10.56v10.56h-10.56v21.12h-10.57v10.56h-10.56v10.58h-10.58v10.56h-10.56v73.93h10.56v84.5h10.58v-10.56h10.56v-21.12h10.57v-10.56h10.56v-10.56h10.56v-10.58h-10.56v-21.12h-10.56v-42.25h10.56v31.69h10.56v21.12h10.58v21.14h10.56v10.56h10.57v10.56h10.56v10.56h10.58v-10.56h10.56v-63.38h-10.56v-31.69h-10.58v-21.12h10.58v-31.7h10.56v-63.37h-10.56v-10.56h-10.58v-31.68h-10.56v-21.14h-10.57v-10.56h-21.14ZM137.37,42.26h10.56v10.56h-10.56v-10.56ZM190.2,95.06v10.57h10.58v10.56h-21.14v-10.56h-10.57v-10.57h-31.7v10.57h-10.56v-21.13h21.12v-10.56h21.14v10.56h10.57v10.56h10.56ZM169.07,52.82h-10.56v-10.56h10.56v10.56Z"/>
      <polygon class="cls-5" points="137.37 507 137.37 517.56 137.37 528.14 147.93 528.14 147.93 517.56 147.93 507 147.93 496.44 147.93 485.88 137.37 485.88 137.37 496.44 137.37 507"/>
      <rect class="cls-6" x="137.37" y="42.26" width="10.56" height="10.56"/>
      <polygon class="cls-5" points="137.37 475.32 137.37 464.76 137.37 454.19 137.37 443.63 137.37 433.07 126.81 433.07 126.81 443.63 126.81 454.19 126.81 464.76 126.81 475.32 126.81 485.88 137.37 485.88 137.37 475.32"/>
      <rect class="cls-5" x="126.81" y="116.19" width="10.56" height="10.56"/>
      <polygon class="cls-5" points="126.81 422.51 126.81 411.95 126.81 401.39 126.81 390.81 137.37 390.81 137.37 380.25 147.93 380.25 147.93 369.69 147.93 359.13 158.51 359.13 158.51 348.57 158.51 338 169.07 338 169.07 327.44 169.07 316.88 158.51 316.88 158.51 327.44 147.93 327.44 147.93 338 147.93 348.57 137.37 348.57 137.37 359.13 137.37 369.69 126.81 369.69 126.81 380.25 116.24 380.25 105.68 380.25 105.68 390.81 105.68 401.39 116.24 401.39 116.24 411.95 116.24 422.51 116.24 433.07 126.81 433.07 126.81 422.51"/>
      <polygon class="cls-5" points="116.24 538.7 126.81 538.7 137.37 538.7 137.37 528.14 126.81 528.14 116.24 528.14 105.68 528.14 105.68 538.7 116.24 538.7"/>
      <polygon class="cls-5" points="116.24 147.87 126.81 147.87 126.81 137.31 126.81 126.75 116.24 126.75 116.24 137.31 105.68 137.31 105.68 147.87 105.68 158.43 116.24 158.43 116.24 147.87"/>
      <polygon class="cls-5" points="105.68 369.69 105.68 359.13 105.68 348.57 116.24 348.57 116.24 338 126.81 338 126.81 327.44 126.81 316.88 137.37 316.88 137.37 306.32 147.93 306.32 147.93 295.76 147.93 285.2 137.37 285.2 137.37 295.76 126.81 295.76 126.81 306.32 116.24 306.32 116.24 316.88 116.24 327.44 105.68 327.44 105.68 338 95.1 338 95.1 348.57 95.1 359.13 95.1 369.69 95.1 380.25 105.68 380.25 105.68 369.69"/>
      <polygon class="cls-5" points="105.68 105.63 116.24 105.63 116.24 95.06 116.24 84.5 116.24 73.94 126.81 73.94 126.81 63.38 126.81 52.82 126.81 42.26 126.81 31.68 137.37 31.68 137.37 21.12 147.93 21.12 158.51 21.12 158.51 10.56 147.93 10.56 137.37 10.56 126.81 10.56 126.81 21.12 116.24 21.12 116.24 31.68 116.24 42.26 116.24 52.82 116.24 63.38 105.68 63.38 105.68 73.94 105.68 84.5 105.68 95.06 95.1 95.06 95.1 105.63 105.68 105.63"/>
      <polygon class="cls-5" points="95.1 327.44 95.1 316.88 95.1 306.32 95.1 295.76 95.1 285.2 95.1 274.62 95.1 264.06 95.1 253.5 84.54 253.5 84.54 264.06 84.54 274.62 84.54 285.2 84.54 295.76 84.54 306.32 84.54 316.88 84.54 327.44 84.54 338 95.1 338 95.1 327.44"/>
      <polygon class="cls-5" points="84.54 126.75 84.54 137.31 84.54 147.87 84.54 158.43 84.54 169.01 84.54 179.57 95.1 179.57 95.1 169.01 105.68 169.01 105.68 158.43 95.1 158.43 95.1 147.87 95.1 137.31 95.1 126.75 95.1 116.19 95.1 105.63 84.54 105.63 84.54 116.19 84.54 126.75"/>
      <polygon class="cls-5" points="84.54 242.94 84.54 232.38 84.54 221.82 84.54 211.25 84.54 200.69 84.54 190.13 84.54 179.57 73.97 179.57 73.97 190.13 73.97 200.69 73.97 211.25 73.97 221.82 73.97 232.38 73.97 242.94 73.97 253.5 84.54 253.5 84.54 242.94"/>
      <rect class="cls-1" x="63.41" y="559.82" width="10.56" height="10.56"/>
      <polygon class="cls-5" points="73.97 559.82 73.97 570.38 84.54 570.38 84.54 559.82 95.1 559.82 95.1 549.26 105.68 549.26 105.68 538.7 95.1 538.7 84.54 538.7 73.97 538.7 73.97 549.26 63.41 549.26 63.41 559.82 73.97 559.82"/>
      <rect class="cls-1" x="52.83" y="570.38" width="10.58" height="10.57"/>
      <rect class="cls-5" x="52.83" y="559.82" width="10.58" height="10.56"/>
      <polygon class="cls-5" points="42.27 591.51 52.83 591.51 63.41 591.51 73.97 591.51 84.54 591.51 95.1 591.51 105.68 591.51 116.24 591.51 126.81 591.51 137.37 591.51 147.93 591.51 158.51 591.51 169.07 591.51 179.64 591.51 190.2 591.51 200.78 591.51 211.34 591.51 221.9 591.51 232.47 591.51 243.03 591.51 253.61 591.51 253.61 580.95 243.03 580.95 232.47 580.95 221.9 580.95 211.34 580.95 200.78 580.95 190.2 580.95 179.64 580.95 169.07 580.95 158.51 580.95 147.93 580.95 137.37 580.95 126.81 580.95 116.24 580.95 105.68 580.95 95.1 580.95 84.54 580.95 73.97 580.95 73.97 570.38 63.41 570.38 63.41 580.95 52.83 580.95 52.83 570.38 42.27 570.38 42.27 580.95 31.71 580.95 31.71 591.51 42.27 591.51"/>
      <rect class="cls-5" x="21.14" y="591.51" width="10.57" height="10.56"/>
      <polygon class="cls-5" points="21.14 612.63 21.14 602.07 10.58 602.07 10.58 612.63 10.58 623.19 21.14 623.19 21.14 612.63"/>
    </g>
  </g>
</svg>