<?xml version="1.0" encoding="UTF-8"?>
<svg id="_レイヤー_2" data-name="レイヤー 2" xmlns="http://www.w3.org/2000/svg" viewBox="0 0 306.43 644.33">
  <defs>
    <style>
      .cls-1 {
        fill: #3200cc;
      }

      .cls-2 {
        fill: #fff;
      }

      .cls-3 {
        fill: #a400fc;
      }

      .cls-4 {
        fill: #b2ff00;
      }
    </style>
  </defs>
  <g id="_レイヤー_1-2" data-name="レイヤー 1">
    <g>
      <rect class="cls-2" x="295.88" y="612.63" width="10.56" height="10.56"/>
      <rect class="cls-2" x="295.88" y="602.07" width="10.56" height="10.56"/>
      <rect class="cls-2" x="285.3" y="623.19" width="10.57" height="10.56"/>
      <rect class="cls-2" x="285.3" y="591.51" width="10.57" height="10.56"/>
      <polygon class="cls-1" points="274.74 612.63 264.16 612.63 253.6 612.63 243.03 612.63 232.47 612.63 221.9 612.63 211.33 612.63 200.77 612.63 190.2 612.63 179.64 612.63 169.06 612.63 158.5 612.63 147.93 612.63 137.37 612.63 126.81 612.63 116.23 612.63 105.67 612.63 95.1 612.63 84.54 612.63 73.96 612.63 63.4 612.63 52.83 612.63 42.27 612.63 42.27 623.19 42.27 633.75 52.83 633.75 63.4 633.75 73.96 633.75 84.54 633.75 95.1 633.75 105.67 633.75 116.23 633.75 126.81 633.75 137.37 633.75 147.93 633.75 158.5 633.75 169.06 633.75 179.64 633.75 190.2 633.75 200.77 633.75 211.33 633.75 221.9 633.75 232.47 633.75 243.03 633.75 253.6 633.75 264.16 633.75 274.74 633.75 285.3 633.75 285.3 623.19 295.87 623.19 295.87 612.63 285.3 612.63 274.74 612.63"/>
      <polygon class="cls-1" points="285.3 591.51 274.74 591.51 274.74 580.95 264.16 580.95 264.16 570.38 253.6 570.38 243.03 570.38 232.47 570.38 221.9 570.38 211.33 570.38 200.77 570.38 190.2 570.38 179.64 570.38 169.06 570.38 158.5 570.38 147.93 570.38 137.37 570.38 126.81 570.38 116.23 570.38 105.67 570.38 95.1 570.38 84.54 570.38 73.96 570.38 73.96 580.95 84.54 580.95 95.1 580.95 105.67 580.95 116.23 580.95 126.81 580.95 137.37 580.95 147.93 580.95 158.5 580.95 169.06 580.95 179.64 580.95 190.2 580.95 200.77 580.95 211.33 580.95 221.9 580.95 232.47 580.95 243.03 580.95 253.6 580.95 253.6 591.51 243.03 591.51 232.47 591.51 221.9 591.51 211.33 591.51 200.77 591.51 190.2 591.51 179.64 591.51 169.06 591.51 158.5 591.51 147.93 591.51 137.37 591.51 126.81 591.51 116.23 591.51 105.67 591.51 95.1 591.51 84.54 591.51 73.96 591.51 63.4 591.51 52.83 591.51 42.27 591.51 42.27 602.07 42.27 612.63 52.83 612.63 63.4 612.63 73.96 612.63 84.54 612.63 95.1 612.63 105.67 612.63 116.23 612.63 126.81 612.63 137.37 612.63 147.93 612.63 158.5 612.63 169.06 612.63 179.64 612.63 190.2 612.63 200.77 612.63 211.33 612.63 221.9 612.63 232.47 612.63 243.03 612.63 253.6 612.63 264.16 612.63 274.74 612.63 285.3 612.63 295.87 612.63 295.87 602.07 285.3 602.07 285.3 591.51"/>
      <rect class="cls-2" x="274.74" y="580.95" width="10.56" height="10.56"/>
      <polygon class="cls-2" points="264.16 633.75 253.6 633.75 243.03 633.75 232.47 633.75 221.9 633.75 211.33 633.75 200.77 633.75 190.2 633.75 179.64 633.75 169.06 633.75 158.5 633.75 147.93 633.75 137.37 633.75 126.81 633.75 116.23 633.75 105.67 633.75 95.1 633.75 84.54 633.75 73.96 633.75 63.4 633.75 52.83 633.75 42.27 633.75 42.27 644.33 52.83 644.33 63.4 644.33 73.96 644.33 84.54 644.33 95.1 644.33 105.67 644.33 116.23 644.33 126.81 644.33 137.37 644.33 147.93 644.33 158.5 644.33 169.06 644.33 179.64 644.33 190.2 644.33 200.77 644.33 211.33 644.33 221.9 644.33 232.47 644.33 243.03 644.33 253.6 644.33 264.16 644.33 274.74 644.33 285.3 644.33 285.3 633.75 274.74 633.75 264.16 633.75"/>
      <rect class="cls-2" x="264.16" y="570.38" width="10.58" height="10.58"/>
      <rect class="cls-2" x="253.6" y="559.81" width="10.56" height="10.56"/>
      <rect class="cls-2" x="243.03" y="549.26" width="10.58" height="10.56"/>
      <rect class="cls-2" x="232.47" y="538.7" width="10.56" height="10.56"/>
      <polygon class="cls-2" points="211.33 105.63 211.33 116.19 211.33 126.75 211.33 137.31 211.33 147.87 211.33 158.43 221.9 158.43 221.9 147.87 221.9 137.31 221.9 126.75 221.9 116.19 221.9 105.63 221.9 105.63 221.9 95.06 211.33 95.06 211.33 105.63 211.33 105.63"/>
      <polygon class="cls-2" points="200.77 316.88 200.77 327.44 200.77 338 200.77 348.57 200.77 359.13 211.33 359.13 211.33 348.57 211.33 338 211.33 327.44 211.33 316.88 211.33 306.32 200.77 306.32 200.77 316.88"/>
      <polygon class="cls-2" points="200.77 232.38 200.77 242.94 200.77 242.94 211.33 242.94 211.33 253.5 211.33 264.06 211.33 274.62 211.33 285.2 211.33 295.76 211.33 306.31 211.33 306.32 221.9 306.32 221.9 295.76 221.9 285.2 221.9 274.62 221.9 264.06 221.9 253.5 221.9 242.94 211.33 242.94 211.33 232.38 211.33 221.82 211.33 211.25 200.77 211.25 200.77 221.82 200.77 232.38"/>
      <polygon class="cls-2" points="200.77 179.57 200.77 190.12 211.33 190.12 211.33 179.57 211.33 179.56 211.33 169.01 200.77 169.01 200.77 179.56 200.77 179.57"/>
      <rect class="cls-2" x="200.77" y="158.43" width="10.56" height="10.57"/>
      <rect class="cls-2" x="200.77" y="84.5" width="10.56" height="10.56"/>
      <polygon class="cls-2" points="200.77 538.7 211.33 538.7 221.9 538.7 232.47 538.7 232.47 528.14 221.9 528.14 211.33 528.14 200.77 528.14 190.2 528.14 190.2 538.7 200.77 538.7"/>
      <polygon class="cls-2" points="190.2 369.69 190.2 369.69 190.2 380.25 190.2 390.81 190.2 401.39 190.2 411.95 200.77 411.95 200.77 401.39 200.77 390.81 200.77 380.25 200.77 369.69 200.77 369.69 200.77 359.13 190.2 359.13 190.2 369.69"/>
      <polygon class="cls-1" points="200.77 338 190.2 338 190.2 327.44 179.64 327.44 179.64 316.88 169.06 316.88 169.06 327.44 169.06 338 158.5 338 158.5 348.57 158.5 359.13 147.93 359.13 147.93 369.69 147.93 369.69 147.93 380.25 137.37 380.25 137.37 390.81 126.81 390.81 126.81 401.39 126.81 411.95 126.81 422.51 126.81 433.06 126.81 433.07 137.37 433.07 137.37 443.62 137.37 454.19 137.37 464.76 137.37 475.32 137.37 485.88 147.93 485.88 147.93 496.44 147.93 507 158.5 507 169.06 507 169.06 496.44 169.06 485.88 169.06 475.32 169.06 464.76 169.06 454.19 179.64 454.19 179.64 443.62 179.64 433.07 179.64 433.06 179.64 422.51 179.64 411.95 190.2 411.95 190.2 401.39 190.2 390.81 190.2 380.25 190.2 369.69 190.2 369.69 190.2 359.13 200.77 359.13 200.77 348.57 200.77 338"/>
      <polygon class="cls-2" points="190.2 200.69 190.2 211.25 200.77 211.25 200.77 200.69 200.77 190.12 190.2 190.12 190.2 200.69"/>
      <rect class="cls-2" x="190.2" y="73.94" width="10.57" height="10.56"/>
      <polygon class="cls-2" points="190.2 73.94 200.77 73.94 200.77 63.38 200.77 52.82 190.2 52.82 190.2 63.38 190.2 73.94"/>
      <rect class="cls-2" x="179.64" y="517.56" width="10.56" height="10.58"/>
      <polygon class="cls-2" points="179.64 422.51 179.64 433.06 179.64 433.07 179.64 443.62 179.64 454.19 190.2 454.19 190.2 443.62 190.2 433.07 190.2 433.06 190.2 422.51 190.2 411.95 179.64 411.95 179.64 422.51"/>
      <polygon class="cls-2" points="179.64 42.26 179.64 52.81 190.2 52.81 190.2 42.26 190.2 42.25 190.2 31.68 179.64 31.68 179.64 42.25 179.64 42.26"/>
      <rect class="cls-2" x="169.06" y="507" width="10.57" height="10.56"/>
      <polygon class="cls-2" points="169.06 464.76 169.06 475.32 169.06 485.88 169.06 496.44 169.06 507 179.64 507 179.64 496.44 179.64 485.88 179.64 475.32 179.64 464.76 179.64 454.19 169.06 454.19 169.06 464.76"/>
      <rect class="cls-2" x="169.06" y="21.12" width="10.57" height="10.56"/>
      <polygon class="cls-3" points="158.5 306.31 158.5 306.32 169.06 306.32 169.06 316.88 179.64 316.88 179.64 327.44 190.2 327.44 190.2 338 200.77 338 200.77 327.44 200.77 316.88 190.2 316.88 190.2 306.32 179.64 306.32 179.64 306.31 179.64 295.76 169.06 295.76 169.06 285.2 158.5 285.2 158.5 295.76 158.5 306.31"/>
      <rect class="cls-4" x="158.5" y="42.26" width="10.56" height="10.56"/>
      <rect class="cls-2" x="158.5" y="10.56" width="10.56" height="10.56"/>
      <polygon class="cls-1" points="147.93 528.14 137.37 528.14 137.37 538.7 126.81 538.7 116.23 538.7 105.67 538.7 105.67 549.25 116.23 549.25 126.81 549.25 137.37 549.25 147.93 549.25 158.5 549.25 169.06 549.25 179.64 549.25 190.2 549.25 200.77 549.25 211.33 549.25 221.9 549.25 232.47 549.25 232.47 538.7 221.9 538.7 211.33 538.7 200.77 538.7 190.2 538.7 190.2 528.14 179.64 528.14 179.64 517.56 169.06 517.56 169.06 507 158.5 507 147.93 507 147.93 517.56 147.93 528.14"/>
      <polygon class="cls-1" points="147.93 306.31 147.93 306.32 137.37 306.32 137.37 316.88 126.81 316.88 126.81 327.44 126.81 338 116.23 338 116.23 348.57 105.67 348.57 105.67 359.13 105.67 369.69 105.67 369.69 105.67 380.25 116.23 380.25 126.81 380.25 126.81 369.69 137.37 369.69 137.37 369.69 137.37 359.13 137.37 348.57 147.93 348.57 147.93 338 147.93 327.44 158.5 327.44 158.5 316.88 169.06 316.88 169.06 306.32 158.5 306.32 158.5 306.31 158.5 295.76 158.5 285.2 147.93 285.2 147.93 295.76 147.93 306.31"/>
      <polygon class="cls-3" points="158.5 274.62 158.5 264.06 147.93 264.06 147.93 253.5 147.93 242.94 137.37 242.94 137.37 242.94 137.37 232.38 137.37 221.82 137.37 211.25 126.81 211.25 126.81 221.82 126.81 232.38 126.81 242.94 126.81 242.94 126.81 253.5 137.37 253.5 137.37 264.06 137.37 274.62 147.93 274.62 147.93 285.2 158.5 285.2 158.5 274.62"/>
      <polygon class="cls-1" points="147.93 21.12 137.37 21.12 137.37 31.68 126.81 31.68 126.81 42.25 126.81 42.26 126.81 52.81 137.37 52.81 137.37 42.26 147.93 42.26 147.93 52.81 158.5 52.81 158.5 42.26 169.06 42.26 169.06 52.81 179.64 52.81 179.64 42.26 179.64 42.25 179.64 31.68 169.06 31.68 169.06 21.12 158.5 21.12 147.93 21.12"/>
      <polygon class="cls-3" points="137.37 528.14 147.93 528.14 147.93 517.56 147.93 507 137.37 507 137.37 517.56 137.37 528.14"/>
      <polygon class="cls-3" points="147.93 485.88 137.37 485.88 137.37 496.44 137.37 507 147.93 507 147.93 496.44 147.93 485.88"/>
      <polygon class="cls-3" points="137.37 84.5 126.81 84.5 126.81 95.06 126.81 105.63 126.81 105.63 137.37 105.63 137.37 105.63 137.37 95.06 147.93 95.06 158.5 95.06 169.06 95.06 169.06 105.63 169.06 105.63 179.64 105.63 179.64 116.19 190.2 116.19 200.77 116.19 200.77 105.63 190.2 105.63 190.2 105.63 190.2 95.06 179.64 95.06 179.64 84.5 169.06 84.5 169.06 73.94 158.5 73.94 147.93 73.94 147.93 84.5 137.37 84.5"/>
      <rect class="cls-4" x="137.37" y="42.26" width="10.56" height="10.56"/>
      <polygon class="cls-2" points="147.93 10.56 158.5 10.56 158.5 0 147.93 0 137.37 0 126.81 0 126.81 10.56 137.37 10.56 147.93 10.56"/>
      <polygon class="cls-2" points="137.37 485.88 126.81 485.88 126.81 496.44 126.81 507 137.37 507 137.37 496.44 137.37 485.88"/>
      <polygon class="cls-3" points="137.37 475.32 137.37 464.76 137.37 454.19 137.37 443.62 137.37 433.07 126.81 433.07 126.81 443.62 126.81 454.19 126.81 464.76 126.81 475.32 126.81 485.88 137.37 485.88 137.37 475.32"/>
      <rect class="cls-3" x="126.81" y="116.19" width="10.56" height="10.56"/>
      <polygon class="cls-1" points="126.81 73.94 137.37 73.94 147.93 73.94 158.5 73.94 169.06 73.94 179.64 73.94 190.2 73.94 190.2 63.38 190.2 52.82 179.64 52.82 169.06 52.82 158.5 52.82 147.93 52.82 137.37 52.82 126.81 52.82 126.81 63.38 126.81 73.94"/>
      <polygon class="cls-2" points="126.81 528.14 137.37 528.14 137.37 517.56 137.37 507 126.81 507 126.81 517.56 116.23 517.56 105.67 517.56 105.67 528.14 116.23 528.14 126.81 528.14"/>
      <polygon class="cls-2" points="126.81 464.76 126.81 454.19 126.81 443.62 126.81 433.07 116.23 433.07 116.23 443.62 116.23 454.19 116.23 464.76 116.23 475.32 116.23 485.88 126.81 485.88 126.81 475.32 126.81 464.76"/>
      <polygon class="cls-3" points="126.81 433.06 126.81 422.51 126.81 411.95 126.81 401.39 126.81 390.81 137.37 390.81 137.37 380.25 147.93 380.25 147.93 369.69 147.93 369.69 147.93 359.13 158.5 359.13 158.5 348.57 158.5 338 169.06 338 169.06 327.44 169.06 316.88 158.5 316.88 158.5 327.44 147.93 327.44 147.93 338 147.93 348.57 137.37 348.57 137.37 359.13 137.37 369.69 137.37 369.69 126.81 369.69 126.81 380.25 116.23 380.25 105.67 380.25 105.67 390.81 105.67 401.39 116.23 401.39 116.23 411.95 116.23 422.51 116.23 433.06 116.23 433.07 126.81 433.07 126.81 433.06"/>
      <polygon class="cls-1" points="116.23 95.06 116.23 105.63 116.23 105.63 105.67 105.63 95.1 105.63 95.1 116.19 95.1 126.75 95.1 137.31 95.1 147.87 95.1 158.43 105.67 158.43 105.67 147.87 105.67 137.31 116.23 137.31 116.23 126.75 126.81 126.75 126.81 116.19 137.37 116.19 137.37 126.75 126.81 126.75 126.81 137.31 126.81 147.87 116.23 147.87 116.23 158.43 105.67 158.43 105.67 169 116.23 169 126.81 169 137.37 169 147.93 169 158.5 169 169.06 169 179.64 169 190.2 169 200.77 169 200.77 158.43 211.33 158.43 211.33 147.87 211.33 137.31 211.33 126.75 211.33 116.19 211.33 105.63 211.33 105.63 211.33 95.06 200.77 95.06 200.77 84.5 190.2 84.5 190.2 73.94 179.64 73.94 169.06 73.94 169.06 84.5 179.64 84.5 179.64 95.06 190.2 95.06 190.2 105.63 190.2 105.63 200.77 105.63 200.77 116.19 190.2 116.19 179.64 116.19 179.64 105.63 169.06 105.63 169.06 105.63 169.06 95.06 158.5 95.06 147.93 95.06 137.37 95.06 137.37 105.63 137.37 105.63 126.81 105.63 126.81 105.63 126.81 95.06 126.81 84.5 137.37 84.5 147.93 84.5 147.93 73.94 137.37 73.94 126.81 73.94 116.23 73.94 116.23 84.5 116.23 95.06"/>
      <polygon class="cls-3" points="116.23 42.25 116.23 42.26 116.23 52.81 126.81 52.81 126.81 42.26 126.81 42.25 126.81 31.68 137.37 31.68 137.37 21.12 147.93 21.12 158.5 21.12 158.5 10.56 147.93 10.56 137.37 10.56 126.81 10.56 126.81 21.12 116.23 21.12 116.23 31.68 116.23 42.25"/>
      <rect class="cls-2" x="116.23" y="10.56" width="10.58" height="10.56"/>
      <polygon class="cls-3" points="116.23 538.7 126.81 538.7 137.37 538.7 137.37 528.14 126.81 528.14 116.23 528.14 105.67 528.14 105.67 538.7 116.23 538.7"/>
      <polygon class="cls-2" points="116.23 422.51 116.23 411.95 116.23 401.39 105.67 401.39 105.67 411.95 105.67 422.51 105.67 433.07 116.23 433.07 116.23 433.06 116.23 422.51"/>
      <polygon class="cls-3" points="116.23 147.87 126.81 147.87 126.81 137.31 126.81 126.75 116.23 126.75 116.23 137.31 105.67 137.31 105.67 147.87 105.67 158.43 116.23 158.43 116.23 147.87"/>
      <polygon class="cls-3" points="116.23 73.94 126.81 73.94 126.81 63.38 126.81 52.82 116.23 52.82 116.23 63.38 105.67 63.38 105.67 73.94 116.23 73.94"/>
      <rect class="cls-2" x="105.67" y="52.82" width="10.56" height="10.56"/>
      <polygon class="cls-2" points="116.23 42.26 116.23 42.25 116.23 31.68 116.23 21.12 105.67 21.12 105.67 31.68 105.67 42.25 105.67 42.26 105.67 52.81 116.23 52.81 116.23 42.26"/>
      <polygon class="cls-2" points="105.67 380.25 95.1 380.25 95.1 390.81 95.1 401.39 105.67 401.39 105.67 390.81 105.67 380.25"/>
      <polygon class="cls-3" points="105.67 369.69 105.67 369.69 105.67 359.13 105.67 348.57 116.23 348.57 116.23 338 126.81 338 126.81 327.44 126.81 316.88 137.37 316.88 137.37 306.32 147.93 306.32 147.93 306.31 147.93 295.76 147.93 285.2 137.37 285.2 137.37 295.76 126.81 295.76 126.81 306.31 126.81 306.32 116.23 306.32 116.23 316.88 116.23 327.44 105.67 327.44 105.67 338 95.1 338 95.1 348.57 95.1 359.13 95.1 369.69 95.1 369.69 95.1 380.25 105.67 380.25 105.67 369.69"/>
      <polygon class="cls-1" points="95.1 179.57 84.54 179.57 84.54 190.12 84.54 200.69 84.54 211.25 84.54 221.82 84.54 232.38 84.54 242.94 84.54 242.94 84.54 253.5 95.1 253.5 95.1 264.06 95.1 274.62 95.1 285.2 95.1 295.76 95.1 306.31 95.1 306.32 95.1 316.88 95.1 327.44 95.1 338 105.67 338 105.67 327.44 116.23 327.44 116.23 316.88 116.23 306.32 126.81 306.32 126.81 306.31 126.81 295.76 137.37 295.76 137.37 285.2 147.93 285.2 147.93 274.62 137.37 274.62 137.37 264.06 137.37 253.5 126.81 253.5 126.81 242.94 126.81 242.94 126.81 232.38 126.81 221.82 126.81 211.25 137.37 211.25 137.37 221.82 137.37 232.38 137.37 242.94 137.37 242.94 147.93 242.94 147.93 253.5 147.93 264.06 158.5 264.06 158.5 274.62 158.5 285.2 169.06 285.2 169.06 295.76 179.64 295.76 179.64 306.31 179.64 306.32 190.2 306.32 190.2 316.88 200.77 316.88 200.77 306.32 211.33 306.32 211.33 306.31 211.33 295.76 211.33 285.2 211.33 274.62 211.33 264.06 211.33 253.5 211.33 242.94 200.77 242.94 200.77 242.94 200.77 232.38 200.77 221.82 200.77 211.25 190.2 211.25 190.2 200.69 190.2 190.12 200.77 190.12 200.77 179.57 200.77 179.56 200.77 169.01 190.2 169.01 179.64 169.01 169.06 169.01 158.5 169.01 147.93 169.01 137.37 169.01 126.81 169.01 116.23 169.01 105.67 169.01 95.1 169.01 95.1 179.56 95.1 179.57"/>
      <polygon class="cls-3" points="95.1 158.43 95.1 147.87 95.1 137.31 95.1 126.75 95.1 116.19 95.1 105.63 84.54 105.63 84.54 116.19 84.54 126.75 84.54 137.31 84.54 147.87 84.54 158.43 84.54 169 95.1 169 105.67 169 105.67 158.43 95.1 158.43"/>
      <polygon class="cls-3" points="95.1 105.63 105.67 105.63 116.23 105.63 116.23 105.63 116.23 95.06 116.23 84.5 116.23 73.94 105.67 73.94 105.67 84.5 105.67 95.06 95.1 95.06 95.1 105.63 95.1 105.63"/>
      <polygon class="cls-2" points="105.67 84.5 105.67 73.94 95.1 73.94 95.1 84.5 95.1 95.06 105.67 95.06 105.67 84.5"/>
      <rect class="cls-2" x="95.1" y="63.38" width="10.58" height="10.56"/>
      <polygon class="cls-1" points="84.54 559.81 84.54 570.38 95.1 570.38 105.67 570.38 116.23 570.38 126.81 570.38 137.37 570.38 147.93 570.38 158.5 570.38 169.06 570.38 179.64 570.38 190.2 570.38 200.77 570.38 211.33 570.38 221.9 570.38 232.47 570.38 243.03 570.38 253.6 570.38 253.6 559.81 243.03 559.81 243.03 549.26 232.47 549.26 221.9 549.26 211.33 549.26 200.77 549.26 190.2 549.26 179.64 549.26 169.06 549.26 158.5 549.26 147.93 549.26 137.37 549.26 126.81 549.26 116.23 549.26 105.67 549.26 95.1 549.26 95.1 559.81 84.54 559.81"/>
      <polygon class="cls-2" points="95.1 538.7 105.67 538.7 105.67 528.14 95.1 528.14 84.54 528.14 73.96 528.14 73.96 538.7 84.54 538.7 95.1 538.7"/>
      <polygon class="cls-2" points="95.1 369.69 95.1 359.13 95.1 348.57 95.1 338 84.54 338 84.54 348.57 84.54 359.13 84.54 369.69 84.54 369.69 84.54 380.25 95.1 380.25 95.1 369.69 95.1 369.69"/>
      <polygon class="cls-3" points="95.1 327.44 95.1 316.88 95.1 306.32 95.1 306.31 95.1 295.76 95.1 285.2 95.1 274.62 95.1 264.06 95.1 253.5 84.54 253.5 84.54 264.06 84.54 274.62 84.54 285.2 84.54 295.76 84.54 306.31 84.54 306.32 84.54 316.88 84.54 327.44 84.54 338 95.1 338 95.1 327.44"/>
      <polygon class="cls-3" points="84.54 179.57 95.1 179.57 95.1 179.56 95.1 169.01 84.54 169.01 84.54 179.56 84.54 179.57"/>
      <polygon class="cls-3" points="84.54 549.25 95.1 549.25 105.67 549.25 105.67 538.7 95.1 538.7 84.54 538.7 73.96 538.7 73.96 549.25 84.54 549.25"/>
      <polygon class="cls-2" points="84.54 316.88 84.54 306.32 84.54 306.31 84.54 295.76 84.54 285.2 84.54 274.62 84.54 264.06 84.54 253.5 73.96 253.5 73.96 264.06 73.96 274.62 73.96 285.2 73.96 295.76 73.96 306.31 73.96 306.32 73.96 316.88 73.96 327.44 73.96 338 84.54 338 84.54 327.44 84.54 316.88"/>
      <polygon class="cls-3" points="84.54 242.94 84.54 242.94 84.54 232.38 84.54 221.82 84.54 211.25 84.54 200.69 84.54 190.12 84.54 179.57 73.96 179.57 73.96 190.12 73.96 200.69 73.96 211.25 73.96 221.82 73.96 232.38 73.96 242.94 73.96 242.94 73.96 253.5 84.54 253.5 84.54 242.94"/>
      <polygon class="cls-2" points="84.54 158.43 84.54 147.87 84.54 137.31 84.54 126.75 84.54 116.19 84.54 105.63 95.1 105.63 95.1 105.63 95.1 95.06 84.54 95.06 84.54 105.63 73.96 105.63 73.96 116.19 73.96 126.75 73.96 137.31 73.96 147.87 73.96 158.43 73.96 169 84.54 169 84.54 158.43"/>
      <rect class="cls-1" x="63.4" y="559.81" width="10.56" height="10.56"/>
      <polygon class="cls-3" points="73.96 559.81 73.96 570.38 84.54 570.38 84.54 559.81 95.1 559.81 95.1 549.26 84.54 549.26 73.96 549.26 63.4 549.26 63.4 559.81 73.96 559.81"/>
      <rect class="cls-2" x="63.4" y="538.7" width="10.56" height="10.56"/>
      <polygon class="cls-2" points="73.96 242.94 73.96 242.94 73.96 232.38 73.96 221.82 73.96 211.25 73.96 200.69 73.96 190.12 73.96 179.57 84.54 179.57 84.54 179.56 84.54 169.01 73.96 169.01 73.96 179.56 63.4 179.56 63.4 190.12 63.4 200.69 63.4 211.25 63.4 221.82 63.4 232.38 63.4 242.94 63.4 242.94 63.4 253.5 73.96 253.5 73.96 242.94"/>
      <polygon class="cls-3" points="63.4 591.51 73.96 591.51 84.54 591.51 95.1 591.51 105.67 591.51 116.23 591.51 126.81 591.51 137.37 591.51 147.93 591.51 158.5 591.51 169.06 591.51 179.64 591.51 190.2 591.51 200.77 591.51 211.33 591.51 221.9 591.51 232.47 591.51 243.03 591.51 253.6 591.51 253.6 580.95 243.03 580.95 232.47 580.95 221.9 580.95 211.33 580.95 200.77 580.95 190.2 580.95 179.64 580.95 169.06 580.95 158.5 580.95 147.93 580.95 137.37 580.95 126.81 580.95 116.23 580.95 105.67 580.95 95.1 580.95 84.54 580.95 73.96 580.95 73.96 570.38 63.4 570.38 63.4 580.95 52.83 580.95 52.83 570.38 42.27 570.38 42.27 580.95 42.27 591.51 52.83 591.51 63.4 591.51"/>
      <rect class="cls-1" x="52.83" y="570.38" width="10.57" height="10.58"/>
      <rect class="cls-3" x="52.83" y="559.81" width="10.57" height="10.56"/>
      <rect class="cls-2" x="52.83" y="549.26" width="10.57" height="10.56"/>
      <rect class="cls-2" x="42.27" y="559.81" width="10.56" height="10.56"/>
      <polygon class="cls-1" points="31.71 602.07 21.14 602.07 21.14 612.63 31.71 612.63 42.27 612.63 42.27 602.07 42.27 591.51 31.71 591.51 31.71 602.07"/>
      <rect class="cls-3" x="31.71" y="580.95" width="10.56" height="10.56"/>
      <rect class="cls-2" x="31.71" y="570.38" width="10.56" height="10.58"/>
      <polygon class="cls-2" points="21.14 633.75 21.14 644.33 31.71 644.33 42.27 644.33 42.27 633.75 31.71 633.75 21.14 633.75"/>
      <polygon class="cls-1" points="21.14 612.63 21.14 623.19 21.14 633.75 31.71 633.75 42.27 633.75 42.27 623.19 42.27 612.63 31.71 612.63 21.14 612.63"/>
      <rect class="cls-3" x="21.14" y="591.51" width="10.57" height="10.56"/>
      <rect class="cls-2" x="21.14" y="580.95" width="10.57" height="10.56"/>
      <rect class="cls-2" x="10.57" y="623.19" width="10.56" height="10.56"/>
      <rect class="cls-3" x="10.57" y="612.63" width="10.56" height="10.56"/>
      <rect class="cls-3" x="10.57" y="602.07" width="10.56" height="10.56"/>
      <rect class="cls-2" x="10.57" y="591.51" width="10.56" height="10.56"/>
      <rect class="cls-2" y="612.63" width="10.57" height="10.56"/>
      <rect class="cls-2" y="602.07" width="10.57" height="10.56"/>
    </g>
  </g>
</svg>