<?xml version="1.0" encoding="UTF-8"?>
<svg id="_レイヤー_2" data-name="レイヤー 2" xmlns="http://www.w3.org/2000/svg" viewBox="0 0 655.14 887.26">
  <defs>
    <style>
      .cls-1 {
        fill: #3200cc;
      }

      .cls-2 {
        fill: #3b0c79;
      }

      .cls-3 {
        fill: #4800ff;
      }

      .cls-4 {
        fill: #fff;
      }

      .cls-5 {
        fill: #e5ff00;
      }

      .cls-6 {
        fill: red;
      }

      .cls-7 {
        fill: #a400fc;
      }

      .cls-8 {
        fill: #b2ff00;
      }

      .cls-9 {
        fill: #e00000;
      }
    </style>
  </defs>
  <g id="_レイヤー_1-2" data-name="レイヤー 1">
    <g>
      <polygon class="cls-4" points="644.57 137.31 644.57 147.87 644.57 158.43 644.57 169 644.57 179.56 644.57 190.12 644.57 200.68 644.57 211.24 644.57 221.8 644.57 232.38 644.57 242.94 644.57 253.5 644.57 264.06 644.57 274.62 644.57 285.19 644.57 295.75 644.57 306.31 644.57 316.87 644.57 327.43 644.57 337.99 644.57 348.57 644.57 359.13 644.57 369.69 644.57 380.25 644.57 390.81 644.57 401.37 644.57 411.94 644.57 422.5 644.57 433.06 644.57 443.62 644.57 454.18 644.57 464.76 644.57 475.32 644.57 485.88 644.57 496.44 644.57 507 644.57 517.56 644.57 528.13 644.57 538.69 644.57 549.25 644.57 559.81 644.57 570.37 644.57 580.93 644.57 591.51 644.57 602.07 644.57 612.63 644.57 623.19 644.57 633.75 644.57 644.32 644.57 654.88 644.57 665.44 644.57 676 644.57 686.56 644.57 697.12 644.57 707.7 644.57 718.26 644.57 728.82 644.57 739.38 644.57 749.94 644.57 760.5 644.57 771.07 644.57 781.63 644.57 792.19 644.57 802.75 644.57 813.31 644.57 823.89 644.57 834.45 644.57 845.01 644.57 855.57 644.57 866.13 655.14 866.13 655.14 855.57 655.14 845.01 655.14 834.45 655.14 823.89 655.14 813.31 655.14 802.75 655.14 792.19 655.14 781.63 655.14 771.07 655.14 760.5 655.14 749.94 655.14 739.38 655.14 728.82 655.14 718.26 655.14 707.7 655.14 697.12 655.14 686.56 655.14 676 655.14 665.44 655.14 654.88 655.14 644.32 655.14 633.75 655.14 623.19 655.14 612.63 655.14 602.07 655.14 591.51 655.14 580.93 655.14 570.37 655.14 559.81 655.14 549.25 655.14 538.69 655.14 528.13 655.14 517.56 655.14 507 655.14 496.44 655.14 485.88 655.14 475.32 655.14 464.76 655.14 454.18 655.14 443.62 655.14 433.06 655.14 422.5 655.14 411.94 655.14 401.37 655.14 390.81 655.14 380.25 655.14 369.69 655.14 359.13 655.14 348.57 655.14 337.99 655.14 327.43 655.14 316.87 655.14 306.31 655.14 295.75 655.14 285.19 655.14 274.62 655.14 264.06 655.14 253.5 655.14 242.94 655.14 232.38 655.14 221.8 655.14 211.24 655.14 200.68 655.14 190.12 655.14 179.56 655.14 169 655.14 158.43 655.14 147.87 655.14 137.31 644.57 137.31"/>
      <rect class="cls-4" x="634.01" y="866.13" width="10.56" height="10.56"/>
      <polygon class="cls-2" points="644.57 845.01 644.57 834.45 644.57 823.89 644.57 813.31 644.57 802.75 644.57 792.19 644.57 781.63 644.57 771.07 644.57 760.5 644.57 749.94 644.57 739.38 644.57 728.82 644.57 718.26 644.57 707.7 644.57 697.12 644.57 686.56 644.57 676 644.57 665.44 644.57 654.88 644.57 644.32 644.57 633.75 644.57 623.19 644.57 612.63 644.57 602.07 644.57 591.51 644.57 580.93 644.57 570.37 644.57 559.81 644.57 549.25 644.57 538.69 644.57 528.13 644.57 517.56 644.57 507 644.57 496.44 644.57 485.88 644.57 475.32 644.57 464.76 644.57 454.18 644.57 443.62 644.57 433.06 644.57 422.5 644.57 411.94 644.57 401.37 644.57 390.81 644.57 380.25 644.57 369.69 644.57 359.13 644.57 348.57 644.57 337.99 644.57 327.43 644.57 316.87 644.57 306.31 644.57 295.75 644.57 285.19 644.57 274.62 644.57 264.06 644.57 253.5 644.57 242.94 644.57 232.38 644.57 221.8 644.57 211.24 644.57 200.68 644.57 190.12 644.57 179.56 644.57 169 644.57 158.43 644.57 147.87 644.57 137.31 634.01 137.31 634.01 147.87 634.01 158.43 634.01 169 634.01 179.56 634.01 190.12 634.01 200.68 634.01 211.24 634.01 221.8 634.01 232.38 634.01 242.94 634.01 253.5 634.01 264.06 634.01 274.62 634.01 285.19 634.01 295.75 634.01 306.31 634.01 316.87 634.01 327.43 634.01 337.99 634.01 348.57 634.01 359.13 634.01 369.69 634.01 380.25 634.01 390.81 634.01 401.37 634.01 411.94 634.01 422.5 634.01 433.06 634.01 443.62 634.01 454.18 634.01 464.76 634.01 475.32 634.01 485.88 634.01 496.44 634.01 507 634.01 517.56 634.01 528.13 634.01 538.69 634.01 549.25 634.01 559.81 634.01 570.37 634.01 580.93 634.01 591.51 634.01 602.07 634.01 612.63 634.01 623.19 634.01 633.75 634.01 644.32 634.01 654.88 634.01 665.44 634.01 676 634.01 686.56 634.01 697.12 634.01 707.7 634.01 718.26 634.01 728.82 634.01 739.38 634.01 749.94 634.01 760.5 634.01 771.07 634.01 781.63 634.01 792.19 634.01 802.75 634.01 813.31 634.01 823.89 634.01 834.45 634.01 845.01 634.01 855.57 634.01 866.13 644.57 866.13 644.57 855.57 644.57 845.01"/>
      <polygon class="cls-4" points="634.01 137.31 644.57 137.31 644.57 126.75 644.57 116.19 634.01 116.19 634.01 126.75 634.01 137.31"/>
      <polygon class="cls-2" points="623.43 866.13 612.87 866.13 602.3 866.13 591.74 866.13 581.16 866.13 570.6 866.13 560.04 866.13 549.47 866.13 538.91 866.13 528.33 866.13 517.77 866.13 507.2 866.13 496.64 866.13 486.08 866.13 475.5 866.13 464.94 866.13 454.37 866.13 443.81 866.13 433.23 866.13 422.67 866.13 412.1 866.13 401.54 866.13 390.98 866.13 380.4 866.13 369.84 866.13 359.27 866.13 348.71 866.13 338.13 866.13 327.57 866.13 317.01 866.13 306.44 866.13 295.88 866.13 285.3 866.13 274.74 866.13 264.17 866.13 253.61 866.13 243.03 866.13 232.47 866.13 221.91 866.13 211.34 866.13 200.78 866.13 190.2 866.13 179.64 866.13 169.07 866.13 158.51 866.13 147.93 866.13 137.37 866.13 126.81 866.13 116.24 866.13 105.68 866.13 95.1 866.13 84.54 866.13 73.97 866.13 63.41 866.13 52.85 866.13 42.27 866.13 31.71 866.13 21.14 866.13 21.14 876.69 31.71 876.69 42.27 876.69 52.85 876.69 63.41 876.69 73.97 876.69 84.54 876.69 95.1 876.69 105.68 876.69 116.24 876.69 126.81 876.69 137.37 876.69 147.93 876.69 158.51 876.69 169.07 876.69 179.64 876.69 190.2 876.69 200.78 876.69 211.34 876.69 221.91 876.69 232.47 876.69 243.03 876.69 253.61 876.69 264.17 876.69 274.74 876.69 285.3 876.69 295.88 876.69 306.44 876.69 317.01 876.69 327.57 876.69 338.13 876.69 348.71 876.69 359.27 876.69 369.84 876.69 380.4 876.69 390.98 876.69 401.54 876.69 412.1 876.69 422.67 876.69 433.23 876.69 443.81 876.69 454.37 876.69 464.94 876.69 475.5 876.69 486.08 876.69 496.64 876.69 507.2 876.69 517.77 876.69 528.33 876.69 538.91 876.69 549.47 876.69 560.04 876.69 570.6 876.69 581.16 876.69 591.74 876.69 602.3 876.69 612.87 876.69 623.43 876.69 634.01 876.69 634.01 866.13 623.43 866.13"/>
      <polygon class="cls-2" points="623.43 126.75 623.43 137.31 634.01 137.31 634.01 126.75 634.01 116.19 623.43 116.19 623.43 126.75"/>
      <rect class="cls-4" x="623.43" y="105.63" width="10.58" height="10.56"/>
      <polygon class="cls-4" points="612.87 876.69 602.3 876.69 591.74 876.69 581.16 876.69 570.6 876.69 560.04 876.69 549.47 876.69 538.91 876.69 528.33 876.69 517.77 876.69 507.2 876.69 496.64 876.69 486.08 876.69 475.5 876.69 464.94 876.69 454.37 876.69 443.81 876.69 433.23 876.69 422.67 876.69 412.1 876.69 401.54 876.69 390.98 876.69 380.4 876.69 369.84 876.69 359.27 876.69 348.71 876.69 338.13 876.69 327.57 876.69 317.01 876.69 306.44 876.69 295.88 876.69 285.3 876.69 274.74 876.69 264.17 876.69 253.61 876.69 243.03 876.69 232.47 876.69 221.91 876.69 211.34 876.69 200.78 876.69 190.2 876.69 179.64 876.69 169.07 876.69 158.51 876.69 147.93 876.69 137.37 876.69 126.81 876.69 116.24 876.69 105.68 876.69 95.1 876.69 84.54 876.69 73.97 876.69 63.41 876.69 52.85 876.69 42.27 876.69 31.71 876.69 21.14 876.69 21.14 887.26 31.71 887.26 42.27 887.26 52.85 887.26 63.41 887.26 73.97 887.26 84.54 887.26 95.1 887.26 105.68 887.26 116.24 887.26 126.81 887.26 137.37 887.26 147.93 887.26 158.51 887.26 169.07 887.26 179.64 887.26 190.2 887.26 200.78 887.26 211.34 887.26 221.91 887.26 232.47 887.26 243.03 887.26 253.61 887.26 264.17 887.26 274.74 887.26 285.3 887.26 295.88 887.26 306.44 887.26 317.01 887.26 327.57 887.26 338.13 887.26 348.71 887.26 359.27 887.26 369.84 887.26 380.4 887.26 390.98 887.26 401.54 887.26 412.1 887.26 422.67 887.26 433.23 887.26 443.81 887.26 454.37 887.26 464.94 887.26 475.5 887.26 486.08 887.26 496.64 887.26 507.2 887.26 517.77 887.26 528.33 887.26 538.91 887.26 549.47 887.26 560.04 887.26 570.6 887.26 581.16 887.26 591.74 887.26 602.3 887.26 612.87 887.26 623.43 887.26 634.01 887.26 634.01 876.69 623.43 876.69 612.87 876.69"/>
      <path class="cls-1" d="M623.43,126.75v-10.56h-10.56v-10.56h-10.57v-10.58h-10.56v-10.56h-10.58v-10.56h-10.56v-10.56h-10.56v-10.56h-10.57v-10.56h-21.14v-10.57h-21.13v834.45h126.81V137.31h-10.58v-10.56ZM528.33,749.94V158.43h21.14v10.57h10.57v10.56h10.56v10.56h10.56v10.56h10.58v10.56h10.56v549.26h-73.97v-10.56Z"/>
      <rect class="cls-2" x="612.87" y="105.63" width="10.56" height="10.56"/>
      <rect class="cls-4" x="612.87" y="95.05" width="10.56" height="10.58"/>
      <rect class="cls-2" x="602.3" y="95.05" width="10.57" height="10.58"/>
      <rect class="cls-4" x="602.3" y="84.49" width="10.57" height="10.56"/>
      <polygon class="cls-7" points="591.74 232.38 591.74 242.94 591.74 253.5 591.74 264.06 591.74 274.62 591.74 285.19 591.74 295.75 591.74 306.31 591.74 316.87 591.74 327.43 591.74 337.99 591.74 348.57 591.74 359.13 591.74 369.69 591.74 380.25 591.74 390.81 591.74 401.37 591.74 411.94 591.74 422.5 591.74 433.06 591.74 443.62 591.74 454.18 591.74 464.76 591.74 475.32 591.74 485.88 591.74 496.44 591.74 507 591.74 517.56 591.74 528.13 591.74 538.69 591.74 549.25 591.74 559.81 591.74 570.37 591.74 580.93 591.74 591.51 591.74 602.07 591.74 612.63 591.74 623.19 591.74 633.75 591.74 644.32 591.74 654.88 591.74 665.44 591.74 676 591.74 686.56 591.74 697.12 591.74 707.7 591.74 718.26 591.74 728.82 591.74 739.38 591.74 749.94 591.74 760.5 602.3 760.5 602.3 749.94 602.3 739.38 602.3 728.82 602.3 718.26 602.3 707.7 602.3 697.12 602.3 686.56 602.3 676 602.3 665.44 602.3 654.88 602.3 644.32 602.3 633.75 602.3 623.19 602.3 612.63 602.3 602.07 602.3 591.51 602.3 580.93 602.3 570.37 602.3 559.81 602.3 549.25 602.3 538.69 602.3 528.13 602.3 517.56 602.3 507 602.3 496.44 602.3 485.88 602.3 475.32 602.3 464.76 602.3 454.18 602.3 443.62 602.3 433.06 602.3 422.5 602.3 411.94 602.3 401.37 602.3 390.81 602.3 380.25 602.3 369.69 602.3 359.13 602.3 348.57 602.3 337.99 602.3 327.43 602.3 316.87 602.3 306.31 602.3 295.75 602.3 285.19 602.3 274.62 602.3 264.06 602.3 253.5 602.3 242.94 602.3 232.38 602.3 221.8 602.3 211.24 591.74 211.24 591.74 221.8 591.74 232.38"/>
      <rect class="cls-2" x="591.74" y="84.49" width="10.56" height="10.56"/>
      <rect class="cls-4" x="591.74" y="73.93" width="10.56" height="10.56"/>
      <rect class="cls-7" x="581.16" y="200.68" width="10.58" height="10.56"/>
      <rect class="cls-2" x="581.16" y="73.93" width="10.58" height="10.56"/>
      <rect class="cls-4" x="581.16" y="63.37" width="10.58" height="10.56"/>
      <rect class="cls-7" x="570.6" y="190.12" width="10.56" height="10.56"/>
      <rect class="cls-2" x="570.6" y="63.37" width="10.56" height="10.56"/>
      <rect class="cls-4" x="570.6" y="52.81" width="10.56" height="10.56"/>
      <rect class="cls-7" x="560.04" y="179.56" width="10.56" height="10.56"/>
      <rect class="cls-2" x="560.04" y="52.81" width="10.56" height="10.56"/>
      <rect class="cls-4" x="560.04" y="42.25" width="10.56" height="10.56"/>
      <rect class="cls-7" x="549.47" y="169" width="10.57" height="10.56"/>
      <rect class="cls-2" x="549.47" y="42.25" width="10.57" height="10.56"/>
      <rect class="cls-4" x="549.47" y="31.68" width="10.57" height="10.57"/>
      <polygon class="cls-2" points="549.47 760.5 560.04 760.5 560.04 749.94 560.04 739.38 560.04 728.82 560.04 718.26 560.04 707.7 560.04 697.12 560.04 686.56 560.04 676 560.04 665.44 560.04 654.88 560.04 644.32 560.04 633.75 560.04 623.19 560.04 612.63 560.04 602.07 560.04 591.51 560.04 580.93 560.04 570.37 560.04 559.81 560.04 549.25 560.04 538.69 560.04 528.13 560.04 517.56 560.04 507 560.04 496.44 560.04 485.88 560.04 475.32 560.04 464.76 560.04 454.18 560.04 443.62 560.04 433.06 560.04 422.5 560.04 411.94 560.04 401.37 560.04 390.81 560.04 380.25 560.04 369.69 560.04 359.13 560.04 348.57 560.04 337.99 560.04 327.43 560.04 316.87 560.04 306.31 560.04 295.75 560.04 285.19 560.04 274.62 560.04 264.06 560.04 253.5 560.04 242.94 560.04 232.38 560.04 221.8 560.04 211.24 549.47 211.24 549.47 200.68 549.47 190.12 538.91 190.12 538.91 179.56 538.91 169 528.33 169 528.33 179.56 528.33 190.12 528.33 200.68 528.33 211.24 528.33 221.8 528.33 232.38 528.33 242.94 528.33 253.5 528.33 264.06 528.33 274.62 528.33 285.19 528.33 295.75 528.33 306.31 528.33 316.87 528.33 327.43 528.33 337.99 528.33 348.57 528.33 359.13 528.33 369.69 528.33 380.25 528.33 390.81 528.33 401.37 528.33 411.94 528.33 422.5 528.33 433.06 528.33 443.62 528.33 454.18 528.33 464.76 528.33 475.32 528.33 485.88 528.33 496.44 528.33 507 528.33 517.56 528.33 528.13 528.33 538.69 528.33 549.25 528.33 559.81 528.33 570.37 528.33 580.93 528.33 591.51 528.33 602.07 528.33 612.63 528.33 623.19 528.33 633.75 528.33 644.32 528.33 654.88 528.33 665.44 528.33 676 528.33 686.56 528.33 697.12 528.33 707.7 528.33 718.26 528.33 728.82 528.33 739.38 528.33 749.94 528.33 760.5 538.91 760.5 549.47 760.5"/>
      <polygon class="cls-3" points="538.91 179.56 538.91 190.12 549.47 190.12 549.47 200.68 549.47 211.24 560.04 211.24 560.04 221.8 560.04 232.38 560.04 242.94 560.04 253.5 560.04 264.06 560.04 274.62 560.04 285.19 560.04 295.75 560.04 306.31 560.04 316.87 560.04 327.43 560.04 337.99 560.04 348.57 560.04 359.13 560.04 369.69 560.04 380.25 560.04 390.81 560.04 401.37 560.04 411.94 560.04 422.5 560.04 433.06 560.04 443.62 560.04 454.18 560.04 464.76 560.04 475.32 560.04 485.88 560.04 496.44 560.04 507 560.04 517.56 560.04 528.13 560.04 538.69 560.04 549.25 560.04 559.81 560.04 570.37 560.04 580.93 560.04 591.51 560.04 602.07 560.04 612.63 560.04 623.19 560.04 633.75 560.04 644.32 560.04 654.88 560.04 665.44 560.04 676 560.04 686.56 560.04 697.12 560.04 707.7 560.04 718.26 560.04 728.82 560.04 739.38 560.04 749.94 560.04 760.5 570.6 760.5 581.16 760.5 591.74 760.5 591.74 749.94 591.74 739.38 591.74 728.82 591.74 718.26 591.74 707.7 591.74 697.12 591.74 686.56 591.74 676 591.74 665.44 591.74 654.88 591.74 644.32 591.74 633.75 591.74 623.19 591.74 612.63 591.74 602.07 591.74 591.51 591.74 580.93 591.74 570.37 591.74 559.81 591.74 549.25 591.74 538.69 591.74 528.13 591.74 517.56 591.74 507 591.74 496.44 591.74 485.88 591.74 475.32 591.74 464.76 591.74 454.18 591.74 443.62 591.74 433.06 591.74 422.5 591.74 411.94 591.74 401.37 591.74 390.81 591.74 380.25 591.74 369.69 591.74 359.13 591.74 348.57 591.74 337.99 591.74 327.43 591.74 316.87 591.74 306.31 591.74 295.75 591.74 285.19 591.74 274.62 591.74 264.06 591.74 253.5 591.74 242.94 591.74 232.38 591.74 221.8 591.74 211.24 581.16 211.24 581.16 200.68 570.6 200.68 570.6 190.12 560.04 190.12 560.04 179.56 549.47 179.56 549.47 169 538.91 169 538.91 179.56"/>
      <polygon class="cls-7" points="549.47 169 549.47 158.43 538.91 158.43 528.33 158.43 528.33 169 538.91 169 549.47 169"/>
      <polygon class="cls-2" points="528.33 31.68 528.33 42.25 538.91 42.25 549.47 42.25 549.47 31.68 538.91 31.68 528.33 31.68"/>
      <polygon class="cls-4" points="538.91 31.68 549.47 31.68 549.47 21.12 538.91 21.12 528.33 21.12 528.33 31.68 538.91 31.68"/>
      <polygon class="cls-2" points="507.2 21.12 496.64 21.12 496.64 31.68 507.2 31.68 517.77 31.68 528.33 31.68 528.33 21.12 517.77 21.12 507.2 21.12"/>
      <path class="cls-3" d="M507.2,845.01V31.68h-10.56v-10.56H158.51v10.56h-10.58v834.45h21.14v-63.38h10.57v-10.56h295.86v10.56h10.58v63.38h21.12v-21.12ZM169.07,739.38V169h10.57v-10.57h295.86v10.57h10.58v580.94h-10.58v10.56H179.64v-10.56h-10.57v-10.56Z"/>
      <polygon class="cls-4" points="507.2 21.12 517.77 21.12 528.33 21.12 528.33 10.56 517.77 10.56 507.2 10.56 496.64 10.56 496.64 21.12 507.2 21.12"/>
      <polygon class="cls-7" points="486.08 845.01 486.08 834.45 486.08 823.89 486.08 813.31 486.08 802.75 475.5 802.75 475.5 813.31 475.5 823.89 475.5 834.45 475.5 845.01 475.5 855.57 475.5 866.13 486.08 866.13 486.08 855.57 486.08 845.01"/>
      <polygon class="cls-7" points="475.5 190.12 475.5 200.68 475.5 211.24 475.5 221.8 475.5 232.38 475.5 242.94 475.5 253.5 475.5 264.06 475.5 274.62 475.5 285.19 475.5 295.75 475.5 306.31 475.5 316.87 475.5 327.43 475.5 337.99 475.5 348.57 475.5 359.13 475.5 369.69 475.5 380.25 475.5 390.81 475.5 401.37 475.5 411.94 475.5 422.5 475.5 433.06 475.5 443.62 475.5 454.18 475.5 464.76 475.5 475.32 475.5 485.88 475.5 496.44 475.5 507 475.5 517.56 475.5 528.13 475.5 538.69 475.5 549.25 475.5 559.81 475.5 570.37 475.5 580.93 475.5 591.51 475.5 602.07 475.5 612.63 475.5 623.19 475.5 633.75 475.5 644.32 475.5 654.88 475.5 665.44 475.5 676 475.5 686.56 475.5 697.12 475.5 707.7 475.5 718.26 475.5 728.82 475.5 739.38 475.5 749.94 486.08 749.94 486.08 739.38 486.08 728.82 486.08 718.26 486.08 707.7 486.08 697.12 486.08 686.56 486.08 676 486.08 665.44 486.08 654.88 486.08 644.32 486.08 633.75 486.08 623.19 486.08 612.63 486.08 602.07 486.08 591.51 486.08 580.93 486.08 570.37 486.08 559.81 486.08 549.25 486.08 538.69 486.08 528.13 486.08 517.56 486.08 507 486.08 496.44 486.08 485.88 486.08 475.32 486.08 464.76 486.08 454.18 486.08 443.62 486.08 433.06 486.08 422.5 486.08 411.94 486.08 401.37 486.08 390.81 486.08 380.25 486.08 369.69 486.08 359.13 486.08 348.57 486.08 337.99 486.08 327.43 486.08 316.87 486.08 306.31 486.08 295.75 486.08 285.19 486.08 274.62 486.08 264.06 486.08 253.5 486.08 242.94 486.08 232.38 486.08 221.8 486.08 211.24 486.08 200.68 486.08 190.12 486.08 179.56 486.08 169 475.5 169 475.5 179.56 475.5 190.12"/>
      <polygon class="cls-8" points="475.5 845.01 475.5 834.45 475.5 823.89 464.94 823.89 464.94 834.45 454.37 834.45 454.37 845.01 443.81 845.01 443.81 855.57 433.23 855.57 433.23 866.13 443.81 866.13 454.37 866.13 464.94 866.13 475.5 866.13 475.5 855.57 475.5 845.01"/>
      <polygon class="cls-7" points="454.37 749.94 443.81 749.94 433.23 749.94 422.67 749.94 412.1 749.94 401.54 749.94 390.98 749.94 380.4 749.94 369.84 749.94 359.27 749.94 348.71 749.94 338.13 749.94 327.57 749.94 317.01 749.94 306.44 749.94 295.88 749.94 285.3 749.94 274.74 749.94 264.17 749.94 253.61 749.94 243.03 749.94 232.47 749.94 221.91 749.94 211.34 749.94 200.78 749.94 190.2 749.94 179.64 749.94 179.64 760.5 190.2 760.5 200.78 760.5 211.34 760.5 221.91 760.5 232.47 760.5 243.03 760.5 253.61 760.5 264.17 760.5 274.74 760.5 285.3 760.5 295.88 760.5 306.44 760.5 317.01 760.5 327.57 760.5 338.13 760.5 348.71 760.5 359.27 760.5 369.84 760.5 380.4 760.5 390.98 760.5 401.54 760.5 412.1 760.5 422.67 760.5 433.23 760.5 443.81 760.5 454.37 760.5 464.94 760.5 475.5 760.5 475.5 749.94 464.94 749.94 454.37 749.94"/>
      <polygon class="cls-5" points="443.81 855.57 443.81 845.01 454.37 845.01 454.37 834.45 464.94 834.45 464.94 823.89 475.5 823.89 475.5 813.31 475.5 802.75 464.94 802.75 454.37 802.75 454.37 813.31 443.81 813.31 443.81 823.89 433.23 823.89 433.23 834.45 422.67 834.45 422.67 845.01 412.1 845.01 412.1 855.57 401.54 855.57 401.54 866.13 412.1 866.13 422.67 866.13 433.23 866.13 433.23 855.57 443.81 855.57"/>
      <path class="cls-5" d="M433.23,285.19h-21.13v-10.57h-42.26v84.51h42.26v-10.56h10.57v-10.58h10.56v21.14h10.58v-31.7h-10.58v-31.68h10.58v-21.13h-10.58v10.57ZM380.4,348.57v-63.38h10.58v63.38h-10.58ZM401.54,337.99v-42.24h10.56v42.24h-10.56Z"/>
      <polygon class="cls-5" points="412.1 433.06 412.1 443.62 412.1 454.18 412.1 464.76 412.1 475.32 412.1 485.88 412.1 496.44 412.1 507 412.1 517.56 412.1 528.13 412.1 538.69 412.1 549.25 412.1 559.81 412.1 570.37 412.1 580.93 412.1 591.51 412.1 602.07 412.1 612.63 412.1 623.19 422.67 623.19 422.67 612.63 422.67 602.07 422.67 591.51 422.67 580.93 422.67 570.37 422.67 559.81 422.67 549.25 422.67 538.69 422.67 528.13 422.67 517.56 422.67 507 422.67 496.44 422.67 485.88 422.67 475.32 422.67 464.76 422.67 454.18 422.67 443.62 422.67 433.06 422.67 422.5 412.1 422.5 412.1 433.06"/>
      <polygon class="cls-8" points="412.1 855.57 412.1 845.01 422.67 845.01 422.67 834.45 433.23 834.45 433.23 823.89 443.81 823.89 443.81 813.31 454.37 813.31 454.37 802.75 443.81 802.75 433.23 802.75 422.67 802.75 412.1 802.75 401.54 802.75 390.98 802.75 390.98 813.31 380.4 813.31 380.4 823.89 369.84 823.89 369.84 834.45 359.27 834.45 359.27 845.01 348.71 845.01 348.71 855.57 338.13 855.57 338.13 866.13 348.71 866.13 359.27 866.13 369.84 866.13 380.4 866.13 390.98 866.13 401.54 866.13 401.54 855.57 412.1 855.57"/>
      <polygon class="cls-9" points="412.1 602.07 412.1 591.51 412.1 580.93 412.1 570.37 412.1 559.81 412.1 549.25 412.1 538.69 412.1 528.13 412.1 517.56 412.1 507 412.1 496.44 412.1 485.88 412.1 475.32 412.1 464.76 412.1 454.18 412.1 443.62 412.1 433.06 401.54 433.06 401.54 443.62 401.54 454.18 401.54 464.76 390.98 464.76 390.98 475.32 390.98 485.88 390.98 496.44 380.4 496.44 380.4 507 380.4 517.56 369.84 517.56 369.84 528.13 369.84 538.69 359.27 538.69 359.27 549.25 348.71 549.25 348.71 559.81 338.13 559.81 338.13 570.37 327.57 570.37 327.57 580.93 317.01 580.93 317.01 591.51 306.44 591.51 295.88 591.51 295.88 602.07 285.3 602.07 285.3 612.63 274.74 612.63 264.17 612.63 253.61 612.63 253.61 623.19 264.17 623.19 274.74 623.19 285.3 623.19 295.88 623.19 306.44 623.19 317.01 623.19 327.57 623.19 338.13 623.19 348.71 623.19 359.27 623.19 369.84 623.19 380.4 623.19 390.98 623.19 401.54 623.19 412.1 623.19 412.1 612.63 412.1 602.07"/>
      <polygon class="cls-2" points="412.1 316.87 412.1 306.31 412.1 295.75 401.54 295.75 401.54 306.31 401.54 316.87 401.54 327.43 401.54 337.99 412.1 337.99 412.1 327.43 412.1 316.87"/>
      <polygon class="cls-5" points="390.98 623.19 380.4 623.19 369.84 623.19 359.27 623.19 348.71 623.19 338.13 623.19 327.57 623.19 317.01 623.19 306.44 623.19 295.88 623.19 285.3 623.19 274.74 623.19 264.17 623.19 253.61 623.19 243.03 623.19 243.03 633.75 253.61 633.75 264.17 633.75 274.74 633.75 285.3 633.75 295.88 633.75 306.44 633.75 317.01 633.75 327.57 633.75 338.13 633.75 348.71 633.75 359.27 633.75 369.84 633.75 380.4 633.75 390.98 633.75 401.54 633.75 412.1 633.75 412.1 623.19 401.54 623.19 390.98 623.19"/>
      <polygon class="cls-2" points="390.98 327.43 390.98 316.87 390.98 306.31 390.98 295.75 390.98 285.19 380.4 285.19 380.4 295.75 380.4 306.31 380.4 316.87 380.4 327.43 380.4 337.99 380.4 348.57 390.98 348.57 390.98 337.99 390.98 327.43"/>
      <path class="cls-5" d="M348.71,295.75v10.56h-10.58v-21.12h10.58v-10.57h-21.14v73.95h-10.56v10.56h42.26v-73.94h-10.56v10.56ZM348.71,337.99v10.58h-10.58v-21.14h10.58v10.56Z"/>
      <polygon class="cls-5" points="348.71 855.57 348.71 845.01 359.27 845.01 359.27 834.45 369.84 834.45 369.84 823.89 380.4 823.89 380.4 813.31 390.98 813.31 390.98 802.75 380.4 802.75 369.84 802.75 359.27 802.75 359.27 813.31 348.71 813.31 348.71 823.89 338.13 823.89 338.13 834.45 327.57 834.45 327.57 845.01 317.01 845.01 317.01 855.57 306.44 855.57 306.44 866.13 317.01 866.13 327.57 866.13 338.13 866.13 338.13 855.57 348.71 855.57"/>
      <polygon class="cls-2" points="338.13 337.99 338.13 348.57 348.71 348.57 348.71 337.99 348.71 327.43 338.13 327.43 338.13 337.99"/>
      <polygon class="cls-2" points="338.13 295.75 338.13 306.31 348.71 306.31 348.71 295.75 348.71 285.19 338.13 285.19 338.13 295.75"/>
      <polygon class="cls-8" points="317.01 855.57 317.01 845.01 327.57 845.01 327.57 834.45 338.13 834.45 338.13 823.89 348.71 823.89 348.71 813.31 359.27 813.31 359.27 802.75 348.71 802.75 338.13 802.75 338.13 813.31 327.57 813.31 327.57 823.89 317.01 823.89 317.01 834.45 306.44 834.45 306.44 845.01 295.88 845.01 295.88 855.57 285.3 855.57 285.3 866.13 295.88 866.13 306.44 866.13 306.44 855.57 317.01 855.57"/>
      <polygon class="cls-5" points="295.88 855.57 295.88 845.01 306.44 845.01 306.44 834.45 317.01 834.45 317.01 823.89 327.57 823.89 327.57 813.31 338.13 813.31 338.13 802.75 327.57 802.75 317.01 802.75 306.44 802.75 306.44 813.31 295.88 813.31 295.88 823.89 285.3 823.89 285.3 834.45 274.74 834.45 274.74 845.01 264.17 845.01 264.17 855.57 253.61 855.57 253.61 866.13 264.17 866.13 274.74 866.13 285.3 866.13 285.3 855.57 295.88 855.57"/>
      <path class="cls-5" d="M295.88,359.13h10.56v-42.26h-21.14v-31.68h10.58v10.56h10.56v-21.13h-31.7v84.51h21.14ZM285.3,337.99v-10.56h10.58v21.14h-10.58v-10.58Z"/>
      <polygon class="cls-2" points="295.88 337.99 295.88 327.43 285.3 327.43 285.3 337.99 285.3 348.57 295.88 348.57 295.88 337.99"/>
      <polygon class="cls-8" points="264.17 855.57 264.17 845.01 274.74 845.01 274.74 834.45 285.3 834.45 285.3 823.89 295.88 823.89 295.88 813.31 306.44 813.31 306.44 802.75 295.88 802.75 285.3 802.75 274.74 802.75 264.17 802.75 253.61 802.75 243.03 802.75 232.47 802.75 232.47 813.31 221.91 813.31 221.91 823.89 211.34 823.89 211.34 834.45 200.78 834.45 200.78 845.01 190.2 845.01 190.2 855.57 179.64 855.57 179.64 866.13 190.2 866.13 200.78 866.13 211.34 866.13 221.91 866.13 232.47 866.13 243.03 866.13 253.61 866.13 253.61 855.57 264.17 855.57"/>
      <polygon class="cls-5" points="264.17 422.5 274.74 422.5 285.3 422.5 295.88 422.5 306.44 422.5 317.01 422.5 327.57 422.5 338.13 422.5 348.71 422.5 359.27 422.5 369.84 422.5 380.4 422.5 390.98 422.5 401.54 422.5 412.1 422.5 412.1 411.94 401.54 411.94 390.98 411.94 380.4 411.94 369.84 411.94 359.27 411.94 348.71 411.94 338.13 411.94 327.57 411.94 317.01 411.94 306.44 411.94 295.88 411.94 285.3 411.94 274.74 411.94 264.17 411.94 253.61 411.94 243.03 411.94 243.03 422.5 253.61 422.5 264.17 422.5"/>
      <polygon class="cls-6" points="253.61 612.63 264.17 612.63 274.74 612.63 285.3 612.63 285.3 602.07 295.88 602.07 295.88 591.51 306.44 591.51 317.01 591.51 317.01 580.93 327.57 580.93 327.57 570.37 338.13 570.37 338.13 559.81 348.71 559.81 348.71 549.25 359.27 549.25 359.27 538.69 369.84 538.69 369.84 528.13 369.84 517.56 380.4 517.56 380.4 507 380.4 496.44 390.98 496.44 390.98 485.88 390.98 475.32 390.98 464.76 401.54 464.76 401.54 454.18 401.54 443.62 401.54 433.06 412.1 433.06 412.1 422.5 401.54 422.5 390.98 422.5 380.4 422.5 369.84 422.5 359.27 422.5 348.71 422.5 338.13 422.5 327.57 422.5 317.01 422.5 306.44 422.5 295.88 422.5 285.3 422.5 274.74 422.5 264.17 422.5 253.61 422.5 243.03 422.5 243.03 433.06 243.03 443.62 243.03 454.18 243.03 464.76 243.03 475.32 243.03 485.88 243.03 496.44 243.03 507 243.03 517.56 243.03 528.13 243.03 538.69 243.03 549.25 243.03 559.81 243.03 570.37 243.03 580.93 243.03 591.51 243.03 602.07 243.03 612.63 243.03 623.19 253.61 623.19 253.61 612.63"/>
      <polygon class="cls-5" points="243.03 602.07 243.03 591.51 243.03 580.93 243.03 570.37 243.03 559.81 243.03 549.25 243.03 538.69 243.03 528.13 243.03 517.56 243.03 507 243.03 496.44 243.03 485.88 243.03 475.32 243.03 464.76 243.03 454.18 243.03 443.62 243.03 433.06 243.03 422.5 232.47 422.5 232.47 433.06 232.47 443.62 232.47 454.18 232.47 464.76 232.47 475.32 232.47 485.88 232.47 496.44 232.47 507 232.47 517.56 232.47 528.13 232.47 538.69 232.47 549.25 232.47 559.81 232.47 570.37 232.47 580.93 232.47 591.51 232.47 602.07 232.47 612.63 232.47 623.19 243.03 623.19 243.03 612.63 243.03 602.07"/>
      <path class="cls-5" d="M232.47,359.13h10.56v-10.56h10.58v10.56h10.56v-84.51h-10.56v42.25h-10.58v-42.25h-31.69v84.51h21.13ZM221.91,295.75v-10.56h10.56v21.12h-10.56v-10.56ZM221.91,337.99v-21.12h10.56v10.56h10.56v10.56h-10.56v10.58h-10.56v-10.58Z"/>
      <polygon class="cls-2" points="232.47 337.99 243.03 337.99 243.03 327.43 232.47 327.43 232.47 316.87 221.91 316.87 221.91 327.43 221.91 337.99 221.91 348.57 232.47 348.57 232.47 337.99"/>
      <polygon class="cls-2" points="232.47 295.75 232.47 285.19 221.91 285.19 221.91 295.75 221.91 306.31 232.47 306.31 232.47 295.75"/>
      <polygon class="cls-5" points="211.34 802.75 200.78 802.75 200.78 813.31 190.2 813.31 190.2 823.89 179.64 823.89 179.64 834.45 179.64 845.01 179.64 855.57 190.2 855.57 190.2 845.01 200.78 845.01 200.78 834.45 211.34 834.45 211.34 823.89 221.91 823.89 221.91 813.31 232.47 813.31 232.47 802.75 221.91 802.75 211.34 802.75"/>
      <polygon class="cls-1" points="200.78 802.75 211.34 802.75 221.91 802.75 232.47 802.75 243.03 802.75 253.61 802.75 264.17 802.75 274.74 802.75 285.3 802.75 295.88 802.75 306.44 802.75 317.01 802.75 327.57 802.75 338.13 802.75 348.71 802.75 359.27 802.75 369.84 802.75 380.4 802.75 390.98 802.75 401.54 802.75 412.1 802.75 422.67 802.75 433.23 802.75 443.81 802.75 454.37 802.75 464.94 802.75 475.5 802.75 475.5 792.19 464.94 792.19 454.37 792.19 443.81 792.19 433.23 792.19 422.67 792.19 412.1 792.19 401.54 792.19 390.98 792.19 380.4 792.19 369.84 792.19 359.27 792.19 348.71 792.19 338.13 792.19 327.57 792.19 317.01 792.19 306.44 792.19 295.88 792.19 285.3 792.19 274.74 792.19 264.17 792.19 253.61 792.19 243.03 792.19 232.47 792.19 221.91 792.19 211.34 792.19 200.78 792.19 190.2 792.19 179.64 792.19 179.64 802.75 190.2 802.75 200.78 802.75"/>
      <polygon class="cls-1" points="200.78 169 211.34 169 221.91 169 232.47 169 243.03 169 253.61 169 264.17 169 274.74 169 285.3 169 295.88 169 306.44 169 317.01 169 327.57 169 338.13 169 348.71 169 359.27 169 369.84 169 380.4 169 390.98 169 401.54 169 412.1 169 422.67 169 433.23 169 443.81 169 454.37 169 464.94 169 475.5 169 475.5 158.43 464.94 158.43 454.37 158.43 443.81 158.43 433.23 158.43 422.67 158.43 412.1 158.43 401.54 158.43 390.98 158.43 380.4 158.43 369.84 158.43 359.27 158.43 348.71 158.43 338.13 158.43 327.57 158.43 317.01 158.43 306.44 158.43 295.88 158.43 285.3 158.43 274.74 158.43 264.17 158.43 253.61 158.43 243.03 158.43 232.47 158.43 221.91 158.43 211.34 158.43 200.78 158.43 190.2 158.43 179.64 158.43 179.64 169 190.2 169 200.78 169"/>
      <polygon class="cls-8" points="179.64 823.89 190.2 823.89 190.2 813.31 200.78 813.31 200.78 802.75 190.2 802.75 179.64 802.75 179.64 813.31 179.64 823.89"/>
      <path class="cls-2" d="M179.64,190.12v559.82h295.86V169H179.64v21.12ZM443.81,285.19v10.56h-10.58v31.68h10.58v31.7h-10.58v-21.14h-10.56v10.58h-10.57v10.56h-42.26v-84.51h42.26v10.57h21.13v-10.57h10.58v10.57ZM211.34,348.57v-73.95h31.69v42.25h10.58v-42.25h10.56v84.51h-10.56v-10.56h-10.58v10.56h-31.69v-10.56ZM359.27,295.75v63.38h-42.26v-10.56h10.56v-73.95h21.14v10.57h10.56v10.56ZM274.74,348.57v-73.95h31.7v21.13h-10.56v-10.56h-10.58v31.68h21.14v42.26h-31.7v-10.56ZM422.67,433.06v190.13h-10.57v10.56h-169.07v-10.56h-10.56v-200.69h10.56v-10.56h169.07v10.56h10.57v10.56Z"/>
      <polygon class="cls-1" points="179.64 845.01 179.64 834.45 179.64 823.89 179.64 813.31 179.64 802.75 169.07 802.75 169.07 813.31 169.07 823.89 169.07 834.45 169.07 845.01 169.07 855.57 169.07 866.13 179.64 866.13 179.64 855.57 179.64 845.01"/>
      <polygon class="cls-1" points="179.64 739.38 179.64 728.82 179.64 718.26 179.64 707.7 179.64 697.12 179.64 686.56 179.64 676 179.64 665.44 179.64 654.88 179.64 644.32 179.64 633.75 179.64 623.19 179.64 612.63 179.64 602.07 179.64 591.51 179.64 580.93 179.64 570.37 179.64 559.81 179.64 549.25 179.64 538.69 179.64 528.13 179.64 517.56 179.64 507 179.64 496.44 179.64 485.88 179.64 475.32 179.64 464.76 179.64 454.18 179.64 443.62 179.64 433.06 179.64 422.5 179.64 411.94 179.64 401.37 179.64 390.81 179.64 380.25 179.64 369.69 179.64 359.13 179.64 348.57 179.64 337.99 179.64 327.43 179.64 316.87 179.64 306.31 179.64 295.75 179.64 285.19 179.64 274.62 179.64 264.06 179.64 253.5 179.64 242.94 179.64 232.38 179.64 221.8 179.64 211.24 179.64 200.68 179.64 190.12 179.64 179.56 179.64 169 169.07 169 169.07 179.56 169.07 190.12 169.07 200.68 169.07 211.24 169.07 221.8 169.07 232.38 169.07 242.94 169.07 253.5 169.07 264.06 169.07 274.62 169.07 285.19 169.07 295.75 169.07 306.31 169.07 316.87 169.07 327.43 169.07 337.99 169.07 348.57 169.07 359.13 169.07 369.69 169.07 380.25 169.07 390.81 169.07 401.37 169.07 411.94 169.07 422.5 169.07 433.06 169.07 443.62 169.07 454.18 169.07 464.76 169.07 475.32 169.07 485.88 169.07 496.44 169.07 507 169.07 517.56 169.07 528.13 169.07 538.69 169.07 549.25 169.07 559.81 169.07 570.37 169.07 580.93 169.07 591.51 169.07 602.07 169.07 612.63 169.07 623.19 169.07 633.75 169.07 644.32 169.07 654.88 169.07 665.44 169.07 676 169.07 686.56 169.07 697.12 169.07 707.7 169.07 718.26 169.07 728.82 169.07 739.38 169.07 749.94 179.64 749.94 179.64 739.38"/>
      <polygon class="cls-4" points="179.64 10.56 190.2 10.56 200.78 10.56 211.34 10.56 221.91 10.56 232.47 10.56 243.03 10.56 253.61 10.56 264.17 10.56 274.74 10.56 285.3 10.56 295.88 10.56 306.44 10.56 317.01 10.56 327.57 10.56 338.13 10.56 348.71 10.56 359.27 10.56 369.84 10.56 380.4 10.56 390.98 10.56 401.54 10.56 412.1 10.56 422.67 10.56 433.23 10.56 443.81 10.56 454.37 10.56 464.94 10.56 475.5 10.56 486.08 10.56 496.64 10.56 496.64 0 486.08 0 475.5 0 464.94 0 454.37 0 443.81 0 433.23 0 422.67 0 412.1 0 401.54 0 390.98 0 380.4 0 369.84 0 359.27 0 348.71 0 338.13 0 327.57 0 317.01 0 306.44 0 295.88 0 285.3 0 274.74 0 264.17 0 253.61 0 243.03 0 232.47 0 221.91 0 211.34 0 200.78 0 190.2 0 179.64 0 169.07 0 158.51 0 158.51 10.56 169.07 10.56 179.64 10.56"/>
      <polygon class="cls-2" points="169.07 21.12 179.64 21.12 190.2 21.12 200.78 21.12 211.34 21.12 221.91 21.12 232.47 21.12 243.03 21.12 253.61 21.12 264.17 21.12 274.74 21.12 285.3 21.12 295.88 21.12 306.44 21.12 317.01 21.12 327.57 21.12 338.13 21.12 348.71 21.12 359.27 21.12 369.84 21.12 380.4 21.12 390.98 21.12 401.54 21.12 412.1 21.12 422.67 21.12 433.23 21.12 443.81 21.12 454.37 21.12 464.94 21.12 475.5 21.12 486.08 21.12 496.64 21.12 496.64 10.56 486.08 10.56 475.5 10.56 464.94 10.56 454.37 10.56 443.81 10.56 433.23 10.56 422.67 10.56 412.1 10.56 401.54 10.56 390.98 10.56 380.4 10.56 369.84 10.56 359.27 10.56 348.71 10.56 338.13 10.56 327.57 10.56 317.01 10.56 306.44 10.56 295.88 10.56 285.3 10.56 274.74 10.56 264.17 10.56 253.61 10.56 243.03 10.56 232.47 10.56 221.91 10.56 211.34 10.56 200.78 10.56 190.2 10.56 179.64 10.56 169.07 10.56 158.51 10.56 158.51 21.12 169.07 21.12"/>
      <path class="cls-1" d="M147.93,845.01V31.68h-21.12v10.57h-21.13v10.56h-10.58v10.56h-10.56v10.56h-10.57v10.56h-10.56v10.56h-10.56v10.58h-10.58v10.56h-10.56v21.12h-10.57v728.82h126.79v-21.12ZM126.81,169v602.07H52.85V211.24h10.56v-10.56h10.56v-10.56h10.57v-10.56h10.56v-10.56h10.58v-10.57h21.13v10.57Z"/>
      <polygon class="cls-4" points="147.93 21.12 158.51 21.12 158.51 10.56 147.93 10.56 137.37 10.56 126.81 10.56 126.81 21.12 137.37 21.12 147.93 21.12"/>
      <polygon class="cls-2" points="137.37 31.68 147.93 31.68 158.51 31.68 158.51 21.12 147.93 21.12 137.37 21.12 126.81 21.12 126.81 31.68 137.37 31.68"/>
      <polygon class="cls-2" points="116.24 179.56 116.24 190.12 116.24 200.68 105.68 200.68 105.68 211.24 95.1 211.24 95.1 221.8 95.1 232.38 95.1 242.94 95.1 253.5 95.1 264.06 95.1 274.62 95.1 285.19 95.1 295.75 95.1 306.31 95.1 316.87 95.1 327.43 95.1 337.99 95.1 348.57 95.1 359.13 95.1 369.69 95.1 380.25 95.1 390.81 95.1 401.37 95.1 411.94 95.1 422.5 95.1 433.06 95.1 443.62 95.1 454.18 95.1 464.76 95.1 475.32 95.1 485.88 95.1 496.44 95.1 507 95.1 517.56 95.1 528.13 95.1 538.69 95.1 549.25 95.1 559.81 95.1 570.37 95.1 580.93 95.1 591.51 95.1 602.07 95.1 612.63 95.1 623.19 95.1 633.75 95.1 644.32 95.1 654.88 95.1 665.44 95.1 676 95.1 686.56 95.1 697.12 95.1 707.7 95.1 718.26 95.1 728.82 95.1 739.38 95.1 749.94 95.1 760.5 105.68 760.5 116.24 760.5 126.81 760.5 126.81 749.94 126.81 739.38 126.81 728.82 126.81 718.26 126.81 707.7 126.81 697.12 126.81 686.56 126.81 676 126.81 665.44 126.81 654.88 126.81 644.32 126.81 633.75 126.81 623.19 126.81 612.63 126.81 602.07 126.81 591.51 126.81 580.93 126.81 570.37 126.81 559.81 126.81 549.25 126.81 538.69 126.81 528.13 126.81 517.56 126.81 507 126.81 496.44 126.81 485.88 126.81 475.32 126.81 464.76 126.81 454.18 126.81 443.62 126.81 433.06 126.81 422.5 126.81 411.94 126.81 401.37 126.81 390.81 126.81 380.25 126.81 369.69 126.81 359.13 126.81 348.57 126.81 337.99 126.81 327.43 126.81 316.87 126.81 306.31 126.81 295.75 126.81 285.19 126.81 274.62 126.81 264.06 126.81 253.5 126.81 242.94 126.81 232.38 126.81 221.8 126.81 211.24 126.81 200.68 126.81 190.12 126.81 179.56 126.81 169 116.24 169 116.24 179.56"/>
      <polygon class="cls-4" points="126.81 31.68 126.81 21.12 116.24 21.12 105.68 21.12 105.68 31.68 116.24 31.68 126.81 31.68"/>
      <polygon class="cls-7" points="105.68 760.5 95.1 760.5 84.54 760.5 73.97 760.5 63.41 760.5 63.41 749.94 63.41 739.38 63.41 728.82 63.41 718.26 63.41 707.7 63.41 697.12 63.41 686.56 63.41 676 63.41 665.44 63.41 654.88 63.41 644.32 63.41 633.75 63.41 623.19 63.41 612.63 63.41 602.07 63.41 591.51 63.41 580.93 63.41 570.37 63.41 559.81 63.41 549.25 63.41 538.69 63.41 528.13 63.41 517.56 63.41 507 63.41 496.44 63.41 485.88 63.41 475.32 63.41 464.76 63.41 454.18 63.41 443.62 63.41 433.06 63.41 422.5 63.41 411.94 63.41 401.37 63.41 390.81 63.41 380.25 63.41 369.69 63.41 359.13 63.41 348.57 63.41 337.99 63.41 327.43 63.41 316.87 63.41 306.31 63.41 295.75 63.41 285.19 63.41 274.62 63.41 264.06 63.41 253.5 63.41 242.94 63.41 232.38 63.41 221.8 63.41 211.24 52.85 211.24 52.85 221.8 52.85 232.38 52.85 242.94 52.85 253.5 52.85 264.06 52.85 274.62 52.85 285.19 52.85 295.75 52.85 306.31 52.85 316.87 52.85 327.43 52.85 337.99 52.85 348.57 52.85 359.13 52.85 369.69 52.85 380.25 52.85 390.81 52.85 401.37 52.85 411.94 52.85 422.5 52.85 433.06 52.85 443.62 52.85 454.18 52.85 464.76 52.85 475.32 52.85 485.88 52.85 496.44 52.85 507 52.85 517.56 52.85 528.13 52.85 538.69 52.85 549.25 52.85 559.81 52.85 570.37 52.85 580.93 52.85 591.51 52.85 602.07 52.85 612.63 52.85 623.19 52.85 633.75 52.85 644.32 52.85 654.88 52.85 665.44 52.85 676 52.85 686.56 52.85 697.12 52.85 707.7 52.85 718.26 52.85 728.82 52.85 739.38 52.85 749.94 52.85 760.5 52.85 771.07 63.41 771.07 73.97 771.07 84.54 771.07 95.1 771.07 105.68 771.07 116.24 771.07 126.81 771.07 126.81 760.5 116.24 760.5 105.68 760.5"/>
      <polygon class="cls-7" points="105.68 158.43 105.68 169 116.24 169 126.81 169 126.81 158.43 116.24 158.43 105.68 158.43"/>
      <polygon class="cls-2" points="116.24 42.25 126.81 42.25 126.81 31.68 116.24 31.68 105.68 31.68 105.68 42.25 116.24 42.25"/>
      <rect class="cls-7" x="95.1" y="169" width="10.58" height="10.56"/>
      <rect class="cls-2" x="95.1" y="42.25" width="10.58" height="10.56"/>
      <rect class="cls-4" x="95.1" y="31.68" width="10.58" height="10.57"/>
      <rect class="cls-7" x="84.54" y="179.56" width="10.56" height="10.56"/>
      <rect class="cls-2" x="84.54" y="52.81" width="10.56" height="10.56"/>
      <rect class="cls-4" x="84.54" y="42.25" width="10.56" height="10.56"/>
      <rect class="cls-7" x="73.97" y="190.12" width="10.57" height="10.56"/>
      <rect class="cls-2" x="73.97" y="63.37" width="10.57" height="10.56"/>
      <rect class="cls-4" x="73.97" y="52.81" width="10.57" height="10.56"/>
      <polygon class="cls-3" points="63.41 232.38 63.41 242.94 63.41 253.5 63.41 264.06 63.41 274.62 63.41 285.19 63.41 295.75 63.41 306.31 63.41 316.87 63.41 327.43 63.41 337.99 63.41 348.57 63.41 359.13 63.41 369.69 63.41 380.25 63.41 390.81 63.41 401.37 63.41 411.94 63.41 422.5 63.41 433.06 63.41 443.62 63.41 454.18 63.41 464.76 63.41 475.32 63.41 485.88 63.41 496.44 63.41 507 63.41 517.56 63.41 528.13 63.41 538.69 63.41 549.25 63.41 559.81 63.41 570.37 63.41 580.93 63.41 591.51 63.41 602.07 63.41 612.63 63.41 623.19 63.41 633.75 63.41 644.32 63.41 654.88 63.41 665.44 63.41 676 63.41 686.56 63.41 697.12 63.41 707.7 63.41 718.26 63.41 728.82 63.41 739.38 63.41 749.94 63.41 760.5 73.97 760.5 84.54 760.5 95.1 760.5 95.1 749.94 95.1 739.38 95.1 728.82 95.1 718.26 95.1 707.7 95.1 697.12 95.1 686.56 95.1 676 95.1 665.44 95.1 654.88 95.1 644.32 95.1 633.75 95.1 623.19 95.1 612.63 95.1 602.07 95.1 591.51 95.1 580.93 95.1 570.37 95.1 559.81 95.1 549.25 95.1 538.69 95.1 528.13 95.1 517.56 95.1 507 95.1 496.44 95.1 485.88 95.1 475.32 95.1 464.76 95.1 454.18 95.1 443.62 95.1 433.06 95.1 422.5 95.1 411.94 95.1 401.37 95.1 390.81 95.1 380.25 95.1 369.69 95.1 359.13 95.1 348.57 95.1 337.99 95.1 327.43 95.1 316.87 95.1 306.31 95.1 295.75 95.1 285.19 95.1 274.62 95.1 264.06 95.1 253.5 95.1 242.94 95.1 232.38 95.1 221.8 95.1 211.24 105.68 211.24 105.68 200.68 116.24 200.68 116.24 190.12 116.24 179.56 116.24 169 105.68 169 105.68 179.56 95.1 179.56 95.1 190.12 84.54 190.12 84.54 200.68 73.97 200.68 73.97 211.24 63.41 211.24 63.41 221.8 63.41 232.38"/>
      <rect class="cls-7" x="63.41" y="200.68" width="10.56" height="10.56"/>
      <rect class="cls-2" x="63.41" y="73.93" width="10.56" height="10.56"/>
      <rect class="cls-4" x="63.41" y="63.37" width="10.56" height="10.56"/>
      <rect class="cls-2" x="52.85" y="84.49" width="10.56" height="10.56"/>
      <rect class="cls-4" x="52.85" y="73.93" width="10.56" height="10.56"/>
      <rect class="cls-2" x="42.27" y="95.05" width="10.58" height="10.58"/>
      <rect class="cls-4" x="42.27" y="84.49" width="10.58" height="10.56"/>
      <rect class="cls-2" x="31.71" y="105.63" width="10.56" height="10.56"/>
      <rect class="cls-4" x="31.71" y="95.05" width="10.56" height="10.58"/>
      <polygon class="cls-2" points="21.14 137.31 31.71 137.31 31.71 126.75 31.71 116.19 21.14 116.19 21.14 126.75 21.14 137.31"/>
      <rect class="cls-4" x="21.14" y="105.63" width="10.57" height="10.56"/>
      <rect class="cls-4" x="10.58" y="866.13" width="10.56" height="10.56"/>
      <polygon class="cls-2" points="21.14 855.57 21.14 845.01 21.14 834.45 21.14 823.89 21.14 813.31 21.14 802.75 21.14 792.19 21.14 781.63 21.14 771.07 21.14 760.5 21.14 749.94 21.14 739.38 21.14 728.82 21.14 718.26 21.14 707.7 21.14 697.12 21.14 686.56 21.14 676 21.14 665.44 21.14 654.88 21.14 644.32 21.14 633.75 21.14 623.19 21.14 612.63 21.14 602.07 21.14 591.51 21.14 580.93 21.14 570.37 21.14 559.81 21.14 549.25 21.14 538.69 21.14 528.13 21.14 517.56 21.14 507 21.14 496.44 21.14 485.88 21.14 475.32 21.14 464.76 21.14 454.18 21.14 443.62 21.14 433.06 21.14 422.5 21.14 411.94 21.14 401.37 21.14 390.81 21.14 380.25 21.14 369.69 21.14 359.13 21.14 348.57 21.14 337.99 21.14 327.43 21.14 316.87 21.14 306.31 21.14 295.75 21.14 285.19 21.14 274.62 21.14 264.06 21.14 253.5 21.14 242.94 21.14 232.38 21.14 221.8 21.14 211.24 21.14 200.68 21.14 190.12 21.14 179.56 21.14 169 21.14 158.43 21.14 147.87 21.14 137.31 10.58 137.31 10.58 147.87 10.58 158.43 10.58 169 10.58 179.56 10.58 190.12 10.58 200.68 10.58 211.24 10.58 221.8 10.58 232.38 10.58 242.94 10.58 253.5 10.58 264.06 10.58 274.62 10.58 285.19 10.58 295.75 10.58 306.31 10.58 316.87 10.58 327.43 10.58 337.99 10.58 348.57 10.58 359.13 10.58 369.69 10.58 380.25 10.58 390.81 10.58 401.37 10.58 411.94 10.58 422.5 10.58 433.06 10.58 443.62 10.58 454.18 10.58 464.76 10.58 475.32 10.58 485.88 10.58 496.44 10.58 507 10.58 517.56 10.58 528.13 10.58 538.69 10.58 549.25 10.58 559.81 10.58 570.37 10.58 580.93 10.58 591.51 10.58 602.07 10.58 612.63 10.58 623.19 10.58 633.75 10.58 644.32 10.58 654.88 10.58 665.44 10.58 676 10.58 686.56 10.58 697.12 10.58 707.7 10.58 718.26 10.58 728.82 10.58 739.38 10.58 749.94 10.58 760.5 10.58 771.07 10.58 781.63 10.58 792.19 10.58 802.75 10.58 813.31 10.58 823.89 10.58 834.45 10.58 845.01 10.58 855.57 10.58 866.13 21.14 866.13 21.14 855.57"/>
      <polygon class="cls-4" points="21.14 126.75 21.14 116.19 10.58 116.19 10.58 126.75 10.58 137.31 21.14 137.31 21.14 126.75"/>
      <polygon class="cls-4" points="10.58 845.01 10.58 834.45 10.58 823.89 10.58 813.31 10.58 802.75 10.58 792.19 10.58 781.63 10.58 771.07 10.58 760.5 10.58 749.94 10.58 739.38 10.58 728.82 10.58 718.26 10.58 707.7 10.58 697.12 10.58 686.56 10.58 676 10.58 665.44 10.58 654.88 10.58 644.32 10.58 633.75 10.58 623.19 10.58 612.63 10.58 602.07 10.58 591.51 10.58 580.93 10.58 570.37 10.58 559.81 10.58 549.25 10.58 538.69 10.58 528.13 10.58 517.56 10.58 507 10.58 496.44 10.58 485.88 10.58 475.32 10.58 464.76 10.58 454.18 10.58 443.62 10.58 433.06 10.58 422.5 10.58 411.94 10.58 401.37 10.58 390.81 10.58 380.25 10.58 369.69 10.58 359.13 10.58 348.57 10.58 337.99 10.58 327.43 10.58 316.87 10.58 306.31 10.58 295.75 10.58 285.19 10.58 274.62 10.58 264.06 10.58 253.5 10.58 242.94 10.58 232.38 10.58 221.8 10.58 211.24 10.58 200.68 10.58 190.12 10.58 179.56 10.58 169 10.58 158.43 10.58 147.87 10.58 137.31 0 137.31 0 147.87 0 158.43 0 169 0 179.56 0 190.12 0 200.68 0 211.24 0 221.8 0 232.38 0 242.94 0 253.5 0 264.06 0 274.62 0 285.19 0 295.75 0 306.31 0 316.87 0 327.43 0 337.99 0 348.57 0 359.13 0 369.69 0 380.25 0 390.81 0 401.37 0 411.94 0 422.5 0 433.06 0 443.62 0 454.18 0 464.76 0 475.32 0 485.88 0 496.44 0 507 0 517.56 0 528.13 0 538.69 0 549.25 0 559.81 0 570.37 0 580.93 0 591.51 0 602.07 0 612.63 0 623.19 0 633.75 0 644.32 0 654.88 0 665.44 0 676 0 686.56 0 697.12 0 707.7 0 718.26 0 728.82 0 739.38 0 749.94 0 760.5 0 771.07 0 781.63 0 792.19 0 802.75 0 813.31 0 823.89 0 834.45 0 845.01 0 855.57 0 866.13 10.58 866.13 10.58 855.57 10.58 845.01"/>
    </g>
  </g>
</svg>