<?xml version="1.0" encoding="UTF-8"?>
<svg id="_レイヤー_2" data-name="レイヤー 2" xmlns="http://www.w3.org/2000/svg" xmlns:xlink="http://www.w3.org/1999/xlink" viewBox="0 0 401.53 538.7">
  <defs>
    <style>
      .cls-1 {
        fill: #3b0c79;
      }

      .cls-2 {
        fill: url(#_新規パターンスウォッチ_4);
      }

      .cls-3 {
        fill: #4800ff;
      }

      .cls-4, .cls-5 {
        fill: #fff;
      }

      .cls-6 {
        fill: #e5ff00;
      }

      .cls-7 {
        fill: none;
      }

      .cls-8 {
        fill: red;
      }

      .cls-5 {
        opacity: 0;
      }

      .cls-9 {
        fill: #b2ff00;
      }

      .cls-10 {
        fill: #a2a0c2;
      }

      .cls-11 {
        fill: #4a1999;
      }
    </style>
    <pattern id="_新規パターンスウォッチ_4" data-name="新規パターンスウォッチ 4" x="0" y="0" width="117.68" height="117.68" patternTransform="translate(697.85 -7198.91)" patternUnits="userSpaceOnUse" viewBox="0 0 117.68 117.68">
      <g>
        <rect class="cls-7" width="117.68" height="117.68"/>
        <rect class="cls-5" width="117.68" height="117.68"/>
      </g>
    </pattern>
  </defs>
  <g id="_レイヤー_1-2" data-name="レイヤー 1">
    <g>
      <rect class="cls-2" x="380.4" y="517.58" width="10.56" height="10.56"/>
      <rect class="cls-2" x="380.4" y="10.58" width="10.56" height="10.56"/>
      <polygon class="cls-2" points="359.26 528.14 348.7 528.14 338.13 528.14 327.57 528.14 327.57 538.7 338.13 538.7 348.7 538.7 359.26 538.7 369.82 538.7 380.4 538.7 380.4 528.14 369.82 528.14 359.26 528.14"/>
      <polygon class="cls-2" points="316.99 517.58 306.43 517.58 295.86 517.58 285.3 517.58 274.72 517.58 264.16 517.58 253.6 517.58 243.03 517.58 232.47 517.58 221.89 517.58 211.33 517.58 200.76 517.58 190.2 517.58 179.64 517.58 169.06 517.58 158.5 517.58 147.93 517.58 137.37 517.58 126.79 517.58 116.23 517.58 105.66 517.58 95.1 517.58 84.54 517.58 73.96 517.58 73.96 528.14 84.54 528.14 95.1 528.14 105.66 528.14 116.23 528.14 126.79 528.14 137.37 528.14 147.93 528.14 158.5 528.14 169.06 528.14 179.64 528.14 190.2 528.14 200.76 528.14 211.33 528.14 221.89 528.14 232.47 528.14 243.03 528.14 253.6 528.14 264.16 528.14 274.72 528.14 285.3 528.14 295.86 528.14 306.43 528.14 316.99 528.14 327.57 528.14 327.57 517.58 316.99 517.58"/>
      <polygon class="cls-2" points="52.83 528.14 42.27 528.14 31.69 528.14 21.13 528.14 21.13 538.7 31.69 538.7 42.27 538.7 52.83 538.7 63.4 538.7 73.96 538.7 73.96 528.14 63.4 528.14 52.83 528.14"/>
      <polygon class="cls-2" points="42.27 10.58 52.83 10.58 63.4 10.58 73.96 10.58 84.54 10.58 95.1 10.58 105.66 10.58 116.23 10.58 126.79 10.58 137.37 10.58 147.93 10.58 158.5 10.58 169.06 10.58 179.64 10.58 190.2 10.58 200.76 10.58 211.33 10.58 221.89 10.58 232.47 10.58 243.03 10.58 253.6 10.58 264.16 10.58 274.72 10.58 285.3 10.58 295.86 10.58 306.43 10.58 316.99 10.58 327.57 10.58 338.13 10.58 348.7 10.58 359.26 10.58 369.82 10.58 380.4 10.58 380.4 0 369.82 0 359.26 0 348.7 0 338.13 0 327.57 0 316.99 0 306.43 0 295.86 0 285.3 0 274.72 0 264.16 0 253.6 0 243.03 0 232.47 0 221.89 0 211.33 0 200.76 0 190.2 0 179.64 0 169.06 0 158.5 0 147.93 0 137.37 0 126.79 0 116.23 0 105.66 0 95.1 0 84.54 0 73.96 0 63.4 0 52.83 0 42.27 0 31.69 0 21.13 0 21.13 10.58 31.69 10.58 42.27 10.58"/>
      <rect class="cls-2" x="10.56" y="517.58" width="10.57" height="10.56"/>
      <rect class="cls-2" x="10.56" y="10.58" width="10.57" height="10.56"/>
      <polygon class="cls-2" points="10.56 496.46 10.56 485.9 10.56 475.32 10.56 464.76 10.56 454.2 10.56 443.64 10.56 433.08 10.56 422.51 10.56 411.95 10.56 401.39 10.56 390.83 10.56 380.27 10.56 369.71 10.56 359.13 10.56 348.57 10.56 338.01 10.56 327.45 10.56 316.89 10.56 306.33 10.56 295.76 10.56 285.2 10.56 274.64 10.56 264.08 10.56 253.52 10.56 242.94 10.56 232.38 10.56 221.82 10.56 211.26 10.56 200.7 10.56 190.14 10.56 179.57 10.56 169.01 10.56 158.45 10.56 147.89 10.56 137.33 10.56 126.77 10.56 116.19 10.56 105.63 10.56 95.07 10.56 84.51 10.56 73.95 10.56 63.38 10.56 52.82 10.56 42.26 10.56 31.7 10.56 21.14 0 21.14 0 31.7 0 42.26 0 52.82 0 63.38 0 73.95 0 84.51 0 95.07 0 105.63 0 116.19 0 126.77 0 137.33 0 147.89 0 158.45 0 169.01 0 179.57 0 190.14 0 200.7 0 211.26 0 221.82 0 232.38 0 242.94 0 253.52 0 264.08 0 274.64 0 285.2 0 295.76 0 306.33 0 316.89 0 327.45 0 338.01 0 348.57 0 359.13 0 369.71 0 380.27 0 390.83 0 401.39 0 411.95 0 422.51 0 433.08 0 443.64 0 454.2 0 464.76 0 475.32 0 485.9 0 496.46 0 507.02 0 517.58 10.56 517.58 10.56 507.02 10.56 496.46"/>
      <polygon class="cls-2" points="390.96 21.14 390.96 31.7 390.96 42.26 390.96 52.82 390.96 63.38 390.96 73.95 390.96 84.51 390.96 95.07 390.96 105.63 390.96 116.19 390.96 126.77 390.96 137.33 390.96 147.89 390.96 158.45 390.96 169.01 390.96 179.57 390.96 190.14 390.96 200.7 390.96 211.26 390.96 221.82 390.96 232.38 390.96 242.94 390.96 253.52 390.96 264.08 390.96 274.64 390.96 285.2 390.96 295.76 390.96 306.33 390.96 316.89 390.96 327.45 390.96 338.01 390.96 348.57 390.96 359.13 390.96 369.71 390.96 380.27 390.96 390.83 390.96 401.39 390.96 411.95 390.96 422.51 390.96 433.08 390.96 443.64 390.96 454.2 390.96 464.76 390.96 475.32 390.96 485.9 390.96 496.46 390.96 507.02 390.96 517.58 401.53 517.58 401.53 507.02 401.53 496.46 401.53 485.9 401.53 475.32 401.53 464.76 401.53 454.2 401.53 443.64 401.53 433.08 401.53 422.51 401.53 411.95 401.53 401.39 401.53 390.83 401.53 380.27 401.53 369.71 401.53 359.13 401.53 348.57 401.53 338.01 401.53 327.45 401.53 316.89 401.53 306.33 401.53 295.76 401.53 285.2 401.53 274.64 401.53 264.08 401.53 253.52 401.53 242.94 401.53 232.38 401.53 221.82 401.53 211.26 401.53 200.7 401.53 190.14 401.53 179.57 401.53 169.01 401.53 158.45 401.53 147.89 401.53 137.33 401.53 126.77 401.53 116.19 401.53 105.63 401.53 95.07 401.53 84.51 401.53 73.95 401.53 63.38 401.53 52.82 401.53 42.26 401.53 31.7 401.53 21.14 390.96 21.14"/>
      <polygon class="cls-1" points="390.96 496.46 390.96 485.9 390.96 475.32 390.96 464.76 390.96 454.2 390.96 443.64 390.96 433.08 390.96 422.51 390.96 411.95 390.96 401.39 390.96 390.83 390.96 380.27 390.96 369.71 390.96 359.13 390.96 348.57 390.96 338.01 390.96 327.45 390.96 316.89 390.96 306.33 390.96 295.76 390.96 285.2 390.96 274.64 390.96 264.08 390.96 253.52 390.96 242.94 390.96 232.38 390.96 221.82 390.96 211.26 390.96 200.7 390.96 190.14 390.96 179.57 390.96 169.01 390.96 158.45 390.96 147.89 390.96 137.33 390.96 126.77 390.96 116.19 390.96 105.63 390.96 95.07 390.96 84.51 390.96 73.95 390.96 63.38 390.96 52.82 390.96 42.26 390.96 31.7 390.96 21.14 380.4 21.14 380.4 10.58 369.82 10.58 369.82 21.14 369.82 31.7 380.4 31.7 380.4 42.26 380.4 52.82 380.4 63.38 380.4 73.95 380.4 84.51 380.4 95.07 380.4 105.63 380.4 116.19 380.4 126.77 380.4 137.33 380.4 147.89 380.4 158.45 380.4 169.01 380.4 179.57 380.4 190.14 380.4 200.7 380.4 211.26 380.4 221.82 380.4 232.38 380.4 242.94 380.4 253.52 380.4 264.08 380.4 274.64 380.4 285.2 380.4 295.76 380.4 306.33 380.4 316.89 380.4 327.45 380.4 338.01 380.4 348.57 380.4 359.13 380.4 369.71 380.4 380.27 380.4 390.83 380.4 401.39 380.4 411.95 380.4 422.51 380.4 433.08 380.4 443.64 380.4 454.2 380.4 464.76 380.4 475.32 380.4 485.9 380.4 496.46 369.82 496.46 369.82 507.02 359.26 507.02 348.7 507.02 338.13 507.02 327.57 507.02 316.99 507.02 306.43 507.02 295.86 507.02 285.3 507.02 274.72 507.02 264.16 507.02 253.6 507.02 243.03 507.02 232.47 507.02 221.89 507.02 211.33 507.02 200.76 507.02 190.2 507.02 179.64 507.02 169.06 507.02 158.5 507.02 147.93 507.02 137.37 507.02 126.79 507.02 116.23 507.02 105.66 507.02 95.1 507.02 84.54 507.02 73.96 507.02 63.4 507.02 52.83 507.02 42.27 507.02 31.69 507.02 31.69 496.46 21.13 496.46 21.13 507.02 21.13 517.58 21.13 528.14 31.69 528.14 42.27 528.14 52.83 528.14 63.4 528.14 73.96 528.14 73.96 517.58 84.54 517.58 95.1 517.58 105.66 517.58 116.23 517.58 126.79 517.58 137.37 517.58 147.93 517.58 158.5 517.58 169.06 517.58 179.64 517.58 190.2 517.58 200.76 517.58 211.33 517.58 221.89 517.58 232.47 517.58 243.03 517.58 253.6 517.58 264.16 517.58 274.72 517.58 285.3 517.58 295.86 517.58 306.43 517.58 316.99 517.58 327.57 517.58 327.57 528.14 338.13 528.14 348.7 528.14 359.26 528.14 369.82 528.14 380.4 528.14 380.4 517.58 390.96 517.58 390.96 507.02 390.96 496.46"/>
      <path class="cls-1" d="M348.7,242.94h-31.71v42.26h52.83v-42.26h-21.12ZM359.26,264.08v10.56h-31.69v-21.12h31.69v10.56Z"/>
      <path class="cls-1" d="M348.7,126.77h-31.71v105.61h52.83v-105.61h-21.12ZM359.26,147.89v73.93h-31.69v-84.49h31.69v10.56Z"/>
      <path class="cls-10" d="M348.7,21.14H31.69v10.56h-10.56v464.76h10.56v10.56h338.13v-10.56h10.58V31.7h-10.58v-10.56h-21.12ZM306.43,126.77v211.24h-10.57v10.56H52.83v-10.56h-10.56V52.82h10.56v-10.56h243.03v10.56h10.57v73.95ZM359.26,338.01v21.12h-31.69v-31.68h31.69v10.56ZM42.27,454.2v-31.69h10.56v-10.56h243.03v10.56h10.57v42.25h-10.57v10.56H52.83v-10.56h-10.56v-10.56ZM42.27,380.27v-10.56h10.56v-10.58h95.1v10.58h10.57v21.12h-10.57v10.56H52.83v-10.56h-10.56v-10.56ZM369.82,253.52v31.68h-52.83v-42.26h52.83v10.58ZM369.82,137.33v95.05h-52.83v-105.61h52.83v10.56Z"/>
      <rect class="cls-3" x="338.13" y="338.01" width="10.57" height="10.56"/>
      <path class="cls-1" d="M338.13,327.45h-10.56v31.68h31.69v-31.68h-21.13ZM348.7,348.57h-10.57v-10.56h10.57v10.56Z"/>
      <polygon class="cls-3" points="338.13 253.52 327.57 253.52 327.57 264.08 327.57 274.64 338.13 274.64 348.7 274.64 359.26 274.64 359.26 264.08 359.26 253.52 348.7 253.52 338.13 253.52"/>
      <polygon class="cls-3" points="338.13 137.33 327.57 137.33 327.57 147.89 327.57 158.45 327.57 169.01 327.57 179.57 327.57 190.14 327.57 200.7 327.57 211.26 327.57 221.82 338.13 221.82 348.7 221.82 359.26 221.82 359.26 211.26 359.26 200.7 359.26 190.14 359.26 179.57 359.26 169.01 359.26 158.45 359.26 147.89 359.26 137.33 348.7 137.33 338.13 137.33"/>
      <polygon class="cls-1" points="295.86 443.64 295.86 454.2 295.86 464.76 306.43 464.76 306.43 454.2 306.43 443.64 306.43 433.08 306.43 422.51 295.86 422.51 295.86 433.08 295.86 443.64"/>
      <polygon class="cls-4" points="306.43 95.07 306.43 84.51 306.43 73.95 306.43 63.38 306.43 52.82 295.86 52.82 295.86 63.38 295.86 73.95 295.86 84.51 295.86 95.07 295.86 105.63 295.86 116.19 295.86 126.77 295.86 137.33 295.86 147.89 295.86 158.45 295.86 169.01 295.86 179.57 295.86 190.14 295.86 200.7 295.86 211.26 295.86 221.82 295.86 232.38 295.86 242.94 295.86 253.52 295.86 264.08 295.86 274.64 295.86 285.2 295.86 295.76 295.86 306.33 295.86 316.89 295.86 327.45 295.86 338.01 306.43 338.01 306.43 327.45 306.43 316.89 306.43 306.33 306.43 295.76 306.43 285.2 306.43 274.64 306.43 264.08 306.43 253.52 306.43 242.94 306.43 232.38 306.43 221.82 306.43 211.26 306.43 200.7 306.43 190.14 306.43 179.57 306.43 169.01 306.43 158.45 306.43 147.89 306.43 137.33 306.43 126.77 306.43 116.19 306.43 105.63 306.43 95.07"/>
      <polygon class="cls-9" points="295.86 316.89 295.86 306.33 295.86 295.76 295.86 285.2 295.86 274.64 295.86 264.08 295.86 253.52 295.86 242.94 295.86 232.38 295.86 221.82 295.86 211.26 295.86 200.7 295.86 190.14 295.86 179.57 295.86 169.01 295.86 158.45 295.86 147.89 295.86 137.33 285.3 137.33 285.3 147.89 285.3 158.45 274.72 158.45 274.72 169.01 274.72 179.57 274.72 190.14 264.16 190.14 264.16 200.7 264.16 211.26 253.6 211.26 253.6 221.82 243.03 221.82 243.03 232.38 243.03 242.94 232.47 242.94 232.47 253.52 221.89 253.52 221.89 264.08 211.33 264.08 211.33 274.64 200.76 274.64 190.2 274.64 190.2 285.2 179.64 285.2 179.64 295.76 169.06 295.76 158.5 295.76 158.5 306.33 147.93 306.33 147.93 316.89 137.37 316.89 126.79 316.89 116.23 316.89 116.23 327.45 105.66 327.45 95.1 327.45 84.54 327.45 84.54 338.01 95.1 338.01 105.66 338.01 116.23 338.01 126.79 338.01 137.37 338.01 147.93 338.01 158.5 338.01 169.06 338.01 179.64 338.01 190.2 338.01 200.76 338.01 211.33 338.01 221.89 338.01 232.47 338.01 243.03 338.01 253.6 338.01 264.16 338.01 274.72 338.01 285.3 338.01 295.86 338.01 295.86 327.45 295.86 316.89"/>
      <polygon class="cls-1" points="274.72 464.76 264.16 464.76 253.6 464.76 243.03 464.76 232.47 464.76 221.89 464.76 211.33 464.76 200.76 464.76 190.2 464.76 179.64 464.76 169.06 464.76 158.5 464.76 147.93 464.76 137.37 464.76 126.79 464.76 116.23 464.76 105.66 464.76 95.1 464.76 84.54 464.76 73.96 464.76 63.4 464.76 52.83 464.76 52.83 475.32 63.4 475.32 73.96 475.32 84.54 475.32 95.1 475.32 105.66 475.32 116.23 475.32 126.79 475.32 137.37 475.32 147.93 475.32 158.5 475.32 169.06 475.32 179.64 475.32 190.2 475.32 200.76 475.32 211.33 475.32 221.89 475.32 232.47 475.32 243.03 475.32 253.6 475.32 264.16 475.32 274.72 475.32 285.3 475.32 295.86 475.32 295.86 464.76 285.3 464.76 274.72 464.76"/>
      <polygon class="cls-4" points="274.72 338.01 264.16 338.01 253.6 338.01 243.03 338.01 232.47 338.01 221.89 338.01 211.33 338.01 200.76 338.01 190.2 338.01 179.64 338.01 169.06 338.01 158.5 338.01 147.93 338.01 137.37 338.01 126.79 338.01 116.23 338.01 105.66 338.01 95.1 338.01 84.54 338.01 73.96 338.01 63.4 338.01 52.83 338.01 52.83 348.57 63.4 348.57 73.96 348.57 84.54 348.57 95.1 348.57 105.66 348.57 116.23 348.57 126.79 348.57 137.37 348.57 147.93 348.57 158.5 348.57 169.06 348.57 179.64 348.57 190.2 348.57 200.76 348.57 211.33 348.57 221.89 348.57 232.47 348.57 243.03 348.57 253.6 348.57 264.16 348.57 274.72 348.57 285.3 348.57 295.86 348.57 295.86 338.01 285.3 338.01 274.72 338.01"/>
      <polygon class="cls-1" points="147.93 390.83 158.5 390.83 158.5 380.27 158.5 369.71 147.93 369.71 147.93 380.27 147.93 390.83"/>
      <polygon class="cls-1" points="126.79 390.83 116.23 390.83 105.66 390.83 95.1 390.83 84.54 390.83 73.96 390.83 63.4 390.83 52.83 390.83 52.83 401.39 63.4 401.39 73.96 401.39 84.54 401.39 95.1 401.39 105.66 401.39 116.23 401.39 126.79 401.39 137.37 401.39 147.93 401.39 147.93 390.83 137.37 390.83 126.79 390.83"/>
      <polygon class="cls-1" points="73.96 422.51 84.54 422.51 95.1 422.51 105.66 422.51 116.23 422.51 126.79 422.51 137.37 422.51 147.93 422.51 158.5 422.51 169.06 422.51 179.64 422.51 190.2 422.51 200.76 422.51 211.33 422.51 221.89 422.51 232.47 422.51 243.03 422.51 253.6 422.51 264.16 422.51 274.72 422.51 285.3 422.51 295.86 422.51 295.86 411.95 285.3 411.95 274.72 411.95 264.16 411.95 253.6 411.95 243.03 411.95 232.47 411.95 221.89 411.95 211.33 411.95 200.76 411.95 190.2 411.95 179.64 411.95 169.06 411.95 158.5 411.95 147.93 411.95 137.37 411.95 126.79 411.95 116.23 411.95 105.66 411.95 95.1 411.95 84.54 411.95 73.96 411.95 63.4 411.95 52.83 411.95 52.83 422.51 63.4 422.51 73.96 422.51"/>
      <polygon class="cls-1" points="73.96 369.71 84.54 369.71 95.1 369.71 105.66 369.71 116.23 369.71 126.79 369.71 137.37 369.71 147.93 369.71 147.93 359.13 137.37 359.13 126.79 359.13 116.23 359.13 105.66 359.13 95.1 359.13 84.54 359.13 73.96 359.13 63.4 359.13 52.83 359.13 52.83 369.71 63.4 369.71 73.96 369.71"/>
      <polygon class="cls-6" points="73.96 338.01 84.54 338.01 84.54 327.45 95.1 327.45 105.66 327.45 116.23 327.45 116.23 316.89 126.79 316.89 137.37 316.89 147.93 316.89 147.93 306.33 158.5 306.33 158.5 295.76 169.06 295.76 179.64 295.76 179.64 285.2 190.2 285.2 190.2 274.64 200.76 274.64 211.33 274.64 211.33 264.08 221.89 264.08 221.89 253.52 232.47 253.52 232.47 242.94 243.03 242.94 243.03 232.38 243.03 221.82 253.6 221.82 253.6 211.26 264.16 211.26 264.16 200.7 264.16 190.14 274.72 190.14 274.72 179.57 274.72 169.01 274.72 158.45 285.3 158.45 285.3 147.89 285.3 137.33 295.86 137.33 295.86 126.77 295.86 116.19 295.86 105.63 295.86 95.07 295.86 84.51 295.86 73.95 295.86 63.38 295.86 52.82 285.3 52.82 274.72 52.82 264.16 52.82 253.6 52.82 243.03 52.82 232.47 52.82 221.89 52.82 211.33 52.82 200.76 52.82 190.2 52.82 179.64 52.82 169.06 52.82 158.5 52.82 147.93 52.82 137.37 52.82 126.79 52.82 116.23 52.82 105.66 52.82 95.1 52.82 84.54 52.82 73.96 52.82 63.4 52.82 52.83 52.82 52.83 63.38 52.83 73.95 52.83 84.51 52.83 95.07 52.83 105.63 52.83 116.19 52.83 126.77 52.83 137.33 52.83 147.89 52.83 158.45 52.83 169.01 52.83 179.57 52.83 190.14 52.83 200.7 52.83 211.26 52.83 221.82 52.83 232.38 52.83 242.94 52.83 253.52 52.83 264.08 52.83 274.64 52.83 285.2 52.83 295.76 52.83 306.33 52.83 316.89 52.83 327.45 52.83 338.01 63.4 338.01 73.96 338.01"/>
      <polygon class="cls-4" points="73.96 52.82 84.54 52.82 95.1 52.82 105.66 52.82 116.23 52.82 126.79 52.82 137.37 52.82 147.93 52.82 158.5 52.82 169.06 52.82 179.64 52.82 190.2 52.82 200.76 52.82 211.33 52.82 221.89 52.82 232.47 52.82 243.03 52.82 253.6 52.82 264.16 52.82 274.72 52.82 285.3 52.82 295.86 52.82 295.86 42.26 285.3 42.26 274.72 42.26 264.16 42.26 253.6 42.26 243.03 42.26 232.47 42.26 221.89 42.26 211.33 42.26 200.76 42.26 190.2 42.26 179.64 42.26 169.06 42.26 158.5 42.26 147.93 42.26 137.37 42.26 126.79 42.26 116.23 42.26 105.66 42.26 95.1 42.26 84.54 42.26 73.96 42.26 63.4 42.26 52.83 42.26 52.83 52.82 63.4 52.82 73.96 52.82"/>
      <polygon class="cls-3" points="52.83 443.64 52.83 454.2 52.83 464.76 63.4 464.76 73.96 464.76 84.54 464.76 95.1 464.76 105.66 464.76 116.23 464.76 126.79 464.76 137.37 464.76 147.93 464.76 158.5 464.76 169.06 464.76 179.64 464.76 190.2 464.76 200.76 464.76 211.33 464.76 221.89 464.76 232.47 464.76 243.03 464.76 253.6 464.76 264.16 464.76 274.72 464.76 285.3 464.76 295.86 464.76 295.86 454.2 295.86 443.64 295.86 433.08 295.86 422.51 285.3 422.51 274.72 422.51 264.16 422.51 253.6 422.51 243.03 422.51 232.47 422.51 221.89 422.51 211.33 422.51 200.76 422.51 190.2 422.51 179.64 422.51 169.06 422.51 158.5 422.51 147.93 422.51 137.37 422.51 126.79 422.51 116.23 422.51 105.66 422.51 95.1 422.51 84.54 422.51 73.96 422.51 63.4 422.51 52.83 422.51 52.83 433.08 52.83 443.64"/>
      <polygon class="cls-8" points="52.83 390.83 63.4 390.83 73.96 390.83 84.54 390.83 95.1 390.83 105.66 390.83 116.23 390.83 126.79 390.83 137.37 390.83 147.93 390.83 147.93 380.27 147.93 369.71 137.37 369.71 126.79 369.71 116.23 369.71 105.66 369.71 95.1 369.71 84.54 369.71 73.96 369.71 63.4 369.71 52.83 369.71 52.83 380.27 52.83 390.83"/>
      <polygon class="cls-1" points="52.83 454.2 52.83 443.64 52.83 433.08 52.83 422.51 42.27 422.51 42.27 433.08 42.27 443.64 42.27 454.2 42.27 464.76 52.83 464.76 52.83 454.2"/>
      <polygon class="cls-1" points="52.83 380.27 52.83 369.71 42.27 369.71 42.27 380.27 42.27 390.83 52.83 390.83 52.83 380.27"/>
      <polygon class="cls-4" points="52.83 316.89 52.83 306.33 52.83 295.76 52.83 285.2 52.83 274.64 52.83 264.08 52.83 253.52 52.83 242.94 52.83 232.38 52.83 221.82 52.83 211.26 52.83 200.7 52.83 190.14 52.83 179.57 52.83 169.01 52.83 158.45 52.83 147.89 52.83 137.33 52.83 126.77 52.83 116.19 52.83 105.63 52.83 95.07 52.83 84.51 52.83 73.95 52.83 63.38 52.83 52.82 42.27 52.82 42.27 63.38 42.27 73.95 42.27 84.51 42.27 95.07 42.27 105.63 42.27 116.19 42.27 126.77 42.27 137.33 42.27 147.89 42.27 158.45 42.27 169.01 42.27 179.57 42.27 190.14 42.27 200.7 42.27 211.26 42.27 221.82 42.27 232.38 42.27 242.94 42.27 253.52 42.27 264.08 42.27 274.64 42.27 285.2 42.27 295.76 42.27 306.33 42.27 316.89 42.27 327.45 42.27 338.01 52.83 338.01 52.83 327.45 52.83 316.89"/>
      <polygon class="cls-11" points="21.13 507.02 21.13 496.46 21.13 485.9 21.13 475.32 21.13 464.76 21.13 454.2 21.13 443.64 21.13 433.08 21.13 422.51 21.13 411.95 21.13 401.39 21.13 390.83 21.13 380.27 21.13 369.71 21.13 359.13 21.13 348.57 21.13 338.01 21.13 327.45 21.13 316.89 21.13 306.33 21.13 295.76 21.13 285.2 21.13 274.64 21.13 264.08 21.13 253.52 21.13 242.94 21.13 232.38 21.13 221.82 21.13 211.26 21.13 200.7 21.13 190.14 21.13 179.57 21.13 169.01 21.13 158.45 21.13 147.89 21.13 137.33 21.13 126.77 21.13 116.19 21.13 105.63 21.13 95.07 21.13 84.51 21.13 73.95 21.13 63.38 21.13 52.82 21.13 42.26 21.13 31.7 31.69 31.7 31.69 21.14 42.27 21.14 52.83 21.14 63.4 21.14 73.96 21.14 84.54 21.14 95.1 21.14 105.66 21.14 116.23 21.14 126.79 21.14 137.37 21.14 147.93 21.14 158.5 21.14 169.06 21.14 179.64 21.14 190.2 21.14 200.76 21.14 211.33 21.14 221.89 21.14 232.47 21.14 243.03 21.14 253.6 21.14 264.16 21.14 274.72 21.14 285.3 21.14 295.86 21.14 306.43 21.14 316.99 21.14 327.57 21.14 338.13 21.14 348.7 21.14 359.26 21.14 369.82 21.14 369.82 10.58 359.26 10.58 348.7 10.58 338.13 10.58 327.57 10.58 316.99 10.58 306.43 10.58 295.86 10.58 285.3 10.58 274.72 10.58 264.16 10.58 253.6 10.58 243.03 10.58 232.47 10.58 221.89 10.58 211.33 10.58 200.76 10.58 190.2 10.58 179.64 10.58 169.06 10.58 158.5 10.58 147.93 10.58 137.37 10.58 126.79 10.58 116.23 10.58 105.66 10.58 95.1 10.58 84.54 10.58 73.96 10.58 63.4 10.58 52.83 10.58 42.27 10.58 31.69 10.58 21.13 10.58 21.13 21.14 10.56 21.14 10.56 31.7 10.56 42.26 10.56 52.82 10.56 63.38 10.56 73.95 10.56 84.51 10.56 95.07 10.56 105.63 10.56 116.19 10.56 126.77 10.56 137.33 10.56 147.89 10.56 158.45 10.56 169.01 10.56 179.57 10.56 190.14 10.56 200.7 10.56 211.26 10.56 221.82 10.56 232.38 10.56 242.94 10.56 253.52 10.56 264.08 10.56 274.64 10.56 285.2 10.56 295.76 10.56 306.33 10.56 316.89 10.56 327.45 10.56 338.01 10.56 348.57 10.56 359.13 10.56 369.71 10.56 380.27 10.56 390.83 10.56 401.39 10.56 411.95 10.56 422.51 10.56 433.08 10.56 443.64 10.56 454.2 10.56 464.76 10.56 475.32 10.56 485.9 10.56 496.46 10.56 507.02 10.56 517.58 21.13 517.58 21.13 507.02"/>
    </g>
  </g>
</svg>