<?xml version="1.0" encoding="UTF-8"?>
<svg id="_レイヤー_2" data-name="レイヤー 2" xmlns="http://www.w3.org/2000/svg" viewBox="0 0 112.71 183.08">
  <defs>
    <style>
      .cls-1 {
        fill: #4e4c77;
      }

      .cls-2 {
        fill: #b2ff00;
      }

      .cls-3 {
        fill: #a2a0c2;
      }
    </style>
  </defs>
  <g id="_レイヤー_1-2" data-name="レイヤー 1">
    <g>
      <polygon class="cls-3" points="105.66 63.37 105.66 70.42 98.62 70.42 91.58 70.42 91.58 77.46 98.62 77.46 98.62 84.5 98.62 91.54 98.62 98.58 98.62 105.62 98.62 112.67 98.62 119.71 98.62 126.75 98.62 133.79 98.62 140.83 98.62 147.8 98.63 147.88 98.62 147.85 98.62 147.87 98.62 154.92 98.62 161.96 91.58 161.96 91.58 169 98.62 169 105.66 169 105.66 161.96 112.71 161.96 112.71 154.92 112.71 147.87 112.71 140.83 112.71 133.79 112.71 126.75 112.71 119.71 112.71 112.67 112.71 105.62 112.71 98.58 112.71 91.54 112.71 84.5 112.71 77.46 112.71 70.42 112.71 63.37 105.66 63.37"/>
      <polygon class="cls-1" points="98.62 161.96 98.62 154.92 98.62 147.87 98.62 147.85 98.63 147.88 98.62 147.8 98.62 140.83 98.62 133.79 98.62 126.75 98.62 119.71 98.62 112.67 98.62 105.62 98.62 98.58 98.62 91.54 98.62 84.5 98.62 77.46 91.58 77.46 91.58 84.5 84.53 84.5 84.53 91.54 84.53 98.58 84.53 105.62 84.53 112.67 84.53 119.71 84.53 126.75 84.53 133.79 84.53 140.83 84.53 147.87 84.53 154.92 84.53 161.96 77.49 161.96 77.49 169 84.53 169 91.58 169 91.58 161.96 98.62 161.96"/>
      <polygon class="cls-2" points="91.58 63.37 91.58 70.42 98.62 70.42 105.66 70.42 105.66 63.37 98.62 63.37 91.58 63.37"/>
      <rect class="cls-3" x="84.53" y="63.37" width="7.05" height="7.05"/>
      <path class="cls-3" d="M77.49,169v-7.04h7.04v-77.46h7.05v-7.04h-21.14v7.04h-21.13v-7.04h-21.13v-7.04h-14.09v-7.05h-7.05v91.55h7.05v14.08h14.09v7.04h14.09v7.04h35.22v-7.04h14.09v-7.04h-14.09ZM63.4,176.04v-84.5h7.04v84.5h-7.04Z"/>
      <polygon class="cls-2" points="77.49 70.42 70.44 70.42 70.44 77.46 77.49 77.46 84.53 77.46 91.58 77.46 91.58 70.42 84.53 70.42 77.49 70.42"/>
      <polygon class="cls-3" points="77.49 28.17 84.53 28.17 84.53 35.21 84.53 42.25 91.58 42.25 91.58 49.29 91.58 56.33 91.58 63.37 98.62 63.37 105.66 63.37 105.66 56.33 105.66 49.29 105.66 42.25 105.66 35.21 98.62 35.21 98.62 28.17 91.58 28.17 91.58 21.12 84.53 21.12 84.53 14.08 77.49 14.08 77.49 21.12 77.49 28.17"/>
      <rect class="cls-3" x="70.44" y="7.04" width="7.05" height="7.04"/>
      <polygon class="cls-1" points="70.44 161.96 70.44 154.92 70.44 147.87 70.44 140.83 70.44 133.79 70.44 126.75 70.44 119.71 70.44 112.67 70.44 105.62 70.44 98.58 70.44 91.54 63.4 91.54 63.4 98.58 63.4 105.62 63.4 112.67 63.4 119.71 63.4 126.75 63.4 133.79 63.4 140.83 63.4 147.87 63.4 154.92 63.4 161.96 63.4 169 63.4 176.04 70.44 176.04 70.44 169 70.44 161.96"/>
      <polygon class="cls-1" points="70.44 49.29 70.44 42.25 63.4 42.25 63.4 35.21 56.35 35.21 56.35 42.25 56.35 49.29 63.4 49.29 63.4 56.33 63.4 63.37 70.44 63.37 70.44 56.33 70.44 49.29"/>
      <polygon class="cls-2" points="56.35 77.46 49.31 77.46 49.31 84.5 56.35 84.5 63.4 84.5 70.44 84.5 70.44 77.46 63.4 77.46 56.35 77.46"/>
      <rect class="cls-1" x="56.35" y="63.37" width="7.05" height="7.05"/>
      <polygon class="cls-1" points="56.35 7.04 56.35 14.08 63.4 14.08 63.4 21.12 63.4 28.17 70.44 28.17 70.44 35.21 77.49 35.21 77.49 42.25 77.49 49.29 77.49 56.33 77.49 63.37 70.44 63.37 70.44 70.42 77.49 70.42 84.53 70.42 84.53 63.37 91.58 63.37 91.58 56.33 91.58 49.29 91.58 42.25 84.53 42.25 84.53 35.21 84.53 28.17 77.49 28.17 77.49 21.12 77.49 14.08 70.44 14.08 70.44 7.04 63.4 7.04 56.35 7.04"/>
      <polygon class="cls-3" points="63.4 7.04 70.44 7.04 70.44 0 63.4 0 56.35 0 56.35 7.04 63.4 7.04"/>
      <polygon class="cls-2" points="56.35 7.04 56.35 0 49.31 0 42.27 0 42.27 7.04 49.31 7.04 56.35 7.04"/>
      <polygon class="cls-2" points="42.27 70.42 35.22 70.42 28.18 70.42 28.18 77.46 35.22 77.46 42.27 77.46 49.31 77.46 49.31 70.42 42.27 70.42"/>
      <rect class="cls-2" x="35.22" y="7.04" width="7.05" height="7.04"/>
      <rect class="cls-2" x="28.18" y="14.08" width="7.04" height="7.04"/>
      <polygon class="cls-2" points="21.13 63.37 14.09 63.37 14.09 70.42 21.13 70.42 28.18 70.42 28.18 63.37 21.13 63.37"/>
      <rect class="cls-2" x="21.13" y="21.12" width="7.05" height="7.05"/>
      <polygon class="cls-3" points="14.09 49.29 14.09 56.33 14.09 63.37 21.13 63.37 28.18 63.37 28.18 70.42 35.22 70.42 42.27 70.42 49.31 70.42 49.31 77.46 56.35 77.46 63.4 77.46 70.44 77.46 70.44 70.42 70.44 63.37 63.4 63.37 63.4 70.42 56.35 70.42 56.35 63.37 63.4 63.37 63.4 56.33 63.4 49.29 56.35 49.29 56.35 42.25 56.35 35.21 63.4 35.21 63.4 42.25 70.44 42.25 70.44 49.29 70.44 56.33 70.44 63.37 77.49 63.37 77.49 56.33 77.49 49.29 77.49 42.25 77.49 35.21 70.44 35.21 70.44 28.17 63.4 28.17 63.4 21.12 63.4 14.08 56.35 14.08 56.35 7.04 49.31 7.04 42.27 7.04 42.27 14.08 35.22 14.08 35.22 21.12 28.18 21.12 28.18 28.17 21.13 28.17 21.13 35.21 14.09 35.21 14.09 42.25 14.09 49.29"/>
      <rect class="cls-2" x="14.09" y="28.17" width="7.04" height="7.04"/>
      <rect class="cls-2" x="7.04" y="154.92" width="7.05" height="7.04"/>
      <polygon class="cls-2" points="14.09 56.33 14.09 49.29 14.09 42.25 14.09 35.21 7.04 35.21 7.04 42.25 7.04 49.29 7.04 56.33 7.04 63.37 14.09 63.37 14.09 56.33"/>
      <polygon class="cls-2" points="7.04 140.83 7.04 133.79 7.04 126.75 7.04 119.71 7.04 112.67 7.04 105.62 7.04 98.58 7.04 91.54 7.04 84.5 7.04 77.46 7.04 70.42 7.04 63.37 0 63.37 0 70.42 0 77.46 0 84.5 0 91.54 0 98.58 0 105.62 0 112.67 0 119.71 0 126.75 0 133.79 0 140.83 0 147.87 0 154.92 7.04 154.92 7.04 147.87 7.04 140.83"/>
    </g>
  </g>
</svg>