<?xml version="1.0" encoding="UTF-8"?>
<svg id="_レイヤー_2" data-name="レイヤー 2" xmlns="http://www.w3.org/2000/svg" viewBox="0 0 112.71 624.69">
  <defs>
    <style>
      .cls-1 {
        fill: #4e4c77;
      }

      .cls-2 {
        fill: #b2ff00;
      }

      .cls-3 {
        fill: #a2a0c2;
      }
    </style>
  </defs>
  <g id="_レイヤー_1-2" data-name="レイヤー 1">
    <g>
      <path class="cls-3" d="M105.66,70.42h-14.08v7.04h7.04v70.42s0-.04,0-.04v14.12h-7.04v6.36h-7.05v-83.82h7.05v-7.04h-21.14v7.04h-21.13v-7.04h-21.13v-7.04h-14.09v-7.05h-7.05v91.55h7.05v14.08h7.04v-.68h7.05v-7.04h7.04v-7.04h7.05v-7.04h14.08v7.04h14.09v7.04h7.05v14.09h7.04v14.08h7.05v21.12h14.08v-28.16h-7.04v-7.04h-7.04v-6.37h14.08v-7.04h7.05V63.37h-7.05v7.05ZM63.4,140.83v-49.29h7.04v55.66h-7.04v-6.37Z"/>
      <polygon class="cls-2" points="91.58 63.37 91.58 70.42 98.62 70.42 105.66 70.42 105.66 63.37 98.62 63.37 91.58 63.37"/>
      <polygon class="cls-1" points="84.53 84.5 84.53 91.54 84.53 98.58 84.53 105.62 84.53 112.67 84.53 119.71 84.53 126.75 84.53 133.79 84.53 140.83 84.53 147.87 84.53 154.92 84.53 161.28 84.53 161.96 84.53 168.32 91.58 168.32 91.58 161.96 98.62 161.96 98.62 154.92 98.62 147.87 98.62 147.84 98.63 147.88 98.62 147.8 98.62 140.83 98.62 133.79 98.62 126.75 98.62 119.71 98.62 112.67 98.62 105.62 98.62 98.58 98.62 91.54 98.62 84.5 98.62 77.46 91.58 77.46 91.58 84.5 84.53 84.5"/>
      <rect class="cls-3" x="84.53" y="63.37" width="7.05" height="7.05"/>
      <polygon class="cls-2" points="77.49 70.42 70.44 70.42 70.44 77.46 77.49 77.46 84.53 77.46 91.58 77.46 91.58 70.42 84.53 70.42 77.49 70.42"/>
      <polygon class="cls-3" points="77.49 28.17 84.53 28.17 84.53 35.21 84.53 42.25 91.58 42.25 91.58 49.29 91.58 56.33 91.58 63.37 98.62 63.37 105.66 63.37 105.66 56.33 105.66 49.29 105.66 42.25 105.66 35.21 98.62 35.21 98.62 28.17 91.58 28.17 91.58 21.12 84.53 21.12 84.53 14.08 77.49 14.08 77.49 21.12 77.49 28.17"/>
      <rect class="cls-3" x="70.44" y="7.04" width="7.05" height="7.04"/>
      <polygon class="cls-1" points="70.44 140.83 70.44 133.79 70.44 126.75 70.44 119.71 70.44 112.67 70.44 105.62 70.44 98.58 70.44 91.54 63.4 91.54 63.4 98.58 63.4 105.62 63.4 112.67 63.4 119.71 63.4 126.75 63.4 133.79 63.4 140.83 63.4 147.2 70.44 147.2 70.44 140.83"/>
      <polygon class="cls-1" points="70.44 49.29 70.44 42.25 63.4 42.25 63.4 35.21 56.35 35.21 56.35 42.25 56.35 49.29 63.4 49.29 63.4 56.33 63.4 63.37 70.44 63.37 70.44 56.33 70.44 49.29"/>
      <polygon class="cls-2" points="56.35 77.46 49.31 77.46 49.31 84.5 56.35 84.5 63.4 84.5 70.44 84.5 70.44 77.46 63.4 77.46 56.35 77.46"/>
      <rect class="cls-1" x="56.35" y="63.37" width="7.05" height="7.05"/>
      <polygon class="cls-1" points="56.35 7.04 56.35 14.08 63.4 14.08 63.4 21.12 63.4 28.17 70.44 28.17 70.44 35.21 77.49 35.21 77.49 42.25 77.49 49.29 77.49 56.33 77.49 63.37 70.44 63.37 70.44 70.42 77.49 70.42 84.53 70.42 84.53 63.37 91.58 63.37 91.58 56.33 91.58 49.29 91.58 42.25 84.53 42.25 84.53 35.21 84.53 28.17 77.49 28.17 77.49 21.12 77.49 14.08 70.44 14.08 70.44 7.04 63.4 7.04 56.35 7.04"/>
      <polygon class="cls-3" points="63.4 7.04 70.44 7.04 70.44 0 63.4 0 56.35 0 56.35 7.04 63.4 7.04"/>
      <polygon class="cls-2" points="56.35 7.04 56.35 0 49.31 0 42.27 0 42.27 7.04 49.31 7.04 56.35 7.04"/>
      <polygon class="cls-2" points="42.27 70.42 35.22 70.42 28.18 70.42 28.18 77.46 35.22 77.46 42.27 77.46 49.31 77.46 49.31 70.42 42.27 70.42"/>
      <rect class="cls-2" x="35.22" y="7.04" width="7.05" height="7.04"/>
      <rect class="cls-2" x="28.18" y="14.08" width="7.04" height="7.04"/>
      <polygon class="cls-2" points="21.13 63.37 14.09 63.37 14.09 70.42 21.13 70.42 28.18 70.42 28.18 63.37 21.13 63.37"/>
      <rect class="cls-2" x="21.13" y="21.12" width="7.05" height="7.05"/>
      <polygon class="cls-3" points="14.09 49.29 14.09 56.33 14.09 63.37 21.13 63.37 28.18 63.37 28.18 70.42 35.22 70.42 42.27 70.42 49.31 70.42 49.31 77.46 56.35 77.46 63.4 77.46 70.44 77.46 70.44 70.42 70.44 63.37 63.4 63.37 63.4 70.42 56.35 70.42 56.35 63.37 63.4 63.37 63.4 56.33 63.4 49.29 56.35 49.29 56.35 42.25 56.35 35.21 63.4 35.21 63.4 42.25 70.44 42.25 70.44 49.29 70.44 56.33 70.44 63.37 77.49 63.37 77.49 56.33 77.49 49.29 77.49 42.25 77.49 35.21 70.44 35.21 70.44 28.17 63.4 28.17 63.4 21.12 63.4 14.08 56.35 14.08 56.35 7.04 49.31 7.04 42.27 7.04 42.27 14.08 35.22 14.08 35.22 21.12 28.18 21.12 28.18 28.17 21.13 28.17 21.13 35.21 14.09 35.21 14.09 42.25 14.09 49.29"/>
      <rect class="cls-2" x="14.09" y="28.17" width="7.04" height="7.04"/>
      <rect class="cls-2" x="7.04" y="154.92" width="7.05" height="7.04"/>
      <polygon class="cls-2" points="14.09 56.33 14.09 49.29 14.09 42.25 14.09 35.21 7.04 35.21 7.04 42.25 7.04 49.29 7.04 56.33 7.04 63.37 14.09 63.37 14.09 56.33"/>
      <polygon class="cls-2" points="7.04 140.83 7.04 133.79 7.04 126.75 7.04 119.71 7.04 112.67 7.04 105.62 7.04 98.58 7.04 91.54 7.04 84.5 7.04 77.46 7.04 70.42 7.04 63.37 0 63.37 0 70.42 0 77.46 0 84.5 0 91.54 0 98.58 0 105.62 0 112.67 0 119.71 0 126.75 0 133.79 0 140.83 0 147.87 0 154.92 7.04 154.92 7.04 147.87 7.04 140.83"/>
      <path class="cls-3" d="M98.62,217.62h-7.04v7.04h7.04v70.42s0-.04,0-.04v14.11h-7.04v6.36h-7.05v-83.82h7.05v-7.04h-21.14v7.04h-21.13v-7.04h-21.13v-7.04h-14.09v-7.05h-7.05v91.55h7.05v14.08h7.04v-.68h7.05v-7.04h7.04v-7.04h7.05v-7.04h14.08v7.04h14.09v7.04h7.05v14.09h7.04v14.08h7.05v21.12h14.08v-28.16h-7.04v-7.04h-7.04v-6.37h14.08v-7.04h7.05v-98.59h-7.05v7.05h-7.04ZM63.4,288.03v-49.29h7.04v55.66h-7.04v-6.37Z"/>
      <polygon class="cls-2" points="91.58 210.57 91.58 217.62 98.62 217.62 105.66 217.62 105.66 210.57 98.62 210.57 91.58 210.57"/>
      <polygon class="cls-1" points="84.53 231.7 84.53 238.74 84.53 245.78 84.53 252.82 84.53 259.87 84.53 266.91 84.53 273.95 84.53 280.99 84.53 288.03 84.53 295.07 84.53 302.12 84.53 308.49 84.53 309.16 84.53 315.53 91.58 315.53 91.58 309.16 98.62 309.16 98.62 302.12 98.62 295.07 98.62 295.05 98.63 295.08 98.62 295 98.62 288.03 98.62 280.99 98.62 273.95 98.62 266.91 98.62 259.87 98.62 252.82 98.62 245.78 98.62 238.74 98.62 231.7 98.62 224.66 91.58 224.66 91.58 231.7 84.53 231.7"/>
      <rect class="cls-3" x="84.53" y="210.57" width="7.05" height="7.05"/>
      <polygon class="cls-2" points="77.49 217.62 70.44 217.62 70.44 224.66 77.49 224.66 84.53 224.66 91.58 224.66 91.58 217.62 84.53 217.62 77.49 217.62"/>
      <polygon class="cls-1" points="70.44 288.03 70.44 280.99 70.44 273.95 70.44 266.91 70.44 259.87 70.44 252.82 70.44 245.78 70.44 238.74 63.4 238.74 63.4 245.78 63.4 252.82 63.4 259.87 63.4 266.91 63.4 273.95 63.4 280.99 63.4 288.03 63.4 294.41 70.44 294.41 70.44 288.03"/>
      <polygon class="cls-1" points="70.44 196.49 70.44 189.45 63.4 189.45 63.4 183.08 63.4 182.41 56.35 182.41 56.35 183.08 56.35 189.45 56.35 196.49 63.4 196.49 63.4 203.53 63.4 210.57 70.44 210.57 70.44 203.53 70.44 196.49"/>
      <polygon class="cls-2" points="56.35 224.66 49.31 224.66 49.31 231.7 56.35 231.7 63.4 231.7 70.44 231.7 70.44 224.66 63.4 224.66 56.35 224.66"/>
      <rect class="cls-1" x="56.35" y="210.57" width="7.05" height="7.05"/>
      <polygon class="cls-1" points="56.35 161.28 63.4 161.28 63.4 161.96 63.4 168.32 63.4 169 63.4 175.37 70.44 175.37 70.44 176.04 70.44 182.41 77.49 182.41 77.49 183.08 77.49 189.45 77.49 196.49 77.49 203.53 77.49 210.57 70.44 210.57 70.44 217.62 77.49 217.62 84.53 217.62 84.53 210.57 91.58 210.57 91.58 203.53 91.58 196.49 91.58 189.45 84.53 189.45 84.53 182.41 84.53 176.04 84.53 175.37 77.49 175.37 77.49 169 77.49 168.32 77.49 161.96 77.49 161.28 70.44 161.28 70.44 154.92 70.44 154.24 63.4 154.24 56.35 154.24 56.35 154.92 56.35 161.28"/>
      <polygon class="cls-2" points="56.35 154.24 56.35 147.87 56.35 147.2 49.31 147.2 42.27 147.2 42.27 147.87 42.27 154.24 49.31 154.24 56.35 154.24"/>
      <polygon class="cls-2" points="42.27 217.62 35.22 217.62 28.18 217.62 28.18 224.66 35.22 224.66 42.27 224.66 49.31 224.66 49.31 217.62 42.27 217.62"/>
      <polygon class="cls-2" points="42.27 154.92 42.27 154.24 35.22 154.24 35.22 154.92 35.22 161.28 42.27 161.28 42.27 154.92"/>
      <polygon class="cls-2" points="35.22 161.96 35.22 161.28 28.18 161.28 28.18 161.96 28.18 168.32 35.22 168.32 35.22 161.96"/>
      <polygon class="cls-2" points="21.13 210.57 14.09 210.57 14.09 217.62 21.13 217.62 28.18 217.62 28.18 210.57 21.13 210.57"/>
      <polygon class="cls-2" points="28.18 169 28.18 168.32 21.13 168.32 21.13 169 21.13 175.37 28.18 175.37 28.18 169"/>
      <polygon class="cls-3" points="14.09 196.49 14.09 203.53 14.09 210.57 21.13 210.57 28.18 210.57 28.18 217.62 35.22 217.62 42.27 217.62 49.31 217.62 49.31 224.66 56.35 224.66 63.4 224.66 70.44 224.66 70.44 217.62 70.44 210.57 63.4 210.57 63.4 217.62 56.35 217.62 56.35 210.57 63.4 210.57 63.4 203.53 63.4 196.49 56.35 196.49 56.35 189.45 56.35 183.08 56.35 182.41 63.4 182.41 63.4 183.08 63.4 189.45 70.44 189.45 70.44 196.49 70.44 203.53 70.44 210.57 77.49 210.57 77.49 203.53 77.49 196.49 77.49 189.45 77.49 183.08 77.49 182.41 70.44 182.41 70.44 176.04 70.44 175.37 63.4 175.37 63.4 169 63.4 168.32 63.4 161.96 63.4 161.28 56.35 161.28 56.35 154.92 56.35 154.24 49.31 154.24 42.27 154.24 42.27 154.92 42.27 161.28 35.22 161.28 35.22 161.96 35.22 168.32 28.18 168.32 28.18 169 28.18 175.37 21.13 175.37 21.13 182.41 14.09 182.41 14.09 189.45 14.09 196.49"/>
      <rect class="cls-2" x="14.09" y="175.37" width="7.04" height="7.04"/>
      <rect class="cls-2" x="7.04" y="302.12" width="7.05" height="7.04"/>
      <polygon class="cls-2" points="14.09 203.53 14.09 196.49 14.09 189.45 14.09 182.41 7.04 182.41 7.04 189.45 7.04 196.49 7.04 203.53 7.04 210.57 14.09 210.57 14.09 203.53"/>
      <polygon class="cls-2" points="7.04 288.03 7.04 280.99 7.04 273.95 7.04 266.91 7.04 259.87 7.04 252.82 7.04 245.78 7.04 238.74 7.04 231.7 7.04 224.66 7.04 217.62 7.04 210.57 0 210.57 0 217.62 0 224.66 0 231.7 0 238.74 0 245.78 0 252.82 0 259.87 0 266.91 0 273.95 0 280.99 0 288.03 0 295.07 0 302.12 7.04 302.12 7.04 295.07 7.04 288.03"/>
      <path class="cls-3" d="M98.62,364.83h-7.04v7.04h7.04v70.42s0-.04,0-.04v14.12h-7.04v6.36h-7.05v-83.82h7.05v-7.04h-21.14v7.04h-21.13v-7.04h-21.13v-7.04h-14.09v-7.05h-7.05v91.55h7.05v14.08h7.04v-.68h7.05v-7.04h7.04v-7.04h7.05v-7.04h14.08v7.04h14.09v7.04h7.05v14.09h7.04v14.08h7.05v21.12h14.08v-28.16h-7.04v-7.04h-7.04v-6.37h14.08v-7.04h7.05v-98.59h-7.05v7.05h-7.04ZM63.4,435.24v-49.29h7.04v55.66h-7.04v-6.37Z"/>
      <polygon class="cls-2" points="91.58 357.78 91.58 364.83 98.62 364.83 105.66 364.83 105.66 357.78 98.62 357.78 91.58 357.78"/>
      <polygon class="cls-1" points="84.53 378.91 84.53 385.95 84.53 392.99 84.53 400.03 84.53 407.08 84.53 414.12 84.53 421.16 84.53 428.2 84.53 435.24 84.53 442.28 84.53 449.33 84.53 455.69 84.53 456.37 84.53 462.73 91.58 462.73 91.58 456.37 98.62 456.37 98.62 449.33 98.62 442.28 98.62 442.25 98.63 442.29 98.62 442.21 98.62 435.24 98.62 428.2 98.62 421.16 98.62 414.12 98.62 407.08 98.62 400.03 98.62 392.99 98.62 385.95 98.62 378.91 98.62 371.87 91.58 371.87 91.58 378.91 84.53 378.91"/>
      <rect class="cls-3" x="84.53" y="357.78" width="7.05" height="7.05"/>
      <polygon class="cls-2" points="77.49 364.83 70.44 364.83 70.44 371.87 77.49 371.87 84.53 371.87 91.58 371.87 91.58 364.83 84.53 364.83 77.49 364.83"/>
      <polygon class="cls-1" points="70.44 435.24 70.44 428.2 70.44 421.16 70.44 414.12 70.44 407.08 70.44 400.03 70.44 392.99 70.44 385.95 63.4 385.95 63.4 392.99 63.4 400.03 63.4 407.08 63.4 414.12 63.4 421.16 63.4 428.2 63.4 435.24 63.4 441.61 70.44 441.61 70.44 435.24"/>
      <polygon class="cls-1" points="70.44 343.7 70.44 336.66 63.4 336.66 63.4 330.28 63.4 329.62 56.35 329.62 56.35 330.28 56.35 336.66 56.35 343.7 63.4 343.7 63.4 350.74 63.4 357.78 70.44 357.78 70.44 350.74 70.44 343.7"/>
      <polygon class="cls-2" points="56.35 371.87 49.31 371.87 49.31 378.91 56.35 378.91 63.4 378.91 70.44 378.91 70.44 371.87 63.4 371.87 56.35 371.87"/>
      <rect class="cls-1" x="56.35" y="357.78" width="7.05" height="7.05"/>
      <polygon class="cls-1" points="56.35 308.49 63.4 308.49 63.4 309.16 63.4 315.53 63.4 316.2 63.4 322.58 70.44 322.58 70.44 323.24 70.44 329.62 77.49 329.62 77.49 330.28 77.49 336.66 77.49 343.7 77.49 350.74 77.49 357.78 70.44 357.78 70.44 364.83 77.49 364.83 84.53 364.83 84.53 357.78 91.58 357.78 91.58 350.74 91.58 343.7 91.58 336.66 84.53 336.66 84.53 329.62 84.53 323.24 84.53 322.58 77.49 322.58 77.49 316.2 77.49 315.53 77.49 309.16 77.49 308.49 70.44 308.49 70.44 302.12 70.44 301.45 63.4 301.45 56.35 301.45 56.35 302.12 56.35 308.49"/>
      <polygon class="cls-2" points="56.35 301.45 56.35 295.07 56.35 294.41 49.31 294.41 42.27 294.41 42.27 295.07 42.27 301.45 49.31 301.45 56.35 301.45"/>
      <polygon class="cls-2" points="42.27 364.83 35.22 364.83 28.18 364.83 28.18 371.87 35.22 371.87 42.27 371.87 49.31 371.87 49.31 364.83 42.27 364.83"/>
      <polygon class="cls-2" points="42.27 302.12 42.27 301.45 35.22 301.45 35.22 302.12 35.22 308.49 42.27 308.49 42.27 302.12"/>
      <polygon class="cls-2" points="35.22 309.16 35.22 308.49 28.18 308.49 28.18 309.16 28.18 315.53 35.22 315.53 35.22 309.16"/>
      <polygon class="cls-2" points="21.13 357.78 14.09 357.78 14.09 364.83 21.13 364.83 28.18 364.83 28.18 357.78 21.13 357.78"/>
      <polygon class="cls-2" points="28.18 316.2 28.18 315.53 21.13 315.53 21.13 316.2 21.13 322.58 28.18 322.58 28.18 316.2"/>
      <polygon class="cls-3" points="14.09 343.7 14.09 350.74 14.09 357.78 21.13 357.78 28.18 357.78 28.18 364.83 35.22 364.83 42.27 364.83 49.31 364.83 49.31 371.87 56.35 371.87 63.4 371.87 70.44 371.87 70.44 364.83 70.44 357.78 63.4 357.78 63.4 364.83 56.35 364.83 56.35 357.78 63.4 357.78 63.4 350.74 63.4 343.7 56.35 343.7 56.35 336.66 56.35 330.28 56.35 329.62 63.4 329.62 63.4 330.28 63.4 336.66 70.44 336.66 70.44 343.7 70.44 350.74 70.44 357.78 77.49 357.78 77.49 350.74 77.49 343.7 77.49 336.66 77.49 330.28 77.49 329.62 70.44 329.62 70.44 323.24 70.44 322.58 63.4 322.58 63.4 316.2 63.4 315.53 63.4 309.16 63.4 308.49 56.35 308.49 56.35 302.12 56.35 301.45 49.31 301.45 42.27 301.45 42.27 302.12 42.27 308.49 35.22 308.49 35.22 309.16 35.22 315.53 28.18 315.53 28.18 316.2 28.18 322.58 21.13 322.58 21.13 329.62 14.09 329.62 14.09 336.66 14.09 343.7"/>
      <rect class="cls-2" x="14.09" y="322.58" width="7.04" height="7.04"/>
      <rect class="cls-2" x="7.04" y="449.33" width="7.05" height="7.04"/>
      <polygon class="cls-2" points="14.09 350.74 14.09 343.7 14.09 336.66 14.09 329.62 7.04 329.62 7.04 336.66 7.04 343.7 7.04 350.74 7.04 357.78 14.09 357.78 14.09 350.74"/>
      <polygon class="cls-2" points="7.04 435.24 7.04 428.2 7.04 421.16 7.04 414.12 7.04 407.08 7.04 400.03 7.04 392.99 7.04 385.95 7.04 378.91 7.04 371.87 7.04 364.83 7.04 357.78 0 357.78 0 364.83 0 371.87 0 378.91 0 385.95 0 392.99 0 400.03 0 407.08 0 414.12 0 421.16 0 428.2 0 435.24 0 442.28 0 449.33 7.04 449.33 7.04 442.28 7.04 435.24"/>
      <polygon class="cls-3" points="98.62 512.03 91.58 512.03 91.58 519.07 98.62 519.07 98.62 526.11 98.62 533.15 98.62 540.19 98.62 547.23 98.62 554.28 98.62 561.32 98.62 568.36 98.62 575.4 98.62 582.44 98.62 589.41 98.63 589.49 98.62 589.46 98.62 589.48 98.62 596.53 98.62 603.57 91.58 603.57 91.58 610.61 98.62 610.61 105.66 610.61 105.66 603.57 112.71 603.57 112.71 596.53 112.71 589.48 112.71 582.44 112.71 575.4 112.71 568.36 112.71 561.32 112.71 554.28 112.71 547.23 112.71 540.19 112.71 533.15 112.71 526.11 112.71 519.07 112.71 512.03 112.71 504.98 105.66 504.98 105.66 512.03 98.62 512.03"/>
      <polygon class="cls-1" points="98.62 603.57 98.62 596.53 98.62 589.48 98.62 589.46 98.63 589.49 98.62 589.41 98.62 582.44 98.62 575.4 98.62 568.36 98.62 561.32 98.62 554.28 98.62 547.23 98.62 540.19 98.62 533.15 98.62 526.11 98.62 519.07 91.58 519.07 91.58 526.11 84.53 526.11 84.53 533.15 84.53 540.19 84.53 547.23 84.53 554.28 84.53 561.32 84.53 568.36 84.53 575.4 84.53 582.44 84.53 589.48 84.53 596.53 84.53 603.57 77.49 603.57 77.49 610.61 84.53 610.61 91.58 610.61 91.58 603.57 98.62 603.57"/>
      <polygon class="cls-2" points="91.58 504.98 91.58 512.03 98.62 512.03 105.66 512.03 105.66 504.98 98.62 504.98 91.58 504.98"/>
      <rect class="cls-3" x="84.53" y="504.98" width="7.05" height="7.05"/>
      <path class="cls-3" d="M77.49,610.61v-7.04h7.04v-77.46h7.05v-7.04h-21.14v7.04h-21.13v-7.04h-21.13v-7.04h-14.09v-7.05h-7.05v91.55h7.05v14.08h14.09v7.04h14.09v7.04h35.22v-7.04h14.09v-7.04h-14.09ZM63.4,617.65v-84.5h7.04v84.5h-7.04Z"/>
      <polygon class="cls-2" points="77.49 512.03 70.44 512.03 70.44 519.07 77.49 519.07 84.53 519.07 91.58 519.07 91.58 512.03 84.53 512.03 77.49 512.03"/>
      <polygon class="cls-1" points="70.44 603.57 70.44 596.53 70.44 589.48 70.44 582.44 70.44 575.4 70.44 568.36 70.44 561.32 70.44 554.28 70.44 547.23 70.44 540.19 70.44 533.15 63.4 533.15 63.4 540.19 63.4 547.23 63.4 554.28 63.4 561.32 63.4 568.36 63.4 575.4 63.4 582.44 63.4 589.48 63.4 596.53 63.4 603.57 63.4 610.61 63.4 617.65 70.44 617.65 70.44 610.61 70.44 603.57"/>
      <polygon class="cls-1" points="70.44 490.9 70.44 483.86 63.4 483.86 63.4 477.49 63.4 476.82 56.35 476.82 56.35 477.49 56.35 483.86 56.35 490.9 63.4 490.9 63.4 497.94 63.4 504.98 70.44 504.98 70.44 497.94 70.44 490.9"/>
      <polygon class="cls-2" points="56.35 519.07 49.31 519.07 49.31 526.11 56.35 526.11 63.4 526.11 70.44 526.11 70.44 519.07 63.4 519.07 56.35 519.07"/>
      <rect class="cls-1" x="56.35" y="504.98" width="7.05" height="7.05"/>
      <polygon class="cls-1" points="56.35 455.69 63.4 455.69 63.4 456.37 63.4 462.73 63.4 463.41 63.4 469.78 70.44 469.78 70.44 470.45 70.44 476.82 77.49 476.82 77.49 477.49 77.49 483.86 77.49 490.9 77.49 497.94 77.49 504.98 70.44 504.98 70.44 512.03 77.49 512.03 84.53 512.03 84.53 504.98 91.58 504.98 91.58 497.94 91.58 490.9 91.58 483.86 84.53 483.86 84.53 476.82 84.53 470.45 84.53 469.78 77.49 469.78 77.49 463.41 77.49 462.73 77.49 456.37 77.49 455.69 70.44 455.69 70.44 449.33 70.44 448.65 63.4 448.65 56.35 448.65 56.35 449.33 56.35 455.69"/>
      <polygon class="cls-2" points="56.35 448.65 56.35 442.28 56.35 441.61 49.31 441.61 42.27 441.61 42.27 442.28 42.27 448.65 49.31 448.65 56.35 448.65"/>
      <polygon class="cls-2" points="42.27 512.03 35.22 512.03 28.18 512.03 28.18 519.07 35.22 519.07 42.27 519.07 49.31 519.07 49.31 512.03 42.27 512.03"/>
      <polygon class="cls-2" points="42.27 449.33 42.27 448.65 35.22 448.65 35.22 449.33 35.22 455.69 42.27 455.69 42.27 449.33"/>
      <polygon class="cls-2" points="35.22 456.37 35.22 455.69 28.18 455.69 28.18 456.37 28.18 462.73 35.22 462.73 35.22 456.37"/>
      <polygon class="cls-2" points="21.13 504.98 14.09 504.98 14.09 512.03 21.13 512.03 28.18 512.03 28.18 504.98 21.13 504.98"/>
      <polygon class="cls-2" points="28.18 463.41 28.18 462.73 21.13 462.73 21.13 463.41 21.13 469.78 28.18 469.78 28.18 463.41"/>
      <polygon class="cls-3" points="14.09 490.9 14.09 497.94 14.09 504.98 21.13 504.98 28.18 504.98 28.18 512.03 35.22 512.03 42.27 512.03 49.31 512.03 49.31 519.07 56.35 519.07 63.4 519.07 70.44 519.07 70.44 512.03 70.44 504.98 63.4 504.98 63.4 512.03 56.35 512.03 56.35 504.98 63.4 504.98 63.4 497.94 63.4 490.9 56.35 490.9 56.35 483.86 56.35 477.49 56.35 476.82 63.4 476.82 63.4 477.49 63.4 483.86 70.44 483.86 70.44 490.9 70.44 497.94 70.44 504.98 77.49 504.98 77.49 497.94 77.49 490.9 77.49 483.86 77.49 477.49 77.49 476.82 70.44 476.82 70.44 470.45 70.44 469.78 63.4 469.78 63.4 463.41 63.4 462.73 63.4 456.37 63.4 455.69 56.35 455.69 56.35 449.33 56.35 448.65 49.31 448.65 42.27 448.65 42.27 449.33 42.27 455.69 35.22 455.69 35.22 456.37 35.22 462.73 28.18 462.73 28.18 463.41 28.18 469.78 21.13 469.78 21.13 476.82 14.09 476.82 14.09 483.86 14.09 490.9"/>
      <rect class="cls-2" x="14.09" y="469.78" width="7.04" height="7.04"/>
      <rect class="cls-2" x="7.04" y="596.53" width="7.05" height="7.04"/>
      <polygon class="cls-2" points="14.09 497.94 14.09 490.9 14.09 483.86 14.09 476.82 7.04 476.82 7.04 483.86 7.04 490.9 7.04 497.94 7.04 504.98 14.09 504.98 14.09 497.94"/>
      <polygon class="cls-2" points="7.04 582.44 7.04 575.4 7.04 568.36 7.04 561.32 7.04 554.28 7.04 547.23 7.04 540.19 7.04 533.15 7.04 526.11 7.04 519.07 7.04 512.03 7.04 504.98 0 504.98 0 512.03 0 519.07 0 526.11 0 533.15 0 540.19 0 547.23 0 554.28 0 561.32 0 568.36 0 575.4 0 582.44 0 589.48 0 596.53 7.04 596.53 7.04 589.48 7.04 582.44"/>
    </g>
  </g>
</svg>