<?xml version="1.0" encoding="UTF-8"?>
<svg id="_レイヤー_2" data-name="レイヤー 2" xmlns="http://www.w3.org/2000/svg" viewBox="0 0 718.37 183.08">
  <defs>
    <style>
      .cls-1 {
        fill: #4e4c77;
      }

      .cls-2 {
        fill: #b2ff00;
      }

      .cls-3 {
        fill: #a2a0c2;
      }
    </style>
  </defs>
  <g id="_レイヤー_1-2" data-name="レイヤー 1">
    <g>
      <polygon class="cls-3" points="105.66 70.42 98.62 70.42 91.58 70.42 91.58 77.46 98.62 77.46 98.62 84.5 98.62 91.54 98.62 98.58 98.62 105.62 98.62 112.67 98.62 119.71 98.62 126.75 98.62 133.79 98.62 140.83 98.62 147.87 98.62 154.92 98.62 161.96 91.58 161.96 91.58 169 98.62 169 105.66 169 105.66 161.96 112.71 161.96 112.71 154.92 112.71 147.87 112.71 140.83 112.71 133.79 112.71 126.75 112.71 119.71 112.71 112.67 112.71 105.62 112.71 98.58 112.71 91.54 112.71 84.5 112.71 77.46 112.71 70.42 112.71 63.37 105.66 63.37 105.66 70.42"/>
      <polygon class="cls-1" points="98.62 161.96 98.62 154.92 98.62 147.87 98.62 140.83 98.62 133.79 98.62 126.75 98.62 119.71 98.62 112.67 98.62 105.62 98.62 98.58 98.62 91.54 98.62 84.5 98.62 77.46 91.58 77.46 91.58 84.5 84.53 84.5 84.53 91.54 84.53 98.58 84.53 105.62 84.53 112.67 84.53 119.71 84.53 126.75 84.53 133.79 84.53 140.83 84.53 147.87 84.53 154.92 84.53 161.96 77.49 161.96 77.49 169 84.53 169 91.58 169 91.58 161.96 98.62 161.96"/>
      <polygon class="cls-2" points="91.58 63.37 91.58 70.42 98.62 70.42 105.66 70.42 105.66 63.37 98.62 63.37 91.58 63.37"/>
      <rect class="cls-3" x="84.53" y="63.37" width="7.05" height="7.05"/>
      <path class="cls-3" d="M77.49,169v-7.04h7.04v-77.46h7.05v-7.04h-21.14v7.04h-21.13v-7.04h-21.13v-7.04h-14.09v-7.05h-7.05v91.55h7.05v14.08h14.09v7.04h14.09v7.04h35.22v-7.04h14.09v-7.04h-14.09ZM63.4,176.04v-84.5h7.04v84.5h-7.04Z"/>
      <polygon class="cls-2" points="77.49 70.42 70.44 70.42 70.44 77.46 77.49 77.46 84.53 77.46 91.58 77.46 91.58 70.42 84.53 70.42 77.49 70.42"/>
      <polygon class="cls-3" points="77.49 28.17 84.53 28.17 84.53 35.21 84.53 42.25 91.58 42.25 91.58 49.29 91.58 56.33 91.58 63.37 98.62 63.37 105.66 63.37 105.66 56.33 105.66 49.29 105.66 42.25 105.66 35.21 98.62 35.21 98.62 28.17 91.58 28.17 91.58 21.12 84.53 21.12 84.53 14.08 77.49 14.08 77.49 21.12 77.49 28.17"/>
      <rect class="cls-3" x="70.44" y="7.04" width="7.05" height="7.04"/>
      <polygon class="cls-1" points="70.44 161.96 70.44 154.92 70.44 147.87 70.44 140.83 70.44 133.79 70.44 126.75 70.44 119.71 70.44 112.67 70.44 105.62 70.44 98.58 70.44 91.54 63.4 91.54 63.4 98.58 63.4 105.62 63.4 112.67 63.4 119.71 63.4 126.75 63.4 133.79 63.4 140.83 63.4 147.87 63.4 154.92 63.4 161.96 63.4 169 63.4 176.04 70.44 176.04 70.44 169 70.44 161.96"/>
      <polygon class="cls-1" points="70.44 49.29 70.44 42.25 63.4 42.25 63.4 35.21 56.35 35.21 56.35 42.25 56.35 49.29 63.4 49.29 63.4 56.33 63.4 63.37 70.44 63.37 70.44 56.33 70.44 49.29"/>
      <polygon class="cls-2" points="56.35 77.46 49.31 77.46 49.31 84.5 56.35 84.5 63.4 84.5 70.44 84.5 70.44 77.46 63.4 77.46 56.35 77.46"/>
      <rect class="cls-1" x="56.35" y="63.37" width="7.05" height="7.05"/>
      <polygon class="cls-1" points="56.35 7.04 56.35 14.08 63.4 14.08 63.4 21.12 63.4 28.17 70.44 28.17 70.44 35.21 77.49 35.21 77.49 42.25 77.49 49.29 77.49 56.33 77.49 63.37 70.44 63.37 70.44 70.42 77.49 70.42 84.53 70.42 84.53 63.37 91.58 63.37 91.58 56.33 91.58 49.29 91.58 42.25 84.53 42.25 84.53 35.21 84.53 28.17 77.49 28.17 77.49 21.12 77.49 14.08 70.44 14.08 70.44 7.04 63.4 7.04 56.35 7.04"/>
      <polygon class="cls-3" points="63.4 7.04 70.44 7.04 70.44 0 63.4 0 56.35 0 56.35 7.04 63.4 7.04"/>
      <polygon class="cls-2" points="56.35 7.04 56.35 0 49.31 0 42.27 0 42.27 7.04 49.31 7.04 56.35 7.04"/>
      <polygon class="cls-2" points="42.27 70.42 35.22 70.42 28.18 70.42 28.18 77.46 35.22 77.46 42.27 77.46 49.31 77.46 49.31 70.42 42.27 70.42"/>
      <rect class="cls-2" x="35.22" y="7.04" width="7.05" height="7.04"/>
      <rect class="cls-2" x="28.18" y="14.08" width="7.04" height="7.04"/>
      <polygon class="cls-2" points="21.13 63.37 14.09 63.37 14.09 70.42 21.13 70.42 28.18 70.42 28.18 63.37 21.13 63.37"/>
      <rect class="cls-2" x="21.13" y="21.12" width="7.05" height="7.05"/>
      <polygon class="cls-3" points="14.09 49.29 14.09 56.33 14.09 63.37 21.13 63.37 28.18 63.37 28.18 70.42 35.22 70.42 42.27 70.42 49.31 70.42 49.31 77.46 56.35 77.46 63.4 77.46 70.44 77.46 70.44 70.42 70.44 63.37 63.4 63.37 63.4 70.42 56.35 70.42 56.35 63.37 63.4 63.37 63.4 56.33 63.4 49.29 56.35 49.29 56.35 42.25 56.35 35.21 63.4 35.21 63.4 42.25 70.44 42.25 70.44 49.29 70.44 56.33 70.44 63.37 77.49 63.37 77.49 56.33 77.49 49.29 77.49 42.25 77.49 35.21 70.44 35.21 70.44 28.17 63.4 28.17 63.4 21.12 63.4 14.08 56.35 14.08 56.35 7.04 49.31 7.04 42.27 7.04 42.27 14.08 35.22 14.08 35.22 21.12 28.18 21.12 28.18 28.17 21.13 28.17 21.13 35.21 14.09 35.21 14.09 42.25 14.09 49.29"/>
      <rect class="cls-2" x="14.09" y="28.17" width="7.04" height="7.04"/>
      <rect class="cls-2" x="7.04" y="154.92" width="7.05" height="7.04"/>
      <polygon class="cls-2" points="14.09 56.33 14.09 49.29 14.09 42.25 14.09 35.21 7.04 35.21 7.04 42.25 7.04 49.29 7.04 56.33 7.04 63.37 14.09 63.37 14.09 56.33"/>
      <polygon class="cls-2" points="7.04 140.83 7.04 133.79 7.04 126.75 7.04 119.71 7.04 112.67 7.04 105.62 7.04 98.58 7.04 91.54 7.04 84.5 7.04 77.46 7.04 70.42 7.04 63.37 0 63.37 0 70.42 0 77.46 0 84.5 0 91.54 0 98.58 0 105.62 0 112.67 0 119.71 0 126.75 0 133.79 0 140.83 0 147.87 0 154.92 7.04 154.92 7.04 147.87 7.04 140.83"/>
      <polygon class="cls-3" points="257.11 70.42 250.08 70.42 243.04 70.42 243.04 77.46 250.08 77.46 250.08 84.5 250.08 91.54 250.08 98.58 250.08 105.62 250.08 112.67 250.08 119.71 250.08 126.75 250.08 133.79 250.08 140.83 250.08 147.87 250.08 154.92 250.08 161.96 243.04 161.96 243.04 169 250.08 169 257.11 169 257.11 161.96 264.17 161.96 264.17 154.92 264.17 147.87 264.17 140.83 264.17 133.79 264.17 126.75 264.17 119.71 264.17 112.67 264.17 105.62 264.17 98.58 264.17 91.54 264.17 84.5 264.17 77.46 264.17 70.42 264.17 63.37 257.11 63.37 257.11 70.42"/>
      <polygon class="cls-1" points="250.08 161.96 250.08 154.92 250.08 147.87 250.08 140.83 250.08 133.79 250.08 126.75 250.08 119.71 250.08 112.67 250.08 105.62 250.08 98.58 250.08 91.54 250.08 84.5 250.08 77.46 243.04 77.46 243.04 84.5 235.99 84.5 235.99 91.54 235.99 98.58 235.99 105.62 235.99 112.67 235.99 119.71 235.99 126.75 235.99 133.79 235.99 140.83 235.99 147.87 235.99 154.92 235.99 161.96 228.95 161.96 228.95 169 235.99 169 243.04 169 243.04 161.96 250.08 161.96"/>
      <polygon class="cls-2" points="243.04 63.37 243.04 70.42 250.08 70.42 257.11 70.42 257.11 63.37 250.08 63.37 243.04 63.37"/>
      <rect class="cls-3" x="235.99" y="63.37" width="7.05" height="7.05"/>
      <path class="cls-3" d="M228.95,169v-7.04h7.04v-77.46h7.05v-7.04h-21.14v7.04h-21.13v-7.04h-21.13v-7.04h-14.09v-7.05h-7.05v91.55h7.05v14.08h14.09v7.04h14.09v7.04h35.22v-7.04h14.09v-7.04h-14.09ZM214.86,176.04v-84.5h7.04v84.5h-7.04Z"/>
      <polygon class="cls-2" points="228.95 70.42 221.9 70.42 221.9 77.46 228.95 77.46 235.99 77.46 243.04 77.46 243.04 70.42 235.99 70.42 228.95 70.42"/>
      <polygon class="cls-3" points="228.95 28.17 235.99 28.17 235.99 35.21 235.99 42.25 243.04 42.25 243.04 49.29 243.04 56.33 243.04 63.37 250.08 63.37 257.11 63.37 257.11 56.33 257.11 49.29 257.11 42.25 257.11 35.21 250.08 35.21 250.08 28.17 243.04 28.17 243.04 21.12 235.99 21.12 235.99 14.08 228.95 14.08 228.95 21.12 228.95 28.17"/>
      <rect class="cls-3" x="221.9" y="7.04" width="7.05" height="7.04"/>
      <polygon class="cls-1" points="221.9 161.96 221.9 154.92 221.9 147.87 221.9 140.83 221.9 133.79 221.9 126.75 221.9 119.71 221.9 112.67 221.9 105.62 221.9 98.58 221.9 91.54 214.86 91.54 214.86 98.58 214.86 105.62 214.86 112.67 214.86 119.71 214.86 126.75 214.86 133.79 214.86 140.83 214.86 147.87 214.86 154.92 214.86 161.96 214.86 169 214.86 176.04 221.9 176.04 221.9 169 221.9 161.96"/>
      <polygon class="cls-1" points="221.9 49.29 221.9 42.25 214.86 42.25 214.86 35.21 207.81 35.21 207.81 42.25 207.81 49.29 214.86 49.29 214.86 56.33 214.86 63.37 221.9 63.37 221.9 56.33 221.9 49.29"/>
      <polygon class="cls-2" points="207.81 77.46 200.77 77.46 200.77 84.5 207.81 84.5 214.86 84.5 221.9 84.5 221.9 77.46 214.86 77.46 207.81 77.46"/>
      <rect class="cls-1" x="207.81" y="63.37" width="7.05" height="7.05"/>
      <polygon class="cls-1" points="207.81 7.04 207.81 14.08 214.86 14.08 214.86 21.12 214.86 28.17 221.9 28.17 221.9 35.21 228.95 35.21 228.95 42.25 228.95 49.29 228.95 56.33 228.95 63.37 221.9 63.37 221.9 70.42 228.95 70.42 235.99 70.42 235.99 63.37 243.04 63.37 243.04 56.33 243.04 49.29 243.04 42.25 235.99 42.25 235.99 35.21 235.99 28.17 228.95 28.17 228.95 21.12 228.95 14.08 221.9 14.08 221.9 7.04 214.86 7.04 207.81 7.04"/>
      <polygon class="cls-3" points="214.86 7.04 221.9 7.04 221.9 0 214.86 0 207.81 0 207.81 7.04 214.86 7.04"/>
      <polygon class="cls-2" points="207.81 7.04 207.81 0 200.77 0 193.73 0 193.73 7.04 200.77 7.04 207.81 7.04"/>
      <polygon class="cls-2" points="193.73 70.42 186.68 70.42 179.64 70.42 179.64 77.46 186.68 77.46 193.73 77.46 200.77 77.46 200.77 70.42 193.73 70.42"/>
      <rect class="cls-2" x="186.68" y="7.04" width="7.05" height="7.04"/>
      <rect class="cls-2" x="179.64" y="14.08" width="7.04" height="7.04"/>
      <polygon class="cls-2" points="172.59 63.37 165.55 63.37 165.55 70.42 172.59 70.42 179.64 70.42 179.64 63.37 172.59 63.37"/>
      <rect class="cls-2" x="172.59" y="21.12" width="7.05" height="7.05"/>
      <polygon class="cls-3" points="165.55 49.29 165.55 56.33 165.55 63.37 172.59 63.37 179.64 63.37 179.64 70.42 186.68 70.42 193.73 70.42 200.77 70.42 200.77 77.46 207.81 77.46 214.86 77.46 221.9 77.46 221.9 70.42 221.9 63.37 214.86 63.37 214.86 70.42 207.81 70.42 207.81 63.37 214.86 63.37 214.86 56.33 214.86 49.29 207.81 49.29 207.81 42.25 207.81 35.21 214.86 35.21 214.86 42.25 221.9 42.25 221.9 49.29 221.9 56.33 221.9 63.37 228.95 63.37 228.95 56.33 228.95 49.29 228.95 42.25 228.95 35.21 221.9 35.21 221.9 28.17 214.86 28.17 214.86 21.12 214.86 14.08 207.81 14.08 207.81 7.04 200.77 7.04 193.73 7.04 193.73 14.08 186.68 14.08 186.68 21.12 179.64 21.12 179.64 28.17 172.59 28.17 172.59 35.21 165.55 35.21 165.55 42.25 165.55 49.29"/>
      <rect class="cls-2" x="165.55" y="28.17" width="7.04" height="7.04"/>
      <rect class="cls-2" x="158.5" y="154.92" width="7.05" height="7.04"/>
      <polygon class="cls-2" points="165.55 56.33 165.55 49.29 165.55 42.25 165.55 35.21 158.5 35.21 158.5 42.25 158.5 49.29 158.5 56.33 158.5 63.37 165.55 63.37 165.55 56.33"/>
      <polygon class="cls-2" points="158.5 140.83 158.5 133.79 158.5 126.75 158.5 119.71 158.5 112.67 158.5 105.62 158.5 98.58 158.5 91.54 158.5 84.5 158.5 77.46 158.5 70.42 158.5 63.37 151.46 63.37 151.46 70.42 151.46 77.46 151.46 84.5 151.46 91.54 151.46 98.58 151.46 105.62 151.46 112.67 151.46 119.71 151.46 126.75 151.46 133.79 151.46 140.83 151.46 147.87 151.46 154.92 158.5 154.92 158.5 147.87 158.5 140.83"/>
      <polygon class="cls-3" points="408.57 70.42 401.53 70.42 394.49 70.42 394.49 77.46 401.53 77.46 401.53 84.5 401.53 91.54 401.53 98.58 401.53 105.62 401.53 112.67 401.53 119.71 401.53 126.75 401.53 133.79 401.53 140.83 401.53 147.87 401.53 154.92 401.53 161.96 394.49 161.96 394.49 169 401.53 169 408.57 169 408.57 161.96 415.62 161.96 415.62 154.92 415.62 147.87 415.62 140.83 415.62 133.79 415.62 126.75 415.62 119.71 415.62 112.67 415.62 105.62 415.62 98.58 415.62 91.54 415.62 84.5 415.62 77.46 415.62 70.42 415.62 63.37 408.57 63.37 408.57 70.42"/>
      <polygon class="cls-1" points="401.53 161.96 401.53 154.92 401.53 147.87 401.53 140.83 401.53 133.79 401.53 126.75 401.53 119.71 401.53 112.67 401.53 105.62 401.53 98.58 401.53 91.54 401.53 84.5 401.53 77.46 394.49 77.46 394.49 84.5 387.44 84.5 387.44 91.54 387.44 98.58 387.44 105.62 387.44 112.67 387.44 119.71 387.44 126.75 387.44 133.79 387.44 140.83 387.44 147.87 387.44 154.92 387.44 161.96 380.4 161.96 380.4 169 387.44 169 394.49 169 394.49 161.96 401.53 161.96"/>
      <polygon class="cls-2" points="394.49 63.37 394.49 70.42 401.53 70.42 408.57 70.42 408.57 63.37 401.53 63.37 394.49 63.37"/>
      <rect class="cls-3" x="387.44" y="63.37" width="7.05" height="7.05"/>
      <path class="cls-3" d="M380.4,169v-7.04h7.04v-77.46h7.05v-7.04h-21.14v7.04h-21.13v-7.04h-21.13v-7.04h-14.09v-7.05h-7.05v91.55h7.05v14.08h14.09v7.04h14.09v7.04h35.22v-7.04h14.09v-7.04h-14.09ZM366.31,176.04v-84.5h7.04v84.5h-7.04Z"/>
      <polygon class="cls-2" points="380.4 70.42 373.35 70.42 373.35 77.46 380.4 77.46 387.44 77.46 394.49 77.46 394.49 70.42 387.44 70.42 380.4 70.42"/>
      <polygon class="cls-3" points="380.4 28.17 387.44 28.17 387.44 35.21 387.44 42.25 394.49 42.25 394.49 49.29 394.49 56.33 394.49 63.37 401.53 63.37 408.57 63.37 408.57 56.33 408.57 49.29 408.57 42.25 408.57 35.21 401.53 35.21 401.53 28.17 394.49 28.17 394.49 21.12 387.44 21.12 387.44 14.08 380.4 14.08 380.4 21.12 380.4 28.17"/>
      <rect class="cls-3" x="373.35" y="7.04" width="7.05" height="7.04"/>
      <polygon class="cls-1" points="373.35 161.96 373.35 154.92 373.35 147.87 373.35 140.83 373.35 133.79 373.35 126.75 373.35 119.71 373.35 112.67 373.35 105.62 373.35 98.58 373.35 91.54 366.31 91.54 366.31 98.58 366.31 105.62 366.31 112.67 366.31 119.71 366.31 126.75 366.31 133.79 366.31 140.83 366.31 147.87 366.31 154.92 366.31 161.96 366.31 169 366.31 176.04 373.35 176.04 373.35 169 373.35 161.96"/>
      <polygon class="cls-1" points="373.35 49.29 373.35 42.25 366.31 42.25 366.31 35.21 359.26 35.21 359.26 42.25 359.26 49.29 366.31 49.29 366.31 56.33 366.31 63.37 373.35 63.37 373.35 56.33 373.35 49.29"/>
      <polygon class="cls-2" points="359.26 77.46 352.22 77.46 352.22 84.5 359.26 84.5 366.31 84.5 373.35 84.5 373.35 77.46 366.31 77.46 359.26 77.46"/>
      <rect class="cls-1" x="359.26" y="63.37" width="7.05" height="7.05"/>
      <polygon class="cls-1" points="359.26 7.04 359.26 14.08 366.31 14.08 366.31 21.12 366.31 28.17 373.35 28.17 373.35 35.21 380.4 35.21 380.4 42.25 380.4 49.29 380.4 56.33 380.4 63.37 373.35 63.37 373.35 70.42 380.4 70.42 387.44 70.42 387.44 63.37 394.49 63.37 394.49 56.33 394.49 49.29 394.49 42.25 387.44 42.25 387.44 35.21 387.44 28.17 380.4 28.17 380.4 21.12 380.4 14.08 373.35 14.08 373.35 7.04 366.31 7.04 359.26 7.04"/>
      <polygon class="cls-3" points="366.31 7.04 373.35 7.04 373.35 0 366.31 0 359.26 0 359.26 7.04 366.31 7.04"/>
      <polygon class="cls-2" points="359.26 7.04 359.26 0 352.22 0 345.18 0 345.18 7.04 352.22 7.04 359.26 7.04"/>
      <polygon class="cls-2" points="345.18 70.42 338.13 70.42 331.09 70.42 331.09 77.46 338.13 77.46 345.18 77.46 352.22 77.46 352.22 70.42 345.18 70.42"/>
      <rect class="cls-2" x="338.13" y="7.04" width="7.05" height="7.04"/>
      <rect class="cls-2" x="331.09" y="14.08" width="7.04" height="7.04"/>
      <polygon class="cls-2" points="324.04 63.37 317 63.37 317 70.42 324.04 70.42 331.09 70.42 331.09 63.37 324.04 63.37"/>
      <rect class="cls-2" x="324.04" y="21.12" width="7.05" height="7.05"/>
      <polygon class="cls-3" points="317 49.29 317 56.33 317 63.37 324.04 63.37 331.09 63.37 331.09 70.42 338.13 70.42 345.18 70.42 352.22 70.42 352.22 77.46 359.26 77.46 366.31 77.46 373.35 77.46 373.35 70.42 373.35 63.37 366.31 63.37 366.31 70.42 359.26 70.42 359.26 63.37 366.31 63.37 366.31 56.33 366.31 49.29 359.26 49.29 359.26 42.25 359.26 35.21 366.31 35.21 366.31 42.25 373.35 42.25 373.35 49.29 373.35 56.33 373.35 63.37 380.4 63.37 380.4 56.33 380.4 49.29 380.4 42.25 380.4 35.21 373.35 35.21 373.35 28.17 366.31 28.17 366.31 21.12 366.31 14.08 359.26 14.08 359.26 7.04 352.22 7.04 345.18 7.04 345.18 14.08 338.13 14.08 338.13 21.12 331.09 21.12 331.09 28.17 324.04 28.17 324.04 35.21 317 35.21 317 42.25 317 49.29"/>
      <rect class="cls-2" x="317" y="28.17" width="7.04" height="7.04"/>
      <rect class="cls-2" x="309.95" y="154.92" width="7.05" height="7.04"/>
      <polygon class="cls-2" points="317 56.33 317 49.29 317 42.25 317 35.21 309.95 35.21 309.95 42.25 309.95 49.29 309.95 56.33 309.95 63.37 317 63.37 317 56.33"/>
      <polygon class="cls-2" points="309.95 140.83 309.95 133.79 309.95 126.75 309.95 119.71 309.95 112.67 309.95 105.62 309.95 98.58 309.95 91.54 309.95 84.5 309.95 77.46 309.95 70.42 309.95 63.37 302.91 63.37 302.91 70.42 302.91 77.46 302.91 84.5 302.91 91.54 302.91 98.58 302.91 105.62 302.91 112.67 302.91 119.71 302.91 126.75 302.91 133.79 302.91 140.83 302.91 147.87 302.91 154.92 309.95 154.92 309.95 147.87 309.95 140.83"/>
      <polygon class="cls-3" points="560.03 70.42 552.99 70.42 545.95 70.42 545.95 77.46 552.99 77.46 552.99 84.5 552.99 91.54 552.99 98.58 552.99 105.62 552.99 112.67 552.99 119.71 552.99 126.75 552.99 133.79 552.99 140.83 552.99 147.87 552.99 154.92 552.99 161.96 545.95 161.96 545.95 169 552.99 169 560.03 169 560.03 161.96 567.08 161.96 567.08 154.92 567.08 147.87 567.08 140.83 567.08 133.79 567.08 126.75 567.08 119.71 567.08 112.67 567.08 105.62 567.08 98.58 567.08 91.54 567.08 84.5 567.08 77.46 567.08 70.42 567.08 63.37 560.03 63.37 560.03 70.42"/>
      <polygon class="cls-1" points="552.99 161.96 552.99 154.92 552.99 147.87 552.99 140.83 552.99 133.79 552.99 126.75 552.99 119.71 552.99 112.67 552.99 105.62 552.99 98.58 552.99 91.54 552.99 84.5 552.99 77.46 545.95 77.46 545.95 84.5 538.9 84.5 538.9 91.54 538.9 98.58 538.9 105.62 538.9 112.67 538.9 119.71 538.9 126.75 538.9 133.79 538.9 140.83 538.9 147.87 538.9 154.92 538.9 161.96 531.86 161.96 531.86 169 538.9 169 545.95 169 545.95 161.96 552.99 161.96"/>
      <polygon class="cls-2" points="545.95 63.37 545.95 70.42 552.99 70.42 560.03 70.42 560.03 63.37 552.99 63.37 545.95 63.37"/>
      <rect class="cls-3" x="538.9" y="63.37" width="7.05" height="7.05"/>
      <path class="cls-3" d="M531.86,169v-7.04h7.04v-77.46h7.05v-7.04h-21.14v7.04h-21.13v-7.04h-21.13v-7.04h-14.09v-7.05h-7.05v91.55h7.05v14.08h14.09v7.04h14.09v7.04h35.22v-7.04h14.09v-7.04h-14.09ZM517.77,176.04v-84.5h7.04v84.5h-7.04Z"/>
      <polygon class="cls-2" points="531.86 70.42 524.81 70.42 524.81 77.46 531.86 77.46 538.9 77.46 545.95 77.46 545.95 70.42 538.9 70.42 531.86 70.42"/>
      <polygon class="cls-3" points="531.86 28.17 538.9 28.17 538.9 35.21 538.9 42.25 545.95 42.25 545.95 49.29 545.95 56.33 545.95 63.37 552.99 63.37 560.03 63.37 560.03 56.33 560.03 49.29 560.03 42.25 560.03 35.21 552.99 35.21 552.99 28.17 545.95 28.17 545.95 21.12 538.9 21.12 538.9 14.08 531.86 14.08 531.86 21.12 531.86 28.17"/>
      <rect class="cls-3" x="524.81" y="7.04" width="7.05" height="7.04"/>
      <polygon class="cls-1" points="524.81 161.96 524.81 154.92 524.81 147.87 524.81 140.83 524.81 133.79 524.81 126.75 524.81 119.71 524.81 112.67 524.81 105.62 524.81 98.58 524.81 91.54 517.77 91.54 517.77 98.58 517.77 105.62 517.77 112.67 517.77 119.71 517.77 126.75 517.77 133.79 517.77 140.83 517.77 147.87 517.77 154.92 517.77 161.96 517.77 169 517.77 176.04 524.81 176.04 524.81 169 524.81 161.96"/>
      <polygon class="cls-1" points="524.81 49.29 524.81 42.25 517.77 42.25 517.77 35.21 510.72 35.21 510.72 42.25 510.72 49.29 517.77 49.29 517.77 56.33 517.77 63.37 524.81 63.37 524.81 56.33 524.81 49.29"/>
      <polygon class="cls-2" points="510.72 77.46 503.68 77.46 503.68 84.5 510.72 84.5 517.77 84.5 524.81 84.5 524.81 77.46 517.77 77.46 510.72 77.46"/>
      <rect class="cls-1" x="510.72" y="63.37" width="7.05" height="7.05"/>
      <polygon class="cls-1" points="510.72 7.04 510.72 14.08 517.77 14.08 517.77 21.12 517.77 28.17 524.81 28.17 524.81 35.21 531.86 35.21 531.86 42.25 531.86 49.29 531.86 56.33 531.86 63.37 524.81 63.37 524.81 70.42 531.86 70.42 538.9 70.42 538.9 63.37 545.95 63.37 545.95 56.33 545.95 49.29 545.95 42.25 538.9 42.25 538.9 35.21 538.9 28.17 531.86 28.17 531.86 21.12 531.86 14.08 524.81 14.08 524.81 7.04 517.77 7.04 510.72 7.04"/>
      <polygon class="cls-3" points="517.77 7.04 524.81 7.04 524.81 0 517.77 0 510.72 0 510.72 7.04 517.77 7.04"/>
      <polygon class="cls-2" points="510.72 7.04 510.72 0 503.68 0 496.64 0 496.64 7.04 503.68 7.04 510.72 7.04"/>
      <polygon class="cls-2" points="496.64 70.42 489.59 70.42 482.55 70.42 482.55 77.46 489.59 77.46 496.64 77.46 503.68 77.46 503.68 70.42 496.64 70.42"/>
      <rect class="cls-2" x="489.59" y="7.04" width="7.05" height="7.04"/>
      <rect class="cls-2" x="482.55" y="14.08" width="7.04" height="7.04"/>
      <polygon class="cls-2" points="475.5 63.37 468.46 63.37 468.46 70.42 475.5 70.42 482.55 70.42 482.55 63.37 475.5 63.37"/>
      <rect class="cls-2" x="475.5" y="21.12" width="7.05" height="7.05"/>
      <polygon class="cls-3" points="468.46 49.29 468.46 56.33 468.46 63.37 475.5 63.37 482.55 63.37 482.55 70.42 489.59 70.42 496.64 70.42 503.68 70.42 503.68 77.46 510.72 77.46 517.77 77.46 524.81 77.46 524.81 70.42 524.81 63.37 517.77 63.37 517.77 70.42 510.72 70.42 510.72 63.37 517.77 63.37 517.77 56.33 517.77 49.29 510.72 49.29 510.72 42.25 510.72 35.21 517.77 35.21 517.77 42.25 524.81 42.25 524.81 49.29 524.81 56.33 524.81 63.37 531.86 63.37 531.86 56.33 531.86 49.29 531.86 42.25 531.86 35.21 524.81 35.21 524.81 28.17 517.77 28.17 517.77 21.12 517.77 14.08 510.72 14.08 510.72 7.04 503.68 7.04 496.64 7.04 496.64 14.08 489.59 14.08 489.59 21.12 482.55 21.12 482.55 28.17 475.5 28.17 475.5 35.21 468.46 35.21 468.46 42.25 468.46 49.29"/>
      <rect class="cls-2" x="468.46" y="28.17" width="7.04" height="7.04"/>
      <rect class="cls-2" x="461.41" y="154.92" width="7.05" height="7.04"/>
      <polygon class="cls-2" points="468.46 56.33 468.46 49.29 468.46 42.25 468.46 35.21 461.41 35.21 461.41 42.25 461.41 49.29 461.41 56.33 461.41 63.37 468.46 63.37 468.46 56.33"/>
      <polygon class="cls-2" points="461.41 140.83 461.41 133.79 461.41 126.75 461.41 119.71 461.41 112.67 461.41 105.62 461.41 98.58 461.41 91.54 461.41 84.5 461.41 77.46 461.41 70.42 461.41 63.37 454.37 63.37 454.37 70.42 454.37 77.46 454.37 84.5 454.37 91.54 454.37 98.58 454.37 105.62 454.37 112.67 454.37 119.71 454.37 126.75 454.37 133.79 454.37 140.83 454.37 147.87 454.37 154.92 461.41 154.92 461.41 147.87 461.41 140.83"/>
      <polygon class="cls-3" points="711.32 63.37 711.32 70.42 704.28 70.42 697.24 70.42 697.24 77.46 704.28 77.46 704.28 84.5 704.28 91.54 704.28 98.58 704.28 105.62 704.28 112.67 704.28 119.71 704.28 126.75 704.28 133.79 704.28 140.83 704.28 147.87 704.28 154.92 704.28 161.96 697.24 161.96 697.24 169 704.28 169 711.32 169 711.32 161.96 718.37 161.96 718.37 154.92 718.37 147.87 718.37 140.83 718.37 133.79 718.37 126.75 718.37 119.71 718.37 112.67 718.37 105.62 718.37 98.58 718.37 91.54 718.37 84.5 718.37 77.46 718.37 70.42 718.37 63.37 711.32 63.37"/>
      <polygon class="cls-1" points="704.28 161.96 704.28 154.92 704.28 147.87 704.28 140.83 704.28 133.79 704.28 126.75 704.28 119.71 704.28 112.67 704.28 105.62 704.28 98.58 704.28 91.54 704.28 84.5 704.28 77.46 697.24 77.46 697.24 84.5 690.19 84.5 690.19 91.54 690.19 98.58 690.19 105.62 690.19 112.67 690.19 119.71 690.19 126.75 690.19 133.79 690.19 140.83 690.19 147.87 690.19 154.92 690.19 161.96 683.15 161.96 683.15 169 690.19 169 697.24 169 697.24 161.96 704.28 161.96"/>
      <polygon class="cls-2" points="697.24 63.37 697.24 70.42 704.28 70.42 711.32 70.42 711.32 63.37 704.28 63.37 697.24 63.37"/>
      <rect class="cls-3" x="690.19" y="63.37" width="7.05" height="7.05"/>
      <path class="cls-3" d="M683.15,169v-7.04h7.04v-77.46h7.05v-7.04h-21.14v7.04h-21.13v-7.04h-21.13v-7.04h-14.09v-7.05h-7.05v91.55h7.05v14.08h14.09v7.04h14.09v7.04h35.22v-7.04h14.09v-7.04h-14.09ZM669.06,176.04v-84.5h7.04v84.5h-7.04Z"/>
      <polygon class="cls-2" points="683.15 70.42 676.1 70.42 676.1 77.46 683.15 77.46 690.19 77.46 697.24 77.46 697.24 70.42 690.19 70.42 683.15 70.42"/>
      <polygon class="cls-3" points="683.15 28.17 690.19 28.17 690.19 35.21 690.19 42.25 697.24 42.25 697.24 49.29 697.24 56.33 697.24 63.37 704.28 63.37 711.32 63.37 711.32 56.33 711.32 49.29 711.32 42.25 711.32 35.21 704.28 35.21 704.28 28.17 697.24 28.17 697.24 21.12 690.19 21.12 690.19 14.08 683.15 14.08 683.15 21.12 683.15 28.17"/>
      <rect class="cls-3" x="676.1" y="7.04" width="7.05" height="7.04"/>
      <polygon class="cls-1" points="676.1 161.96 676.1 154.92 676.1 147.87 676.1 140.83 676.1 133.79 676.1 126.75 676.1 119.71 676.1 112.67 676.1 105.62 676.1 98.58 676.1 91.54 669.06 91.54 669.06 98.58 669.06 105.62 669.06 112.67 669.06 119.71 669.06 126.75 669.06 133.79 669.06 140.83 669.06 147.87 669.06 154.92 669.06 161.96 669.06 169 669.06 176.04 676.1 176.04 676.1 169 676.1 161.96"/>
      <polygon class="cls-1" points="676.1 49.29 676.1 42.25 669.06 42.25 669.06 35.21 662.01 35.21 662.01 42.25 662.01 49.29 669.06 49.29 669.06 56.33 669.06 63.37 676.1 63.37 676.1 56.33 676.1 49.29"/>
      <polygon class="cls-2" points="662.01 77.46 654.97 77.46 654.97 84.5 662.01 84.5 669.06 84.5 676.1 84.5 676.1 77.46 669.06 77.46 662.01 77.46"/>
      <rect class="cls-1" x="662.01" y="63.37" width="7.05" height="7.05"/>
      <polygon class="cls-1" points="662.01 7.04 662.01 14.08 669.06 14.08 669.06 21.12 669.06 28.17 676.1 28.17 676.1 35.21 683.15 35.21 683.15 42.25 683.15 49.29 683.15 56.33 683.15 63.37 676.1 63.37 676.1 70.42 683.15 70.42 690.19 70.42 690.19 63.37 697.24 63.37 697.24 56.33 697.24 49.29 697.24 42.25 690.19 42.25 690.19 35.21 690.19 28.17 683.15 28.17 683.15 21.12 683.15 14.08 676.1 14.08 676.1 7.04 669.06 7.04 662.01 7.04"/>
      <polygon class="cls-3" points="669.06 7.04 676.1 7.04 676.1 0 669.06 0 662.01 0 662.01 7.04 669.06 7.04"/>
      <polygon class="cls-2" points="662.01 7.04 662.01 0 654.97 0 647.93 0 647.93 7.04 654.97 7.04 662.01 7.04"/>
      <polygon class="cls-2" points="647.93 70.42 640.88 70.42 633.84 70.42 633.84 77.46 640.88 77.46 647.93 77.46 654.97 77.46 654.97 70.42 647.93 70.42"/>
      <rect class="cls-2" x="640.88" y="7.04" width="7.05" height="7.04"/>
      <rect class="cls-2" x="633.84" y="14.08" width="7.04" height="7.04"/>
      <polygon class="cls-2" points="626.79 63.37 619.75 63.37 619.75 70.42 626.79 70.42 633.84 70.42 633.84 63.37 626.79 63.37"/>
      <rect class="cls-2" x="626.79" y="21.12" width="7.05" height="7.05"/>
      <polygon class="cls-3" points="619.75 49.29 619.75 56.33 619.75 63.37 626.79 63.37 633.84 63.37 633.84 70.42 640.88 70.42 647.93 70.42 654.97 70.42 654.97 77.46 662.01 77.46 669.06 77.46 676.1 77.46 676.1 70.42 676.1 63.37 669.06 63.37 669.06 70.42 662.01 70.42 662.01 63.37 669.06 63.37 669.06 56.33 669.06 49.29 662.01 49.29 662.01 42.25 662.01 35.21 669.06 35.21 669.06 42.25 676.1 42.25 676.1 49.29 676.1 56.33 676.1 63.37 683.15 63.37 683.15 56.33 683.15 49.29 683.15 42.25 683.15 35.21 676.1 35.21 676.1 28.17 669.06 28.17 669.06 21.12 669.06 14.08 662.01 14.08 662.01 7.04 654.97 7.04 647.93 7.04 647.93 14.08 640.88 14.08 640.88 21.12 633.84 21.12 633.84 28.17 626.79 28.17 626.79 35.21 619.75 35.21 619.75 42.25 619.75 49.29"/>
      <rect class="cls-2" x="619.75" y="28.17" width="7.04" height="7.04"/>
      <rect class="cls-2" x="612.7" y="154.92" width="7.05" height="7.04"/>
      <polygon class="cls-2" points="619.75 56.33 619.75 49.29 619.75 42.25 619.75 35.21 612.7 35.21 612.7 42.25 612.7 49.29 612.7 56.33 612.7 63.37 619.75 63.37 619.75 56.33"/>
      <polygon class="cls-2" points="612.7 140.83 612.7 133.79 612.7 126.75 612.7 119.71 612.7 112.67 612.7 105.62 612.7 98.58 612.7 91.54 612.7 84.5 612.7 77.46 612.7 70.42 612.7 63.37 605.66 63.37 605.66 70.42 605.66 77.46 605.66 84.5 605.66 91.54 605.66 98.58 605.66 105.62 605.66 112.67 605.66 119.71 605.66 126.75 605.66 133.79 605.66 140.83 605.66 147.87 605.66 154.92 612.7 154.92 612.7 147.87 612.7 140.83"/>
    </g>
  </g>
</svg>