<?xml version="1.0" encoding="UTF-8"?>
<svg id="_レイヤー_2" data-name="レイヤー 2" xmlns="http://www.w3.org/2000/svg" viewBox="0 0 366.31 725.31">
  <defs>
    <style>
      .cls-1 {
        fill: #3b0c79;
      }

      .cls-2 {
        fill: #3200cc;
      }

      .cls-3 {
        fill: none;
      }

      .cls-4 {
        fill: #b2b2d1;
      }

      .cls-5 {
        fill: #4a1999;
      }

      .cls-6 {
        fill: #a400fc;
      }

      .cls-7 {
        fill: #4800ff;
      }

      .cls-8 {
        fill: #363659;
      }
    </style>
  </defs>
  <g id="_レイヤー_1-2" data-name="レイヤー 1">
    <g>
      <polygon class="cls-3" points="126.8 387.3 126.8 394.34 119.75 394.34 119.75 394.35 126.8 394.35 133.84 394.35 133.84 387.31 140.88 387.31 140.88 387.3 133.84 387.3 126.8 387.3"/>
      <polygon class="cls-3" points="154.97 697.14 154.97 704.19 162.02 704.19 169.06 704.19 176.11 704.19 183.15 704.19 190.2 704.19 197.24 704.19 204.28 704.19 211.33 704.19 218.37 704.19 225.42 704.19 232.46 704.19 239.51 704.19 246.55 704.19 246.55 697.14 239.51 697.14 232.46 697.14 225.42 697.14 218.37 697.14 218.37 690.1 211.33 690.1 211.33 697.14 204.28 697.14 204.28 690.1 204.28 683.06 197.24 683.06 197.24 690.1 197.24 697.14 190.2 697.14 190.2 690.1 183.15 690.1 183.15 697.14 176.11 697.14 169.06 697.14 162.02 697.14 154.97 697.14"/>
      <polygon class="cls-3" points="126.8 204.21 126.8 211.25 119.75 211.25 119.75 211.26 126.8 211.26 133.84 211.26 133.84 204.22 140.88 204.22 140.88 204.21 133.84 204.21 126.8 204.21"/>
      <path class="cls-2" d="M359.26,147.88v-21.13h-7.04v21.13h-7.05v-7.04h-7.04v-7.05h-14.09v7.05h7.04v7.04h7.05v7.04h7.04v7.04h-7.04v14.09h-7.05v7.04h-21.13v-14.09h-14.09v7.05h7.05v7.04h-7.05v7.04h-28.18v7.04h35.23v-7.04h35.22v-7.04h7.04v-14.09h7.05v14.09h-7.05v14.08h-14.09v14.08h-7.04v7.05h-7.05v-7.05h-7.04v7.05h-14.09v7.04h-21.13v-7.04h-14.09v7.04h7.04v7.04h42.27v-7.04h21.13v-7.04h7.05v-7.05h7.04v-7.04h7.05v-14.08h7.04v-21.13h7.05v-21.12h-7.05ZM359.26,161.96h-7.04v-7.04h7.04v7.04Z"/>
      <rect class="cls-7" x="352.22" y="154.92" width="7.04" height="7.04"/>
      <polygon class="cls-7" points="352.22 176.05 352.22 169 345.17 169 345.17 176.05 345.17 183.09 352.22 183.09 352.22 176.05"/>
      <polygon class="cls-7" points="295.86 91.54 288.82 91.54 288.82 98.59 295.86 98.59 302.91 98.59 302.91 91.54 295.86 91.54"/>
      <polygon class="cls-6" points="267.68 98.59 274.73 98.59 281.77 98.59 281.77 105.63 274.73 105.63 274.73 112.67 267.68 112.67 267.68 119.71 274.73 119.71 281.77 119.71 281.77 112.67 288.82 112.67 288.82 105.63 295.86 105.63 302.91 105.63 302.91 98.59 295.86 98.59 288.82 98.59 288.82 91.54 295.86 91.54 302.91 91.54 302.91 98.59 309.95 98.59 316.99 98.59 316.99 105.63 324.04 105.63 331.08 105.63 331.08 112.67 338.13 112.67 338.13 119.71 345.17 119.71 345.17 126.75 352.22 126.75 359.26 126.75 359.26 119.71 352.22 119.71 352.22 112.67 345.17 112.67 345.17 105.63 338.13 105.63 338.13 98.59 331.08 98.59 331.08 91.54 324.04 91.54 316.99 91.54 316.99 84.5 309.95 84.5 302.91 84.5 295.86 84.5 288.82 84.5 281.77 84.5 281.77 91.54 274.73 91.54 267.68 91.54 260.64 91.54 260.64 98.59 267.68 98.59"/>
      <polygon class="cls-2" points="253.59 211.25 246.55 211.25 246.55 211.26 253.59 211.26 253.59 218.3 260.64 218.3 260.64 211.25 253.59 211.25"/>
      <polygon class="cls-2" points="253.59 56.34 253.59 63.38 253.59 70.42 253.59 77.46 253.59 84.5 253.59 91.54 246.55 91.54 246.55 98.59 246.55 105.63 246.55 112.67 246.55 119.71 239.51 119.71 239.51 126.75 239.51 133.79 232.46 133.79 232.46 140.84 225.42 140.84 225.42 147.88 218.37 147.88 218.37 154.92 211.33 154.92 204.28 154.92 204.28 161.96 197.24 161.96 197.24 169 204.28 169 211.33 169 211.33 161.96 218.37 161.96 225.42 161.96 225.42 154.92 232.46 154.92 232.46 147.88 239.51 147.88 239.51 140.84 246.55 140.84 246.55 133.79 246.55 126.75 253.59 126.75 253.59 119.71 253.59 112.67 260.64 112.67 260.64 105.63 260.64 98.59 260.64 91.54 260.64 84.5 260.64 77.46 260.64 70.42 260.64 63.38 260.64 56.34 260.64 49.29 253.59 49.29 253.59 56.34"/>
      <polygon class="cls-6" points="253.59 49.29 260.64 49.29 260.64 42.25 260.64 35.21 253.59 35.21 253.59 42.25 253.59 49.29"/>
      <rect class="cls-2" x="239.51" y="204.21" width="7.04" height=".01"/>
      <polygon class="cls-6" points="239.51 35.21 246.55 35.21 253.59 35.21 253.59 28.17 246.55 28.17 246.55 21.13 239.51 21.13 239.51 28.17 239.51 35.21"/>
      <polygon class="cls-1" points="232.46 183.09 239.51 183.09 239.51 176.05 232.46 176.05 225.42 176.05 225.42 183.09 218.37 183.09 218.37 190.13 225.42 190.13 232.46 190.13 232.46 183.09"/>
      <rect class="cls-5" x="225.42" y="169" width="7.04" height="7.05"/>
      <polygon class="cls-6" points="232.46 21.13 239.51 21.13 239.51 14.08 232.46 14.08 225.42 14.08 225.42 21.13 232.46 21.13"/>
      <rect class="cls-5" x="218.37" y="176.05" width="7.05" height="7.04"/>
      <polygon class="cls-2" points="225.42 77.46 232.46 77.46 232.46 70.42 232.46 63.38 232.46 56.34 232.46 49.29 225.42 49.29 218.37 49.29 211.33 49.29 211.33 56.34 218.37 56.34 225.42 56.34 225.42 63.38 225.42 70.42 218.37 70.42 218.37 77.46 211.33 77.46 211.33 84.5 211.33 91.54 218.37 91.54 225.42 91.54 225.42 98.59 225.42 105.63 218.37 105.63 218.37 112.67 211.33 112.67 204.28 112.67 204.28 119.71 211.33 119.71 218.37 119.71 225.42 119.71 225.42 112.67 232.46 112.67 232.46 105.63 232.46 98.59 232.46 91.54 232.46 84.5 225.42 84.5 225.42 77.46"/>
      <rect class="cls-5" x="211.33" y="183.09" width="7.04" height="7.04"/>
      <path class="cls-7" d="M211.33,14.08h-14.09v-7.04h-7.04v7.04h-28.18v7.05h-14.09v14.08h-14.09v7.04h-14.09v7.04h-7.04v7.05h-7.05v21.12h-7.04v14.08h7.04v14.09h-7.04v7.04h14.09v14.08h-7.05v-7.04h-14.09v-7.04h-7.04v-7.04h-28.18v-7.04h-7.04v14.08h14.09v7.04h-14.09v7.04h-7.05v21.13h-14.09v-14.09h7.05v-14.08h14.09v-7.04h-21.14v14.08h-7.04v7.04h-7.04v21.13h-7.05v7.04h7.05v21.13h7.04v14.08h7.04v7.04h14.09v7.04h7.05v7.05h56.35v-7.05h7.05v-7.04h7.04v-7.04h7.05v-7.04h-7.05v-7.04h-14.09v14.08h-7.04v7.04h-28.18v-7.04h-7.04v-7.04h7.04v7.04h21.13v-7.04h7.05v-7.04h7.04v-7.04h7.05v-14.09h-7.05v-7.04h-7.04v-7.04h14.09v7.04h7.04v14.08h7.05v7.05h7.04v7.04h7.04v7.04h7.05v7.04h7.04v-7.04h14.09v-14.08h7.05v-7.05h7.04v-7.04h7.05v21.13h28.17v-7.04h7.05v-7.05h7.04v7.05h7.05v7.04h-7.05v7.04h-7.04v7.04h14.09v7.04h7.04v7.04h14.09v7.05h14.09v7.04h21.13v-7.04h14.09v-7.05h7.04v7.05h7.05v-7.05h7.04v-14.08h14.09v-14.08h-7.04v7.04h-35.22v7.04h-35.23v-7.04h28.18v-7.04h7.05v-7.04h-7.05v-7.05h14.09v14.09h21.13v-7.04h7.05v-14.09h7.04v-7.04h-7.04v-7.04h-7.05v-7.04h-7.04v-7.05h14.09v7.05h7.04v7.04h7.05v-21.13h-7.05v-7.04h-7.04v-7.04h-7.05v-7.04h-14.09v-7.04h-14.08v7.04h-14.09v7.04h-7.05v7.04h-14.09v-7.04h7.05v-7.04h7.04v-7.04h-21.13v14.08h-7.05v14.08h-7.04v14.09h-7.04v7.04h-7.05v7.04h-7.04v7.04h-14.09v7.04h-14.09v-7.04h7.04v-7.04h14.09v-7.04h7.05v-7.04h7.04v-7.05h7.05v-14.08h7.04v-28.17h7.04v-56.33h-14.08v-14.08h-14.09v-7.05h-14.09ZM232.46,91.54v21.13h-7.04v7.04h-21.14v-7.04h14.09v-7.04h7.05v-14.09h-14.09v-14.08h7.04v-7.04h7.05v-14.08h-14.09v-7.05h21.13v28.17h-7.04v7.04h7.04v7.04ZM119.75,91.54v-28.16h14.09v-7.04h14.09v7.04h-14.09v7.04h-7.04v28.17h-7.05v-7.05ZM154.97,42.25h7.05v-7.04h7.04v-7.04h28.18v7.04h7.04v7.04h-7.04v-7.04h-21.13v7.04h-14.09v28.17h-7.05v-28.17ZM197.24,112.67v14.08h-7.04v7.04h-28.18v-7.04h21.13v-7.04h7.05v-21.12h-7.05v-7.05h7.05v7.05h7.04v14.08ZM56.35,183.09h-14.09v-7.04h14.09v-7.05h7.05v-7.04h7.04v-7.04h-7.04v-14.08h7.04v7.04h7.05v21.12h-7.05v7.05h-7.04v7.04h-7.05Z"/>
      <rect class="cls-6" x="197.24" y="35.21" width="7.04" height="7.04"/>
      <polygon class="cls-2" points="190.2 98.59 190.2 105.63 190.2 112.67 190.2 119.71 183.15 119.71 183.15 126.75 176.11 126.75 169.06 126.75 162.02 126.75 162.02 133.79 169.06 133.79 176.11 133.79 183.15 133.79 190.2 133.79 190.2 126.75 197.24 126.75 197.24 119.71 197.24 112.67 197.24 105.63 197.24 98.59 190.2 98.59"/>
      <polygon class="cls-1" points="190.2 169 190.2 161.96 183.15 161.96 183.15 169 183.15 176.05 183.15 183.09 190.2 183.09 190.2 176.05 190.2 169"/>
      <rect class="cls-2" x="183.15" y="91.54" width="7.05" height="7.05"/>
      <polygon class="cls-5" points="183.15 169 176.11 169 176.11 176.05 169.06 176.05 169.06 183.09 169.06 190.13 176.11 190.13 183.15 190.13 183.15 183.09 183.15 176.05 183.15 169"/>
      <polygon class="cls-6" points="176.11 42.25 176.11 35.21 183.15 35.21 190.2 35.21 197.24 35.21 197.24 28.17 190.2 28.17 183.15 28.17 176.11 28.17 169.06 28.17 169.06 35.21 162.02 35.21 162.02 42.25 169.06 42.25 176.11 42.25"/>
      <polygon class="cls-6" points="154.97 63.38 154.97 70.42 162.02 70.42 162.02 63.38 162.02 56.34 162.02 49.29 162.02 42.25 154.97 42.25 154.97 49.29 154.97 56.34 154.97 63.38"/>
      <polygon class="cls-5" points="140.88 190.13 140.88 183.09 133.84 183.09 133.84 176.05 126.8 176.05 126.8 169 119.75 169 119.75 176.05 119.75 183.09 126.8 183.09 126.8 190.13 133.84 190.13 133.84 197.17 140.88 197.17 147.93 197.17 147.93 190.13 140.88 190.13"/>
      <polygon class="cls-6" points="147.93 63.38 147.93 56.34 140.88 56.34 133.84 56.34 133.84 63.38 140.88 63.38 147.93 63.38"/>
      <rect class="cls-1" x="133.84" y="197.17" width="7.04" height="7.04"/>
      <rect class="cls-1" x="119.75" y="183.09" width="7.05" height="7.04"/>
      <polygon class="cls-6" points="126.8 91.54 126.8 84.5 126.8 77.46 126.8 70.42 133.84 70.42 133.84 63.38 126.8 63.38 119.75 63.38 119.75 70.42 119.75 77.46 119.75 84.5 119.75 91.54 119.75 98.59 126.8 98.59 126.8 91.54"/>
      <polygon class="cls-2" points="119.75 169 119.75 161.96 119.75 154.92 112.71 154.92 112.71 147.88 105.66 147.88 98.62 147.88 98.62 154.92 105.66 154.92 105.66 161.96 112.71 161.96 112.71 169 112.71 176.05 105.66 176.05 105.66 183.09 112.71 183.09 119.75 183.09 119.75 176.05 119.75 169"/>
      <polygon class="cls-2" points="112.71 218.3 119.75 218.3 119.75 211.26 119.75 211.25 126.8 211.25 126.8 204.21 133.84 204.21 133.84 197.17 133.84 190.13 126.8 190.13 126.8 197.17 119.75 197.17 119.75 204.21 112.71 204.21 112.71 211.25 105.66 211.25 105.66 218.3 98.62 218.3 91.57 218.3 84.53 218.3 77.49 218.3 70.44 218.3 63.4 218.3 56.35 218.3 49.31 218.3 49.31 225.34 56.35 225.34 63.4 225.34 70.44 225.34 77.49 225.34 84.53 225.34 91.57 225.34 98.62 225.34 105.66 225.34 112.71 225.34 112.71 218.3"/>
      <polygon class="cls-2" points="98.62 190.13 91.57 190.13 91.57 197.17 84.53 197.17 77.49 197.17 70.44 197.17 70.44 204.21 77.49 204.21 84.53 204.21 91.57 204.21 98.62 204.21 98.62 197.17 105.66 197.17 105.66 190.13 105.66 183.09 98.62 183.09 98.62 190.13"/>
      <rect class="cls-2" x="63.4" y="190.13" width="7.04" height="7.04"/>
      <polygon class="cls-2" points="70.44 176.05 70.44 169 77.49 169 77.49 161.96 77.49 154.92 77.49 147.88 70.44 147.88 70.44 140.84 63.4 140.84 63.4 147.88 63.4 154.92 70.44 154.92 70.44 161.96 63.4 161.96 63.4 169 56.35 169 56.35 176.05 49.31 176.05 42.26 176.05 42.26 183.09 49.31 183.09 56.35 183.09 63.4 183.09 63.4 176.05 70.44 176.05"/>
      <polygon class="cls-6" points="56.35 119.71 63.4 119.71 63.4 112.67 56.35 112.67 49.31 112.67 49.31 119.71 56.35 119.71"/>
      <polygon class="cls-6" points="49.31 211.25 42.26 211.25 42.26 204.21 35.22 204.21 28.17 204.21 28.17 197.17 21.13 197.17 21.13 190.13 21.13 183.09 14.09 183.09 14.09 176.05 14.09 169 14.09 161.96 7.04 161.96 7.04 154.92 14.09 154.92 14.09 147.88 14.09 140.84 14.09 133.79 21.13 133.79 21.13 126.75 28.17 126.75 28.17 119.71 28.17 112.67 35.22 112.67 42.26 112.67 49.31 112.67 49.31 105.63 49.31 98.59 56.35 98.59 56.35 105.63 63.4 105.63 70.44 105.63 77.49 105.63 84.53 105.63 84.53 112.67 91.57 112.67 91.57 119.71 98.62 119.71 105.66 119.71 105.66 126.75 112.71 126.75 112.71 119.71 112.71 112.67 105.66 112.67 98.62 112.67 98.62 105.63 105.66 105.63 105.66 98.59 105.66 91.54 98.62 91.54 98.62 84.5 98.62 77.46 105.66 77.46 105.66 70.42 105.66 63.38 105.66 56.34 112.71 56.34 112.71 49.29 119.75 49.29 119.75 42.25 126.8 42.25 133.84 42.25 133.84 35.21 140.88 35.21 147.93 35.21 147.93 28.17 147.93 21.13 154.97 21.13 162.02 21.13 162.02 14.08 169.06 14.08 176.11 14.08 183.15 14.08 190.2 14.08 190.2 7.04 197.24 7.04 197.24 14.08 204.28 14.08 211.33 14.08 218.37 14.08 225.42 14.08 225.42 7.04 218.37 7.04 211.33 7.04 211.33 0 204.28 0 197.24 0 190.2 0 183.15 0 183.15 7.04 176.11 7.04 169.06 7.04 162.02 7.04 154.97 7.04 154.97 14.08 147.93 14.08 140.88 14.08 140.88 21.13 133.84 21.13 133.84 28.17 126.8 28.17 119.75 28.17 119.75 35.21 112.71 35.21 112.71 42.25 105.66 42.25 105.66 49.29 98.62 49.29 98.62 56.34 98.62 63.38 91.57 63.38 91.57 70.42 91.57 77.46 91.57 84.5 91.57 91.54 91.57 98.59 84.53 98.59 77.49 98.59 70.44 98.59 63.4 98.59 63.4 91.54 56.35 91.54 49.31 91.54 42.26 91.54 42.26 98.59 35.22 98.59 28.17 98.59 28.17 105.63 21.13 105.63 21.13 112.67 21.13 119.71 14.09 119.71 14.09 126.75 7.04 126.75 7.04 133.79 7.04 140.84 7.04 147.88 0 147.88 0 154.92 0 161.96 0 169 7.04 169 7.04 176.05 7.04 183.09 7.04 190.13 7.04 197.17 14.09 197.17 14.09 204.21 21.13 204.21 21.13 211.25 28.17 211.25 28.17 218.3 35.22 218.3 42.26 218.3 42.26 225.34 49.31 225.34 49.31 218.3 49.31 211.25"/>
      <polygon class="cls-6" points="35.22 119.71 35.22 126.75 35.22 133.79 28.17 133.79 28.17 140.84 28.17 147.88 35.22 147.88 42.26 147.88 42.26 140.84 42.26 133.79 42.26 126.75 49.31 126.75 49.31 119.71 42.26 119.71 35.22 119.71"/>
      <rect class="cls-7" x="352.22" y="338.01" width="7.04" height="7.04"/>
      <path class="cls-2" d="M352.22,316.88v14.09h-7.05v-7.04h-7.04v-7.05h-14.09v7.05h7.04v7.04h7.05v7.04h7.04v7.04h-7.04v14.09h-7.05v7.04h-21.13v-14.09h-14.09v7.05h7.05v7.04h-7.05v7.04h-28.18v7.04h35.23v-7.04h35.22v-7.04h7.04v-14.09h7.05v14.09h-7.05v14.08h-14.09v14.08h-7.04v7.05h-7.05v-7.05h-7.04v7.05h-14.09v7.04h-21.13v-7.04h-14.09v7.04h7.04v7.04h42.27v-7.04h21.13v-7.04h7.05v-7.05h7.04v-7.04h7.05v-14.08h7.04v-21.13h7.05v-21.12h-7.05v-21.13h-7.04v7.04ZM359.26,345.05h-7.04v-7.04h7.04v7.04Z"/>
      <polygon class="cls-7" points="352.22 359.14 352.22 352.09 345.17 352.09 345.17 359.14 345.17 366.18 352.22 366.18 352.22 359.14"/>
      <polygon class="cls-7" points="295.86 274.63 288.82 274.63 288.82 281.68 295.86 281.68 302.91 281.68 302.91 274.63 295.86 274.63"/>
      <polygon class="cls-6" points="267.68 281.68 274.73 281.68 281.77 281.68 281.77 288.72 274.73 288.72 274.73 295.76 267.68 295.76 267.68 302.8 274.73 302.8 281.77 302.8 281.77 295.76 288.82 295.76 288.82 288.72 295.86 288.72 302.91 288.72 302.91 281.68 295.86 281.68 288.82 281.68 288.82 274.63 295.86 274.63 302.91 274.63 302.91 281.68 309.95 281.68 316.99 281.68 316.99 288.72 324.04 288.72 331.08 288.72 331.08 295.76 338.13 295.76 338.13 302.8 345.17 302.8 345.17 309.84 352.22 309.84 359.26 309.84 359.26 302.8 352.22 302.8 352.22 295.76 345.17 295.76 345.17 288.72 338.13 288.72 338.13 281.68 331.08 281.68 331.08 274.63 324.04 274.63 316.99 274.63 316.99 267.59 309.95 267.59 302.91 267.59 295.86 267.59 288.82 267.59 281.77 267.59 281.77 274.63 274.73 274.63 267.68 274.63 260.64 274.63 260.64 281.68 267.68 281.68"/>
      <polygon class="cls-2" points="253.59 394.34 246.55 394.34 246.55 394.35 253.59 394.35 253.59 401.39 260.64 401.39 260.64 394.34 253.59 394.34"/>
      <polygon class="cls-2" points="253.59 239.43 253.59 246.47 253.59 253.51 253.59 260.55 253.59 267.59 253.59 274.63 246.55 274.63 246.55 281.68 246.55 288.72 246.55 295.76 246.55 302.8 239.51 302.8 239.51 309.84 239.51 316.88 232.46 316.88 232.46 323.92 232.46 323.93 225.42 323.93 225.42 330.96 225.42 330.97 218.37 330.97 218.37 338.01 211.33 338.01 204.28 338.01 204.28 345.05 197.24 345.05 197.24 352.09 204.28 352.09 211.33 352.09 211.33 345.05 218.37 345.05 225.42 345.05 225.42 338.01 232.46 338.01 232.46 330.97 239.51 330.97 239.51 330.96 239.51 323.93 246.55 323.93 246.55 323.92 246.55 316.88 246.55 309.84 253.59 309.84 253.59 302.8 253.59 295.76 260.64 295.76 260.64 288.72 260.64 281.68 260.64 274.63 260.64 267.59 260.64 260.55 260.64 253.51 260.64 246.47 260.64 239.43 260.64 232.38 253.59 232.38 253.59 239.43"/>
      <polygon class="cls-6" points="253.59 218.3 253.59 225.34 253.59 232.38 260.64 232.38 260.64 225.34 260.64 218.3 253.59 218.3"/>
      <polygon class="cls-6" points="246.55 211.26 246.55 211.25 246.55 204.22 239.51 204.22 239.51 211.25 239.51 211.26 239.51 218.3 246.55 218.3 253.59 218.3 253.59 211.26 246.55 211.26"/>
      <rect class="cls-2" x="239.51" y="387.3" width="7.04" height="0"/>
      <path class="cls-7" d="M239.51,218.3v-7.04h0v-7.04h-14.09v-7.05h-28.18v-7.04h-7.04v7.04h-28.18v7.04h0s-7.05.01-7.05.01h-7.04v7.03h0v7.05h-14.09v7.04h-14.09v7.04h-7.04v7.05h-7.05v21.12h-7.04v14.08h7.04v14.09h-7.04v7.04h14.09v14.08h-7.05v-7.04h-14.09v-7.04h-7.04v-7.04h-28.18v-7.04h-7.04v14.08h14.09v7.04h-14.09v7.04h-7.05v21.13h-14.09v-14.09h7.05v-14.08h14.09v-7.04h-21.14v14.08h-7.04v7.04h-7.04v21.13h-7.05v7.04h7.05v21.13h7.04v14.08h7.04v7.04h14.09v7.04h7.05v7.05h56.35v-7.05h7.05v-7.04h7.04v-7.04h7.05v-7.04h-7.05v-7.04h-14.09v14.08h-7.04v7.04h-28.18v-7.04h-7.04v-7.04h7.04v7.04h21.13v-7.04h7.05v-7.04h7.04v-7.04h7.05v-14.09h-7.05v-7.04h-7.04v-7.04h14.09v7.04h7.04v14.08h7.05v7.04h0s7.04,0,7.04,0v7.04h7.04v7.04h7.05v7.04h7.04v-7.04h14.09v-14.08h7.05v-7.05h7.04v-7.04h7.05v14.08h0v7.05h28.17v-7.04h7.05v-7.05h7.04v7.04h0s7.05,0,7.05,0v7.04h-7.05v7.04h-7.04v7.04h14.09v7.04h7.04v7.04h14.09v7.05h14.09v7.04h21.13v-7.04h14.09v-7.05h7.04v7.05h7.05v-7.05h7.04v-14.08h14.09v-14.08h-7.04v7.04h-35.22v7.04h-35.23v-7.04h28.18v-7.04h7.05v-7.04h-7.05v-7.05h14.09v14.09h21.13v-7.04h7.05v-14.09h7.04v-7.04h-7.04v-7.04h-7.05v-7.04h-7.04v-7.05h14.09v7.05h7.04v7.04h7.05v-21.13h-7.05v-7.04h-7.04v-7.04h-7.05v-7.04h-14.09v-7.04h-14.08v7.04h-14.09v7.04h-7.05v7.04h-14.09v-7.04h7.05v-7.04h7.04v-7.04h-21.13v14.08h-7.05v14.08h-7.04v14.08h0s-7.04,0-7.04,0v7.03h0s-7.05.01-7.05.01v7.04h-7.04v7.04h-14.09v7.04h-14.09v-7.04h7.04v-7.04h14.09v-7.04h7.05v-7.04h7.04v-7.05h7.05v-14.08h7.04v-28.17h7.04v-56.33h-14.08ZM232.46,274.63v21.13h-7.04v7.04h-21.14v-7.04h14.09v-7.04h7.05v-14.09h-14.09v-14.08h7.04v-7.04h7.05v-14.08h-14.09v-7.05h21.13v28.17h-7.04v7.04h7.04v7.04ZM119.75,274.63v-28.16h14.09v-7.04h14.09v7.04h-14.09v7.04h-7.04v28.17h-7.05v-7.05ZM154.97,225.34h7.05v-7.04h7.04v-7.04h28.18v7.04h7.04v7.04h-7.04v-7.04h-21.13v7.04h-14.09v28.17h-7.05v-28.17ZM197.24,295.76v14.08h-7.04v7.04h-28.18v-7.04h21.13v-7.04h7.05v-7.04h0v-7.04h0v-7.04h-7.05v-7.05h7.05v7.04h0s7.04,0,7.04,0v7.03h0v7.04h0ZM56.35,366.18h-14.09v-7.04h14.09v-7.05h7.05v-7.04h7.04v-7.04h-7.04v-14.08h7.04v7.04h7.05v21.12h-7.05v7.05h-7.04v7.04h-7.05Z"/>
      <polygon class="cls-1" points="232.46 366.18 239.51 366.18 239.51 359.14 232.46 359.14 225.42 359.14 225.42 366.18 218.37 366.18 218.37 373.22 225.42 373.22 232.46 373.22 232.46 366.18"/>
      <polygon class="cls-5" points="232.46 359.13 232.46 352.09 225.42 352.09 225.42 359.13 225.42 359.14 232.46 359.14 232.46 359.13"/>
      <polygon class="cls-6" points="225.42 204.22 232.46 204.22 239.51 204.22 239.51 204.21 239.51 197.17 232.46 197.17 225.42 197.17 225.42 204.21 225.42 204.22"/>
      <rect class="cls-5" x="218.37" y="359.14" width="7.05" height="7.04"/>
      <polygon class="cls-2" points="225.42 260.55 232.46 260.55 232.46 253.51 232.46 246.47 232.46 239.43 232.46 232.38 225.42 232.38 218.37 232.38 211.33 232.38 211.33 239.43 218.37 239.43 225.42 239.43 225.42 246.47 225.42 253.51 218.37 253.51 218.37 260.55 211.33 260.55 211.33 267.59 211.33 274.63 218.37 274.63 225.42 274.63 225.42 281.68 225.42 288.72 218.37 288.72 218.37 295.76 211.33 295.76 204.28 295.76 204.28 302.8 211.33 302.8 218.37 302.8 225.42 302.8 225.42 295.76 232.46 295.76 232.46 288.72 232.46 281.68 232.46 274.63 232.46 267.59 225.42 267.59 225.42 260.55"/>
      <rect class="cls-5" x="211.33" y="366.18" width="7.04" height="7.04"/>
      <rect class="cls-6" x="197.24" y="218.3" width="7.04" height="7.04"/>
      <polygon class="cls-2" points="197.24 288.71 197.24 281.68 190.2 281.68 190.2 288.71 190.2 288.72 190.2 295.75 190.2 295.76 190.2 302.8 183.15 302.8 183.15 309.84 176.11 309.84 169.06 309.84 162.02 309.84 162.02 316.88 169.06 316.88 176.11 316.88 183.15 316.88 190.2 316.88 190.2 309.84 197.24 309.84 197.24 302.8 197.24 295.76 197.24 295.75 197.24 288.72 197.24 288.71"/>
      <polygon class="cls-1" points="190.2 359.13 190.2 352.09 190.2 345.05 183.15 345.05 183.15 352.09 183.15 359.13 183.15 359.14 183.15 366.18 190.2 366.18 190.2 359.14 190.2 359.13"/>
      <polygon class="cls-2" points="190.2 274.63 183.15 274.63 183.15 281.67 183.15 281.68 190.2 281.68 190.2 281.67 190.2 274.63"/>
      <polygon class="cls-5" points="183.15 359.13 183.15 352.09 176.11 352.09 176.11 359.13 176.11 359.14 169.06 359.14 169.06 366.18 169.06 373.22 176.11 373.22 183.15 373.22 183.15 366.18 183.15 359.14 183.15 359.13"/>
      <polygon class="cls-6" points="176.11 225.34 176.11 218.3 183.15 218.3 190.2 218.3 197.24 218.3 197.24 211.26 190.2 211.26 183.15 211.26 176.11 211.26 169.06 211.26 169.06 218.3 162.02 218.3 162.02 225.34 169.06 225.34 176.11 225.34"/>
      <polygon class="cls-6" points="154.97 246.47 154.97 253.51 162.02 253.51 162.02 246.47 162.02 239.43 162.02 232.38 162.02 225.34 154.97 225.34 154.97 232.38 154.97 239.43 154.97 246.47"/>
      <polygon class="cls-5" points="140.88 373.22 140.88 366.18 133.84 366.18 133.84 359.14 126.8 359.14 126.8 359.13 126.8 352.09 119.75 352.09 119.75 359.14 119.75 366.18 126.8 366.18 126.8 373.22 133.84 373.22 133.84 380.26 140.88 380.26 147.93 380.26 147.93 373.22 140.88 373.22"/>
      <polygon class="cls-6" points="147.93 246.47 147.93 239.43 140.88 239.43 133.84 239.43 133.84 246.47 140.88 246.47 147.93 246.47"/>
      <rect class="cls-1" x="133.84" y="380.26" width="7.04" height="7.04"/>
      <rect class="cls-1" x="119.75" y="366.18" width="7.05" height="7.04"/>
      <polygon class="cls-6" points="126.8 274.63 126.8 267.59 126.8 260.55 126.8 253.51 133.84 253.51 133.84 246.47 126.8 246.47 119.75 246.47 119.75 253.51 119.75 260.55 119.75 267.59 119.75 274.63 119.75 281.68 126.8 281.68 126.8 274.63"/>
      <polygon class="cls-2" points="119.75 352.09 119.75 345.05 119.75 338.01 112.71 338.01 112.71 330.97 105.66 330.97 98.62 330.97 98.62 338.01 105.66 338.01 105.66 345.05 112.71 345.05 112.71 352.09 112.71 359.14 105.66 359.14 105.66 366.18 112.71 366.18 119.75 366.18 119.75 359.14 119.75 352.09"/>
      <polygon class="cls-2" points="112.71 401.39 119.75 401.39 119.75 394.35 119.75 394.34 126.8 394.34 126.8 387.3 133.84 387.3 133.84 380.26 133.84 373.22 126.8 373.22 126.8 380.26 119.75 380.26 119.75 387.3 112.71 387.3 112.71 394.34 105.66 394.34 105.66 401.39 98.62 401.39 91.57 401.39 84.53 401.39 77.49 401.39 70.44 401.39 63.4 401.39 56.35 401.39 49.31 401.39 49.31 408.43 56.35 408.43 63.4 408.43 70.44 408.43 77.49 408.43 84.53 408.43 91.57 408.43 98.62 408.43 105.66 408.43 112.71 408.43 112.71 401.39"/>
      <polygon class="cls-2" points="98.62 373.22 91.57 373.22 91.57 380.26 84.53 380.26 77.49 380.26 70.44 380.26 70.44 387.3 77.49 387.3 84.53 387.3 91.57 387.3 98.62 387.3 98.62 380.26 105.66 380.26 105.66 373.22 105.66 366.18 98.62 366.18 98.62 373.22"/>
      <rect class="cls-2" x="63.4" y="373.22" width="7.04" height="7.04"/>
      <polygon class="cls-2" points="70.44 359.14 70.44 352.09 77.49 352.09 77.49 345.05 77.49 338.01 77.49 330.97 70.44 330.97 70.44 323.93 63.4 323.93 63.4 330.97 63.4 338.01 70.44 338.01 70.44 345.05 63.4 345.05 63.4 352.09 56.35 352.09 56.35 359.14 49.31 359.14 42.26 359.14 42.26 366.18 49.31 366.18 56.35 366.18 63.4 366.18 63.4 359.14 70.44 359.14"/>
      <polygon class="cls-6" points="56.35 302.8 63.4 302.8 63.4 295.76 56.35 295.76 49.31 295.76 49.31 302.8 56.35 302.8"/>
      <polygon class="cls-6" points="49.31 394.34 42.26 394.34 42.26 387.3 35.22 387.3 28.17 387.3 28.17 380.26 21.13 380.26 21.13 373.22 21.13 366.18 14.09 366.18 14.09 359.14 14.09 352.09 14.09 345.05 7.04 345.05 7.04 338.01 14.09 338.01 14.09 330.97 14.09 323.93 14.09 316.88 21.13 316.88 21.13 309.84 28.17 309.84 28.17 302.8 28.17 295.76 35.22 295.76 42.26 295.76 49.31 295.76 49.31 288.72 49.31 281.68 56.35 281.68 56.35 288.72 63.4 288.72 70.44 288.72 77.49 288.72 84.53 288.72 84.53 295.76 91.57 295.76 91.57 302.8 98.62 302.8 105.66 302.8 105.66 309.84 112.71 309.84 112.71 302.8 112.71 295.76 105.66 295.76 98.62 295.76 98.62 288.72 105.66 288.72 105.66 281.68 105.66 274.63 98.62 274.63 98.62 267.59 98.62 260.55 105.66 260.55 105.66 253.51 105.66 246.47 105.66 239.43 112.71 239.43 112.71 232.38 119.75 232.38 119.75 225.34 126.8 225.34 133.84 225.34 133.84 218.3 140.88 218.3 147.93 218.3 147.93 211.26 147.93 211.25 147.93 204.22 154.97 204.22 162.02 204.22 162.02 204.21 162.02 197.17 169.06 197.17 176.11 197.17 183.15 197.17 190.2 197.17 190.2 190.13 197.24 190.13 197.24 197.17 204.28 197.17 211.33 197.17 218.37 197.17 225.42 197.17 225.42 190.13 218.37 190.13 211.33 190.13 211.33 183.09 204.28 183.09 197.24 183.09 190.2 183.09 183.15 183.09 183.15 190.13 176.11 190.13 169.06 190.13 162.02 190.13 154.97 190.13 154.97 197.17 147.93 197.17 140.88 197.17 140.88 204.21 140.88 204.22 133.84 204.22 133.84 211.26 126.8 211.26 119.75 211.26 119.75 218.3 112.71 218.3 112.71 225.34 105.66 225.34 105.66 232.38 98.62 232.38 98.62 239.43 98.62 246.47 91.57 246.47 91.57 253.51 91.57 260.55 91.57 267.59 91.57 274.63 91.57 281.68 84.53 281.68 77.49 281.68 70.44 281.68 63.4 281.68 63.4 274.63 56.35 274.63 49.31 274.63 42.26 274.63 42.26 281.68 35.22 281.68 28.17 281.68 28.17 288.72 21.13 288.72 21.13 295.76 21.13 302.8 14.09 302.8 14.09 309.84 7.04 309.84 7.04 316.88 7.04 323.93 7.04 330.97 0 330.97 0 338.01 0 345.05 0 352.09 7.04 352.09 7.04 359.14 7.04 366.18 7.04 373.22 7.04 380.26 14.09 380.26 14.09 387.3 21.13 387.3 21.13 394.34 28.17 394.34 28.17 401.39 35.22 401.39 42.26 401.39 42.26 408.43 49.31 408.43 49.31 401.39 49.31 394.34"/>
      <polygon class="cls-6" points="35.22 302.8 35.22 309.84 35.22 316.88 28.17 316.88 28.17 323.93 28.17 330.97 35.22 330.97 42.26 330.97 42.26 323.93 42.26 316.88 42.26 309.84 49.31 309.84 49.31 302.8 42.26 302.8 35.22 302.8"/>
      <rect class="cls-7" x="352.22" y="521.1" width="7.04" height="7.04"/>
      <path class="cls-2" d="M352.22,499.97v14.09h-7.05v-7.04h-7.04v-7.05h-14.09v7.05h7.04v7.04h7.05v7.04h7.04v7.04h-7.04v14.09h-7.05v7.04h-21.13v-14.09h-14.09v7.05h7.05v7.04h-7.05v7.04h-28.18v7.04h35.23v-7.04h35.22v-7.04h7.04v-14.09h7.05v14.09h-7.05v14.08h-14.09v14.08h-7.04v7.05h-7.05v-7.05h-7.04v7.05h-14.09v7.04h-21.13v-7.04h-14.09v-7.05h-14.09v-7.04h-28.18v7.04h14.09v7.05h21.13v7.04h14.09v7.04h42.27v-7.04h21.13v-7.04h7.05v-7.05h7.04v-7.04h7.05v-14.08h7.04v-21.13h7.05v-21.12h-7.05v-21.13h-7.04v7.04ZM359.26,528.14h-7.04v-7.04h7.04v7.04Z"/>
      <polygon class="cls-7" points="352.22 542.23 352.22 535.18 345.17 535.18 345.17 542.23 345.17 549.27 352.22 549.27 352.22 542.23"/>
      <polygon class="cls-7" points="295.86 457.72 288.82 457.72 288.82 464.77 295.86 464.77 302.91 464.77 302.91 457.72 295.86 457.72"/>
      <polygon class="cls-6" points="267.68 464.77 274.73 464.77 281.77 464.77 281.77 471.81 274.73 471.81 274.73 478.85 267.68 478.85 267.68 485.89 274.73 485.89 281.77 485.89 281.77 478.85 288.82 478.85 288.82 471.81 295.86 471.81 302.91 471.81 302.91 464.77 295.86 464.77 288.82 464.77 288.82 457.72 295.86 457.72 302.91 457.72 302.91 464.77 309.95 464.77 316.99 464.77 316.99 471.81 324.04 471.81 331.08 471.81 331.08 478.85 338.13 478.85 338.13 485.89 345.17 485.89 345.17 492.93 352.22 492.93 359.26 492.93 359.26 485.89 352.22 485.89 352.22 478.85 345.17 478.85 345.17 471.81 338.13 471.81 338.13 464.77 331.08 464.77 331.08 457.72 324.04 457.72 316.99 457.72 316.99 450.68 309.95 450.68 302.91 450.68 295.86 450.68 288.82 450.68 281.77 450.68 281.77 457.72 274.73 457.72 267.68 457.72 260.64 457.72 260.64 464.77 267.68 464.77"/>
      <polygon class="cls-8" points="253.59 711.23 246.55 711.23 239.51 711.23 232.46 711.23 225.42 711.23 218.37 711.23 211.33 711.23 204.28 711.23 197.24 711.23 190.2 711.23 183.15 711.23 176.11 711.23 169.06 711.23 162.02 711.23 154.97 711.23 147.93 711.23 140.88 711.23 133.84 711.23 126.8 711.23 126.8 718.27 126.8 725.31 133.84 725.31 140.88 725.31 147.93 725.31 154.97 725.31 162.02 725.31 169.06 725.31 176.11 725.31 183.15 725.31 190.2 725.31 197.24 725.31 204.28 725.31 211.33 725.31 218.37 725.31 225.42 725.31 232.46 725.31 239.51 725.31 246.55 725.31 253.59 725.31 260.64 725.31 267.68 725.31 267.68 718.27 267.68 711.23 260.64 711.23 253.59 711.23"/>
      <polygon class="cls-2" points="253.59 422.52 253.59 429.56 253.59 436.6 253.59 443.64 253.59 450.68 253.59 457.72 246.55 457.72 246.55 464.77 246.55 471.81 246.55 478.85 246.55 485.89 239.51 485.89 239.51 492.93 239.51 499.97 232.46 499.97 232.46 507.01 232.46 507.02 225.42 507.02 225.42 514.05 225.42 514.06 218.37 514.06 218.37 521.1 211.33 521.1 204.28 521.1 204.28 528.14 197.24 528.14 197.24 535.18 204.28 535.18 211.33 535.18 211.33 528.14 218.37 528.14 225.42 528.14 225.42 521.1 232.46 521.1 232.46 514.06 239.51 514.06 239.51 514.05 239.51 507.02 246.55 507.02 246.55 507.01 246.55 499.97 246.55 492.93 253.59 492.93 253.59 485.89 253.59 478.85 260.64 478.85 260.64 471.81 260.64 464.77 260.64 457.72 260.64 450.68 260.64 443.64 260.64 436.6 260.64 429.56 260.64 422.52 260.64 415.47 253.59 415.47 253.59 422.52"/>
      <polygon class="cls-6" points="253.59 401.39 253.59 408.43 253.59 415.47 260.64 415.47 260.64 408.43 260.64 401.39 253.59 401.39"/>
      <polygon class="cls-6" points="246.55 394.35 246.55 394.34 246.55 387.31 239.51 387.31 239.51 394.34 239.51 394.35 239.51 401.39 246.55 401.39 253.59 401.39 253.59 394.35 246.55 394.35"/>
      <polygon class="cls-4" points="239.51 697.14 246.55 697.14 246.55 704.19 239.51 704.19 232.46 704.19 225.42 704.19 218.37 704.19 211.33 704.19 204.28 704.19 197.24 704.19 190.2 704.19 183.15 704.19 176.11 704.19 169.06 704.19 162.02 704.19 154.97 704.19 154.97 697.14 162.02 697.14 169.06 697.14 169.06 690.1 162.02 690.1 154.97 690.1 147.93 690.1 140.88 690.1 133.84 690.1 133.84 697.14 133.84 704.19 126.8 704.19 126.8 711.23 133.84 711.23 140.88 711.23 147.93 711.23 154.97 711.23 162.02 711.23 169.06 711.23 176.11 711.23 183.15 711.23 190.2 711.23 197.24 711.23 204.28 711.23 211.33 711.23 218.37 711.23 225.42 711.23 232.46 711.23 239.51 711.23 246.55 711.23 253.59 711.23 260.64 711.23 267.68 711.23 267.68 704.19 260.64 704.19 260.64 697.14 260.64 690.1 253.59 690.1 246.55 690.1 239.51 690.1 232.46 690.1 232.46 697.14 239.51 697.14"/>
      <polygon class="cls-6" points="239.51 380.26 232.46 380.26 225.42 380.26 225.42 387.3 225.42 387.31 232.46 387.31 239.51 387.31 239.51 387.3 239.51 380.26"/>
      <path class="cls-7" d="M232.46,570.39h14.09v7.04h14.09v7.05h14.09v7.04h21.13v-7.04h14.09v-7.05h7.04v7.05h7.05v-7.05h7.04v-14.08h14.09v-14.08h-7.04v7.04h-35.22v7.04h-35.23v-7.04h28.18v-7.04h7.05v-7.04h-7.05v-7.05h14.09v14.09h21.13v-7.04h7.05v-14.09h7.04v-7.04h-7.04v-7.04h-7.05v-7.04h-7.04v-7.05h14.09v7.05h7.04v7.04h7.05v-21.13h-7.05v-7.04h-7.04v-7.04h-7.05v-7.04h-14.09v-7.04h-14.08v7.04h-14.09v7.04h-7.05v7.04h-14.09v-7.04h7.05v-7.04h7.04v-7.04h-21.13v14.08h-7.05v14.08h-7.04v14.08h0s-7.04,0-7.04,0v7.03h0s-7.05,0-7.05,0v7.04h-7.04v7.04h-14.09v7.04h-14.09v-7.04h7.04v-7.04h14.09v-7.04h7.05v-7.04h7.04v-7.05h7.05v-14.08h7.04v-28.17h7.04v-56.33h-14.08v-7.04h0v-7.04h-14.09v-7.05h-28.18v-7.04h-7.04v7.04h-28.18v7.04h0s-7.05,0-7.05,0h-7.04v7.03h0v7.05h-14.09v7.04h-14.09v7.04h-7.04v7.05h-7.05v21.12h-7.04v14.08h7.04v14.09h-7.04v7.04h14.09v14.08h-7.05v-7.04h-14.09v-7.04h-7.04v-7.04h-28.18v-7.04h-7.04v14.08h14.09v7.04h-14.09v7.04h-7.05v21.13h-14.09v-14.09h7.05v-14.08h14.09v-7.04h-21.14v14.08h-7.04v7.04h-7.04v21.13h-7.05v7.04h7.05v21.13h7.04v14.08h7.04v7.04h14.09v7.04h7.05v7.05h56.35v-7.05h7.05v-7.04h7.04v-7.04h7.05v-7.04h-7.05v-7.04h-14.09v14.08h-7.04v7.04h-28.18v-7.04h-7.04v-7.04h7.04v7.04h21.13v-7.04h7.05v-7.04h7.04v-7.04h7.05v-14.09h-7.05v-7.04h-7.04v-7.04h14.09v7.04h7.04v14.08h7.05v7.04h0s7.04.01,7.04.01v7.04h7.04v7.04h7.05v7.04h7.04v7.04h7.05v7.04h7.04v7.05h7.05v-28.17h-7.05v-14.08h7.05v-7.05h7.04v-7.04h7.05v14.08h0v35.21h7.04v-14.08h7.04v-7.04h7.05v-7.04h7.04v-7.04h7.05v-7.05h7.04v7.04h0s7.05.01,7.05.01v7.04h-7.05v7.04h-7.04v7.04h-7.05v7.04h14.09ZM119.75,457.72v-28.16h14.09v-7.04h14.09v7.04h-14.09v7.04h-7.04v28.17h-7.05v-7.05ZM154.97,408.43h7.05v-7.04h7.04v-7.04h28.18v7.04h7.04v7.04h-7.04v-7.04h-21.13v7.04h-14.09v28.17h-7.05v-28.17ZM232.46,457.72v21.13h-7.04v7.04h-21.14v-7.04h14.09v-7.04h7.05v-14.09h-14.09v-14.08h7.04v-7.04h7.05v-14.08h-14.09v-7.05h21.13v28.17h-7.04v7.04h7.04v7.04ZM197.24,478.85v14.08h-7.04v7.04h-28.18v-7.04h21.13v-7.04h7.05v-7.04h0v-7.04h0v-7.04h-7.05v-7.05h7.05v7.04h0s7.04,0,7.04,0v7.03h0v7.04h0ZM56.35,549.27h-14.09v-7.04h14.09v-7.05h7.05v-7.04h7.04v-7.04h-7.04v-14.08h7.04v7.04h7.05v21.12h-7.05v7.05h-7.04v7.04h-7.05Z"/>
      <polygon class="cls-5" points="232.46 542.22 232.46 535.18 225.42 535.18 225.42 542.22 225.42 542.23 232.46 542.23 232.46 542.22"/>
      <polygon class="cls-1" points="225.42 563.35 225.42 556.31 232.46 556.31 232.46 549.27 239.51 549.27 239.51 542.23 232.46 542.23 225.42 542.23 225.42 549.27 218.37 549.27 218.37 556.31 211.33 556.31 211.33 563.35 204.28 563.35 204.28 570.39 204.28 577.43 211.33 577.43 211.33 570.39 218.37 570.39 218.37 563.35 225.42 563.35"/>
      <rect class="cls-5" x="218.37" y="542.23" width="7.05" height="7.04"/>
      <polygon class="cls-2" points="225.42 443.64 232.46 443.64 232.46 436.6 232.46 429.56 232.46 422.52 232.46 415.47 225.42 415.47 218.37 415.47 211.33 415.47 211.33 422.52 218.37 422.52 225.42 422.52 225.42 429.56 225.42 436.6 218.37 436.6 218.37 443.64 211.33 443.64 211.33 450.68 211.33 457.72 218.37 457.72 225.42 457.72 225.42 464.77 225.42 471.81 218.37 471.81 218.37 478.85 211.33 478.85 204.28 478.85 204.28 485.89 211.33 485.89 218.37 485.89 225.42 485.89 225.42 478.85 232.46 478.85 232.46 471.81 232.46 464.77 232.46 457.72 232.46 450.68 225.42 450.68 225.42 443.64"/>
      <polygon class="cls-1" points="211.33 683.06 218.37 683.06 218.37 690.1 218.37 697.14 225.42 697.14 232.46 697.14 232.46 690.1 225.42 690.1 225.42 683.06 225.42 676.02 218.37 676.02 218.37 668.98 211.33 668.98 211.33 676.02 211.33 683.06"/>
      <rect class="cls-5" x="211.33" y="549.27" width="7.04" height="7.04"/>
      <rect class="cls-5" x="204.28" y="556.31" width="7.05" height="7.04"/>
      <polygon class="cls-5" points="204.28 661.93 204.28 654.89 197.24 654.89 197.24 647.85 197.24 640.81 197.24 633.77 197.24 626.73 197.24 619.68 197.24 612.64 197.24 605.6 190.2 605.6 183.15 605.6 183.15 598.56 183.15 591.52 176.11 591.52 176.11 584.48 169.06 584.48 169.06 577.43 162.02 577.43 162.02 570.39 154.97 570.39 154.97 563.35 147.93 563.35 147.93 556.31 140.88 556.31 140.88 549.27 133.84 549.27 133.84 542.23 126.8 542.23 126.8 542.22 126.8 535.18 119.75 535.18 119.75 542.23 119.75 549.27 126.8 549.27 126.8 556.31 133.84 556.31 133.84 563.35 140.88 563.35 140.88 570.39 147.93 570.39 147.93 577.43 154.97 577.43 154.97 584.48 162.02 584.48 162.02 591.52 169.06 591.52 169.06 598.56 176.11 598.56 176.11 605.6 176.11 612.64 183.15 612.64 183.15 619.68 183.15 626.73 176.11 626.73 176.11 633.77 183.15 633.77 183.15 640.81 183.15 647.85 183.15 654.89 176.11 654.89 176.11 661.93 176.11 668.98 169.06 668.98 169.06 676.02 169.06 683.06 169.06 690.1 169.06 697.14 176.11 697.14 183.15 697.14 183.15 690.1 190.2 690.1 190.2 697.14 197.24 697.14 197.24 690.1 197.24 683.06 204.28 683.06 204.28 690.1 204.28 697.14 211.33 697.14 211.33 690.1 218.37 690.1 218.37 683.06 211.33 683.06 211.33 676.02 211.33 668.98 204.28 668.98 204.28 661.93"/>
      <polygon class="cls-1" points="197.24 591.52 190.2 591.52 190.2 584.48 190.2 577.43 190.2 570.39 183.15 570.39 183.15 577.43 183.15 584.48 176.11 584.48 176.11 591.52 183.15 591.52 183.15 598.56 183.15 605.6 190.2 605.6 197.24 605.6 197.24 612.64 197.24 619.68 197.24 626.73 197.24 633.77 197.24 640.81 197.24 647.85 197.24 654.89 204.28 654.89 204.28 661.93 204.28 668.98 211.33 668.98 211.33 661.93 211.33 654.89 211.33 647.85 211.33 640.81 211.33 633.77 204.28 633.77 204.28 626.73 204.28 619.68 204.28 612.64 204.28 605.6 204.28 598.56 204.28 591.52 204.28 584.48 197.24 584.48 197.24 591.52"/>
      <polygon class="cls-5" points="204.28 563.35 197.24 563.35 197.24 570.39 197.24 577.43 190.2 577.43 190.2 584.48 190.2 591.52 197.24 591.52 197.24 584.48 204.28 584.48 204.28 577.43 204.28 570.39 204.28 563.35"/>
      <rect class="cls-6" x="197.24" y="401.39" width="7.04" height="7.04"/>
      <polygon class="cls-2" points="197.24 471.8 197.24 464.77 190.2 464.77 190.2 471.8 190.2 471.81 190.2 478.84 190.2 478.85 190.2 485.89 183.15 485.89 183.15 492.93 176.11 492.93 169.06 492.93 162.02 492.93 162.02 499.97 169.06 499.97 176.11 499.97 183.15 499.97 190.2 499.97 190.2 492.93 197.24 492.93 197.24 485.89 197.24 478.85 197.24 478.84 197.24 471.81 197.24 471.8"/>
      <polygon class="cls-1" points="183.15 542.23 183.15 549.27 183.15 556.31 183.15 563.35 190.2 563.35 190.2 556.31 190.2 549.27 190.2 542.23 190.2 542.22 190.2 535.18 190.2 528.14 183.15 528.14 183.15 535.18 183.15 542.22 183.15 542.23"/>
      <polygon class="cls-2" points="190.2 457.72 183.15 457.72 183.15 464.76 183.15 464.77 190.2 464.77 190.2 464.76 190.2 457.72"/>
      <polygon class="cls-1" points="183.15 619.68 183.15 612.64 176.11 612.64 176.11 619.68 176.11 626.73 183.15 626.73 183.15 619.68"/>
      <polygon class="cls-5" points="183.15 577.43 183.15 570.39 190.2 570.39 190.2 563.35 183.15 563.35 183.15 556.31 183.15 549.27 183.15 542.23 183.15 542.22 183.15 535.18 176.11 535.18 176.11 542.22 176.11 542.23 169.06 542.23 169.06 549.27 169.06 556.31 176.11 556.31 176.11 563.35 176.11 570.39 176.11 577.43 176.11 584.48 183.15 584.48 183.15 577.43"/>
      <rect class="cls-1" x="169.06" y="598.56" width="7.05" height="7.04"/>
      <polygon class="cls-6" points="176.11 408.43 176.11 401.39 183.15 401.39 190.2 401.39 197.24 401.39 197.24 394.35 190.2 394.35 183.15 394.35 176.11 394.35 169.06 394.35 169.06 401.39 162.02 401.39 162.02 408.43 169.06 408.43 176.11 408.43"/>
      <rect class="cls-1" x="162.02" y="591.52" width="7.04" height="7.04"/>
      <rect class="cls-1" x="154.97" y="584.48" width="7.05" height="7.04"/>
      <polygon class="cls-6" points="154.97 429.56 154.97 436.6 162.02 436.6 162.02 429.56 162.02 422.52 162.02 415.47 162.02 408.43 154.97 408.43 154.97 415.47 154.97 422.52 154.97 429.56"/>
      <rect class="cls-1" x="147.93" y="577.43" width="7.04" height="7.05"/>
      <rect class="cls-1" x="140.88" y="570.39" width="7.05" height="7.04"/>
      <polygon class="cls-6" points="147.93 429.56 147.93 422.52 140.88 422.52 133.84 422.52 133.84 429.56 140.88 429.56 147.93 429.56"/>
      <rect class="cls-1" x="133.84" y="563.35" width="7.04" height="7.04"/>
      <polygon class="cls-2" points="133.84 556.31 126.8 556.31 126.8 563.35 119.75 563.35 119.75 570.39 112.71 570.39 112.71 577.43 105.66 577.43 105.66 584.48 98.62 584.48 91.57 584.48 84.53 584.48 77.49 584.48 70.44 584.48 63.4 584.48 56.35 584.48 49.31 584.48 49.31 591.52 56.35 591.52 63.4 591.52 70.44 591.52 77.49 591.52 84.53 591.52 91.57 591.52 98.62 591.52 105.66 591.52 112.71 591.52 112.71 584.48 119.75 584.48 119.75 577.43 126.8 577.43 126.8 570.39 133.84 570.39 133.84 563.35 133.84 556.31"/>
      <rect class="cls-1" x="119.75" y="549.27" width="7.05" height="7.04"/>
      <polygon class="cls-6" points="126.8 457.72 126.8 450.68 126.8 443.64 126.8 436.6 133.84 436.6 133.84 429.56 126.8 429.56 119.75 429.56 119.75 436.6 119.75 443.64 119.75 450.68 119.75 457.72 119.75 464.77 126.8 464.77 126.8 457.72"/>
      <polygon class="cls-2" points="119.75 535.18 119.75 528.14 119.75 521.1 112.71 521.1 112.71 514.06 105.66 514.06 98.62 514.06 98.62 521.1 105.66 521.1 105.66 528.14 112.71 528.14 112.71 535.18 112.71 542.23 105.66 542.23 105.66 549.27 112.71 549.27 119.75 549.27 119.75 542.23 119.75 535.18"/>
      <polygon class="cls-2" points="98.62 556.31 91.57 556.31 91.57 563.35 84.53 563.35 77.49 563.35 70.44 563.35 70.44 570.39 77.49 570.39 84.53 570.39 91.57 570.39 98.62 570.39 98.62 563.35 105.66 563.35 105.66 556.31 105.66 549.27 98.62 549.27 98.62 556.31"/>
      <rect class="cls-2" x="63.4" y="556.31" width="7.04" height="7.04"/>
      <polygon class="cls-2" points="70.44 542.23 70.44 535.18 77.49 535.18 77.49 528.14 77.49 521.1 77.49 514.06 70.44 514.06 70.44 507.02 63.4 507.02 63.4 514.06 63.4 521.1 70.44 521.1 70.44 528.14 63.4 528.14 63.4 535.18 56.35 535.18 56.35 542.23 49.31 542.23 42.26 542.23 42.26 549.27 49.31 549.27 56.35 549.27 63.4 549.27 63.4 542.23 70.44 542.23"/>
      <polygon class="cls-6" points="56.35 485.89 63.4 485.89 63.4 478.85 56.35 478.85 49.31 478.85 49.31 485.89 56.35 485.89"/>
      <polygon class="cls-6" points="49.31 577.43 42.26 577.43 42.26 570.39 35.22 570.39 28.17 570.39 28.17 563.35 21.13 563.35 21.13 556.31 21.13 549.27 14.09 549.27 14.09 542.23 14.09 535.18 14.09 528.14 7.04 528.14 7.04 521.1 14.09 521.1 14.09 514.06 14.09 507.02 14.09 499.97 21.13 499.97 21.13 492.93 28.17 492.93 28.17 485.89 28.17 478.85 35.22 478.85 42.26 478.85 49.31 478.85 49.31 471.81 49.31 464.77 56.35 464.77 56.35 471.81 63.4 471.81 70.44 471.81 77.49 471.81 84.53 471.81 84.53 478.85 91.57 478.85 91.57 485.89 98.62 485.89 105.66 485.89 105.66 492.93 112.71 492.93 112.71 485.89 112.71 478.85 105.66 478.85 98.62 478.85 98.62 471.81 105.66 471.81 105.66 464.77 105.66 457.72 98.62 457.72 98.62 450.68 98.62 443.64 105.66 443.64 105.66 436.6 105.66 429.56 105.66 422.52 112.71 422.52 112.71 415.47 119.75 415.47 119.75 408.43 126.8 408.43 133.84 408.43 133.84 401.39 140.88 401.39 147.93 401.39 147.93 394.35 147.93 394.34 147.93 387.31 154.97 387.31 162.02 387.31 162.02 387.3 162.02 380.26 169.06 380.26 176.11 380.26 183.15 380.26 190.2 380.26 190.2 373.22 197.24 373.22 197.24 380.26 204.28 380.26 211.33 380.26 218.37 380.26 225.42 380.26 225.42 373.22 218.37 373.22 211.33 373.22 211.33 366.18 204.28 366.18 197.24 366.18 190.2 366.18 183.15 366.18 183.15 373.22 176.11 373.22 169.06 373.22 162.02 373.22 154.97 373.22 154.97 380.26 147.93 380.26 140.88 380.26 140.88 387.3 140.88 387.31 133.84 387.31 133.84 394.35 126.8 394.35 119.75 394.35 119.75 401.39 112.71 401.39 112.71 408.43 105.66 408.43 105.66 415.47 98.62 415.47 98.62 422.52 98.62 429.56 91.57 429.56 91.57 436.6 91.57 443.64 91.57 450.68 91.57 457.72 91.57 464.77 84.53 464.77 77.49 464.77 70.44 464.77 63.4 464.77 63.4 457.72 56.35 457.72 49.31 457.72 42.26 457.72 42.26 464.77 35.22 464.77 28.17 464.77 28.17 471.81 21.13 471.81 21.13 478.85 21.13 485.89 14.09 485.89 14.09 492.93 7.04 492.93 7.04 499.97 7.04 507.02 7.04 514.06 0 514.06 0 521.1 0 528.14 0 535.18 7.04 535.18 7.04 542.23 7.04 549.27 7.04 556.31 7.04 563.35 14.09 563.35 14.09 570.39 21.13 570.39 21.13 577.43 28.17 577.43 28.17 584.48 35.22 584.48 42.26 584.48 42.26 591.52 49.31 591.52 49.31 584.48 49.31 577.43"/>
      <polygon class="cls-6" points="35.22 485.89 35.22 492.93 35.22 499.97 28.17 499.97 28.17 507.02 28.17 514.06 35.22 514.06 42.26 514.06 42.26 507.02 42.26 499.97 42.26 492.93 49.31 492.93 49.31 485.89 42.26 485.89 35.22 485.89"/>
    </g>
  </g>
</svg>