<?xml version="1.0" encoding="UTF-8"?>
<svg id="_レイヤー_2" data-name="レイヤー 2" xmlns="http://www.w3.org/2000/svg" viewBox="0 0 542.4 543.55">
  <defs>
    <style>
      .cls-1 {
        fill: #3b0c79;
      }

      .cls-2 {
        fill: #3200cc;
      }

      .cls-3 {
        fill: none;
      }

      .cls-4 {
        fill: #b2b2d1;
      }

      .cls-5 {
        fill: #4a1999;
      }

      .cls-6 {
        fill: #a400fc;
      }

      .cls-7 {
        fill: #4800ff;
      }

      .cls-8 {
        fill: #363659;
      }
    </style>
  </defs>
  <g id="_レイヤー_1-2" data-name="レイヤー 1">
    <g>
      <polygon class="cls-3" points="154.97 515.38 154.97 522.43 162.02 522.43 169.06 522.43 176.11 522.43 183.15 522.43 190.2 522.43 197.24 522.43 204.28 522.43 211.33 522.43 218.37 522.43 225.42 522.43 232.46 522.43 239.51 522.43 246.55 522.43 246.55 515.38 239.51 515.38 232.46 515.38 225.42 515.38 218.37 515.38 218.37 508.34 211.33 508.34 211.33 515.38 204.28 515.38 204.28 508.34 204.28 501.3 197.24 501.3 197.24 508.34 197.24 515.38 190.2 515.38 190.2 508.34 183.15 508.34 183.15 515.38 176.11 515.38 169.06 515.38 162.02 515.38 154.97 515.38"/>
      <polygon class="cls-3" points="359.26 332.3 366.31 332.3 366.31 338.01 373.33 338.01 380.37 338.01 387.42 338.01 394.46 338.01 401.51 338.01 408.55 338.01 415.6 338.01 422.64 338.01 422.64 330.96 415.6 330.96 408.55 330.96 401.51 330.96 394.46 330.96 394.46 323.92 387.42 323.92 387.42 330.96 380.37 330.96 380.37 323.92 380.37 316.88 373.33 316.88 373.33 323.92 373.33 330.96 366.29 330.96 366.29 323.92 359.26 323.92 359.26 325.26 359.26 332.3"/>
      <polygon class="cls-3" points="302.89 204.21 302.89 211.25 295.84 211.25 295.84 218.3 288.8 218.3 288.8 225.34 281.75 225.34 274.71 225.34 267.66 225.34 260.64 225.34 260.64 226.67 260.64 233.71 260.64 240.76 260.64 247.8 260.64 254.84 260.64 261.88 260.64 268.92 260.64 275.96 267.68 275.96 274.73 275.96 281.77 275.96 281.77 268.92 288.82 268.92 295.86 268.92 302.91 268.92 309.95 268.92 316.99 268.92 316.99 275.96 324.04 275.96 331.08 275.96 331.08 283.01 338.13 283.01 338.13 290.05 345.17 290.05 345.17 297.09 352.2 297.09 352.2 295.75 352.2 288.71 359.24 288.71 359.24 281.67 359.24 274.63 359.24 267.59 352.2 267.59 352.2 260.55 352.2 253.5 352.2 246.46 352.2 239.42 345.15 239.42 345.15 232.38 338.11 232.38 338.11 225.34 331.06 225.34 331.06 218.3 324.02 218.3 324.02 211.25 316.97 211.25 316.97 204.21 309.93 204.21 302.89 204.21"/>
      <rect class="cls-7" x="528.31" y="154.92" width="7.04" height="7.04"/>
      <path class="cls-2" d="M535.35,140.84v-14.09h-7.04v21.13h-7.05v-7.04h-7.04v-7.05h-14.09v7.05h7.04v7.04h7.05v7.04h7.04v7.04h-7.04v14.09h-7.05v7.04h-21.13v-14.09h-14.09v7.05h7.05v7.04h-7.05v7.04h-28.18v7.04h35.23v-7.04h35.22v-7.04h7.04v-14.09h7.05v14.09h-7.05v14.08h-14.09v14.08h-7.04v7.05h-7.05v-7.05h-7.04v7.05h-14.09v7.04h-21.13v-7.04h-14.09v-7.05h-14.09v-7.04h-28.18v7.04h14.09v7.05h21.13v7.04h14.09v7.04h42.27v-7.04h21.13v-7.04h7.05v-7.05h7.04v-7.04h7.05v-14.08h7.04v-21.13h7.05v-21.12h-7.05v-7.04ZM535.35,161.96h-7.04v-7.04h7.04v7.04Z"/>
      <polygon class="cls-7" points="528.31 176.05 528.31 169 521.26 169 521.26 176.05 521.26 183.09 528.31 183.09 528.31 176.05"/>
      <polygon class="cls-7" points="471.95 91.54 464.91 91.54 464.91 98.59 471.95 98.59 479 98.59 479 91.54 471.95 91.54"/>
      <polygon class="cls-6" points="443.77 98.59 450.82 98.59 457.86 98.59 457.86 105.63 450.82 105.63 450.82 112.67 443.77 112.67 443.77 119.71 450.82 119.71 457.86 119.71 457.86 112.67 464.91 112.67 464.91 105.63 471.95 105.63 479 105.63 479 98.59 471.95 98.59 464.91 98.59 464.91 91.54 471.95 91.54 479 91.54 479 98.59 486.04 98.59 493.08 98.59 493.08 105.63 500.13 105.63 507.17 105.63 507.17 112.67 514.22 112.67 514.22 119.71 521.26 119.71 521.26 126.75 528.31 126.75 535.35 126.75 535.35 119.71 528.31 119.71 528.31 112.67 521.26 112.67 521.26 105.63 514.22 105.63 514.22 98.59 507.17 98.59 507.17 91.54 500.13 91.54 493.08 91.54 493.08 84.5 486.04 84.5 479 84.5 471.95 84.5 464.91 84.5 457.86 84.5 457.86 91.54 450.82 91.54 443.77 91.54 436.73 91.54 436.73 98.59 443.77 98.59"/>
      <polygon class="cls-8" points="429.68 345.05 422.64 345.05 415.6 345.05 408.55 345.05 401.51 345.05 394.46 345.05 387.42 345.05 380.37 345.05 373.33 345.05 366.31 345.05 366.31 346.38 366.31 353.42 359.26 353.42 359.26 359.13 366.29 359.13 373.33 359.13 380.37 359.13 387.42 359.13 394.46 359.13 401.51 359.13 408.55 359.13 415.6 359.13 422.64 359.13 429.68 359.13 436.73 359.13 443.77 359.13 443.77 352.09 443.77 345.05 436.73 345.05 429.68 345.05"/>
      <polygon class="cls-2" points="429.68 56.34 429.68 63.38 429.68 70.42 429.68 77.46 429.68 84.5 429.68 91.54 422.64 91.54 422.64 98.59 422.64 105.63 422.64 112.67 422.64 119.71 415.6 119.71 415.6 126.75 415.6 133.79 408.55 133.79 408.55 140.84 401.51 140.84 401.51 147.88 394.46 147.88 394.46 154.92 387.42 154.92 380.37 154.92 380.37 161.96 373.33 161.96 373.33 169 380.37 169 387.42 169 387.42 161.96 394.46 161.96 401.51 161.96 401.51 154.92 408.55 154.92 408.55 147.88 415.6 147.88 415.6 140.84 422.64 140.84 422.64 133.79 422.64 126.75 429.68 126.75 429.68 119.71 429.68 112.67 436.73 112.67 436.73 105.63 436.73 98.59 436.73 91.54 436.73 84.5 436.73 77.46 436.73 70.42 436.73 63.38 436.73 56.34 436.73 49.29 429.68 49.29 429.68 56.34"/>
      <polygon class="cls-6" points="429.68 49.29 436.73 49.29 436.73 42.25 436.73 35.21 429.68 35.21 429.68 42.25 429.68 49.29"/>
      <polygon class="cls-6" points="415.6 35.21 422.64 35.21 429.68 35.21 429.68 28.17 422.64 28.17 422.64 21.13 415.6 21.13 415.6 28.17 415.6 35.21"/>
      <polygon class="cls-4" points="415.6 330.96 422.64 330.96 422.64 338.01 415.6 338.01 408.55 338.01 401.51 338.01 394.46 338.01 387.42 338.01 380.37 338.01 373.33 338.01 366.31 338.01 366.31 339.34 366.31 345.05 373.33 345.05 380.37 345.05 387.42 345.05 394.46 345.05 401.51 345.05 408.55 345.05 415.6 345.05 422.64 345.05 429.68 345.05 436.73 345.05 443.77 345.05 443.77 338.01 436.73 338.01 436.73 330.96 436.73 323.92 429.68 323.92 422.64 323.92 415.6 323.92 408.55 323.92 408.55 330.96 415.6 330.96"/>
      <path class="cls-7" d="M408.55,204.21h14.09v7.04h14.09v7.05h14.09v7.04h21.13v-7.04h14.09v-7.05h7.04v7.05h7.05v-7.05h7.04v-14.08h14.09v-14.08h-7.04v7.04h-35.22v7.04h-35.23v-7.04h28.18v-7.04h7.05v-7.04h-7.05v-7.05h14.09v14.09h21.13v-7.04h7.05v-14.09h7.04v-7.04h-7.04v-7.04h-7.05v-7.04h-7.04v-7.05h14.09v7.05h7.04v7.04h7.05v-21.13h-7.05v-7.04h-7.04v-7.04h-7.05v-7.04h-14.09v-7.04h-14.08v7.04h-14.09v7.04h-7.05v7.04h-14.09v-7.04h7.05v-7.04h7.04v-7.04h-21.13v14.08h-7.05v14.08h-7.04v14.09h-7.04v7.04h-7.05v7.04h-7.04v7.04h-14.09v7.04h-14.09v-7.04h7.04v-7.04h14.09v-7.04h7.05v-7.04h7.04v-7.05h7.05v-14.08h7.04v-28.17h7.04v-56.33h-14.08v-14.08h-14.09v-7.05h-28.18v-7.04h-7.04v7.04h-28.18v7.05h-14.09v14.08h-14.09v7.04h-14.09v7.04h-7.04v7.05h-7.05v21.12h-7.04v14.08h7.04v14.09h-7.04v7.04h14.09v14.08h-7.05v-7.04h-14.09v-7.04h-7.04v-7.04h-28.18v-7.04h-7.04v14.08h14.09v7.04h-14.09v7.04h-7.05v21.13h-14.09v-14.09h7.05v-14.08h14.09v-7.04h-21.14v14.08h-7.04v7.04h-7.04v21.13h-7.05v7.04h7.05v21.13h7.04v1.33h14.11v7.04h14.09v7.04h14.09v7.05h7.04v7.04h7.04v5.71h28.16v-7.05h7.05v-7.04h7.04v-7.04h7.05v-7.04h-7.05v-7.04h-14.09v14.08h-7.04v7.04h-28.18v-7.04h-7.04v-7.04h7.04v7.04h21.13v-7.04h7.05v-7.04h7.04v-7.04h7.05v-14.09h-7.05v-7.04h-7.04v-7.04h14.09v7.04h7.04v14.08h7.05v7.05h7.04v7.04h7.04v7.04h7.05v7.04h7.04v7.04h7.05v7.04h7.04v7.05h7.05v-28.17h-7.05v-14.08h7.05v-7.05h7.04v-7.04h7.05v49.29h7.04v-14.08h7.04v-7.04h7.05v-7.04h7.04v-7.04h7.05v-7.05h7.04v7.05h7.05v7.04h-7.05v7.04h-7.04v7.04h-7.05v7.04h14.09ZM295.84,91.54v-28.16h14.09v-7.04h14.09v7.04h-14.09v7.04h-7.04v28.17h-7.05v-7.05ZM331.06,42.25h7.05v-7.04h7.04v-7.04h28.18v7.04h7.04v7.04h-7.04v-7.04h-21.13v7.04h-14.09v28.17h-7.05v-28.17ZM408.55,91.54v21.13h-7.04v7.04h-21.14v-7.04h14.09v-7.04h7.05v-14.09h-14.09v-14.08h7.04v-7.04h7.05v-14.08h-14.09v-7.05h21.13v28.17h-7.04v7.04h7.04v7.04ZM373.33,112.67v14.08h-7.04v7.04h-28.18v-7.04h21.13v-7.04h7.05v-21.12h-7.05v-7.05h7.05v7.05h7.04v14.08ZM232.44,183.09h-14.09v-7.04h14.09v-7.05h7.05v-7.04h7.04v-7.04h-7.04v-14.08h7.04v7.04h7.05v21.12h-7.05v7.05h-7.04v7.04h-7.05Z"/>
      <rect class="cls-5" x="401.51" y="169" width="7.04" height="7.05"/>
      <polygon class="cls-6" points="408.55 21.13 415.6 21.13 415.6 14.08 408.55 14.08 401.51 14.08 401.51 21.13 408.55 21.13"/>
      <polygon class="cls-1" points="401.51 197.17 401.51 190.13 408.55 190.13 408.55 183.09 415.6 183.09 415.6 176.05 408.55 176.05 401.51 176.05 401.51 183.09 394.46 183.09 394.46 190.13 387.42 190.13 387.42 197.17 380.37 197.17 380.37 204.21 380.37 211.25 387.42 211.25 387.42 204.21 394.46 204.21 394.46 197.17 401.51 197.17"/>
      <rect class="cls-5" x="394.46" y="176.05" width="7.05" height="7.04"/>
      <polygon class="cls-2" points="401.51 77.46 408.55 77.46 408.55 70.42 408.55 63.38 408.55 56.34 408.55 49.29 401.51 49.29 394.46 49.29 387.42 49.29 387.42 56.34 394.46 56.34 401.51 56.34 401.51 63.38 401.51 70.42 394.46 70.42 394.46 77.46 387.42 77.46 387.42 84.5 387.42 91.54 394.46 91.54 401.51 91.54 401.51 98.59 401.51 105.63 394.46 105.63 394.46 112.67 387.42 112.67 380.37 112.67 380.37 119.71 387.42 119.71 394.46 119.71 401.51 119.71 401.51 112.67 408.55 112.67 408.55 105.63 408.55 98.59 408.55 91.54 408.55 84.5 401.51 84.5 401.51 77.46"/>
      <polygon class="cls-1" points="387.42 316.88 394.46 316.88 394.46 323.92 394.46 330.96 401.51 330.96 408.55 330.96 408.55 323.92 401.51 323.92 401.51 316.88 401.51 309.84 394.46 309.84 394.46 302.8 387.42 302.8 387.42 309.84 387.42 316.88"/>
      <rect class="cls-5" x="387.42" y="183.09" width="7.04" height="7.04"/>
      <rect class="cls-5" x="380.37" y="190.13" width="7.05" height="7.04"/>
      <polygon class="cls-5" points="380.37 295.75 380.37 288.71 373.33 288.71 373.33 281.67 373.33 274.63 373.33 267.59 373.33 260.55 373.33 253.5 373.33 246.46 373.33 239.42 366.29 239.42 359.24 239.42 359.24 232.38 359.24 225.34 352.2 225.34 352.2 218.3 345.15 218.3 345.15 211.25 338.11 211.25 338.11 204.21 331.06 204.21 331.06 197.17 324.02 197.17 324.02 190.13 316.97 190.13 316.97 183.09 309.93 183.09 309.93 176.05 302.89 176.05 302.89 169 295.84 169 295.84 176.05 295.84 183.09 302.89 183.09 302.89 190.13 309.93 190.13 309.93 197.17 316.97 197.17 316.97 204.21 324.02 204.21 324.02 211.25 331.06 211.25 331.06 218.3 338.11 218.3 338.11 225.34 345.15 225.34 345.15 232.38 352.2 232.38 352.2 239.42 352.2 246.46 359.24 246.46 359.24 253.5 359.24 260.55 352.2 260.55 352.2 267.59 359.24 267.59 359.24 274.63 359.24 281.67 359.24 288.71 352.2 288.71 352.2 295.75 352.2 297.09 352.22 297.09 352.22 304.13 359.26 304.13 359.26 311.17 359.26 318.21 359.26 323.92 366.29 323.92 366.29 330.96 373.33 330.96 373.33 323.92 373.33 316.88 380.37 316.88 380.37 323.92 380.37 330.96 387.42 330.96 387.42 323.92 394.46 323.92 394.46 316.88 387.42 316.88 387.42 309.84 387.42 302.8 380.37 302.8 380.37 295.75"/>
      <polygon class="cls-1" points="373.33 225.34 366.29 225.34 366.29 218.3 366.29 211.25 366.29 204.21 359.24 204.21 359.24 211.25 359.24 218.3 352.2 218.3 352.2 225.34 359.24 225.34 359.24 232.38 359.24 239.42 366.29 239.42 373.33 239.42 373.33 246.46 373.33 253.5 373.33 260.55 373.33 267.59 373.33 274.63 373.33 281.67 373.33 288.71 380.37 288.71 380.37 295.75 380.37 302.8 387.42 302.8 387.42 295.75 387.42 288.71 387.42 281.67 387.42 274.63 387.42 267.59 380.37 267.59 380.37 260.55 380.37 253.5 380.37 246.46 380.37 239.42 380.37 232.38 380.37 225.34 380.37 218.3 373.33 218.3 373.33 225.34"/>
      <polygon class="cls-5" points="380.37 197.17 373.33 197.17 373.33 204.21 373.33 211.25 366.29 211.25 366.29 218.3 366.29 225.34 373.33 225.34 373.33 218.3 380.37 218.3 380.37 211.25 380.37 204.21 380.37 197.17"/>
      <rect class="cls-6" x="373.33" y="35.21" width="7.04" height="7.04"/>
      <polygon class="cls-2" points="366.29 98.59 366.29 105.63 366.29 112.67 366.29 119.71 359.24 119.71 359.24 126.75 352.2 126.75 345.15 126.75 338.11 126.75 338.11 133.79 345.15 133.79 352.2 133.79 359.24 133.79 366.29 133.79 366.29 126.75 373.33 126.75 373.33 119.71 373.33 112.67 373.33 105.63 373.33 98.59 366.29 98.59"/>
      <polygon class="cls-1" points="359.24 183.09 359.24 190.13 359.24 197.17 366.29 197.17 366.29 190.13 366.29 183.09 366.29 176.05 366.29 169 366.29 161.96 359.24 161.96 359.24 169 359.24 176.05 359.24 183.09"/>
      <rect class="cls-2" x="359.24" y="91.54" width="7.05" height="7.05"/>
      <polygon class="cls-1" points="352.2 260.55 359.24 260.55 359.24 253.5 359.24 246.46 352.2 246.46 352.2 253.5 352.2 260.55"/>
      <polygon class="cls-5" points="359.24 211.25 359.24 204.21 366.29 204.21 366.29 197.17 359.24 197.17 359.24 190.13 359.24 183.09 359.24 176.05 359.24 169 352.2 169 352.2 176.05 345.15 176.05 345.15 183.09 345.15 190.13 352.2 190.13 352.2 197.17 352.2 204.21 352.2 211.25 352.2 218.3 359.24 218.3 359.24 211.25"/>
      <rect class="cls-1" x="345.15" y="232.38" width="7.05" height="7.04"/>
      <polygon class="cls-6" points="352.2 42.25 352.2 35.21 359.24 35.21 366.29 35.21 373.33 35.21 373.33 28.17 366.29 28.17 359.24 28.17 352.2 28.17 345.15 28.17 345.15 35.21 338.11 35.21 338.11 42.25 345.15 42.25 352.2 42.25"/>
      <rect class="cls-1" x="338.11" y="225.34" width="7.04" height="7.04"/>
      <rect class="cls-1" x="331.06" y="218.3" width="7.05" height="7.04"/>
      <polygon class="cls-6" points="331.06 63.38 331.06 70.42 338.11 70.42 338.11 63.38 338.11 56.34 338.11 49.29 338.11 42.25 331.06 42.25 331.06 49.29 331.06 56.34 331.06 63.38"/>
      <rect class="cls-1" x="324.02" y="211.25" width="7.04" height="7.05"/>
      <rect class="cls-1" x="316.97" y="204.21" width="7.05" height="7.04"/>
      <polygon class="cls-6" points="324.02 63.38 324.02 56.34 316.97 56.34 309.93 56.34 309.93 63.38 316.97 63.38 324.02 63.38"/>
      <rect class="cls-1" x="309.93" y="197.17" width="7.04" height="7.04"/>
      <rect class="cls-1" x="295.84" y="183.09" width="7.05" height="7.04"/>
      <polygon class="cls-6" points="302.89 91.54 302.89 84.5 302.89 77.46 302.89 70.42 309.93 70.42 309.93 63.38 302.89 63.38 295.84 63.38 295.84 70.42 295.84 77.46 295.84 84.5 295.84 91.54 295.84 98.59 302.89 98.59 302.89 91.54"/>
      <polygon class="cls-2" points="295.84 169 295.84 161.96 295.84 154.92 288.8 154.92 288.8 147.88 281.75 147.88 274.71 147.88 274.71 154.92 281.75 154.92 281.75 161.96 288.8 161.96 288.8 169 288.8 176.05 281.75 176.05 281.75 183.09 288.8 183.09 295.84 183.09 295.84 176.05 295.84 169"/>
      <polygon class="cls-2" points="274.71 190.13 267.66 190.13 267.66 197.17 260.62 197.17 253.58 197.17 246.53 197.17 246.53 204.21 253.58 204.21 260.62 204.21 267.66 204.21 274.71 204.21 274.71 197.17 281.75 197.17 281.75 190.13 281.75 183.09 274.71 183.09 274.71 190.13"/>
      <polygon class="cls-2" points="260.64 219.63 260.64 225.34 267.66 225.34 274.71 225.34 281.75 225.34 288.8 225.34 288.8 218.3 295.84 218.3 295.84 211.25 302.89 211.25 302.89 204.21 309.93 204.21 309.93 197.17 309.93 190.13 302.89 190.13 302.89 197.17 295.84 197.17 295.84 204.21 288.8 204.21 288.8 211.25 281.75 211.25 281.75 218.3 274.71 218.3 267.66 218.3 260.62 218.3 253.59 218.3 253.59 219.63 260.64 219.63"/>
      <rect class="cls-2" x="239.49" y="190.13" width="7.04" height="7.04"/>
      <polygon class="cls-2" points="246.53 176.05 246.53 169 253.58 169 253.58 161.96 253.58 154.92 253.58 147.88 246.53 147.88 246.53 140.84 239.49 140.84 239.49 147.88 239.49 154.92 246.53 154.92 246.53 161.96 239.49 161.96 239.49 169 232.44 169 232.44 176.05 225.4 176.05 218.35 176.05 218.35 183.09 225.4 183.09 232.44 183.09 239.49 183.09 239.49 176.05 246.53 176.05"/>
      <polygon class="cls-6" points="232.44 119.71 239.49 119.71 239.49 112.67 232.44 112.67 225.4 112.67 225.4 119.71 232.44 119.71"/>
      <polygon class="cls-6" points="211.31 119.71 211.31 126.75 211.31 133.79 204.26 133.79 204.26 140.84 204.26 147.88 211.31 147.88 218.35 147.88 218.35 140.84 218.35 133.79 218.35 126.75 225.4 126.75 225.4 119.71 218.35 119.71 211.31 119.71"/>
      <path class="cls-2" d="M366.31,353.42v-21.12h-7.05v-21.13h-7.04v21.13h-7.05v-7.04h-7.04v-7.05h-14.09v7.05h7.04v7.04h7.05v7.04h7.04v7.04h-7.04v14.09h-7.05v7.04h-21.13v-14.09h-14.09v7.05h7.05v7.04h-7.05v7.04h-28.18v7.04h35.23v-7.04h35.22v-7.04h7.04v-14.09h7.05v14.09h-7.05v14.08h-14.09v14.08h-7.04v7.05h-7.05v-7.05h-7.04v7.05h-14.09v7.04h-21.13v-7.04h-14.09v-7.05h-14.09v-7.04h-28.18v7.04h14.09v7.05h21.13v7.04h14.09v7.04h42.27v-7.04h21.13v-7.04h7.05v-7.05h7.04v-7.04h7.05v-14.08h7.04v-21.13h7.05ZM352.22,339.34h7.04v7.04h-7.04v-7.04Z"/>
      <rect class="cls-7" x="352.22" y="339.34" width="7.04" height="7.04"/>
      <polygon class="cls-7" points="352.22 360.47 352.22 353.42 345.17 353.42 345.17 360.47 345.17 367.51 352.22 367.51 352.22 360.47"/>
      <polygon class="cls-6" points="345.17 290.05 338.13 290.05 338.13 283.01 331.08 283.01 331.08 275.96 324.04 275.96 316.99 275.96 316.99 268.92 309.95 268.92 302.91 268.92 295.86 268.92 288.82 268.92 281.77 268.92 281.77 275.96 274.73 275.96 267.68 275.96 260.64 275.96 260.64 283.01 267.68 283.01 274.73 283.01 281.77 283.01 281.77 290.05 274.73 290.05 274.73 297.09 267.68 297.09 267.68 304.13 274.73 304.13 281.77 304.13 281.77 297.09 288.82 297.09 288.82 290.05 295.86 290.05 302.91 290.05 302.91 283.01 295.86 283.01 288.82 283.01 288.82 275.96 295.86 275.96 302.91 275.96 302.91 283.01 309.95 283.01 316.99 283.01 316.99 290.05 324.04 290.05 331.08 290.05 331.08 297.09 338.13 297.09 338.13 304.13 345.17 304.13 345.17 311.17 352.22 311.17 359.26 311.17 359.26 304.13 352.22 304.13 352.22 297.09 352.2 297.09 345.17 297.09 345.17 290.05"/>
      <polygon class="cls-7" points="295.86 275.96 288.82 275.96 288.82 283.01 295.86 283.01 302.91 283.01 302.91 275.96 295.86 275.96"/>
      <polygon class="cls-8" points="253.59 529.47 246.55 529.47 239.51 529.47 232.46 529.47 225.42 529.47 218.37 529.47 211.33 529.47 204.28 529.47 197.24 529.47 190.2 529.47 183.15 529.47 176.11 529.47 169.06 529.47 162.02 529.47 154.97 529.47 147.93 529.47 140.88 529.47 133.84 529.47 126.8 529.47 126.8 536.51 126.8 543.55 133.84 543.55 140.88 543.55 147.93 543.55 154.97 543.55 162.02 543.55 169.06 543.55 176.11 543.55 183.15 543.55 190.2 543.55 197.24 543.55 204.28 543.55 211.33 543.55 218.37 543.55 225.42 543.55 232.46 543.55 239.51 543.55 246.55 543.55 253.59 543.55 260.64 543.55 267.68 543.55 267.68 536.51 267.68 529.47 260.64 529.47 253.59 529.47"/>
      <polygon class="cls-2" points="260.64 268.92 260.64 261.88 260.64 254.84 260.64 247.8 260.64 240.76 260.64 233.71 253.59 233.71 253.59 240.76 253.59 247.8 253.59 254.84 253.59 261.88 253.59 268.92 253.59 275.96 246.55 275.96 246.55 283.01 246.55 290.05 246.55 297.09 246.55 304.13 239.51 304.13 239.51 311.17 239.51 318.21 232.46 318.21 232.46 325.26 225.42 325.26 225.42 332.3 218.37 332.3 218.37 339.34 211.33 339.34 204.28 339.34 204.28 346.38 197.24 346.38 197.24 353.42 204.28 353.42 211.33 353.42 211.33 346.38 218.37 346.38 225.42 346.38 225.42 339.34 232.46 339.34 232.46 332.3 239.51 332.3 239.51 325.26 246.55 325.26 246.55 318.21 246.55 311.17 253.59 311.17 253.59 304.13 253.59 297.09 260.64 297.09 260.64 290.05 260.64 283.01 260.64 275.96 260.64 268.92"/>
      <polygon class="cls-6" points="260.64 226.67 260.64 225.34 260.64 219.63 253.59 219.63 253.59 226.67 253.59 233.71 260.64 233.71 260.64 226.67"/>
      <polygon class="cls-6" points="239.51 212.59 239.51 219.63 246.55 219.63 253.59 219.63 253.59 218.3 253.59 212.59 246.55 212.59 246.55 205.55 239.51 205.55 239.51 212.59"/>
      <polygon class="cls-4" points="239.51 515.38 246.55 515.38 246.55 522.43 239.51 522.43 232.46 522.43 225.42 522.43 218.37 522.43 211.33 522.43 204.28 522.43 197.24 522.43 190.2 522.43 183.15 522.43 176.11 522.43 169.06 522.43 162.02 522.43 154.97 522.43 154.97 515.38 162.02 515.38 169.06 515.38 169.06 508.34 162.02 508.34 154.97 508.34 147.93 508.34 140.88 508.34 133.84 508.34 133.84 515.38 133.84 522.43 126.8 522.43 126.8 529.47 133.84 529.47 140.88 529.47 147.93 529.47 154.97 529.47 162.02 529.47 169.06 529.47 176.11 529.47 183.15 529.47 190.2 529.47 197.24 529.47 204.28 529.47 211.33 529.47 218.37 529.47 225.42 529.47 232.46 529.47 239.51 529.47 246.55 529.47 253.59 529.47 260.64 529.47 267.68 529.47 267.68 522.43 260.64 522.43 260.64 515.38 260.64 508.34 253.59 508.34 246.55 508.34 239.51 508.34 232.46 508.34 232.46 515.38 239.51 515.38"/>
      <path class="cls-7" d="M232.46,388.63h14.09v7.04h14.09v7.05h14.09v7.04h21.13v-7.04h14.09v-7.05h7.04v7.05h7.05v-7.05h7.04v-14.08h14.09v-14.08h-7.04v7.04h-35.22v7.04h-35.23v-7.04h28.18v-7.04h7.05v-7.04h-7.05v-7.05h14.09v14.09h21.13v-7.04h7.05v-14.09h7.04v-7.04h-7.04v-7.04h-7.05v-7.04h-7.04v-7.05h14.09v7.05h7.04v7.04h7.05v-21.13h-7.05v-7.04h-7.04v-7.04h-7.05v-7.04h-14.09v-7.04h-14.08v7.04h-14.09v7.04h-7.05v7.04h-14.09v-7.04h7.05v-7.04h7.04v-7.04h-21.13v14.08h-7.05v14.08h-7.04v14.09h-7.04v7.04h-7.05v7.04h-7.04v7.04h-14.09v7.04h-14.09v-7.04h7.04v-7.04h14.09v-7.04h7.05v-7.04h7.04v-7.05h7.05v-14.08h7.04v-28.17h7.04v-56.33h-14.08v-14.08h-14.09v-7.05h-28.18v-7.04h-7.04v7.04h-28.18v7.05h-14.09v14.08h-14.09v7.04h-14.09v7.04h-7.04v7.05h-7.05v21.12h-7.04v14.08h7.04v14.09h-7.04v7.04h14.09v14.08h-7.05v-7.04h-14.09v-7.04h-7.04v-7.04h-28.18v-7.04h-7.04v14.08h14.09v7.04h-14.09v7.04h-7.05v21.13h-14.09v-14.09h7.05v-14.08h14.09v-7.04h-21.14v14.08h-7.04v7.04h-7.04v21.13h-7.05v7.04h7.05v21.13h7.04v14.08h7.04v7.04h14.09v7.04h7.05v7.05h56.35v-7.05h7.05v-7.04h7.04v-7.04h7.05v-7.04h-7.05v-7.04h-14.09v14.08h-7.04v7.04h-28.18v-7.04h-7.04v-7.04h7.04v7.04h21.13v-7.04h7.05v-7.04h7.04v-7.04h7.05v-14.09h-7.05v-7.04h-7.04v-7.04h14.09v7.04h7.04v14.08h7.05v7.05h7.04v7.04h7.04v7.04h7.05v7.04h7.04v7.04h7.05v7.04h7.04v7.05h7.05v-28.17h-7.05v-14.08h7.05v-7.05h7.04v-7.04h7.05v49.29h7.04v-14.08h7.04v-7.04h7.05v-7.04h7.04v-7.04h7.05v-7.05h7.04v7.05h7.05v7.04h-7.05v7.04h-7.04v7.04h-7.05v7.04h14.09ZM119.75,275.96v-28.16h14.09v-7.04h14.09v7.04h-14.09v7.04h-7.04v28.17h-7.05v-7.05ZM154.97,226.67h7.05v-7.04h7.04v-7.04h28.18v7.04h7.04v7.04h-7.04v-7.04h-21.13v7.04h-14.09v28.17h-7.05v-28.17ZM232.46,275.96v21.13h-7.04v7.04h-21.14v-7.04h14.09v-7.04h7.05v-14.09h-14.09v-14.08h7.04v-7.04h7.05v-14.08h-14.09v-7.05h21.13v28.17h-7.04v7.04h7.04v7.04ZM197.24,297.09v14.08h-7.04v7.04h-28.18v-7.04h21.13v-7.04h7.05v-21.12h-7.05v-7.05h7.05v7.05h7.04v14.08ZM56.35,367.51h-14.09v-7.04h14.09v-7.05h7.05v-7.04h7.04v-7.04h-7.04v-14.08h7.04v7.04h7.05v21.12h-7.05v7.05h-7.04v7.04h-7.05Z"/>
      <rect class="cls-5" x="225.42" y="353.42" width="7.04" height="7.05"/>
      <polygon class="cls-6" points="225.42 205.55 232.46 205.55 239.51 205.55 239.51 198.5 232.46 198.5 225.42 198.5 225.42 205.55"/>
      <polygon class="cls-1" points="225.42 381.59 225.42 374.55 232.46 374.55 232.46 367.51 239.51 367.51 239.51 360.47 232.46 360.47 225.42 360.47 225.42 367.51 218.37 367.51 218.37 374.55 211.33 374.55 211.33 381.59 204.28 381.59 204.28 388.63 204.28 395.67 211.33 395.67 211.33 388.63 218.37 388.63 218.37 381.59 225.42 381.59"/>
      <rect class="cls-5" x="218.37" y="360.47" width="7.05" height="7.04"/>
      <polygon class="cls-2" points="225.42 261.88 232.46 261.88 232.46 254.84 232.46 247.8 232.46 240.76 232.46 233.71 225.42 233.71 218.37 233.71 211.33 233.71 211.33 240.76 218.37 240.76 225.42 240.76 225.42 247.8 225.42 254.84 218.37 254.84 218.37 261.88 211.33 261.88 211.33 268.92 211.33 275.96 218.37 275.96 225.42 275.96 225.42 283.01 225.42 290.05 218.37 290.05 218.37 297.09 211.33 297.09 204.28 297.09 204.28 304.13 211.33 304.13 218.37 304.13 225.42 304.13 225.42 297.09 232.46 297.09 232.46 290.05 232.46 283.01 232.46 275.96 232.46 268.92 225.42 268.92 225.42 261.88"/>
      <polygon class="cls-1" points="211.33 501.3 218.37 501.3 218.37 508.34 218.37 515.38 225.42 515.38 232.46 515.38 232.46 508.34 225.42 508.34 225.42 501.3 225.42 494.26 218.37 494.26 218.37 487.22 211.33 487.22 211.33 494.26 211.33 501.3"/>
      <rect class="cls-5" x="211.33" y="367.51" width="7.04" height="7.04"/>
      <rect class="cls-5" x="204.28" y="374.55" width="7.05" height="7.04"/>
      <polygon class="cls-5" points="204.28 480.17 204.28 473.13 197.24 473.13 197.24 466.09 197.24 459.05 197.24 452.01 197.24 444.97 197.24 437.92 197.24 430.88 197.24 423.84 190.2 423.84 183.15 423.84 183.15 416.8 183.15 409.76 176.11 409.76 176.11 402.72 169.06 402.72 169.06 395.67 162.02 395.67 162.02 388.63 154.97 388.63 154.97 381.59 147.93 381.59 147.93 374.55 140.88 374.55 140.88 367.51 133.84 367.51 133.84 360.47 126.8 360.47 126.8 353.42 119.75 353.42 119.75 360.47 119.75 367.51 126.8 367.51 126.8 374.55 133.84 374.55 133.84 381.59 140.88 381.59 140.88 388.63 147.93 388.63 147.93 395.67 154.97 395.67 154.97 402.72 162.02 402.72 162.02 409.76 169.06 409.76 169.06 416.8 176.11 416.8 176.11 423.84 176.11 430.88 183.15 430.88 183.15 437.92 183.15 444.97 176.11 444.97 176.11 452.01 183.15 452.01 183.15 459.05 183.15 466.09 183.15 473.13 176.11 473.13 176.11 480.17 176.11 487.22 169.06 487.22 169.06 494.26 169.06 501.3 169.06 508.34 169.06 515.38 176.11 515.38 183.15 515.38 183.15 508.34 190.2 508.34 190.2 515.38 197.24 515.38 197.24 508.34 197.24 501.3 204.28 501.3 204.28 508.34 204.28 515.38 211.33 515.38 211.33 508.34 218.37 508.34 218.37 501.3 211.33 501.3 211.33 494.26 211.33 487.22 204.28 487.22 204.28 480.17"/>
      <polygon class="cls-1" points="197.24 409.76 190.2 409.76 190.2 402.72 190.2 395.67 190.2 388.63 183.15 388.63 183.15 395.67 183.15 402.72 176.11 402.72 176.11 409.76 183.15 409.76 183.15 416.8 183.15 423.84 190.2 423.84 197.24 423.84 197.24 430.88 197.24 437.92 197.24 444.97 197.24 452.01 197.24 459.05 197.24 466.09 197.24 473.13 204.28 473.13 204.28 480.17 204.28 487.22 211.33 487.22 211.33 480.17 211.33 473.13 211.33 466.09 211.33 459.05 211.33 452.01 204.28 452.01 204.28 444.97 204.28 437.92 204.28 430.88 204.28 423.84 204.28 416.8 204.28 409.76 204.28 402.72 197.24 402.72 197.24 409.76"/>
      <polygon class="cls-5" points="204.28 381.59 197.24 381.59 197.24 388.63 197.24 395.67 190.2 395.67 190.2 402.72 190.2 409.76 197.24 409.76 197.24 402.72 204.28 402.72 204.28 395.67 204.28 388.63 204.28 381.59"/>
      <rect class="cls-6" x="197.24" y="219.63" width="7.04" height="7.04"/>
      <polygon class="cls-2" points="190.2 283.01 190.2 290.05 190.2 297.09 190.2 304.13 183.15 304.13 183.15 311.17 176.11 311.17 169.06 311.17 162.02 311.17 162.02 318.21 169.06 318.21 176.11 318.21 183.15 318.21 190.2 318.21 190.2 311.17 197.24 311.17 197.24 304.13 197.24 297.09 197.24 290.05 197.24 283.01 190.2 283.01"/>
      <polygon class="cls-1" points="183.15 367.51 183.15 374.55 183.15 381.59 190.2 381.59 190.2 374.55 190.2 367.51 190.2 360.47 190.2 353.42 190.2 346.38 183.15 346.38 183.15 353.42 183.15 360.47 183.15 367.51"/>
      <rect class="cls-2" x="183.15" y="275.96" width="7.05" height="7.05"/>
      <polygon class="cls-1" points="183.15 437.92 183.15 430.88 176.11 430.88 176.11 437.92 176.11 444.97 183.15 444.97 183.15 437.92"/>
      <polygon class="cls-5" points="183.15 395.67 183.15 388.63 190.2 388.63 190.2 381.59 183.15 381.59 183.15 374.55 183.15 367.51 183.15 360.47 183.15 353.42 176.11 353.42 176.11 360.47 169.06 360.47 169.06 367.51 169.06 374.55 176.11 374.55 176.11 381.59 176.11 388.63 176.11 395.67 176.11 402.72 183.15 402.72 183.15 395.67"/>
      <rect class="cls-1" x="169.06" y="416.8" width="7.05" height="7.04"/>
      <polygon class="cls-6" points="176.11 226.67 176.11 219.63 183.15 219.63 190.2 219.63 197.24 219.63 197.24 212.59 190.2 212.59 183.15 212.59 176.11 212.59 169.06 212.59 169.06 219.63 162.02 219.63 162.02 226.67 169.06 226.67 176.11 226.67"/>
      <rect class="cls-1" x="162.02" y="409.76" width="7.04" height="7.04"/>
      <rect class="cls-1" x="154.97" y="402.72" width="7.05" height="7.04"/>
      <polygon class="cls-6" points="154.97 247.8 154.97 254.84 162.02 254.84 162.02 247.8 162.02 240.76 162.02 233.71 162.02 226.67 154.97 226.67 154.97 233.71 154.97 240.76 154.97 247.8"/>
      <rect class="cls-1" x="147.93" y="395.67" width="7.04" height="7.05"/>
      <rect class="cls-1" x="140.88" y="388.63" width="7.05" height="7.04"/>
      <polygon class="cls-6" points="147.93 247.8 147.93 240.76 140.88 240.76 133.84 240.76 133.84 247.8 140.88 247.8 147.93 247.8"/>
      <rect class="cls-1" x="133.84" y="381.59" width="7.04" height="7.04"/>
      <polygon class="cls-2" points="133.84 374.55 126.8 374.55 126.8 381.59 119.75 381.59 119.75 388.63 112.71 388.63 112.71 395.67 105.66 395.67 105.66 402.72 98.62 402.72 91.57 402.72 84.53 402.72 77.49 402.72 70.44 402.72 63.4 402.72 56.35 402.72 49.31 402.72 49.31 409.76 56.35 409.76 63.4 409.76 70.44 409.76 77.49 409.76 84.53 409.76 91.57 409.76 98.62 409.76 105.66 409.76 112.71 409.76 112.71 402.72 119.75 402.72 119.75 395.67 126.8 395.67 126.8 388.63 133.84 388.63 133.84 381.59 133.84 374.55"/>
      <rect class="cls-1" x="119.75" y="367.51" width="7.05" height="7.04"/>
      <polygon class="cls-6" points="126.8 275.96 126.8 268.92 126.8 261.88 126.8 254.84 133.84 254.84 133.84 247.8 126.8 247.8 119.75 247.8 119.75 254.84 119.75 261.88 119.75 268.92 119.75 275.96 119.75 283.01 126.8 283.01 126.8 275.96"/>
      <polygon class="cls-2" points="119.75 353.42 119.75 346.38 119.75 339.34 112.71 339.34 112.71 332.3 105.66 332.3 98.62 332.3 98.62 339.34 105.66 339.34 105.66 346.38 112.71 346.38 112.71 353.42 112.71 360.47 105.66 360.47 105.66 367.51 112.71 367.51 119.75 367.51 119.75 360.47 119.75 353.42"/>
      <polygon class="cls-2" points="98.62 374.55 91.57 374.55 91.57 381.59 84.53 381.59 77.49 381.59 70.44 381.59 70.44 388.63 77.49 388.63 84.53 388.63 91.57 388.63 98.62 388.63 98.62 381.59 105.66 381.59 105.66 374.55 105.66 367.51 98.62 367.51 98.62 374.55"/>
      <rect class="cls-2" x="63.4" y="374.55" width="7.04" height="7.04"/>
      <polygon class="cls-2" points="70.44 360.47 70.44 353.42 77.49 353.42 77.49 346.38 77.49 339.34 77.49 332.3 70.44 332.3 70.44 325.26 63.4 325.26 63.4 332.3 63.4 339.34 70.44 339.34 70.44 346.38 63.4 346.38 63.4 353.42 56.35 353.42 56.35 360.47 49.31 360.47 42.26 360.47 42.26 367.51 49.31 367.51 56.35 367.51 63.4 367.51 63.4 360.47 70.44 360.47"/>
      <polygon class="cls-6" points="56.35 304.13 63.4 304.13 63.4 297.09 56.35 297.09 49.31 297.09 49.31 304.13 56.35 304.13"/>
      <polygon class="cls-6" points="49.31 395.67 42.26 395.67 42.26 388.63 35.22 388.63 28.17 388.63 28.17 381.59 21.13 381.59 21.13 374.55 21.13 367.51 14.09 367.51 14.09 360.47 14.09 353.42 14.09 346.38 7.04 346.38 7.04 339.34 14.09 339.34 14.09 332.3 14.09 325.26 14.09 318.21 21.13 318.21 21.13 311.17 28.17 311.17 28.17 304.13 28.17 297.09 35.22 297.09 42.26 297.09 49.31 297.09 49.31 290.05 49.31 283.01 56.35 283.01 56.35 290.05 63.4 290.05 70.44 290.05 77.49 290.05 84.53 290.05 84.53 297.09 91.57 297.09 91.57 304.13 98.62 304.13 105.66 304.13 105.66 311.17 112.71 311.17 112.71 304.13 112.71 297.09 105.66 297.09 98.62 297.09 98.62 290.05 105.66 290.05 105.66 283.01 105.66 275.96 98.62 275.96 98.62 268.92 98.62 261.88 105.66 261.88 105.66 254.84 105.66 247.8 105.66 240.76 112.71 240.76 112.71 233.71 119.75 233.71 119.75 226.67 126.8 226.67 133.84 226.67 133.84 219.63 140.88 219.63 147.93 219.63 147.93 212.59 147.93 205.55 154.97 205.55 162.02 205.55 162.02 198.5 169.06 198.5 176.11 198.5 183.15 198.5 190.2 198.5 190.2 191.46 197.24 191.46 197.24 198.5 204.28 198.5 211.33 198.5 218.37 198.5 225.42 198.5 225.42 191.46 218.37 191.46 211.33 191.46 211.33 184.42 204.28 184.42 197.24 184.42 197.22 184.42 197.22 183.09 190.18 183.09 190.18 176.05 190.18 169 190.18 161.96 183.13 161.96 183.13 154.92 190.18 154.92 190.18 147.88 190.18 140.84 190.18 133.79 197.22 133.79 197.22 126.75 204.26 126.75 204.26 119.71 204.26 112.67 211.31 112.67 218.35 112.67 225.4 112.67 225.4 105.63 225.4 98.59 232.44 98.59 232.44 105.63 239.49 105.63 246.53 105.63 253.58 105.63 260.62 105.63 260.62 112.67 267.66 112.67 267.66 119.71 274.71 119.71 281.75 119.71 281.75 126.75 288.8 126.75 288.8 119.71 288.8 112.67 281.75 112.67 274.71 112.67 274.71 105.63 281.75 105.63 281.75 98.59 281.75 91.54 274.71 91.54 274.71 84.5 274.71 77.46 281.75 77.46 281.75 70.42 281.75 63.38 281.75 56.34 288.8 56.34 288.8 49.29 295.84 49.29 295.84 42.25 302.89 42.25 309.93 42.25 309.93 35.21 316.97 35.21 324.02 35.21 324.02 28.17 324.02 21.13 331.06 21.13 338.11 21.13 338.11 14.08 345.15 14.08 352.2 14.08 359.24 14.08 366.29 14.08 366.29 7.04 373.33 7.04 373.33 14.08 380.37 14.08 387.42 14.08 394.46 14.08 401.51 14.08 401.51 7.04 394.46 7.04 387.42 7.04 387.42 0 380.37 0 373.33 0 366.29 0 359.24 0 359.24 7.04 352.2 7.04 345.15 7.04 338.11 7.04 331.06 7.04 331.06 14.08 324.02 14.08 316.97 14.08 316.97 21.13 309.93 21.13 309.93 28.17 302.89 28.17 295.84 28.17 295.84 35.21 288.8 35.21 288.8 42.25 281.75 42.25 281.75 49.29 274.71 49.29 274.71 56.34 274.71 63.38 267.66 63.38 267.66 70.42 267.66 77.46 267.66 84.5 267.66 91.54 267.66 98.59 260.62 98.59 253.58 98.59 246.53 98.59 239.49 98.59 239.49 91.54 232.44 91.54 225.4 91.54 218.35 91.54 218.35 98.59 211.31 98.59 204.26 98.59 204.26 105.63 197.22 105.63 197.22 112.67 197.22 119.71 190.18 119.71 190.18 126.75 183.13 126.75 183.13 133.79 183.13 140.84 183.13 147.88 176.09 147.88 176.09 154.92 176.09 161.96 176.09 169 183.13 169 183.13 176.05 183.13 183.09 183.13 190.13 183.13 191.46 176.11 191.46 169.06 191.46 162.02 191.46 154.97 191.46 154.97 198.5 147.93 198.5 140.88 198.5 140.88 205.55 133.84 205.55 133.84 212.59 126.8 212.59 119.75 212.59 119.75 219.63 112.71 219.63 112.71 226.67 105.66 226.67 105.66 233.71 98.62 233.71 98.62 240.76 98.62 247.8 91.57 247.8 91.57 254.84 91.57 261.88 91.57 268.92 91.57 275.96 91.57 283.01 84.53 283.01 77.49 283.01 70.44 283.01 63.4 283.01 63.4 275.96 56.35 275.96 49.31 275.96 42.26 275.96 42.26 283.01 35.22 283.01 28.17 283.01 28.17 290.05 21.13 290.05 21.13 297.09 21.13 304.13 14.09 304.13 14.09 311.17 7.04 311.17 7.04 318.21 7.04 325.26 7.04 332.3 0 332.3 0 339.34 0 346.38 0 353.42 7.04 353.42 7.04 360.47 7.04 367.51 7.04 374.55 7.04 381.59 14.09 381.59 14.09 388.63 21.13 388.63 21.13 395.67 28.17 395.67 28.17 402.72 35.22 402.72 42.26 402.72 42.26 409.76 49.31 409.76 49.31 402.72 49.31 395.67"/>
      <polygon class="cls-6" points="35.22 304.13 35.22 311.17 35.22 318.21 28.17 318.21 28.17 325.26 28.17 332.3 35.22 332.3 42.26 332.3 42.26 325.26 42.26 318.21 42.26 311.17 49.31 311.17 49.31 304.13 42.26 304.13 35.22 304.13"/>
    </g>
  </g>
</svg>