<?xml version="1.0" encoding="UTF-8"?>
<svg id="_レイヤー_2" data-name="レイヤー 2" xmlns="http://www.w3.org/2000/svg" viewBox="0 0 366.31 359.13">
  <defs>
    <style>
      .cls-1 {
        fill: #3b0c79;
      }

      .cls-2 {
        fill: #3200cc;
      }

      .cls-3 {
        fill: none;
      }

      .cls-4 {
        fill: #b2b2d1;
      }

      .cls-5 {
        fill: #4a1999;
      }

      .cls-6 {
        fill: #a400fc;
      }

      .cls-7 {
        fill: #4800ff;
      }

      .cls-8 {
        fill: #363659;
      }
    </style>
  </defs>
  <g id="_レイヤー_1-2" data-name="レイヤー 1">
    <g>
      <polygon class="cls-3" points="154.97 330.96 154.97 338.01 162.02 338.01 169.06 338.01 176.11 338.01 183.15 338.01 190.2 338.01 197.24 338.01 204.28 338.01 211.33 338.01 218.37 338.01 225.42 338.01 232.46 338.01 239.51 338.01 246.55 338.01 246.55 330.96 239.51 330.96 232.46 330.96 225.42 330.96 218.37 330.96 218.37 323.92 211.33 323.92 211.33 330.96 204.28 330.96 204.28 323.92 204.28 316.88 197.24 316.88 197.24 323.92 197.24 330.96 190.2 330.96 190.2 323.92 183.15 323.92 183.15 330.96 176.11 330.96 169.06 330.96 162.02 330.96 154.97 330.96"/>
      <rect class="cls-7" x="352.22" y="154.92" width="7.04" height="7.04"/>
      <path class="cls-2" d="M359.26,140.84v-14.09h-7.04v21.13h-7.05v-7.04h-7.04v-7.05h-14.09v7.05h7.04v7.04h7.05v7.04h7.04v7.04h-7.04v14.09h-7.05v7.04h-21.13v-14.09h-14.09v7.05h7.05v7.04h-7.05v7.04h-28.18v7.04h35.23v-7.04h35.22v-7.04h7.04v-14.09h7.05v14.09h-7.05v14.08h-14.09v14.08h-7.04v7.05h-7.05v-7.05h-7.04v7.05h-14.09v7.04h-21.13v-7.04h-14.09v-7.05h-14.09v-7.04h-28.18v7.04h14.09v7.05h21.13v7.04h14.09v7.04h42.27v-7.04h21.13v-7.04h7.05v-7.05h7.04v-7.04h7.05v-14.08h7.04v-21.13h7.05v-21.12h-7.05v-7.04ZM359.26,161.96h-7.04v-7.04h7.04v7.04Z"/>
      <polygon class="cls-7" points="352.22 176.05 352.22 169 345.17 169 345.17 176.05 345.17 183.09 352.22 183.09 352.22 176.05"/>
      <polygon class="cls-7" points="295.86 91.54 288.82 91.54 288.82 98.59 295.86 98.59 302.91 98.59 302.91 91.54 295.86 91.54"/>
      <polygon class="cls-6" points="267.68 98.59 274.73 98.59 281.77 98.59 281.77 105.63 274.73 105.63 274.73 112.67 267.68 112.67 267.68 119.71 274.73 119.71 281.77 119.71 281.77 112.67 288.82 112.67 288.82 105.63 295.86 105.63 302.91 105.63 302.91 98.59 295.86 98.59 288.82 98.59 288.82 91.54 295.86 91.54 302.91 91.54 302.91 98.59 309.95 98.59 316.99 98.59 316.99 105.63 324.04 105.63 331.08 105.63 331.08 112.67 338.13 112.67 338.13 119.71 345.17 119.71 345.17 126.75 352.22 126.75 359.26 126.75 359.26 119.71 352.22 119.71 352.22 112.67 345.17 112.67 345.17 105.63 338.13 105.63 338.13 98.59 331.08 98.59 331.08 91.54 324.04 91.54 316.99 91.54 316.99 84.5 309.95 84.5 302.91 84.5 295.86 84.5 288.82 84.5 281.77 84.5 281.77 91.54 274.73 91.54 267.68 91.54 260.64 91.54 260.64 98.59 267.68 98.59"/>
      <polygon class="cls-8" points="253.59 345.05 246.55 345.05 239.51 345.05 232.46 345.05 225.42 345.05 218.37 345.05 211.33 345.05 204.28 345.05 197.24 345.05 190.2 345.05 183.15 345.05 176.11 345.05 169.06 345.05 162.02 345.05 154.97 345.05 147.93 345.05 140.88 345.05 133.84 345.05 126.8 345.05 126.8 352.09 126.8 359.13 133.84 359.13 140.88 359.13 147.93 359.13 154.97 359.13 162.02 359.13 169.06 359.13 176.11 359.13 183.15 359.13 190.2 359.13 197.24 359.13 204.28 359.13 211.33 359.13 218.37 359.13 225.42 359.13 232.46 359.13 239.51 359.13 246.55 359.13 253.59 359.13 260.64 359.13 267.68 359.13 267.68 352.09 267.68 345.05 260.64 345.05 253.59 345.05"/>
      <polygon class="cls-2" points="253.59 56.34 253.59 63.38 253.59 70.42 253.59 77.46 253.59 84.5 253.59 91.54 246.55 91.54 246.55 98.59 246.55 105.63 246.55 112.67 246.55 119.71 239.51 119.71 239.51 126.75 239.51 133.79 232.46 133.79 232.46 140.84 225.42 140.84 225.42 147.88 218.37 147.88 218.37 154.92 211.33 154.92 204.28 154.92 204.28 161.96 197.24 161.96 197.24 169 204.28 169 211.33 169 211.33 161.96 218.37 161.96 225.42 161.96 225.42 154.92 232.46 154.92 232.46 147.88 239.51 147.88 239.51 140.84 246.55 140.84 246.55 133.79 246.55 126.75 253.59 126.75 253.59 119.71 253.59 112.67 260.64 112.67 260.64 105.63 260.64 98.59 260.64 91.54 260.64 84.5 260.64 77.46 260.64 70.42 260.64 63.38 260.64 56.34 260.64 49.29 253.59 49.29 253.59 56.34"/>
      <polygon class="cls-6" points="253.59 49.29 260.64 49.29 260.64 42.25 260.64 35.21 253.59 35.21 253.59 42.25 253.59 49.29"/>
      <polygon class="cls-6" points="239.51 35.21 246.55 35.21 253.59 35.21 253.59 28.17 246.55 28.17 246.55 21.13 239.51 21.13 239.51 28.17 239.51 35.21"/>
      <polygon class="cls-4" points="239.51 330.96 246.55 330.96 246.55 338.01 239.51 338.01 232.46 338.01 225.42 338.01 218.37 338.01 211.33 338.01 204.28 338.01 197.24 338.01 190.2 338.01 183.15 338.01 176.11 338.01 169.06 338.01 162.02 338.01 154.97 338.01 154.97 330.96 162.02 330.96 169.06 330.96 169.06 323.92 162.02 323.92 154.97 323.92 147.93 323.92 140.88 323.92 133.84 323.92 133.84 330.96 133.84 338.01 126.8 338.01 126.8 345.05 133.84 345.05 140.88 345.05 147.93 345.05 154.97 345.05 162.02 345.05 169.06 345.05 176.11 345.05 183.15 345.05 190.2 345.05 197.24 345.05 204.28 345.05 211.33 345.05 218.37 345.05 225.42 345.05 232.46 345.05 239.51 345.05 246.55 345.05 253.59 345.05 260.64 345.05 267.68 345.05 267.68 338.01 260.64 338.01 260.64 330.96 260.64 323.92 253.59 323.92 246.55 323.92 239.51 323.92 232.46 323.92 232.46 330.96 239.51 330.96"/>
      <path class="cls-7" d="M232.46,204.21h14.09v7.04h14.09v7.05h14.09v7.04h21.13v-7.04h14.09v-7.05h7.04v7.05h7.05v-7.05h7.04v-14.08h14.09v-14.08h-7.04v7.04h-35.22v7.04h-35.23v-7.04h28.18v-7.04h7.05v-7.04h-7.05v-7.05h14.09v14.09h21.13v-7.04h7.05v-14.09h7.04v-7.04h-7.04v-7.04h-7.05v-7.04h-7.04v-7.05h14.09v7.05h7.04v7.04h7.05v-21.13h-7.05v-7.04h-7.04v-7.04h-7.05v-7.04h-14.09v-7.04h-14.08v7.04h-14.09v7.04h-7.05v7.04h-14.09v-7.04h7.05v-7.04h7.04v-7.04h-21.13v14.08h-7.05v14.08h-7.04v14.09h-7.04v7.04h-7.05v7.04h-7.04v7.04h-14.09v7.04h-14.09v-7.04h7.04v-7.04h14.09v-7.04h7.05v-7.04h7.04v-7.05h7.05v-14.08h7.04v-28.17h7.04v-56.33h-14.08v-14.08h-14.09v-7.05h-28.18v-7.04h-7.04v7.04h-28.18v7.05h-14.09v14.08h-14.09v7.04h-14.09v7.04h-7.04v7.05h-7.05v21.12h-7.04v14.08h7.04v14.09h-7.04v7.04h14.09v14.08h-7.05v-7.04h-14.09v-7.04h-7.04v-7.04h-28.18v-7.04h-7.04v14.08h14.09v7.04h-14.09v7.04h-7.05v21.13h-14.09v-14.09h7.05v-14.08h14.09v-7.04h-21.14v14.08h-7.04v7.04h-7.04v21.13h-7.05v7.04h7.05v21.13h7.04v14.08h7.04v7.04h14.09v7.04h7.05v7.05h56.35v-7.05h7.05v-7.04h7.04v-7.04h7.05v-7.04h-7.05v-7.04h-14.09v14.08h-7.04v7.04h-28.18v-7.04h-7.04v-7.04h7.04v7.04h21.13v-7.04h7.05v-7.04h7.04v-7.04h7.05v-14.09h-7.05v-7.04h-7.04v-7.04h14.09v7.04h7.04v14.08h7.05v7.05h7.04v7.04h7.04v7.04h7.05v7.04h7.04v7.04h7.05v7.04h7.04v7.05h7.05v-28.17h-7.05v-14.08h7.05v-7.05h7.04v-7.04h7.05v49.29h7.04v-14.08h7.04v-7.04h7.05v-7.04h7.04v-7.04h7.05v-7.05h7.04v7.05h7.05v7.04h-7.05v7.04h-7.04v7.04h-7.05v7.04h14.09ZM119.75,91.54v-28.16h14.09v-7.04h14.09v7.04h-14.09v7.04h-7.04v28.17h-7.05v-7.05ZM154.97,42.25h7.05v-7.04h7.04v-7.04h28.18v7.04h7.04v7.04h-7.04v-7.04h-21.13v7.04h-14.09v28.17h-7.05v-28.17ZM232.46,91.54v21.13h-7.04v7.04h-21.14v-7.04h14.09v-7.04h7.05v-14.09h-14.09v-14.08h7.04v-7.04h7.05v-14.08h-14.09v-7.05h21.13v28.17h-7.04v7.04h7.04v7.04ZM197.24,112.67v14.08h-7.04v7.04h-28.18v-7.04h21.13v-7.04h7.05v-21.12h-7.05v-7.05h7.05v7.05h7.04v14.08ZM56.35,183.09h-14.09v-7.04h14.09v-7.05h7.05v-7.04h7.04v-7.04h-7.04v-14.08h7.04v7.04h7.05v21.12h-7.05v7.05h-7.04v7.04h-7.05Z"/>
      <rect class="cls-5" x="225.42" y="169" width="7.04" height="7.05"/>
      <polygon class="cls-6" points="232.46 21.13 239.51 21.13 239.51 14.08 232.46 14.08 225.42 14.08 225.42 21.13 232.46 21.13"/>
      <polygon class="cls-1" points="225.42 197.17 225.42 190.13 232.46 190.13 232.46 183.09 239.51 183.09 239.51 176.05 232.46 176.05 225.42 176.05 225.42 183.09 218.37 183.09 218.37 190.13 211.33 190.13 211.33 197.17 204.28 197.17 204.28 204.21 204.28 211.25 211.33 211.25 211.33 204.21 218.37 204.21 218.37 197.17 225.42 197.17"/>
      <rect class="cls-5" x="218.37" y="176.05" width="7.05" height="7.04"/>
      <polygon class="cls-2" points="225.42 77.46 232.46 77.46 232.46 70.42 232.46 63.38 232.46 56.34 232.46 49.29 225.42 49.29 218.37 49.29 211.33 49.29 211.33 56.34 218.37 56.34 225.42 56.34 225.42 63.38 225.42 70.42 218.37 70.42 218.37 77.46 211.33 77.46 211.33 84.5 211.33 91.54 218.37 91.54 225.42 91.54 225.42 98.59 225.42 105.63 218.37 105.63 218.37 112.67 211.33 112.67 204.28 112.67 204.28 119.71 211.33 119.71 218.37 119.71 225.42 119.71 225.42 112.67 232.46 112.67 232.46 105.63 232.46 98.59 232.46 91.54 232.46 84.5 225.42 84.5 225.42 77.46"/>
      <polygon class="cls-1" points="211.33 316.88 218.37 316.88 218.37 323.92 218.37 330.96 225.42 330.96 232.46 330.96 232.46 323.92 225.42 323.92 225.42 316.88 225.42 309.84 218.37 309.84 218.37 302.8 211.33 302.8 211.33 309.84 211.33 316.88"/>
      <rect class="cls-5" x="211.33" y="183.09" width="7.04" height="7.04"/>
      <rect class="cls-5" x="204.28" y="190.13" width="7.05" height="7.04"/>
      <polygon class="cls-5" points="204.28 295.75 204.28 288.71 197.24 288.71 197.24 281.67 197.24 274.63 197.24 267.59 197.24 260.55 197.24 253.5 197.24 246.46 197.24 239.42 190.2 239.42 183.15 239.42 183.15 232.38 183.15 225.34 176.11 225.34 176.11 218.3 169.06 218.3 169.06 211.25 162.02 211.25 162.02 204.21 154.97 204.21 154.97 197.17 147.93 197.17 147.93 190.13 140.88 190.13 140.88 183.09 133.84 183.09 133.84 176.05 126.8 176.05 126.8 169 119.75 169 119.75 176.05 119.75 183.09 126.8 183.09 126.8 190.13 133.84 190.13 133.84 197.17 140.88 197.17 140.88 204.21 147.93 204.21 147.93 211.25 154.97 211.25 154.97 218.3 162.02 218.3 162.02 225.34 169.06 225.34 169.06 232.38 176.11 232.38 176.11 239.42 176.11 246.46 183.15 246.46 183.15 253.5 183.15 260.55 176.11 260.55 176.11 267.59 183.15 267.59 183.15 274.63 183.15 281.67 183.15 288.71 176.11 288.71 176.11 295.75 176.11 302.8 169.06 302.8 169.06 309.84 169.06 316.88 169.06 323.92 169.06 330.96 176.11 330.96 183.15 330.96 183.15 323.92 190.2 323.92 190.2 330.96 197.24 330.96 197.24 323.92 197.24 316.88 204.28 316.88 204.28 323.92 204.28 330.96 211.33 330.96 211.33 323.92 218.37 323.92 218.37 316.88 211.33 316.88 211.33 309.84 211.33 302.8 204.28 302.8 204.28 295.75"/>
      <polygon class="cls-1" points="197.24 225.34 190.2 225.34 190.2 218.3 190.2 211.25 190.2 204.21 183.15 204.21 183.15 211.25 183.15 218.3 176.11 218.3 176.11 225.34 183.15 225.34 183.15 232.38 183.15 239.42 190.2 239.42 197.24 239.42 197.24 246.46 197.24 253.5 197.24 260.55 197.24 267.59 197.24 274.63 197.24 281.67 197.24 288.71 204.28 288.71 204.28 295.75 204.28 302.8 211.33 302.8 211.33 295.75 211.33 288.71 211.33 281.67 211.33 274.63 211.33 267.59 204.28 267.59 204.28 260.55 204.28 253.5 204.28 246.46 204.28 239.42 204.28 232.38 204.28 225.34 204.28 218.3 197.24 218.3 197.24 225.34"/>
      <polygon class="cls-5" points="204.28 197.17 197.24 197.17 197.24 204.21 197.24 211.25 190.2 211.25 190.2 218.3 190.2 225.34 197.24 225.34 197.24 218.3 204.28 218.3 204.28 211.25 204.28 204.21 204.28 197.17"/>
      <rect class="cls-6" x="197.24" y="35.21" width="7.04" height="7.04"/>
      <polygon class="cls-2" points="190.2 98.59 190.2 105.63 190.2 112.67 190.2 119.71 183.15 119.71 183.15 126.75 176.11 126.75 169.06 126.75 162.02 126.75 162.02 133.79 169.06 133.79 176.11 133.79 183.15 133.79 190.2 133.79 190.2 126.75 197.24 126.75 197.24 119.71 197.24 112.67 197.24 105.63 197.24 98.59 190.2 98.59"/>
      <polygon class="cls-1" points="183.15 183.09 183.15 190.13 183.15 197.17 190.2 197.17 190.2 190.13 190.2 183.09 190.2 176.05 190.2 169 190.2 161.96 183.15 161.96 183.15 169 183.15 176.05 183.15 183.09"/>
      <rect class="cls-2" x="183.15" y="91.54" width="7.05" height="7.05"/>
      <polygon class="cls-1" points="183.15 253.5 183.15 246.46 176.11 246.46 176.11 253.5 176.11 260.55 183.15 260.55 183.15 253.5"/>
      <polygon class="cls-5" points="183.15 211.25 183.15 204.21 190.2 204.21 190.2 197.17 183.15 197.17 183.15 190.13 183.15 183.09 183.15 176.05 183.15 169 176.11 169 176.11 176.05 169.06 176.05 169.06 183.09 169.06 190.13 176.11 190.13 176.11 197.17 176.11 204.21 176.11 211.25 176.11 218.3 183.15 218.3 183.15 211.25"/>
      <rect class="cls-1" x="169.06" y="232.38" width="7.05" height="7.04"/>
      <polygon class="cls-6" points="176.11 42.25 176.11 35.21 183.15 35.21 190.2 35.21 197.24 35.21 197.24 28.17 190.2 28.17 183.15 28.17 176.11 28.17 169.06 28.17 169.06 35.21 162.02 35.21 162.02 42.25 169.06 42.25 176.11 42.25"/>
      <rect class="cls-1" x="162.02" y="225.34" width="7.04" height="7.04"/>
      <rect class="cls-1" x="154.97" y="218.3" width="7.05" height="7.04"/>
      <polygon class="cls-6" points="154.97 63.38 154.97 70.42 162.02 70.42 162.02 63.38 162.02 56.34 162.02 49.29 162.02 42.25 154.97 42.25 154.97 49.29 154.97 56.34 154.97 63.38"/>
      <rect class="cls-1" x="147.93" y="211.25" width="7.04" height="7.05"/>
      <rect class="cls-1" x="140.88" y="204.21" width="7.05" height="7.04"/>
      <polygon class="cls-6" points="147.93 63.38 147.93 56.34 140.88 56.34 133.84 56.34 133.84 63.38 140.88 63.38 147.93 63.38"/>
      <rect class="cls-1" x="133.84" y="197.17" width="7.04" height="7.04"/>
      <polygon class="cls-2" points="133.84 190.13 126.8 190.13 126.8 197.17 119.75 197.17 119.75 204.21 112.71 204.21 112.71 211.25 105.66 211.25 105.66 218.3 98.62 218.3 91.57 218.3 84.53 218.3 77.49 218.3 70.44 218.3 63.4 218.3 56.35 218.3 49.31 218.3 49.31 225.34 56.35 225.34 63.4 225.34 70.44 225.34 77.49 225.34 84.53 225.34 91.57 225.34 98.62 225.34 105.66 225.34 112.71 225.34 112.71 218.3 119.75 218.3 119.75 211.25 126.8 211.25 126.8 204.21 133.84 204.21 133.84 197.17 133.84 190.13"/>
      <rect class="cls-1" x="119.75" y="183.09" width="7.05" height="7.04"/>
      <polygon class="cls-6" points="126.8 91.54 126.8 84.5 126.8 77.46 126.8 70.42 133.84 70.42 133.84 63.38 126.8 63.38 119.75 63.38 119.75 70.42 119.75 77.46 119.75 84.5 119.75 91.54 119.75 98.59 126.8 98.59 126.8 91.54"/>
      <polygon class="cls-2" points="119.75 169 119.75 161.96 119.75 154.92 112.71 154.92 112.71 147.88 105.66 147.88 98.62 147.88 98.62 154.92 105.66 154.92 105.66 161.96 112.71 161.96 112.71 169 112.71 176.05 105.66 176.05 105.66 183.09 112.71 183.09 119.75 183.09 119.75 176.05 119.75 169"/>
      <polygon class="cls-2" points="98.62 190.13 91.57 190.13 91.57 197.17 84.53 197.17 77.49 197.17 70.44 197.17 70.44 204.21 77.49 204.21 84.53 204.21 91.57 204.21 98.62 204.21 98.62 197.17 105.66 197.17 105.66 190.13 105.66 183.09 98.62 183.09 98.62 190.13"/>
      <rect class="cls-2" x="63.4" y="190.13" width="7.04" height="7.04"/>
      <polygon class="cls-2" points="70.44 176.05 70.44 169 77.49 169 77.49 161.96 77.49 154.92 77.49 147.88 70.44 147.88 70.44 140.84 63.4 140.84 63.4 147.88 63.4 154.92 70.44 154.92 70.44 161.96 63.4 161.96 63.4 169 56.35 169 56.35 176.05 49.31 176.05 42.26 176.05 42.26 183.09 49.31 183.09 56.35 183.09 63.4 183.09 63.4 176.05 70.44 176.05"/>
      <polygon class="cls-6" points="56.35 119.71 63.4 119.71 63.4 112.67 56.35 112.67 49.31 112.67 49.31 119.71 56.35 119.71"/>
      <polygon class="cls-6" points="49.31 211.25 42.26 211.25 42.26 204.21 35.22 204.21 28.17 204.21 28.17 197.17 21.13 197.17 21.13 190.13 21.13 183.09 14.09 183.09 14.09 176.05 14.09 169 14.09 161.96 7.04 161.96 7.04 154.92 14.09 154.92 14.09 147.88 14.09 140.84 14.09 133.79 21.13 133.79 21.13 126.75 28.17 126.75 28.17 119.71 28.17 112.67 35.22 112.67 42.26 112.67 49.31 112.67 49.31 105.63 49.31 98.59 56.35 98.59 56.35 105.63 63.4 105.63 70.44 105.63 77.49 105.63 84.53 105.63 84.53 112.67 91.57 112.67 91.57 119.71 98.62 119.71 105.66 119.71 105.66 126.75 112.71 126.75 112.71 119.71 112.71 112.67 105.66 112.67 98.62 112.67 98.62 105.63 105.66 105.63 105.66 98.59 105.66 91.54 98.62 91.54 98.62 84.5 98.62 77.46 105.66 77.46 105.66 70.42 105.66 63.38 105.66 56.34 112.71 56.34 112.71 49.29 119.75 49.29 119.75 42.25 126.8 42.25 133.84 42.25 133.84 35.21 140.88 35.21 147.93 35.21 147.93 28.17 147.93 21.13 154.97 21.13 162.02 21.13 162.02 14.08 169.06 14.08 176.11 14.08 183.15 14.08 190.2 14.08 190.2 7.04 197.24 7.04 197.24 14.08 204.28 14.08 211.33 14.08 218.37 14.08 225.42 14.08 225.42 7.04 218.37 7.04 211.33 7.04 211.33 0 204.28 0 197.24 0 190.2 0 183.15 0 183.15 7.04 176.11 7.04 169.06 7.04 162.02 7.04 154.97 7.04 154.97 14.08 147.93 14.08 140.88 14.08 140.88 21.13 133.84 21.13 133.84 28.17 126.8 28.17 119.75 28.17 119.75 35.21 112.71 35.21 112.71 42.25 105.66 42.25 105.66 49.29 98.62 49.29 98.62 56.34 98.62 63.38 91.57 63.38 91.57 70.42 91.57 77.46 91.57 84.5 91.57 91.54 91.57 98.59 84.53 98.59 77.49 98.59 70.44 98.59 63.4 98.59 63.4 91.54 56.35 91.54 49.31 91.54 42.26 91.54 42.26 98.59 35.22 98.59 28.17 98.59 28.17 105.63 21.13 105.63 21.13 112.67 21.13 119.71 14.09 119.71 14.09 126.75 7.04 126.75 7.04 133.79 7.04 140.84 7.04 147.88 0 147.88 0 154.92 0 161.96 0 169 7.04 169 7.04 176.05 7.04 183.09 7.04 190.13 7.04 197.17 14.09 197.17 14.09 204.21 21.13 204.21 21.13 211.25 28.17 211.25 28.17 218.3 35.22 218.3 42.26 218.3 42.26 225.34 49.31 225.34 49.31 218.3 49.31 211.25"/>
      <polygon class="cls-6" points="35.22 119.71 35.22 126.75 35.22 133.79 28.17 133.79 28.17 140.84 28.17 147.88 35.22 147.88 42.26 147.88 42.26 140.84 42.26 133.79 42.26 126.75 49.31 126.75 49.31 119.71 42.26 119.71 35.22 119.71"/>
    </g>
  </g>
</svg>