<?xml version="1.0" encoding="UTF-8"?>
<svg id="_レイヤー_2" data-name="レイヤー 2" xmlns="http://www.w3.org/2000/svg" viewBox="0 0 725.57 361.3">
  <defs>
    <style>
      .cls-1 {
        fill: #3b0c79;
      }

      .cls-2 {
        fill: #3200cc;
      }

      .cls-3 {
        fill: none;
      }

      .cls-4 {
        fill: #b2b2d1;
      }

      .cls-5 {
        fill: #4a1999;
      }

      .cls-6 {
        fill: #a400fc;
      }

      .cls-7 {
        fill: #4800ff;
      }

      .cls-8 {
        fill: #363659;
      }
    </style>
  </defs>
  <g id="_レイヤー_1-2" data-name="レイヤー 1">
    <g>
      <polygon class="cls-3" points="514.23 333.13 514.23 340.18 521.28 340.18 528.32 340.18 535.37 340.18 542.41 340.18 549.46 340.18 556.5 340.18 563.54 340.18 570.59 340.18 577.63 340.18 584.68 340.18 591.72 340.18 598.77 340.18 605.81 340.18 605.81 333.13 598.77 333.13 591.72 333.13 584.68 333.13 577.63 333.13 577.63 326.09 570.59 326.09 570.59 333.13 563.54 333.13 563.54 326.09 563.54 319.05 556.5 319.05 556.5 326.09 556.5 333.13 549.46 333.13 549.46 326.09 542.41 326.09 542.41 333.13 535.37 333.13 528.32 333.13 521.28 333.13 514.23 333.13"/>
      <polygon class="cls-3" points="218.37 330.96 218.37 323.92 211.33 323.92 211.33 330.96 204.28 330.96 204.28 323.92 204.28 316.88 197.24 316.88 197.24 323.92 197.24 330.96 190.2 330.96 190.2 323.92 183.15 323.92 183.15 330.96 176.11 330.96 169.06 330.96 162.02 330.96 154.97 330.96 154.97 338.01 162.02 338.01 169.06 338.01 176.11 338.01 183.15 338.01 190.2 338.01 197.24 338.01 204.28 338.01 211.33 338.01 218.37 338.01 225.42 338.01 232.46 338.01 239.51 338.01 246.55 338.01 246.55 330.96 239.51 330.96 232.46 330.96 225.42 330.96 218.37 330.96"/>
      <rect class="cls-7" x="352.22" y="154.92" width="7.04" height="7.04"/>
      <path class="cls-2" d="M352.22,133.79v14.09h-7.05v-7.04h-7.04v-7.05h-14.09v7.05h7.04v7.04h7.05v7.04h7.04v7.04h-7.04v14.09h-7.05v7.04h-21.13v-14.09h-14.09v7.05h7.05v7.04h-7.05v7.04h-28.18v7.04h35.23v-7.04h35.22v-7.04h7.04v-14.09h7.05v14.09h-7.05v14.08h-14.09v14.08h-7.04v7.05h-7.05v-7.05h-7.04v7.05h-14.09v7.04h-21.13v-7.04h-14.09v-7.05h-14.09v-7.04h-28.18v7.04h14.09v7.05h21.13v7.04h14.09v7.04h42.27v-7.04h21.13v-7.04h7.05v-7.05h7.04v-7.04h7.05v-14.08h7.04v-21.13h0v-18.95h7.04v-2.17h-7.04v-21.13h-7.04v7.04ZM359.26,161.96h-7.04v-7.04h7.04v7.04Z"/>
      <polygon class="cls-7" points="352.22 176.05 352.22 169 345.17 169 345.17 176.05 345.17 183.09 352.22 183.09 352.22 176.05"/>
      <polygon class="cls-7" points="295.86 91.54 288.82 91.54 288.82 98.59 295.86 98.59 302.91 98.59 302.91 91.54 295.86 91.54"/>
      <polygon class="cls-8" points="267.68 352.09 267.68 345.05 260.64 345.05 253.59 345.05 246.55 345.05 239.51 345.05 232.46 345.05 225.42 345.05 218.37 345.05 211.33 345.05 204.28 345.05 197.24 345.05 190.2 345.05 183.15 345.05 176.11 345.05 169.06 345.05 162.02 345.05 154.97 345.05 147.93 345.05 140.88 345.05 133.84 345.05 126.8 345.05 126.8 352.09 126.8 359.13 133.84 359.13 140.88 359.13 147.93 359.13 154.97 359.13 162.02 359.13 169.06 359.13 176.11 359.13 183.15 359.13 190.2 359.13 197.24 359.13 204.28 359.13 211.33 359.13 218.37 359.13 225.42 359.13 232.46 359.13 239.51 359.13 246.55 359.13 253.59 359.13 260.64 359.13 267.68 359.13 267.68 352.09"/>
      <polygon class="cls-6" points="267.68 98.59 274.73 98.59 281.77 98.59 281.77 105.63 274.73 105.63 274.73 112.67 267.68 112.67 267.68 119.71 274.73 119.71 281.77 119.71 281.77 112.67 288.82 112.67 288.82 105.63 295.86 105.63 302.91 105.63 302.91 98.59 295.86 98.59 288.82 98.59 288.82 91.54 295.86 91.54 302.91 91.54 302.91 98.59 309.95 98.59 316.99 98.59 316.99 105.63 324.04 105.63 331.08 105.63 331.08 112.67 338.13 112.67 338.13 119.71 345.17 119.71 345.17 126.75 352.22 126.75 359.26 126.75 359.26 119.71 352.22 119.71 352.22 112.67 345.17 112.67 345.17 105.63 338.13 105.63 338.13 98.59 331.08 98.59 331.08 91.54 324.04 91.54 316.99 91.54 316.99 84.5 309.95 84.5 302.91 84.5 295.86 84.5 288.82 84.5 281.77 84.5 281.77 91.54 274.73 91.54 267.68 91.54 260.64 91.54 260.64 98.59 267.68 98.59"/>
      <polygon class="cls-2" points="253.59 56.34 253.59 63.38 253.59 70.42 253.59 77.46 253.59 84.5 253.59 91.54 246.55 91.54 246.55 98.59 246.55 105.63 246.55 112.67 246.55 119.71 239.51 119.71 239.51 126.75 239.51 133.79 232.46 133.79 232.46 140.84 225.42 140.84 225.42 147.88 218.37 147.88 218.37 154.92 211.33 154.92 204.28 154.92 204.28 161.96 197.24 161.96 197.24 169 204.28 169 211.33 169 211.33 161.96 218.37 161.96 225.42 161.96 225.42 154.92 232.46 154.92 232.46 147.88 239.51 147.88 239.51 140.84 246.55 140.84 246.55 133.79 246.55 126.75 253.59 126.75 253.59 119.71 253.59 112.67 260.64 112.67 260.64 105.63 260.64 98.59 260.64 91.54 260.64 84.5 260.64 77.46 260.64 70.42 260.64 63.38 260.64 56.34 260.64 49.29 253.59 49.29 253.59 56.34"/>
      <polygon class="cls-6" points="253.59 49.29 260.64 49.29 260.64 42.25 260.64 35.21 253.59 35.21 253.59 42.25 253.59 49.29"/>
      <polygon class="cls-6" points="239.51 35.21 246.55 35.21 253.59 35.21 253.59 28.17 246.55 28.17 246.55 21.13 239.51 21.13 239.51 28.17 239.51 35.21"/>
      <rect class="cls-5" x="225.42" y="169" width="7.04" height="7.05"/>
      <polygon class="cls-6" points="232.46 21.13 239.51 21.13 239.51 14.08 232.46 14.08 225.42 14.08 225.42 21.13 232.46 21.13"/>
      <polygon class="cls-1" points="225.42 197.17 225.42 190.13 232.46 190.13 232.46 183.09 239.51 183.09 239.51 176.05 232.46 176.05 225.42 176.05 225.42 183.09 218.37 183.09 218.37 190.13 211.33 190.13 211.33 197.17 204.28 197.17 204.28 204.21 204.28 211.25 211.33 211.25 211.33 204.21 218.37 204.21 218.37 197.17 225.42 197.17"/>
      <rect class="cls-5" x="218.37" y="176.05" width="7.05" height="7.04"/>
      <polygon class="cls-2" points="225.42 77.46 232.46 77.46 232.46 70.42 232.46 63.38 232.46 56.34 232.46 49.29 225.42 49.29 218.37 49.29 211.33 49.29 211.33 56.34 218.37 56.34 225.42 56.34 225.42 63.38 225.42 70.42 218.37 70.42 218.37 77.46 211.33 77.46 211.33 84.5 211.33 91.54 218.37 91.54 225.42 91.54 225.42 98.59 225.42 105.63 218.37 105.63 218.37 112.67 211.33 112.67 204.28 112.67 204.28 119.71 211.33 119.71 218.37 119.71 225.42 119.71 225.42 112.67 232.46 112.67 232.46 105.63 232.46 98.59 232.46 91.54 232.46 84.5 225.42 84.5 225.42 77.46"/>
      <polygon class="cls-1" points="211.33 316.88 218.37 316.88 218.37 323.92 218.37 330.96 225.42 330.96 232.46 330.96 232.46 323.92 225.42 323.92 225.42 316.88 225.42 309.84 218.37 309.84 218.37 302.8 211.33 302.8 211.33 309.84 211.33 316.88"/>
      <rect class="cls-5" x="211.33" y="183.09" width="7.04" height="7.04"/>
      <path class="cls-7" d="M211.33,14.08h-14.09v-7.04h-7.04v7.04h-28.18v7.05h-14.09v14.08h-14.09v7.04h-14.09v7.04h-7.04v7.05h-7.05v21.12h-7.04v14.08h7.04v14.09h-7.04v7.04h14.09v14.08h-7.05v-7.04h-14.09v-7.04h-7.04v-7.04h-28.18v-7.04h-7.04v14.08h14.09v7.04h-14.09v7.04h-7.05v21.13h-14.09v-14.09h7.05v-14.08h14.09v-7.04h-21.14v14.08h-7.04v7.04h-7.04v21.13h-7.05v7.04h7.05v21.13h7.04v14.08h7.04v7.04h14.09v7.04h7.05v7.05h56.35v-7.05h7.05v-7.04h7.04v-7.04h7.05v-7.04h-7.05v-7.04h-14.09v14.08h-7.04v7.04h-28.18v-7.04h-7.04v-7.04h7.04v7.04h21.13v-7.04h7.05v-7.04h7.04v-7.04h7.05v-14.09h-7.05v-7.04h-7.04v-7.04h14.09v7.04h7.04v14.08h7.05v7.05h7.04v7.04h7.04v7.04h7.05v7.04h7.04v7.04h7.05v7.04h7.04v7.05h7.05v-28.17h-7.05v-14.08h7.05v-7.05h7.04v-7.04h7.05v49.29h7.04v-14.08h7.04v-7.04h7.05v-7.04h7.04v-7.04h7.05v-7.05h7.04v7.05h7.05v7.04h-7.05v7.04h-7.04v7.04h-7.05v7.04h28.18v7.04h14.09v7.05h14.09v7.04h21.13v-7.04h14.09v-7.05h7.04v7.05h7.05v-7.05h7.04v-14.08h14.09v-14.08h-7.04v7.04h-35.22v7.04h-35.23v-7.04h28.18v-7.04h7.05v-7.04h-7.05v-7.05h14.09v14.09h21.13v-7.04h7.05v-14.09h7.04v-7.04h-7.04v-7.04h-7.05v-7.04h-7.04v-7.05h14.09v7.05h7.04v7.04h7.05v-21.13h-7.05v-7.04h-7.04v-7.04h-7.05v-7.04h-14.09v-7.04h-14.08v7.04h-14.09v7.04h-7.05v7.04h-14.09v-7.04h7.05v-7.04h7.04v-7.04h-21.13v14.08h-7.05v14.08h-7.04v14.09h-7.04v7.04h-7.05v7.04h-7.04v7.04h-14.09v7.04h-14.09v-7.04h7.04v-7.04h14.09v-7.04h7.05v-7.04h7.04v-7.05h7.05v-14.08h7.04v-28.17h7.04v-56.33h-14.08v-14.08h-14.09v-7.05h-14.09ZM232.46,91.54v21.13h-7.04v7.04h-21.14v-7.04h14.09v-7.04h7.05v-14.09h-14.09v-14.08h7.04v-7.04h7.05v-14.08h-14.09v-7.05h21.13v28.17h-7.04v7.04h7.04v7.04ZM119.75,91.54v-28.16h14.09v-7.04h14.09v7.04h-14.09v7.04h-7.04v28.17h-7.05v-7.05ZM154.97,42.25h7.05v-7.04h7.04v-7.04h28.18v7.04h7.04v7.04h-7.04v-7.04h-21.13v7.04h-14.09v28.17h-7.05v-28.17ZM197.24,112.67v14.08h-7.04v7.04h-28.18v-7.04h21.13v-7.04h7.05v-21.12h-7.05v-7.05h7.05v7.05h7.04v14.08ZM56.35,183.09h-14.09v-7.04h14.09v-7.05h7.05v-7.04h7.04v-7.04h-7.04v-14.08h7.04v7.04h7.05v21.12h-7.05v7.05h-7.04v7.04h-7.05Z"/>
      <rect class="cls-5" x="204.28" y="190.13" width="7.05" height="7.04"/>
      <polygon class="cls-1" points="197.24 225.34 190.2 225.34 190.2 218.3 190.2 211.25 190.2 204.21 183.15 204.21 183.15 211.25 183.15 218.3 176.11 218.3 176.11 225.34 183.15 225.34 183.15 232.38 183.15 239.42 190.2 239.42 197.24 239.42 197.24 246.46 197.24 253.5 197.24 260.55 197.24 267.59 197.24 274.63 197.24 281.67 197.24 288.71 204.28 288.71 204.28 295.75 204.28 302.8 211.33 302.8 211.33 295.75 211.33 288.71 211.33 281.67 211.33 274.63 211.33 267.59 204.28 267.59 204.28 260.55 204.28 253.5 204.28 246.46 204.28 239.42 204.28 232.38 204.28 225.34 204.28 218.3 197.24 218.3 197.24 225.34"/>
      <polygon class="cls-5" points="204.28 197.17 197.24 197.17 197.24 204.21 197.24 211.25 190.2 211.25 190.2 218.3 190.2 225.34 197.24 225.34 197.24 218.3 204.28 218.3 204.28 211.25 204.28 204.21 204.28 197.17"/>
      <rect class="cls-6" x="197.24" y="35.21" width="7.04" height="7.04"/>
      <polygon class="cls-2" points="190.2 98.59 190.2 105.63 190.2 112.67 190.2 119.71 183.15 119.71 183.15 126.75 176.11 126.75 169.06 126.75 162.02 126.75 162.02 133.79 169.06 133.79 176.11 133.79 183.15 133.79 190.2 133.79 190.2 126.75 197.24 126.75 197.24 119.71 197.24 112.67 197.24 105.63 197.24 98.59 190.2 98.59"/>
      <polygon class="cls-1" points="183.15 183.09 183.15 190.13 183.15 197.17 190.2 197.17 190.2 190.13 190.2 183.09 190.2 176.05 190.2 169 190.2 161.96 183.15 161.96 183.15 169 183.15 176.05 183.15 183.09"/>
      <rect class="cls-2" x="183.15" y="91.54" width="7.05" height="7.05"/>
      <polygon class="cls-1" points="183.15 253.5 183.15 246.46 176.11 246.46 176.11 253.5 176.11 260.55 183.15 260.55 183.15 253.5"/>
      <polygon class="cls-5" points="183.15 211.25 183.15 204.21 190.2 204.21 190.2 197.17 183.15 197.17 183.15 190.13 183.15 183.09 183.15 176.05 183.15 169 176.11 169 176.11 176.05 169.06 176.05 169.06 183.09 169.06 190.13 176.11 190.13 176.11 197.17 176.11 204.21 176.11 211.25 176.11 218.3 183.15 218.3 183.15 211.25"/>
      <polygon class="cls-5" points="176.11 330.96 183.15 330.96 183.15 323.92 190.2 323.92 190.2 330.96 197.24 330.96 197.24 323.92 197.24 316.88 204.28 316.88 204.28 323.92 204.28 330.96 211.33 330.96 211.33 323.92 218.37 323.92 218.37 316.88 211.33 316.88 211.33 309.84 211.33 302.8 204.28 302.8 204.28 295.75 204.28 288.71 197.24 288.71 197.24 281.67 197.24 274.63 197.24 267.59 197.24 260.55 197.24 253.5 197.24 246.46 197.24 239.42 190.2 239.42 183.15 239.42 183.15 232.38 183.15 225.34 176.11 225.34 176.11 218.3 169.06 218.3 169.06 211.25 162.02 211.25 162.02 204.21 154.97 204.21 154.97 197.17 147.93 197.17 147.93 190.13 140.88 190.13 140.88 183.09 133.84 183.09 133.84 176.05 126.8 176.05 126.8 169 119.75 169 119.75 176.05 119.75 183.09 126.8 183.09 126.8 190.13 133.84 190.13 133.84 197.17 140.88 197.17 140.88 204.21 147.93 204.21 147.93 211.25 154.97 211.25 154.97 218.3 162.02 218.3 162.02 225.34 169.06 225.34 169.06 232.38 176.11 232.38 176.11 239.42 176.11 246.46 183.15 246.46 183.15 253.5 183.15 260.55 176.11 260.55 176.11 267.59 183.15 267.59 183.15 274.63 183.15 281.67 183.15 288.71 176.11 288.71 176.11 295.75 176.11 302.8 169.06 302.8 169.06 309.84 169.06 316.88 169.06 323.92 169.06 330.96 176.11 330.96"/>
      <rect class="cls-1" x="169.06" y="232.38" width="7.05" height="7.04"/>
      <polygon class="cls-6" points="176.11 42.25 176.11 35.21 183.15 35.21 190.2 35.21 197.24 35.21 197.24 28.17 190.2 28.17 183.15 28.17 176.11 28.17 169.06 28.17 169.06 35.21 162.02 35.21 162.02 42.25 169.06 42.25 176.11 42.25"/>
      <rect class="cls-1" x="162.02" y="225.34" width="7.04" height="7.04"/>
      <rect class="cls-1" x="154.97" y="218.3" width="7.05" height="7.04"/>
      <polygon class="cls-6" points="154.97 63.38 154.97 70.42 162.02 70.42 162.02 63.38 162.02 56.34 162.02 49.29 162.02 42.25 154.97 42.25 154.97 49.29 154.97 56.34 154.97 63.38"/>
      <rect class="cls-1" x="147.93" y="211.25" width="7.04" height="7.05"/>
      <rect class="cls-1" x="140.88" y="204.21" width="7.05" height="7.04"/>
      <polygon class="cls-6" points="147.93 63.38 147.93 56.34 140.88 56.34 133.84 56.34 133.84 63.38 140.88 63.38 147.93 63.38"/>
      <polygon class="cls-4" points="140.88 345.05 147.93 345.05 154.97 345.05 162.02 345.05 169.06 345.05 176.11 345.05 183.15 345.05 190.2 345.05 197.24 345.05 204.28 345.05 211.33 345.05 218.37 345.05 225.42 345.05 232.46 345.05 239.51 345.05 246.55 345.05 253.59 345.05 260.64 345.05 267.68 345.05 267.68 338.01 260.64 338.01 260.64 330.96 260.64 323.92 253.59 323.92 246.55 323.92 239.51 323.92 232.46 323.92 232.46 330.96 239.51 330.96 246.55 330.96 246.55 338.01 239.51 338.01 232.46 338.01 225.42 338.01 218.37 338.01 211.33 338.01 204.28 338.01 197.24 338.01 190.2 338.01 183.15 338.01 176.11 338.01 169.06 338.01 162.02 338.01 154.97 338.01 154.97 330.96 162.02 330.96 169.06 330.96 169.06 323.92 162.02 323.92 154.97 323.92 147.93 323.92 140.88 323.92 133.84 323.92 133.84 330.96 133.84 338.01 126.8 338.01 126.8 345.05 133.84 345.05 140.88 345.05"/>
      <rect class="cls-1" x="133.84" y="197.17" width="7.04" height="7.04"/>
      <polygon class="cls-2" points="133.84 190.13 126.8 190.13 126.8 197.17 119.75 197.17 119.75 204.21 112.71 204.21 112.71 211.25 105.66 211.25 105.66 218.3 98.62 218.3 91.57 218.3 84.53 218.3 77.49 218.3 70.44 218.3 63.4 218.3 56.35 218.3 49.31 218.3 49.31 225.34 56.35 225.34 63.4 225.34 70.44 225.34 77.49 225.34 84.53 225.34 91.57 225.34 98.62 225.34 105.66 225.34 112.71 225.34 112.71 218.3 119.75 218.3 119.75 211.25 126.8 211.25 126.8 204.21 133.84 204.21 133.84 197.17 133.84 190.13"/>
      <rect class="cls-1" x="119.75" y="183.09" width="7.05" height="7.04"/>
      <polygon class="cls-6" points="126.8 91.54 126.8 84.5 126.8 77.46 126.8 70.42 133.84 70.42 133.84 63.38 126.8 63.38 119.75 63.38 119.75 70.42 119.75 77.46 119.75 84.5 119.75 91.54 119.75 98.59 126.8 98.59 126.8 91.54"/>
      <polygon class="cls-2" points="119.75 154.92 112.71 154.92 112.71 147.88 105.66 147.88 98.62 147.88 98.62 154.92 105.66 154.92 105.66 161.96 112.71 161.96 112.71 169 112.71 176.05 105.66 176.05 105.66 183.09 112.71 183.09 119.75 183.09 119.75 176.05 119.75 169 119.75 161.96 119.75 154.92"/>
      <polygon class="cls-2" points="98.62 190.13 91.57 190.13 91.57 197.17 84.53 197.17 77.49 197.17 70.44 197.17 70.44 204.21 77.49 204.21 84.53 204.21 91.57 204.21 98.62 204.21 98.62 197.17 105.66 197.17 105.66 190.13 105.66 183.09 98.62 183.09 98.62 190.13"/>
      <rect class="cls-2" x="63.4" y="190.13" width="7.04" height="7.04"/>
      <polygon class="cls-2" points="70.44 176.05 70.44 169 77.49 169 77.49 161.96 77.49 154.92 77.49 147.88 70.44 147.88 70.44 140.84 63.4 140.84 63.4 147.88 63.4 154.92 70.44 154.92 70.44 161.96 63.4 161.96 63.4 169 56.35 169 56.35 176.05 49.31 176.05 42.26 176.05 42.26 183.09 49.31 183.09 56.35 183.09 63.4 183.09 63.4 176.05 70.44 176.05"/>
      <polygon class="cls-6" points="56.35 119.71 63.4 119.71 63.4 112.67 56.35 112.67 49.31 112.67 49.31 119.71 56.35 119.71"/>
      <polygon class="cls-6" points="49.31 211.25 42.26 211.25 42.26 204.21 35.22 204.21 28.17 204.21 28.17 197.17 21.13 197.17 21.13 190.13 21.13 183.09 14.09 183.09 14.09 176.05 14.09 169 14.09 161.96 7.04 161.96 7.04 154.92 14.09 154.92 14.09 147.88 14.09 140.84 14.09 133.79 21.13 133.79 21.13 126.75 28.17 126.75 28.17 119.71 28.17 112.67 35.22 112.67 42.26 112.67 49.31 112.67 49.31 105.63 49.31 98.59 56.35 98.59 56.35 105.63 63.4 105.63 70.44 105.63 77.49 105.63 84.53 105.63 84.53 112.67 91.57 112.67 91.57 119.71 98.62 119.71 105.66 119.71 105.66 126.75 112.71 126.75 112.71 119.71 112.71 112.67 105.66 112.67 98.62 112.67 98.62 105.63 105.66 105.63 105.66 98.59 105.66 91.54 98.62 91.54 98.62 84.5 98.62 77.46 105.66 77.46 105.66 70.42 105.66 63.38 105.66 56.34 112.71 56.34 112.71 49.29 119.75 49.29 119.75 42.25 126.8 42.25 133.84 42.25 133.84 35.21 140.88 35.21 147.93 35.21 147.93 28.17 147.93 21.13 154.97 21.13 162.02 21.13 162.02 14.08 169.06 14.08 176.11 14.08 183.15 14.08 190.2 14.08 190.2 7.04 197.24 7.04 197.24 14.08 204.28 14.08 211.33 14.08 218.37 14.08 225.42 14.08 225.42 7.04 218.37 7.04 211.33 7.04 211.33 0 204.28 0 197.24 0 190.2 0 183.15 0 183.15 7.04 176.11 7.04 169.06 7.04 162.02 7.04 154.97 7.04 154.97 14.08 147.93 14.08 140.88 14.08 140.88 21.13 133.84 21.13 133.84 28.17 126.8 28.17 119.75 28.17 119.75 35.21 112.71 35.21 112.71 42.25 105.66 42.25 105.66 49.29 98.62 49.29 98.62 56.34 98.62 63.38 91.57 63.38 91.57 70.42 91.57 77.46 91.57 84.5 91.57 91.54 91.57 98.59 84.53 98.59 77.49 98.59 70.44 98.59 63.4 98.59 63.4 91.54 56.35 91.54 49.31 91.54 42.26 91.54 42.26 98.59 35.22 98.59 28.17 98.59 28.17 105.63 21.13 105.63 21.13 112.67 21.13 119.71 14.09 119.71 14.09 126.75 7.04 126.75 7.04 133.79 7.04 140.84 7.04 147.88 0 147.88 0 154.92 0 161.96 0 169 7.04 169 7.04 176.05 7.04 183.09 7.04 190.13 7.04 197.17 14.09 197.17 14.09 204.21 21.13 204.21 21.13 211.25 28.17 211.25 28.17 218.3 35.22 218.3 42.26 218.3 42.26 225.34 49.31 225.34 49.31 218.3 49.31 211.25"/>
      <polygon class="cls-6" points="35.22 119.71 35.22 126.75 35.22 133.79 28.17 133.79 28.17 140.84 28.17 147.88 35.22 147.88 42.26 147.88 42.26 140.84 42.26 133.79 42.26 126.75 49.31 126.75 49.31 119.71 42.26 119.71 35.22 119.71"/>
      <rect class="cls-7" x="711.48" y="157.09" width="7.04" height="7.04"/>
      <path class="cls-2" d="M711.48,135.96v14.09h-7.05v-7.04h-7.04v-7.05h-14.09v7.05h7.04v7.04h7.05v7.04h7.04v7.04h-7.04v14.09h-7.05v7.04h-21.13v-14.09h-14.09v7.05h7.05v7.04h-7.05v7.04h-28.18v7.04h35.23v-7.04h35.22v-7.04h7.04v-14.09h7.05v14.09h-7.05v14.08h-14.09v14.08h-7.04v7.05h-7.05v-7.05h-7.04v7.05h-14.09v7.04h-21.13v-7.04h-14.09v-7.05h-14.09v-7.04h-28.18v7.04h14.09v7.05h21.13v7.04h14.09v7.04h42.27v-7.04h21.13v-7.04h7.05v-7.05h7.04v-7.04h7.05v-14.08h7.04v-21.13h7.05v-21.12h-7.05v-21.13h-7.04v7.04ZM718.52,164.13h-7.04v-7.04h7.04v7.04Z"/>
      <polygon class="cls-7" points="711.48 178.22 711.48 171.17 704.43 171.17 704.43 178.22 704.43 185.26 711.48 185.26 711.48 178.22"/>
      <polygon class="cls-7" points="655.12 93.71 648.08 93.71 648.08 100.76 655.12 100.76 662.17 100.76 662.17 93.71 655.12 93.71"/>
      <polygon class="cls-6" points="626.94 100.76 633.99 100.76 641.03 100.76 641.03 107.8 633.99 107.8 633.99 114.84 626.94 114.84 626.94 121.88 633.99 121.88 641.03 121.88 641.03 114.84 648.08 114.84 648.08 107.8 655.12 107.8 662.17 107.8 662.17 100.76 655.12 100.76 648.08 100.76 648.08 93.71 655.12 93.71 662.17 93.71 662.17 100.76 669.21 100.76 676.25 100.76 676.25 107.8 683.3 107.8 690.34 107.8 690.34 114.84 697.39 114.84 697.39 121.88 704.43 121.88 704.43 128.92 711.48 128.92 718.52 128.92 718.52 121.88 711.48 121.88 711.48 114.84 704.43 114.84 704.43 107.8 697.39 107.8 697.39 100.76 690.34 100.76 690.34 93.71 683.3 93.71 676.25 93.71 676.25 86.67 669.21 86.67 662.17 86.67 655.12 86.67 648.08 86.67 641.03 86.67 641.03 93.71 633.99 93.71 626.94 93.71 619.9 93.71 619.9 100.76 626.94 100.76"/>
      <polygon class="cls-8" points="612.85 347.22 605.81 347.22 598.77 347.22 591.72 347.22 584.68 347.22 577.63 347.22 570.59 347.22 563.54 347.22 556.5 347.22 549.46 347.22 542.41 347.22 535.37 347.22 528.32 347.22 521.28 347.22 514.23 347.22 507.19 347.22 500.14 347.22 493.1 347.22 486.06 347.22 486.06 354.26 486.06 361.3 493.1 361.3 500.14 361.3 507.19 361.3 514.23 361.3 521.28 361.3 528.32 361.3 535.37 361.3 542.41 361.3 549.46 361.3 556.5 361.3 563.54 361.3 570.59 361.3 577.63 361.3 584.68 361.3 591.72 361.3 598.77 361.3 605.81 361.3 612.85 361.3 619.9 361.3 626.94 361.3 626.94 354.26 626.94 347.22 619.9 347.22 612.85 347.22"/>
      <polygon class="cls-2" points="612.85 58.51 612.85 65.55 612.85 72.59 612.85 79.63 612.85 86.67 612.85 93.71 605.81 93.71 605.81 100.76 605.81 107.8 605.81 114.84 605.81 121.88 598.77 121.88 598.77 128.92 598.77 135.96 591.72 135.96 591.72 143.01 584.68 143.01 584.68 150.05 577.63 150.05 577.63 157.09 570.59 157.09 563.54 157.09 563.54 164.13 556.5 164.13 556.5 171.17 563.54 171.17 570.59 171.17 570.59 164.13 577.63 164.13 584.68 164.13 584.68 157.09 591.72 157.09 591.72 150.05 598.77 150.05 598.77 143.01 605.81 143.01 605.81 135.96 605.81 128.92 612.85 128.92 612.85 121.88 612.85 114.84 619.9 114.84 619.9 107.8 619.9 100.76 619.9 93.71 619.9 86.67 619.9 79.63 619.9 72.59 619.9 65.55 619.9 58.51 619.9 51.46 612.85 51.46 612.85 58.51"/>
      <polygon class="cls-6" points="612.85 51.46 619.9 51.46 619.9 44.42 619.9 37.38 612.85 37.38 612.85 44.42 612.85 51.46"/>
      <polygon class="cls-6" points="598.77 37.38 605.81 37.38 612.85 37.38 612.85 30.34 605.81 30.34 605.81 23.3 598.77 23.3 598.77 30.34 598.77 37.38"/>
      <polygon class="cls-4" points="598.77 333.13 605.81 333.13 605.81 340.18 598.77 340.18 591.72 340.18 584.68 340.18 577.63 340.18 570.59 340.18 563.54 340.18 556.5 340.18 549.46 340.18 542.41 340.18 535.37 340.18 528.32 340.18 521.28 340.18 514.23 340.18 514.23 333.13 521.28 333.13 528.32 333.13 528.32 326.09 521.28 326.09 514.23 326.09 507.19 326.09 500.14 326.09 493.1 326.09 493.1 333.13 493.1 340.18 486.06 340.18 486.06 347.22 493.1 347.22 500.14 347.22 507.19 347.22 514.23 347.22 521.28 347.22 528.32 347.22 535.37 347.22 542.41 347.22 549.46 347.22 556.5 347.22 563.54 347.22 570.59 347.22 577.63 347.22 584.68 347.22 591.72 347.22 598.77 347.22 605.81 347.22 612.85 347.22 619.9 347.22 626.94 347.22 626.94 340.18 619.9 340.18 619.9 333.13 619.9 326.09 612.85 326.09 605.81 326.09 598.77 326.09 591.72 326.09 591.72 333.13 598.77 333.13"/>
      <rect class="cls-5" x="584.68" y="171.17" width="7.04" height="7.05"/>
      <polygon class="cls-6" points="591.72 23.3 598.77 23.3 598.77 16.25 591.72 16.25 584.68 16.25 584.68 23.3 591.72 23.3"/>
      <polygon class="cls-1" points="584.68 199.34 584.68 192.3 591.72 192.3 591.72 185.26 598.77 185.26 598.77 178.22 591.72 178.22 584.68 178.22 584.68 185.26 577.63 185.26 577.63 192.3 570.59 192.3 570.59 199.34 563.54 199.34 563.54 206.38 563.54 213.42 570.59 213.42 570.59 206.38 577.63 206.38 577.63 199.34 584.68 199.34"/>
      <rect class="cls-5" x="577.63" y="178.22" width="7.05" height="7.04"/>
      <polygon class="cls-2" points="584.68 79.63 591.72 79.63 591.72 72.59 591.72 65.55 591.72 58.51 591.72 51.46 584.68 51.46 577.63 51.46 570.59 51.46 570.59 58.51 577.63 58.51 584.68 58.51 584.68 65.55 584.68 72.59 577.63 72.59 577.63 79.63 570.59 79.63 570.59 86.67 570.59 93.71 577.63 93.71 584.68 93.71 584.68 100.76 584.68 107.8 577.63 107.8 577.63 114.84 570.59 114.84 563.54 114.84 563.54 121.88 570.59 121.88 577.63 121.88 584.68 121.88 584.68 114.84 591.72 114.84 591.72 107.8 591.72 100.76 591.72 93.71 591.72 86.67 584.68 86.67 584.68 79.63"/>
      <polygon class="cls-1" points="570.59 319.05 577.63 319.05 577.63 326.09 577.63 333.13 584.68 333.13 591.72 333.13 591.72 326.09 584.68 326.09 584.68 319.05 584.68 312.01 577.63 312.01 577.63 304.97 570.59 304.97 570.59 312.01 570.59 319.05"/>
      <rect class="cls-5" x="570.59" y="185.26" width="7.04" height="7.04"/>
      <path class="cls-7" d="M570.59,16.25h-14.09v-7.04h-7.04v7.04h-28.18v7.05h-14.09v14.08h-14.09v7.04h-14.09v7.04h-7.04v7.05h-7.05v21.12h-7.04v14.08h7.04v14.09h-7.04v7.04h14.09v14.08h-7.05v-7.04h-14.09v-7.04h-7.04v-7.04h-28.18v-7.04h-7.04v14.08h14.09v7.04h-14.09v7.04h-7.05v21.13h-14.09v-14.09h7.05v-14.08h14.09v-7.04h-21.14v14.08h-7.04v7.04h-7.04v21.13h-7.05v7.04h7.05v21.13h7.04v14.08h7.04v7.04h14.09v7.04h7.05v7.05h56.35v-7.05h7.05v-7.04h7.04v-7.04h7.05v-7.04h-7.05v-7.04h-14.09v14.08h-7.04v7.04h-28.18v-7.04h-7.04v-7.04h7.04v7.04h21.13v-7.04h7.05v-7.04h7.04v-7.04h7.05v-14.09h-7.05v-7.04h-7.04v-7.04h14.09v7.04h7.04v14.08h7.05v7.05h7.04v7.04h7.04v7.04h7.05v7.04h7.04v7.04h7.05v7.04h7.04v7.05h7.05v-28.17h-7.05v-14.08h7.05v-7.05h7.04v-7.04h7.05v49.29h7.04v-14.08h7.04v-7.04h7.05v-7.04h7.04v-7.04h7.05v-7.05h7.04v7.05h7.05v7.04h-7.05v7.04h-7.04v7.04h-7.05v7.04h28.18v7.04h14.09v7.05h14.09v7.04h21.13v-7.04h14.09v-7.05h7.04v7.05h7.05v-7.05h7.04v-14.08h14.09v-14.08h-7.04v7.04h-35.22v7.04h-35.23v-7.04h28.18v-7.04h7.05v-7.04h-7.05v-7.05h14.09v14.09h21.13v-7.04h7.05v-14.09h7.04v-7.04h-7.04v-7.04h-7.05v-7.04h-7.04v-7.05h14.09v7.05h7.04v7.04h7.05v-21.13h-7.05v-7.04h-7.04v-7.04h-7.05v-7.04h-14.09v-7.04h-14.08v7.04h-14.09v7.04h-7.05v7.04h-14.09v-7.04h7.05v-7.04h7.04v-7.04h-21.13v14.08h-7.05v14.08h-7.04v14.09h-7.04v7.04h-7.05v7.04h-7.04v7.04h-14.09v7.04h-14.09v-7.04h7.04v-7.04h14.09v-7.04h7.05v-7.04h7.04v-7.05h7.05v-14.08h7.04v-28.17h7.04v-56.33h-14.08v-14.08h-14.09v-7.05h-14.09ZM591.72,93.71v21.13h-7.04v7.04h-21.14v-7.04h14.09v-7.04h7.05v-14.09h-14.09v-14.08h7.04v-7.04h7.05v-14.08h-14.09v-7.05h21.13v28.17h-7.04v7.04h7.04v7.04ZM479.01,93.71v-28.16h14.09v-7.04h14.09v7.04h-14.09v7.04h-7.04v28.17h-7.05v-7.05ZM514.23,44.42h7.05v-7.04h7.04v-7.04h28.18v7.04h7.04v7.04h-7.04v-7.04h-21.13v7.04h-14.09v28.17h-7.05v-28.17ZM556.5,114.84v14.08h-7.04v7.04h-28.18v-7.04h21.13v-7.04h7.05v-21.12h-7.05v-7.05h7.05v7.05h7.04v14.08ZM415.61,185.26h-14.09v-7.04h14.09v-7.05h7.05v-7.04h7.04v-7.04h-7.04v-14.08h7.04v7.04h7.05v21.12h-7.05v7.05h-7.04v7.04h-7.05Z"/>
      <rect class="cls-5" x="563.54" y="192.3" width="7.05" height="7.04"/>
      <polygon class="cls-5" points="563.54 297.92 563.54 290.88 556.5 290.88 556.5 283.84 556.5 276.8 556.5 269.76 556.5 262.72 556.5 255.67 556.5 248.63 556.5 241.59 549.46 241.59 542.41 241.59 542.41 234.55 542.41 227.51 535.37 227.51 535.37 220.47 528.32 220.47 528.32 213.42 521.28 213.42 521.28 206.38 514.23 206.38 514.23 199.34 507.19 199.34 507.19 192.3 500.14 192.3 500.14 185.26 493.1 185.26 493.1 178.22 486.06 178.22 486.06 171.17 479.01 171.17 479.01 178.22 479.01 185.26 486.06 185.26 486.06 192.3 493.1 192.3 493.1 199.34 500.14 199.34 500.14 206.38 507.19 206.38 507.19 213.42 514.23 213.42 514.23 220.47 521.28 220.47 521.28 227.51 528.32 227.51 528.32 234.55 535.37 234.55 535.37 241.59 535.37 248.63 542.41 248.63 542.41 255.67 542.41 262.72 535.37 262.72 535.37 269.76 542.41 269.76 542.41 276.8 542.41 283.84 542.41 290.88 535.37 290.88 535.37 297.92 535.37 304.97 528.32 304.97 528.32 312.01 528.32 319.05 528.32 326.09 528.32 333.13 535.37 333.13 542.41 333.13 542.41 326.09 549.46 326.09 549.46 333.13 556.5 333.13 556.5 326.09 556.5 319.05 563.54 319.05 563.54 326.09 563.54 333.13 570.59 333.13 570.59 326.09 577.63 326.09 577.63 319.05 570.59 319.05 570.59 312.01 570.59 304.97 563.54 304.97 563.54 297.92"/>
      <polygon class="cls-1" points="556.5 227.51 549.46 227.51 549.46 220.47 549.46 213.42 549.46 206.38 542.41 206.38 542.41 213.42 542.41 220.47 535.37 220.47 535.37 227.51 542.41 227.51 542.41 234.55 542.41 241.59 549.46 241.59 556.5 241.59 556.5 248.63 556.5 255.67 556.5 262.72 556.5 269.76 556.5 276.8 556.5 283.84 556.5 290.88 563.54 290.88 563.54 297.92 563.54 304.97 570.59 304.97 570.59 297.92 570.59 290.88 570.59 283.84 570.59 276.8 570.59 269.76 563.54 269.76 563.54 262.72 563.54 255.67 563.54 248.63 563.54 241.59 563.54 234.55 563.54 227.51 563.54 220.47 556.5 220.47 556.5 227.51"/>
      <polygon class="cls-5" points="563.54 199.34 556.5 199.34 556.5 206.38 556.5 213.42 549.46 213.42 549.46 220.47 549.46 227.51 556.5 227.51 556.5 220.47 563.54 220.47 563.54 213.42 563.54 206.38 563.54 199.34"/>
      <rect class="cls-6" x="556.5" y="37.38" width="7.04" height="7.04"/>
      <polygon class="cls-2" points="549.46 100.76 549.46 107.8 549.46 114.84 549.46 121.88 542.41 121.88 542.41 128.92 535.37 128.92 528.32 128.92 521.28 128.92 521.28 135.96 528.32 135.96 535.37 135.96 542.41 135.96 549.46 135.96 549.46 128.92 556.5 128.92 556.5 121.88 556.5 114.84 556.5 107.8 556.5 100.76 549.46 100.76"/>
      <polygon class="cls-1" points="542.41 185.26 542.41 192.3 542.41 199.34 549.46 199.34 549.46 192.3 549.46 185.26 549.46 178.22 549.46 171.17 549.46 164.13 542.41 164.13 542.41 171.17 542.41 178.22 542.41 185.26"/>
      <rect class="cls-2" x="542.41" y="93.71" width="7.05" height="7.05"/>
      <polygon class="cls-1" points="542.41 255.67 542.41 248.63 535.37 248.63 535.37 255.67 535.37 262.72 542.41 262.72 542.41 255.67"/>
      <polygon class="cls-5" points="542.41 213.42 542.41 206.38 549.46 206.38 549.46 199.34 542.41 199.34 542.41 192.3 542.41 185.26 542.41 178.22 542.41 171.17 535.37 171.17 535.37 178.22 528.32 178.22 528.32 185.26 528.32 192.3 535.37 192.3 535.37 199.34 535.37 206.38 535.37 213.42 535.37 220.47 542.41 220.47 542.41 213.42"/>
      <rect class="cls-1" x="528.32" y="234.55" width="7.05" height="7.04"/>
      <polygon class="cls-6" points="535.37 44.42 535.37 37.38 542.41 37.38 549.46 37.38 556.5 37.38 556.5 30.34 549.46 30.34 542.41 30.34 535.37 30.34 528.32 30.34 528.32 37.38 521.28 37.38 521.28 44.42 528.32 44.42 535.37 44.42"/>
      <rect class="cls-1" x="521.28" y="227.51" width="7.04" height="7.04"/>
      <rect class="cls-1" x="514.23" y="220.47" width="7.05" height="7.04"/>
      <polygon class="cls-6" points="514.23 65.55 514.23 72.59 521.28 72.59 521.28 65.55 521.28 58.51 521.28 51.46 521.28 44.42 514.23 44.42 514.23 51.46 514.23 58.51 514.23 65.55"/>
      <rect class="cls-1" x="507.19" y="213.42" width="7.04" height="7.05"/>
      <rect class="cls-1" x="500.14" y="206.38" width="7.05" height="7.04"/>
      <polygon class="cls-6" points="507.19 65.55 507.19 58.51 500.14 58.51 493.1 58.51 493.1 65.55 500.14 65.55 507.19 65.55"/>
      <rect class="cls-1" x="493.1" y="199.34" width="7.04" height="7.04"/>
      <polygon class="cls-2" points="493.1 192.3 486.06 192.3 486.06 199.34 479.01 199.34 479.01 206.38 471.97 206.38 471.97 213.42 464.92 213.42 464.92 220.47 457.88 220.47 450.83 220.47 443.79 220.47 436.75 220.47 429.7 220.47 422.66 220.47 415.61 220.47 408.57 220.47 408.57 227.51 415.61 227.51 422.66 227.51 429.7 227.51 436.75 227.51 443.79 227.51 450.83 227.51 457.88 227.51 464.92 227.51 471.97 227.51 471.97 220.47 479.01 220.47 479.01 213.42 486.06 213.42 486.06 206.38 493.1 206.38 493.1 199.34 493.1 192.3"/>
      <rect class="cls-1" x="479.01" y="185.26" width="7.05" height="7.04"/>
      <polygon class="cls-6" points="486.06 93.71 486.06 86.67 486.06 79.63 486.06 72.59 493.1 72.59 493.1 65.55 486.06 65.55 479.01 65.55 479.01 72.59 479.01 79.63 479.01 86.67 479.01 93.71 479.01 100.76 486.06 100.76 486.06 93.71"/>
      <polygon class="cls-2" points="479.01 171.17 479.01 164.13 479.01 157.09 471.97 157.09 471.97 150.05 464.92 150.05 457.88 150.05 457.88 157.09 464.92 157.09 464.92 164.13 471.97 164.13 471.97 171.17 471.97 178.22 464.92 178.22 464.92 185.26 471.97 185.26 479.01 185.26 479.01 178.22 479.01 171.17"/>
      <polygon class="cls-2" points="457.88 192.3 450.83 192.3 450.83 199.34 443.79 199.34 436.75 199.34 429.7 199.34 429.7 206.38 436.75 206.38 443.79 206.38 450.83 206.38 457.88 206.38 457.88 199.34 464.92 199.34 464.92 192.3 464.92 185.26 457.88 185.26 457.88 192.3"/>
      <rect class="cls-2" x="422.66" y="192.3" width="7.04" height="7.04"/>
      <polygon class="cls-2" points="429.7 178.22 429.7 171.17 436.75 171.17 436.75 164.13 436.75 157.09 436.75 150.05 429.7 150.05 429.7 143.01 422.66 143.01 422.66 150.05 422.66 157.09 429.7 157.09 429.7 164.13 422.66 164.13 422.66 171.17 415.61 171.17 415.61 178.22 408.57 178.22 401.52 178.22 401.52 185.26 408.57 185.26 415.61 185.26 422.66 185.26 422.66 178.22 429.7 178.22"/>
      <polygon class="cls-6" points="415.61 121.88 422.66 121.88 422.66 114.84 415.61 114.84 408.57 114.84 408.57 121.88 415.61 121.88"/>
      <polygon class="cls-6" points="394.48 121.88 394.48 128.92 394.48 135.96 387.43 135.96 387.43 143.01 387.43 150.05 394.48 150.05 401.52 150.05 401.52 143.01 401.52 135.96 401.52 128.92 408.57 128.92 408.57 121.88 401.52 121.88 394.48 121.88"/>
      <polygon class="cls-6" points="359.26 150.05 359.26 157.09 359.26 164.13 359.26 169 359.26 171.17 366.3 171.17 366.3 178.22 366.3 185.26 366.3 192.3 366.3 199.34 373.35 199.34 373.35 206.38 380.39 206.38 380.39 213.42 387.43 213.42 387.43 220.47 394.48 220.47 401.52 220.47 401.52 227.51 408.57 227.51 408.57 220.47 408.57 213.42 401.52 213.42 401.52 206.38 394.48 206.38 387.43 206.38 387.43 199.34 380.39 199.34 380.39 192.3 380.39 185.26 373.35 185.26 373.35 178.22 373.35 171.17 373.35 164.13 366.3 164.13 366.3 157.09 373.35 157.09 373.35 150.05 373.35 143.01 373.35 135.96 380.39 135.96 380.39 128.92 387.43 128.92 387.43 121.88 387.43 114.84 394.48 114.84 401.52 114.84 408.57 114.84 408.57 107.8 408.57 100.76 415.61 100.76 415.61 107.8 422.66 107.8 429.7 107.8 436.75 107.8 443.79 107.8 443.79 114.84 450.83 114.84 450.83 121.88 457.88 121.88 464.92 121.88 464.92 128.92 471.97 128.92 471.97 121.88 471.97 114.84 464.92 114.84 457.88 114.84 457.88 107.8 464.92 107.8 464.92 100.76 464.92 93.71 457.88 93.71 457.88 86.67 457.88 79.63 464.92 79.63 464.92 72.59 464.92 65.55 464.92 58.51 471.97 58.51 471.97 51.46 479.01 51.46 479.01 44.42 486.06 44.42 493.1 44.42 493.1 37.38 500.14 37.38 507.19 37.38 507.19 30.34 507.19 23.3 514.23 23.3 521.28 23.3 521.28 16.25 528.32 16.25 535.37 16.25 542.41 16.25 549.46 16.25 549.46 9.21 556.5 9.21 556.5 16.25 563.54 16.25 570.59 16.25 577.63 16.25 584.68 16.25 584.68 9.21 577.63 9.21 570.59 9.21 570.59 2.17 563.54 2.17 556.5 2.17 549.46 2.17 542.41 2.17 542.41 9.21 535.37 9.21 528.32 9.21 521.28 9.21 514.23 9.21 514.23 16.25 507.19 16.25 500.14 16.25 500.14 23.3 493.1 23.3 493.1 30.34 486.06 30.34 479.01 30.34 479.01 37.38 471.97 37.38 471.97 44.42 464.92 44.42 464.92 51.46 457.88 51.46 457.88 58.51 457.88 65.55 450.83 65.55 450.83 72.59 450.83 79.63 450.83 86.67 450.83 93.71 450.83 100.76 443.79 100.76 436.75 100.76 429.7 100.76 422.66 100.76 422.66 93.71 415.61 93.71 408.57 93.71 401.52 93.71 401.52 100.76 394.48 100.76 387.43 100.76 387.43 107.8 380.39 107.8 380.39 114.84 380.39 121.88 373.35 121.88 373.35 128.92 366.3 128.92 366.3 135.96 366.3 143.01 366.3 147.88 366.3 150.05 359.26 150.05"/>
    </g>
  </g>
</svg>