<?xml version="1.0" encoding="UTF-8"?>
<svg id="_レイヤー_2" data-name="レイヤー_2" xmlns="http://www.w3.org/2000/svg" viewBox="0 0 1291.54 326.04">
  <defs>
    <style>
      .cls-1 {
        fill: #fff;
      }

      .cls-2 {
        fill: #fff;
      }
    </style>
  </defs>
  <g id="_レイヤー_1-2" data-name="レイヤー_1">
    <g>
      <g>
        <g>
          <rect class="cls-1" x="58.63" y="97.79" width="28.67" height="4.26"/>
          <rect class="cls-1" x="58.63" y="111.9" width="28.67" height="5.83"/>
          <path class="cls-1" d="M72.13,18c-29.89,0-54.13,24.23-54.13,54.12v181.79c0,29.9,24.24,54.13,54.13,54.13,14.95,0,28.48-6.06,38.28-15.85,9.79-9.8,15.85-23.33,15.85-38.28V72.12c0-29.89-24.23-54.12-54.13-54.12ZM48.78,118.36v-31.43h48.3v51.95c-.04,2.09-.78,3.89-2.23,5.42-1.44,1.53-3.21,2.35-5.3,2.48h-9.97l-3.64-10.6h9.72c.42-.04.8-.22,1.13-.54.34-.31.51-.72.51-1.22v-7.02h-29.74c-1.46,7.31-4.39,14.09-8.78,20.32l-7.34-8.78c4.89-5.98,7.34-12.84,7.34-20.58ZM72.43,203.24h-10.79v27.41h-9.1v-27.41h-11.48v-9.92h11.48v-12.35h-10.66v-9.48h29.61v9.48h-9.85v12.35h10.79v9.92ZM72.87,174.13h9.09v41.84h-9.09v-41.84ZM97.46,219.11c-.21,2.93-1.38,5.44-3.51,7.56-2.14,2.11-4.67,3.23-7.6,3.35h-7.65l-3.14-9.78h9.67c.83-.05,1.56-.39,2.19-1.04s.98-1.41,1.07-2.29v-47.11h8.97v49.31Z"/>
          <path d="M72.13,0C32.36,0,0,32.35,0,72.12v181.79c0,39.77,32.36,72.13,72.13,72.13s72.13-32.36,72.13-72.13V72.12C144.26,32.35,111.9,0,72.13,0ZM143.26,253.91c0,39.22-31.91,71.13-71.13,71.13S1,293.13,1,253.91V72.12C1,32.9,32.91,1,72.13,1s71.13,31.9,71.13,71.12v181.79Z"/>
        </g>
        <g>
          <rect class="cls-1" x="58.63" y="97.79" width="28.67" height="4.26"/>
          <rect class="cls-1" x="58.63" y="111.9" width="28.67" height="5.83"/>
          <path class="cls-1" d="M72.13,18c-29.89,0-54.13,24.23-54.13,54.12v181.79c0,29.9,24.24,54.13,54.13,54.13,14.95,0,28.48-6.06,38.28-15.85,9.79-9.8,15.85-23.33,15.85-38.28V72.12c0-29.89-24.23-54.12-54.13-54.12ZM48.78,118.36v-31.43h48.3v51.95c-.04,2.09-.78,3.89-2.23,5.42-1.44,1.53-3.21,2.35-5.3,2.48h-9.97l-3.64-10.6h9.72c.42-.04.8-.22,1.13-.54.34-.31.51-.72.51-1.22v-7.02h-29.74c-1.46,7.31-4.39,14.09-8.78,20.32l-7.34-8.78c4.89-5.98,7.34-12.84,7.34-20.58ZM72.43,203.24h-10.79v27.41h-9.1v-27.41h-11.48v-9.92h11.48v-12.35h-10.66v-9.48h29.61v9.48h-9.85v12.35h10.79v9.92ZM72.87,174.13h9.09v41.84h-9.09v-41.84ZM97.46,219.11c-.21,2.93-1.38,5.44-3.51,7.56-2.14,2.11-4.67,3.23-7.6,3.35h-7.65l-3.14-9.78h9.67c.83-.05,1.56-.39,2.19-1.04s.98-1.41,1.07-2.29v-47.11h8.97v49.31Z"/>
          <path d="M72.13,6C35.67,6,6,35.66,6,72.12v181.79c0,36.47,29.67,66.13,66.13,66.13s66.13-29.66,66.13-66.13V72.12c0-36.46-29.67-66.12-66.13-66.12ZM137.26,253.91c0,35.91-29.22,65.13-65.13,65.13S7,289.82,7,253.91V72.12C7,36.21,36.22,7,72.13,7s65.13,29.21,65.13,65.12v181.79Z"/>
        </g>
        <g>
          <rect class="cls-1" x="58.63" y="97.79" width="28.67" height="4.26"/>
          <rect class="cls-1" x="58.63" y="111.9" width="28.67" height="5.83"/>
          <path class="cls-1" d="M72.13,18c-29.89,0-54.13,24.23-54.13,54.12v181.79c0,29.9,24.24,54.13,54.13,54.13,14.95,0,28.48-6.06,38.28-15.85,9.79-9.8,15.85-23.33,15.85-38.28V72.12c0-29.89-24.23-54.12-54.13-54.12ZM48.78,118.36v-31.43h48.3v51.95c-.04,2.09-.78,3.89-2.23,5.42-1.44,1.53-3.21,2.35-5.3,2.48h-9.97l-3.64-10.6h9.72c.42-.04.8-.22,1.13-.54.34-.31.51-.72.51-1.22v-7.02h-29.74c-1.46,7.31-4.39,14.09-8.78,20.32l-7.34-8.78c4.89-5.98,7.34-12.84,7.34-20.58ZM72.43,203.24h-10.79v27.41h-9.1v-27.41h-11.48v-9.92h11.48v-12.35h-10.66v-9.48h29.61v9.48h-9.85v12.35h10.79v9.92ZM72.87,174.13h9.09v41.84h-9.09v-41.84ZM97.46,219.11c-.21,2.93-1.38,5.44-3.51,7.56-2.14,2.11-4.67,3.23-7.6,3.35h-7.65l-3.14-9.78h9.67c.83-.05,1.56-.39,2.19-1.04s.98-1.41,1.07-2.29v-47.11h8.97v49.31Z"/>
          <path d="M72.13,12c-33.15,0-60.13,26.97-60.13,60.12v181.79c0,33.16,26.98,60.13,60.13,60.13s60.13-26.97,60.13-60.13V72.12c0-33.15-26.97-60.12-60.13-60.12ZM131.26,253.91c0,32.6-26.52,59.13-59.13,59.13s-59.13-26.53-59.13-59.13V72.12c0-32.6,26.53-59.12,59.13-59.12s59.13,26.52,59.13,59.12v181.79Z"/>
        </g>
        <g>
          <rect x="58.63" y="97.79" width="28.67" height="4.26"/>
          <rect x="58.63" y="111.9" width="28.67" height="5.83"/>
          <path d="M72.13,18c-29.89,0-54.13,24.23-54.13,54.12v181.79c0,29.9,24.24,54.13,54.13,54.13,14.95,0,28.48-6.06,38.28-15.85,9.79-9.8,15.85-23.33,15.85-38.28V72.12c0-29.89-24.23-54.12-54.13-54.12ZM48.78,118.36v-31.43h48.3v51.95c-.04,2.09-.78,3.89-2.23,5.42-1.44,1.53-3.21,2.35-5.3,2.48h-9.97l-3.64-10.6h9.72c.42-.04.8-.22,1.13-.54.34-.31.51-.72.51-1.22v-7.02h-29.74c-1.46,7.31-4.39,14.09-8.78,20.32l-7.34-8.78c4.89-5.98,7.34-12.84,7.34-20.58ZM72.43,203.24h-10.79v27.41h-9.1v-27.41h-11.48v-9.92h11.48v-12.35h-10.66v-9.48h29.61v9.48h-9.85v12.35h10.79v9.92ZM72.87,174.13h9.09v41.84h-9.09v-41.84ZM97.46,219.11c-.21,2.93-1.38,5.44-3.51,7.56-2.14,2.11-4.67,3.23-7.6,3.35h-7.65l-3.14-9.78h9.67c.83-.05,1.56-.39,2.19-1.04s.98-1.41,1.07-2.29v-47.11h8.97v49.31Z"/>
        </g>
      </g>
      <g>
        <path d="M268.5,279.41l-59.3,20.24v6.16h59.72l-.42-26.4ZM305.53,227.74l7.75,30.06,40.17-13.71-47.92-16.35ZM267.48,214.76l-58.28-19.88v98.42l59.2-20.19-.92-58.35ZM428.17,296.89l-.14,8.92h26.3l-26.16-8.92ZM429.31,224.55l-1.04,66.03,44.64,15.23h14.83v-101.19l-58.43,19.93ZM332.03,257.74l47.17,16.09,9.14-35.3-56.31,19.21ZM322.74,260.91h-.01l-7.95,2.72,10.88,42.18h45.25l6.78-26.15-54.95-18.75Z"/>
        <polygon points="487.74 13.92 487.74 198.28 429.41 218.18 431.74 71.04 390.14 231.58 362.73 240.93 303.74 220.8 265.21 71.41 267.38 208.39 209.2 188.54 209.2 13.92 293.02 13.92 348.66 210.12 404.29 13.92 487.74 13.92"/>
        <path d="M705.07,13.18h-104.96l-72.74,247.37,228-77.78h0s-50.3-169.59-50.3-169.59ZM610.49,194.55l40.8-141.31,40.43,141.31h-81.23ZM757.07,188.52l-115.17,39.3,55.75,19.02h8.9l.98,3.37,75.48,25.75-25.94-87.44ZM785.1,283.01l-75.54-25.77,13.74,47.46.32,1.11h68.24l-6.76-22.8ZM632.61,230.99l-62.68,21.39,21.96,7.49,3.77-13.03h83.42l-46.47-15.85ZM560.63,255.55l-35.33,12.05-11.24,38.21h64.54l11.62-40.17-29.59-10.09Z"/>
        <path d="M852.71,155.9l-17.15,5.84,21.3,39.85v42.25l66.02-22.52v-20.47l9.53-17.76-79.7-27.19ZM856.86,250.18v55.63h66.02v-78.15l-66.02,22.52ZM862,152.72l73.29,25.01,32.85-61.22-106.14,36.21ZM948.47,13.55l-58.6,119.43-58.6-119.43h-74.92l76.35,142.83,139.6-47.63,51.09-95.2h-74.92Z"/>
        <path d="M1046.75,13.55v165.5l66.02-22.52V13.55h-66.02ZM1112.77,182.31v-19.44l-43.48,14.84,43.74,14.92c-.18-3.35-.26-6.8-.26-10.32ZM1225.52,13.55v45.83l66.02,22.52V13.55h-66.02ZM1214.37,233.55c-7.59,11.54-19.77,18.48-38.55,18.48h-15.21c-31.67,0-44.14-21.64-47.1-52.9l-53.51-18.25-13.25,4.52v1.73c0,42.52,9.14,79.72,35.29,102.39l148.21-50.56-15.88-5.41ZM1256.46,113.85l-30.94,10.55v57.91c0,17.8-2.13,33.78-8.12,45.93l22.14,7.55,49.99-17.05h0c1.39-10.09,2.01-20.67,2.01-31.61v-61.31l-35.08-11.97ZM1265.76,110.68l25.78,8.8v-17.6l-25.78,8.8ZM1225.52,65.72v52.34l66.02-22.52v-7.29l-66.02-22.53ZM1087.62,293.96c16.55,12,39.01,18.9,68.91,18.9h23.37c69.61,0,99.66-36.41,108.59-87.43l-200.87,68.53Z"/>
      </g>
      <line class="cls-2" x1="941.74" y1="108.75" x2="937.58" y2="116.51"/>
      <polygon class="cls-1" points="695.99 305.81 693.06 305.81 692.74 304.7 695.99 305.81"/>
    </g>
  </g>
</svg>