<svg width="810" height="177" viewBox="0 0 810 177" fill="none" xmlns="http://www.w3.org/2000/svg">
<g clip-path="url(#clip0_256_9967)">
<path d="M39.1061 0C17.5443 0 0 17.5621 0 39.1524V137.842C0 159.432 17.5443 177 39.1061 177C60.6679 177 78.2122 159.432 78.2122 137.842V39.1524C78.2122 17.5621 60.6679 0 39.1061 0ZM77.67 137.842C77.67 159.134 60.3697 176.457 39.1061 176.457C17.8425 176.457 0.542161 159.134 0.542161 137.842V39.1524C0.542161 17.8607 17.8425 0.542878 39.1061 0.542878C60.3697 0.542878 77.67 17.8607 77.67 39.1524V137.842Z" fill="white"/>
<path d="M39.1061 3.25726C19.3389 3.25726 3.25293 19.359 3.25293 39.1524V137.842C3.25293 157.641 19.3389 173.743 39.1061 173.743C58.8733 173.743 74.9592 157.641 74.9592 137.842V39.1524C74.9592 19.359 58.8733 3.25726 39.1061 3.25726ZM74.417 137.842C74.417 157.337 58.5751 173.2 39.1061 173.2C19.637 173.2 3.79509 157.337 3.79509 137.842V39.1524C3.79509 19.6576 19.637 3.80014 39.1061 3.80014C58.5751 3.80014 74.417 19.6576 74.417 39.1524V137.842Z" fill="white"/>
<path d="M39.106 6.51453C21.1334 6.51453 6.50586 21.156 6.50586 39.1524V137.842C6.50586 155.844 21.1334 170.485 39.106 170.485C57.0787 170.485 71.7062 155.844 71.7062 137.842V39.1524C71.7062 21.156 57.0841 6.51453 39.106 6.51453ZM71.164 137.842C71.164 155.54 56.7859 169.943 39.106 169.943C21.4261 169.943 7.04802 155.54 7.04802 137.842V39.1524C7.04802 21.4545 21.4316 7.0574 39.106 7.0574C56.7805 7.0574 71.164 21.4545 71.164 39.1524V137.842Z" fill="white"/>
<path d="M47.3309 53.088H31.7871V55.4007H47.3309V53.088Z" fill="white"/>
<path d="M47.3309 60.7481H31.7871V63.9131H47.3309V60.7481Z" fill="white"/>
<path d="M39.106 9.77182C22.9008 9.77182 9.75879 22.9258 9.75879 39.1524V137.842C9.75879 154.074 22.9008 167.228 39.106 167.228C47.2113 167.228 54.5467 163.938 59.8599 158.624C65.1677 153.303 68.4532 145.958 68.4532 137.842V39.1524C68.4532 22.9258 55.3166 9.77182 39.106 9.77182ZM26.4465 64.2551V47.1924H52.6329V75.3949C52.6112 76.5295 52.21 77.5067 51.4239 78.3373C50.6432 79.1679 49.6836 79.6131 48.5504 79.6837H43.1451L41.1716 73.9292H46.4414C46.6691 73.9074 46.8752 73.8097 47.0541 73.636C47.2384 73.4677 47.3306 73.2451 47.3306 72.9737V69.1627H31.2067C30.4151 73.1311 28.8266 76.8118 26.4465 80.194L22.4671 75.4275C25.1182 72.1811 26.4465 68.4569 26.4465 64.2551ZM39.2686 110.335H33.4187V125.215H28.485V110.335H22.261V104.949H28.485V98.2447H22.7056V93.0982H38.759V98.2447H33.4187V104.949H39.2686V110.335ZM39.5072 94.5314H44.4354V117.245H39.5072V94.5314ZM52.8389 118.95C52.7251 120.541 52.0907 121.903 50.9359 123.054C49.7757 124.2 48.4041 124.808 46.8155 124.873H42.668L40.9656 119.564H46.2083C46.6583 119.536 47.0541 119.352 47.3956 118.999C47.7372 118.646 47.927 118.233 47.9757 117.756V92.1807H52.8389V118.95Z" fill="white"/>
<path d="M205.587 148.656L210.543 129.493L180.014 139.921L205.587 148.656Z" fill="white"/>
<path d="M174.971 141.642L170.661 143.119L176.56 166.018H201.093L204.769 151.821L174.977 141.642H174.971Z" fill="white"/>
<path d="M165.646 123.635L169.848 139.954L191.627 132.511L165.646 123.635Z" fill="white"/>
<path d="M113.42 162.673V166.018H145.798L145.57 151.686L113.42 162.673Z" fill="white"/>
<path d="M145.017 116.589L113.42 105.796V159.226L145.516 148.265L145.017 116.589Z" fill="white"/>
<path d="M232.191 157.75L256.393 166.018H264.434V111.084L232.755 121.903L232.191 157.75Z" fill="white"/>
<path d="M232.062 166.018H246.32L232.137 161.175L232.062 166.018Z" fill="white"/>
<path d="M189.03 114.07L158.864 7.55685H113.42V102.354L144.963 113.13L143.786 38.7669L164.676 119.868L196.658 130.796L211.519 125.72L234.073 38.5661L232.809 118.445L264.434 107.642V7.55685H219.19L189.03 114.07Z" fill="white"/>
<path d="M382.262 7.15512H325.357L285.92 141.447L409.533 99.2218L382.262 7.15512ZM330.984 105.617L353.105 28.9028L375.024 105.617H330.984Z" fill="white"/>
<path d="M410.454 102.343L348.014 123.678L378.239 134.004H383.064L383.596 135.834L424.518 149.813L410.454 102.343Z" fill="white"/>
<path d="M384.696 139.65L392.146 165.415L392.319 166.018H429.316L425.651 153.64L384.696 139.65Z" fill="white"/>
<path d="M308.994 137.012L320.9 141.078L322.944 134.004H368.171L342.977 125.399L308.994 137.012Z" fill="white"/>
<path d="M284.797 145.274L278.703 166.018H313.694L319.994 144.21L303.952 138.733L284.797 145.274Z" fill="white"/>
<path d="M453.009 87.8051L464.557 109.439V132.375L500.35 120.15V109.037L505.517 99.3956L462.307 84.6347L453.009 87.8051Z" fill="white"/>
<path d="M464.557 166.018H500.35V123.592L464.557 135.817V166.018Z" fill="white"/>
<path d="M507.078 96.4857L524.888 63.2507L467.343 82.9083L507.078 96.4857Z" fill="white"/>
<path d="M482.453 72.1919L450.682 7.35599H410.063L451.458 84.8953L527.143 59.038L554.842 7.35599H514.224L482.453 72.1919Z" fill="white"/>
<path d="M579.728 96.4749L603.442 104.575C603.344 102.756 603.301 100.883 603.301 98.9721V88.4186L579.728 96.4749Z" fill="white"/>
<path d="M603.301 7.35599H567.508V97.2023L603.301 84.9767V7.35599Z" fill="white"/>
<path d="M627.026 169.845H639.697C677.437 169.845 693.729 150.079 698.57 122.381L589.666 159.584C598.639 166.099 610.816 169.845 627.026 169.845Z" fill="white"/>
<path d="M664.43 7.35599V32.2361L700.223 44.4617V7.35599H664.43Z" fill="white"/>
<path d="M658.385 126.789C654.27 133.054 647.666 136.822 637.485 136.822H629.238C612.068 136.822 605.307 125.074 603.703 108.103L574.691 98.1958L567.508 100.65V101.589C567.508 124.672 572.463 144.867 586.641 157.174L666.994 129.726L658.385 126.789Z" fill="white"/>
<path d="M664.43 67.534V98.9721C664.43 108.635 663.275 117.311 660.027 123.906L672.031 128.005L699.133 118.749C699.887 113.272 700.223 107.528 700.223 101.589V68.3049L681.204 61.8067L664.43 67.534Z" fill="white"/>
<path d="M700.223 64.8631V55.3084L686.246 60.0857L700.223 64.8631Z" fill="white"/>
<path d="M664.43 64.0922L700.223 51.8666V47.909L664.43 35.6779V64.0922Z" fill="white"/>
<path d="M786.699 167.494V98.4292H753.865V80.1342H761.678C779.813 80.1342 788.021 71.383 788.021 62.9033H810.001V167.494H786.699Z" fill="white"/>
<path d="M728.974 168.39H727.781C723.01 168.39 720.381 165.676 720.381 160.871V160.057H722.902V160.735C722.902 163.993 724.583 166.028 727.836 166.028H728.92C731.983 166.028 734.179 164.671 734.179 160.247V146.241H736.646V160.274C736.646 165.838 733.691 168.39 728.974 168.39Z" fill="white"/>
<path d="M751.501 167.44C751.284 167.141 751.176 166.843 751.122 165.513C750.119 166.626 748.546 167.657 746.188 167.657H744.968C741.119 167.657 739.275 165.594 739.275 163.26V162.69C739.275 159.541 741.58 158.075 745.32 158.075C749.061 158.075 750.39 157.885 751.095 156.718V156.311C751.095 154.927 750.064 153.705 747.11 153.705H745.592C743.396 153.705 742.04 154.547 741.878 156.229H739.709C739.953 153.407 742.095 151.724 745.592 151.724H747.191C751.284 151.724 753.344 153.488 753.344 156.338V165.54C753.344 166.354 753.507 166.626 753.751 166.951V167.44H751.501ZM751.095 158.455C750.227 159.514 748.275 159.785 745.429 159.785C742.257 159.785 741.553 160.844 741.553 162.5V163.015C741.553 164.834 743.504 165.621 745.32 165.621H746.459C748.79 165.621 750.417 164.617 751.095 163.205V158.455Z" fill="white"/>
<path d="M766.519 167.494V157.858C766.519 154.927 764.567 153.895 762.859 153.895H762.452C759.335 153.895 758.224 155.768 758.224 156.962V167.494H755.974V151.832H758.224V154.139C759.145 152.646 760.69 151.724 762.751 151.724H763.184C765.76 151.724 768.796 153.407 768.796 157.505V167.494H766.519Z" fill="white"/>
<path d="M773.323 168.336V165.594H776.061V168.336H773.323Z" fill="white"/>
</g>
<defs>
<clipPath id="clip0_256_9967">
<rect width="810" height="177" fill="white"/>
</clipPath>
</defs>
</svg>
