<?xml version="1.0" encoding="UTF-8"?>
<svg id="_レイヤー_2" data-name="レイヤー_2" xmlns="http://www.w3.org/2000/svg" viewBox="0 0 1291.54 326.04">
  <g id="_レイヤー_1-2" data-name="レイヤー_1">
    <g>
      <path d="M72.13,0C32.36,0,0,32.35,0,72.12v181.79c0,39.77,32.36,72.13,72.13,72.13s72.13-32.36,72.13-72.13V72.12C144.26,32.35,111.9,0,72.13,0ZM143.26,253.91c0,39.22-31.91,71.13-71.13,71.13S1,293.13,1,253.91V72.12C1,32.9,32.91,1,72.13,1s71.13,31.9,71.13,71.12v181.79Z"/>
      <path d="M72.13,6C35.67,6,6,35.66,6,72.12v181.79c0,36.47,29.67,66.13,66.13,66.13s66.13-29.66,66.13-66.13V72.12c0-36.46-29.67-66.12-66.13-66.12ZM137.26,253.91c0,35.91-29.22,65.13-65.13,65.13S7,289.82,7,253.91V72.12C7,36.21,36.22,7,72.13,7s65.13,29.21,65.13,65.12v181.79Z"/>
      <path d="M72.13,12c-33.15,0-60.13,26.97-60.13,60.12v181.79c0,33.16,26.98,60.13,60.13,60.13s60.13-26.97,60.13-60.13V72.12c0-33.15-26.97-60.12-60.13-60.12ZM131.26,253.91c0,32.6-26.52,59.13-59.13,59.13s-59.13-26.53-59.13-59.13V72.12c0-32.6,26.53-59.12,59.13-59.12s59.13,26.52,59.13,59.12v181.79Z"/>
      <rect x="58.63" y="97.79" width="28.67" height="4.26"/>
      <rect x="58.63" y="111.9" width="28.67" height="5.83"/>
      <path d="M72.13,18c-29.89,0-54.13,24.23-54.13,54.12v181.79c0,29.9,24.24,54.13,54.13,54.13,14.95,0,28.48-6.06,38.28-15.85,9.79-9.8,15.85-23.33,15.85-38.28V72.12c0-29.89-24.23-54.12-54.13-54.12ZM48.78,118.36v-31.43h48.3v51.95c-.04,2.09-.78,3.89-2.23,5.42-1.44,1.53-3.21,2.35-5.3,2.48h-9.97l-3.64-10.6h9.72c.42-.04.8-.22,1.13-.54.34-.31.51-.72.51-1.22v-7.02h-29.74c-1.46,7.31-4.39,14.09-8.78,20.32l-7.34-8.78c4.89-5.98,7.34-12.84,7.34-20.58ZM72.43,203.24h-10.79v27.41h-9.1v-27.41h-11.48v-9.92h11.48v-12.35h-10.66v-9.48h29.61v9.48h-9.85v12.35h10.79v9.92ZM72.87,174.13h9.09v41.84h-9.09v-41.84ZM97.46,219.11c-.21,2.93-1.38,5.44-3.51,7.56-2.14,2.11-4.67,3.23-7.6,3.35h-7.65l-3.14-9.78h9.67c.83-.05,1.56-.39,2.19-1.04s.98-1.41,1.07-2.29v-47.11h8.97v49.31Z"/>
      <polygon points="379.2 273.83 388.34 238.53 332.03 257.74 379.2 273.83"/>
      <polygon points="322.73 260.91 314.78 263.63 325.66 305.81 370.91 305.81 377.69 279.66 322.74 260.91 322.73 260.91"/>
      <polygon points="305.53 227.74 313.28 257.8 353.45 244.09 305.53 227.74"/>
      <polygon points="209.2 299.65 209.2 305.81 268.92 305.81 268.5 279.41 209.2 299.65"/>
      <polygon points="267.48 214.76 209.2 194.88 209.2 293.3 268.4 273.11 267.48 214.76"/>
      <polygon points="428.27 290.58 472.91 305.81 487.74 305.81 487.74 204.62 429.31 224.55 428.27 290.58"/>
      <polygon points="428.03 305.81 454.33 305.81 428.17 296.89 428.03 305.81"/>
      <polygon points="348.66 210.12 293.02 13.92 209.2 13.92 209.2 188.54 267.38 208.39 265.21 71.41 303.74 220.8 362.73 240.93 390.14 231.58 431.74 71.04 429.41 218.18 487.74 198.28 487.74 13.92 404.29 13.92 348.66 210.12"/>
      <path d="M705.07,13.18h-104.96l-72.74,247.37,228-77.78h0s-50.3-169.59-50.3-169.59ZM610.49,194.55l40.8-141.31,40.43,141.31h-81.23Z"/>
      <polygon points="757.07 188.52 641.9 227.82 697.65 246.84 706.55 246.84 707.53 250.21 783.01 275.96 757.07 188.52"/>
      <polygon points="709.56 257.24 723.3 304.7 723.62 305.81 791.86 305.81 785.1 283.01 709.56 257.24"/>
      <polygon points="569.93 252.38 591.89 259.87 595.66 246.84 679.08 246.84 632.61 230.99 569.93 252.38"/>
      <polygon points="525.3 267.6 514.06 305.81 578.6 305.81 590.22 265.64 560.63 255.55 525.3 267.6"/>
      <polygon points="835.56 161.74 856.86 201.59 856.86 243.84 922.88 221.32 922.88 200.85 932.41 183.09 852.71 155.9 835.56 161.74"/>
      <polygon points="856.86 305.81 922.88 305.81 922.88 227.66 856.86 250.18 856.86 305.81"/>
      <polygon points="935.29 177.73 968.14 116.51 862 152.72 935.29 177.73"/>
      <polygon points="889.87 132.98 831.27 13.55 756.35 13.55 832.7 156.38 972.3 108.75 1023.39 13.55 948.47 13.55 889.87 132.98"/>
      <path d="M1069.29,177.71l43.74,14.92c-.18-3.35-.26-6.8-.26-10.32v-19.44l-43.48,14.84Z"/>
      <polygon points="1112.77 13.55 1046.75 13.55 1046.75 179.05 1112.77 156.53 1112.77 13.55"/>
      <path d="M1156.53,312.86h23.37c69.61,0,99.66-36.41,108.59-87.43l-200.87,68.53c16.55,12,39.01,18.9,68.91,18.9Z"/>
      <polygon points="1225.52 13.55 1225.52 59.38 1291.54 81.9 1291.54 13.55 1225.52 13.55"/>
      <path d="M1214.37,233.55c-7.59,11.54-19.77,18.48-38.55,18.48h-15.21c-31.67,0-44.14-21.64-47.1-52.9l-53.51-18.25-13.25,4.52v1.73c0,42.52,9.14,79.72,35.29,102.39l148.21-50.56-15.88-5.41Z"/>
      <path d="M1225.52,124.4v57.91c0,17.8-2.13,33.78-8.12,45.93l22.14,7.55,49.99-17.05h0c1.39-10.09,2.01-20.67,2.01-31.61v-61.31l-35.08-11.97-30.94,10.55Z"/>
      <polygon points="1291.54 119.48 1291.54 101.88 1265.76 110.68 1291.54 119.48"/>
      <polygon points="1225.52 118.06 1291.54 95.54 1291.54 88.25 1225.52 65.72 1225.52 118.06"/>
    </g>
  </g>
</svg>