<?xml version="1.0" encoding="UTF-8"?>
<svg id="_レイヤー_2" data-name="レイヤー_2" xmlns="http://www.w3.org/2000/svg" viewBox="0 0 423.08 423.08">
  <defs>
    <style>
      .cls-1 {
        fill: red;
      }
    </style>
  </defs>
  <g id="_レイヤー_1-2" data-name="レイヤー_1">
    <polygon class="cls-1" points="384.62 115.39 384.62 76.92 346.16 76.92 346.16 38.46 307.7 38.46 307.7 0 269.23 0 230.77 0 192.31 0 153.85 0 115.39 0 115.39 38.46 76.93 38.46 76.93 76.92 38.47 76.92 38.47 115.39 0 115.39 0 153.85 0 192.31 0 230.77 0 269.23 0 307.69 38.47 307.69 38.47 346.15 76.93 346.15 76.93 384.62 115.39 384.62 115.39 423.08 153.85 423.08 192.31 423.08 230.77 423.08 269.23 423.08 307.7 423.08 307.7 384.62 346.16 384.62 346.16 346.15 384.62 346.15 384.62 307.69 423.08 307.69 423.08 269.23 423.08 230.77 423.08 192.31 423.08 153.85 423.08 115.39 384.62 115.39"/>
  </g>
</svg>