<?xml version="1.0" encoding="UTF-8"?>
<svg id="_レイヤー_2" data-name="レイヤー_2" xmlns="http://www.w3.org/2000/svg" viewBox="0 0 269.23 423.08">
  <defs>
    <style>
      .cls-1 {
        fill: #fff;
      }
    </style>
  </defs>
  <g id="_レイヤー_1-2" data-name="レイヤー_1">
    <polygon class="cls-1" points="38.46 153.85 76.93 153.85 76.93 115.39 115.39 115.39 115.39 76.92 153.85 76.92 153.85 38.46 192.31 38.46 192.31 0 230.77 0 269.23 0 269.23 38.46 230.77 38.46 230.77 76.92 192.31 76.92 192.31 115.39 153.85 115.39 153.85 153.85 115.39 153.85 115.39 192.31 76.93 192.31 76.93 230.77 115.39 230.77 115.39 269.23 153.85 269.23 153.85 307.69 192.31 307.69 192.31 346.15 230.77 346.15 230.77 384.62 269.23 384.62 269.23 423.08 230.77 423.08 192.31 423.08 192.31 384.62 153.85 384.62 153.85 346.15 115.39 346.15 115.39 307.69 76.93 307.69 76.93 269.23 38.46 269.23 38.46 230.77 0 230.77 0 192.31 38.46 192.31 38.46 153.85"/>
  </g>
</svg>