<?xml version="1.0" encoding="UTF-8"?>
<svg id="_レイヤー_2" data-name="レイヤー_2" xmlns="http://www.w3.org/2000/svg" viewBox="0 0 269.23 423.08">
  <defs>
    <style>
      .cls-1 {
        fill: #fff;
      }
    </style>
  </defs>
  <g id="_レイヤー_1-2" data-name="レイヤー_1">
    <polygon class="cls-1" points="230.77 153.85 192.3 153.85 192.3 115.39 153.84 115.39 153.84 76.92 115.38 76.92 115.38 38.46 76.92 38.46 76.92 0 38.46 0 0 0 0 38.46 38.46 38.46 38.46 76.92 76.92 76.92 76.92 115.39 115.38 115.39 115.38 153.85 153.84 153.85 153.84 192.31 192.3 192.31 192.3 230.77 153.84 230.77 153.84 269.23 115.38 269.23 115.38 307.69 76.92 307.69 76.92 346.15 38.46 346.15 38.46 384.62 0 384.62 0 423.08 38.46 423.08 76.92 423.08 76.92 384.62 115.38 384.62 115.38 346.15 153.84 346.15 153.84 307.69 192.3 307.69 192.3 269.23 230.77 269.23 230.77 230.77 269.23 230.77 269.23 192.31 230.77 192.31 230.77 153.85"/>
  </g>
</svg>