<?xml version="1.0" encoding="UTF-8"?>
<svg id="_レイヤー_2" data-name="レイヤー_2" xmlns="http://www.w3.org/2000/svg" viewBox="0 0 1106.05 299.68">
  <g id="_レイヤー_1-2" data-name="レイヤー_1">
    <g>
      <polygon points="193.71 260.65 202.85 225.35 146.54 244.56 193.71 260.65"/>
      <polygon points="137.24 247.73 129.29 250.45 140.17 292.63 185.42 292.63 192.2 266.48 137.25 247.73 137.24 247.73"/>
      <polygon points="120.04 214.56 127.79 244.62 167.96 230.91 120.04 214.56"/>
      <polygon points="23.71 286.47 23.71 292.63 83.43 292.63 83.01 266.23 23.71 286.47"/>
      <polygon points="81.99 201.58 23.71 181.7 23.71 280.12 82.91 259.93 81.99 201.58"/>
      <polygon points="242.78 277.4 287.42 292.63 302.25 292.63 302.25 191.44 243.82 211.37 242.78 277.4"/>
      <polygon points="242.54 292.63 268.84 292.63 242.68 283.71 242.54 292.63"/>
      <polygon points="163.17 196.94 107.53 .74 23.71 .74 23.71 175.36 81.89 195.21 79.72 58.23 118.25 207.62 177.24 227.75 204.65 218.4 246.25 57.86 243.92 205 302.25 185.1 302.25 .74 218.8 .74 163.17 196.94"/>
      <path d="M519.58,0h-104.96l-72.74,247.37,228-77.78h0S519.58,0,519.58,0ZM425,181.37l40.8-141.31,40.43,141.31h-81.23Z"/>
      <polygon points="571.58 175.34 456.41 214.64 512.16 233.66 521.06 233.66 522.04 237.03 597.52 262.78 571.58 175.34"/>
      <polygon points="524.07 244.06 537.81 291.52 538.13 292.63 606.37 292.63 599.61 269.83 524.07 244.06"/>
      <polygon points="384.44 239.2 406.4 246.69 410.17 233.66 493.59 233.66 447.12 217.81 384.44 239.2"/>
      <polygon points="339.81 254.42 328.57 292.63 393.11 292.63 404.73 252.46 375.14 242.37 339.81 254.42"/>
      <polygon points="650.07 148.56 671.37 188.41 671.37 230.66 737.39 208.14 737.39 187.67 746.92 169.91 667.22 142.72 650.07 148.56"/>
      <polygon points="671.37 292.63 737.39 292.63 737.39 214.48 671.37 237 671.37 292.63"/>
      <polygon points="749.8 164.55 782.65 103.33 676.51 139.54 749.8 164.55"/>
      <polygon points="704.38 119.8 645.78 .37 570.86 .37 647.21 143.2 786.81 95.57 837.9 .37 762.98 .37 704.38 119.8"/>
      <path d="M883.8,164.53l43.74,14.92c-.18-3.35-.26-6.8-.26-10.32v-19.44l-43.48,14.84Z"/>
      <polygon points="927.28 .37 861.26 .37 861.26 165.87 927.28 143.35 927.28 .37"/>
      <path d="M971.04,299.68h23.37c69.61,0,99.66-36.41,108.59-87.43l-200.87,68.53c16.55,12,39.01,18.9,68.91,18.9Z"/>
      <polygon points="1040.03 .37 1040.03 46.2 1106.05 68.72 1106.05 .37 1040.03 .37"/>
      <path d="M1028.88,220.37c-7.59,11.54-19.77,18.48-38.55,18.48h-15.21c-31.67,0-44.14-21.64-47.1-52.9l-53.51-18.25-13.25,4.52v1.73c0,42.52,9.14,79.72,35.29,102.39l148.21-50.56-15.88-5.41Z"/>
      <path d="M1040.03,111.22v57.91c0,17.8-2.13,33.78-8.12,45.93l22.14,7.55,49.99-17.05h0c1.39-10.09,2.01-20.67,2.01-31.61v-61.31l-35.08-11.97-30.94,10.55Z"/>
      <polygon points="1106.05 106.3 1106.05 88.7 1080.27 97.5 1106.05 106.3"/>
      <polygon points="1040.03 104.88 1106.05 82.36 1106.05 75.07 1040.03 52.54 1040.03 104.88"/>
    </g>
  </g>
</svg>