<?xml version="1.0" encoding="UTF-8"?>
<svg id="_レイヤー_2" data-name="レイヤー_2" xmlns="http://www.w3.org/2000/svg" xmlns:xlink="http://www.w3.org/1999/xlink" viewBox="0 0 510.83 269.14">
  <defs>
    <style>
      .cls-1 {
        fill: #ff2f00;
      }

      .cls-2 {
        fill: #d31e00;
      }

      .cls-3 {
        fill: #01195b;
      }

      .cls-4 {
        clip-path: url(#clippath);
      }
    </style>
    <clipPath id="clippath">
      <path class="cls-1" d="M486.77,198.12c4.45,12.72,10.53,30.16,5.37,37.43-3.52,4.95-13.14,5.99-20.6,5.99-9.2,0-20.98-1.57-35-4.66-19.5-4.31-39.74-6.5-60.15-6.5-60.99,0-107.69,19.25-120.97,25.36-13.29-6.11-59.98-25.36-120.98-25.36-20.4,0-40.64,2.19-60.14,6.5-14.02,3.09-25.8,4.66-35.02,4.66-7.45,0-17.07-1.03-20.59-5.99-5.16-7.26.92-24.69,5.36-37.43,1.62-4.63,3.15-9.01,4.29-13.09,6.44-23.04,4.98-40.01-4.33-50.46,9.31-10.45,10.77-27.42,4.33-50.45-1.14-4.08-2.66-8.44-4.28-13.09-4.44-12.73-10.53-30.17-5.36-37.44,3.52-4.95,13.13-5.99,20.58-5.99,9.21,0,21,1.57,35.02,4.67,19.5,4.31,39.74,6.49,60.14,6.49,61,0,107.69-19.24,120.98-25.36,13.28,6.12,59.98,25.36,120.97,25.36,20.41,0,40.65-2.18,60.15-6.49,14.02-3.1,25.8-4.67,35.02-4.67,7.45,0,17.07,1.04,20.58,5.99,5.16,7.26-.92,24.69-5.37,37.46-1.62,4.63-3.14,8.99-4.28,13.07-6.44,23.03-4.98,40,4.33,50.45-9.31,10.45-10.77,27.42-4.33,50.46,1.14,4.07,2.67,8.45,4.28,13.09Z"/>
    </clipPath>
  </defs>
  <g id="_レイヤー_1-2" data-name="レイヤー_1">
    <g>
      <g>
        <path class="cls-1" d="M493.36,195.83c5.46,15.65,12.25,35.12,3.44,45.04-8.11,9.13-28.89,10.07-61.76,2.81-91.89-20.31-169.28,14.79-179.62,19.79-8.06-3.9-56.81-26.06-121.41-26.06-18.32,0-37.91,1.78-58.21,6.27-32.88,7.27-53.66,6.32-61.76-2.81-8.82-9.92-2.02-29.39,3.44-45.04,1.58-4.53,3.07-8.81,4.15-12.68,6.98-24.97,4.19-40.94-8.55-48.58,12.74-7.64,15.53-23.6,8.55-48.58-1.08-3.87-2.57-8.15-4.15-12.67-5.46-15.65-12.26-35.13-3.44-45.05,8.1-9.13,28.88-10.07,61.76-2.81,20.3,4.49,39.89,6.27,58.21,6.27,64.59,0,113.35-22.16,121.41-26.05,10.34,5,87.73,40.09,179.62,19.78,32.87-7.26,53.65-6.32,61.76,2.81,8.81,9.92,2.02,29.4-3.44,45.05-1.58,4.52-3.08,8.8-4.16,12.67-6.98,24.98-4.19,40.94,8.56,48.58-12.75,7.64-15.54,23.61-8.56,48.58,1.08,3.87,2.58,8.15,4.16,12.68Z"/>
        <path class="cls-3" d="M494.08,181.79c-7.07-25.28-3.75-39.53,10.42-44.85l6.33-2.37-6.33-2.37c-14.17-5.32-17.49-19.57-10.42-44.84,1.04-3.72,2.51-7.93,4.06-12.38,5.9-16.9,13.23-37.93,2.44-50.07-9.55-10.76-31.34-12.19-66.64-4.39C337.51,41.83,257.38,1.02,256.59.61l-1.17-.61-1.17.61c-.8.41-80.86,41.24-177.36,19.91-35.29-7.8-57.09-6.37-66.64,4.39-10.79,12.14-3.45,33.17,2.44,50.07,1.56,4.45,3.02,8.66,4.06,12.38,7.07,25.27,3.76,39.52-10.42,44.84l-6.33,2.37,6.33,2.37c14.18,5.32,17.49,19.57,10.42,44.85-1.04,3.72-2.5,7.92-4.06,12.37-5.89,16.9-13.23,37.93-2.44,50.08,9.55,10.75,31.35,12.19,66.64,4.39,96.42-21.32,176.56,19.49,177.36,19.91l1.17.6,1.17-.6c.79-.42,80.93-41.23,177.35-19.91,35.29,7.79,57.09,6.36,66.64-4.39,10.79-12.15,3.46-33.18-2.44-50.08-1.55-4.45-3.02-8.65-4.06-12.37ZM435.04,243.68c-91.89-20.31-169.28,14.79-179.62,19.79-8.06-3.9-56.81-26.06-121.41-26.06-18.32,0-37.91,1.78-58.21,6.27-32.88,7.27-53.66,6.32-61.76-2.81-8.82-9.92-2.02-29.39,3.44-45.04,1.58-4.53,3.07-8.81,4.15-12.68,6.98-24.97,4.19-40.94-8.55-48.58,12.74-7.64,15.53-23.6,8.55-48.58-1.08-3.87-2.57-8.15-4.15-12.67-5.46-15.65-12.26-35.13-3.44-45.05,8.1-9.13,28.88-10.07,61.76-2.81,20.3,4.49,39.89,6.27,58.21,6.27,64.59,0,113.35-22.16,121.41-26.05,10.34,5,87.73,40.09,179.62,19.78,32.87-7.26,53.65-6.32,61.76,2.81,8.81,9.92,2.02,29.4-3.44,45.05-1.58,4.52-3.08,8.8-4.16,12.67-6.98,24.98-4.19,40.94,8.56,48.58-12.75,7.64-15.54,23.61-8.56,48.58,1.08,3.87,2.58,8.15,4.16,12.68,5.46,15.65,12.25,35.12,3.44,45.04-8.11,9.13-28.89,10.07-61.76,2.81Z"/>
      </g>
      <g>
        <path class="cls-1" d="M486.77,198.12c4.45,12.72,10.53,30.16,5.37,37.43-3.52,4.95-13.14,5.99-20.6,5.99-9.2,0-20.98-1.57-35-4.66-19.5-4.31-39.74-6.5-60.15-6.5-60.99,0-107.69,19.25-120.97,25.36-13.29-6.11-59.98-25.36-120.98-25.36-20.4,0-40.64,2.19-60.14,6.5-14.02,3.09-25.8,4.66-35.02,4.66-7.45,0-17.07-1.03-20.59-5.99-5.16-7.26.92-24.69,5.36-37.43,1.62-4.63,3.15-9.01,4.29-13.09,6.44-23.04,4.98-40.01-4.33-50.46,9.31-10.45,10.77-27.42,4.33-50.45-1.14-4.08-2.66-8.44-4.28-13.09-4.44-12.73-10.53-30.17-5.36-37.44,3.52-4.95,13.13-5.99,20.58-5.99,9.21,0,21,1.57,35.02,4.67,19.5,4.31,39.74,6.49,60.14,6.49,61,0,107.69-19.24,120.98-25.36,13.28,6.12,59.98,25.36,120.97,25.36,20.41,0,40.65-2.18,60.15-6.49,14.02-3.1,25.8-4.67,35.02-4.67,7.45,0,17.07,1.04,20.58,5.99,5.16,7.26-.92,24.69-5.37,37.46-1.62,4.63-3.14,8.99-4.28,13.07-6.44,23.03-4.98,40,4.33,50.45-9.31,10.45-10.77,27.42-4.33,50.46,1.14,4.07,2.67,8.45,4.28,13.09Z"/>
        <g class="cls-4">
          <polygon class="cls-2" points="-105.16 260.93 538.88 122.25 518.8 346.98 -105.16 260.93"/>
          <rect class="cls-2" x="-117.32" y="178.4" width="658.8" height="9" transform="translate(-33.75 48.74) rotate(-12.15)"/>
        </g>
      </g>
      <path class="cls-3" d="M483.71,184.69c-6.4-22.9-4.91-39.62,4.43-49.69l.4-.43-.4-.43c-9.34-10.07-10.83-26.78-4.43-49.68,1.13-4.04,2.65-8.39,4.27-13.03,4.53-12.99,10.73-30.77,5.19-38.57-3.83-5.4-13.87-6.53-21.61-6.53-9.31,0-21.19,1.58-35.29,4.7-19.42,4.29-39.56,6.46-59.88,6.46-61.15,0-107.85-19.41-120.71-25.36l-.26-.13-.27.13c-12.85,5.95-59.55,25.36-120.71,25.36-20.31,0-40.46-2.17-59.87-6.46-14.11-3.12-25.98-4.7-35.29-4.7-7.75,0-17.78,1.13-21.61,6.52-5.55,7.81.66,25.6,5.21,38.63,1.6,4.6,3.11,8.94,4.24,12.98,6.4,22.9,4.91,39.61-4.43,49.68l-.4.43.4.43c9.34,10.07,10.83,26.79,4.43,49.69-1.13,4.04-2.65,8.4-4.27,13.03-4.52,12.98-10.73,30.77-5.19,38.57,3.83,5.39,13.87,6.52,21.62,6.52,9.31,0,21.18-1.58,35.29-4.7,19.41-4.29,39.56-6.46,59.87-6.46,61.15,0,107.85,19.42,120.71,25.37l.27.12.26-.12c12.86-5.95,59.56-25.37,120.71-25.37,20.32,0,40.46,2.17,59.88,6.46,14.11,3.12,25.97,4.7,35.28,4.7,7.75,0,17.79-1.13,21.62-6.53,5.54-7.8-.67-25.59-5.2-38.59-1.61-4.61-3.13-8.96-4.26-13ZM39.28,241.54c-7.45,0-17.07-1.03-20.59-5.99-5.16-7.26.92-24.69,5.36-37.43,1.62-4.63,3.15-9.01,4.29-13.09,6.44-23.04,4.98-40.01-4.33-50.46,9.31-10.45,10.77-27.42,4.33-50.45-1.14-4.08-2.66-8.44-4.28-13.09-4.44-12.73-10.53-30.17-5.36-37.44,3.52-4.95,13.13-5.99,20.58-5.99,9.21,0,21,1.57,35.02,4.67,19.5,4.31,39.74,6.49,60.14,6.49,61,0,107.69-19.24,120.98-25.36,13.28,6.12,59.98,25.36,120.97,25.36,20.41,0,40.65-2.18,60.15-6.49,14.02-3.1,25.8-4.67,35.02-4.67,7.45,0,17.07,1.04,20.58,5.99,5.16,7.26-.92,24.69-5.37,37.46-1.62,4.63-3.14,8.99-4.28,13.07-6.44,23.03-4.98,40,4.33,50.45-9.31,10.45-10.77,27.42-4.33,50.46,1.14,4.07,2.67,8.45,4.28,13.09,4.45,12.72,10.53,30.16,5.37,37.43-3.52,4.95-13.14,5.99-20.6,5.99-9.2,0-20.98-1.57-35-4.66-19.5-4.31-39.74-6.5-60.15-6.5-60.99,0-107.69,19.25-120.97,25.36-13.29-6.11-59.98-25.36-120.98-25.36-20.4,0-40.64,2.19-60.14,6.5-14.02,3.09-25.8,4.66-35.02,4.66Z"/>
      <g>
        <g>
          <path class="cls-3" d="M110.18,184.2c-9.58,9.93-22.77,7.47-22.77,7.47,10.39-8.17,16.82-19.15,19.15-30.36-6.89.12-7.47,1.87-8.88,1.87-2.69,0-6.19-10.28-4.2-10.28,3.62,0,7.13,2.45,14.25,2.45h2.45v-1.87c0-4.67-1.52-7.71-2.34-9.81h-3.62c-8.06,0-8.52,1.87-10.04,1.87-2.69,0-6.19-10.16-4.2-10.16,3.62,0,7.12,2.45,14.25,2.45h8.99c5.14-6.19,6.89-13.43,7.83-19.97l.35-1.87h-13.66c-8.06,0-8.53,1.87-10.04,1.87-2.69,0-6.19-10.16-4.2-10.16,3.62,0,7.13,2.45,14.25,2.45h2.45v-3.74c0-7.47-4.09-10.86-2.45-12.73,2.22-2.57,19.85,3.27,19.85,6.77,0,1.99-2.69,2.69-2.69,5.96v3.74h.35c5.72,0,7.12-7.01,10.39-7.01,2.8,0,7.83,7.94,7.83,10.28s-3.5,2.57-5.96,2.57h-8.53c5.49,1.87,10.04,4.9,9.58,7.47-.35,1.52-1.99,2.1-3.15,2.1-1.05-.12-1.63.47-2.1,1.4-2.1,3.62-5.49,8.06-10.86,10.86h6.3c5.72,0,7.13-7.01,10.4-7.01,2.8,0,7.83,7.94,7.83,10.16,0,2.34-3.5,2.69-5.96,2.69h-17.87c2.57,1.29,4.44,2.69,4.44,3.86,0,1.98-2.69,2.57-2.69,5.96v1.87h.35c5.72,0,7.12-6.89,10.39-6.89,2.8,0,7.83,7.94,7.83,10.16s-3.5,2.57-5.96,2.57h-12.61v.93c7.59.58,12.96,5.02,13.9,9.69,1.05,4.9-2.57,11.1-7.59,10.63-2.57-.23-3.5-4.44-4.32-8.76-.35-2.45-1.05-4.32-1.99-6.07v23.13c0,4.32-6.66,5.72-11.1,5.72-1.75,0-3.27-.23-3.62-.58-1.52-1.05,0-2.33,0-7.94v-3.74ZM103.87,128.84c-.58-4.79-2.34-7.36-5.61-9.11,8.41-2.34,17.29,2.1,17.63,7.59.35,4.67-2.8,9.69-8.29,8.99-2.34-.35-3.27-3.5-3.74-7.47ZM194.96,139.59c0,2.22-3.5,2.57-5.96,2.57h-4.32c.58.58.93,1.17.93,1.63,0,1.98-2.8,2.69-2.8,5.96v37.49c0,4.32-6.54,5.72-10.98,5.72-1.87,0-3.27-.23-3.74-.47-1.4-1.05,0-2.45,0-8.06v-34.69c0-3.15-.7-5.61-1.4-7.59h-3.62c-1.63,16.82-7.47,39.12-27.45,41.57,10.51-12.61,13.31-33.63,13.31-54.54,0-7.48-3.97-10.86-2.33-12.73,1.05-1.28,5.84-.47,10.51,1.05,5.37-2.69,9.93-6.77,14.01-12.14,1.28-1.63,1.75-2.92,4.32-1.87,7.24,2.57,13.66,9.11,12.61,11.91-.82,2.1-4.09,1.17-5.49,2.34-3.62,2.8-9.69,5.49-16.23,6.19-.58,1.52-2.69,2.45-2.69,5.26,0,1.99,0,4.44-.12,7.13h13.08c5.84,0,7.24-6.89,10.4-6.89,2.92,0,7.94,7.94,7.94,10.16Z"/>
          <path class="cls-3" d="M312.11,106.07c0,3.39-2.33,4.2-2.33,7.94,0,5.14-1.05,17.17-2.8,24.53-2.1,8.41-5.72,13.2-13.66,13.2-3.04,0-3.97-1.52-4.09-3.39-.35-4.79-1.28-5.84-4.9-7.47-2.92,4.2-6.77,7.59-11.8,9.23,5.26,1.75,10.63,4.67,10.51,6.66,0,1.75-1.87,2.45-2.69,4.9h4.09c5.84,0,7.24-7.01,10.4-7.01,2.92,0,7.94,7.94,7.94,10.16s-3.5,2.69-5.96,2.69h-17.63c5.14,8.29,16.82,12.15,28.38,12.96,0,0-3.97,2.45-7.94,7.83-3.97,5.37-3.5,8.06-6.07,8.17-1.98,0-13.08-6.07-17.87-19.39-6.66,14.01-18.8,20.9-34.33,17.63,12.61-6.66,19.97-14.6,23.01-27.21h-3.74c-8.06,0-8.53,1.87-9.93,1.87-2.8,0-6.19-10.16-4.2-10.16,3.5,0,7.12,2.45,14.13,2.45h4.79c.7-7.36-3.5-10.74-1.87-12.61.7-.7,2.57-.7,4.9-.12,7.59-7.94,11.33-20.32,12.61-35.04.12-2.22,0-3.97-.23-5.49-2.33.35-3.39.93-4.09,1.29.7,1.28,1.05,2.45,1.05,3.15,0,2.22-3.39,2.57-5.96,2.57h-8.64v9.23c2.1-2.1,3.15-5.61,4.91-5.61,2.1,0,5.96,7.94,5.96,10.16s-2.69,2.69-4.56,2.69h-6.31v5.49c4.32-1.4,8.88-3.15,13.55-5.49-5.49,13.2-12.5,17.87-26.74,22.07-1.05.35-1.63,1.05-1.63,2.1-.12,1.28-.82,2.92-2.34,3.15-2.8.23-5.72-5.02-7.12-10.98v13.43c0,4.32-6.07,5.72-10.04,5.72-1.63,0-3.04-.23-3.39-.58-.82-.58-.58-1.4-.35-3.27h-5.49v6.3c0,4.32-6.07,5.72-10.04,5.72-1.63,0-3.04-.23-3.39-.58-1.29-.93,0-2.33,0-7.94v-42.86c0-7.59-3.62-10.86-2.1-12.85,1.63-2.1,12.73,1.4,16.58,4.79h.23c5.37,0,6.54-7.01,9.46-7.01,2.57,0,10.98,7.82,10.98,10.74,0,3.5-2.45,3.39-2.45,7.94v13.2c.58-.12,1.4-.12,2.57-.23,2.92-.12,5.84-.23,8.76-.7v-7.94c-3.39.58-3.85,1.63-5.02,1.63-2.69,0-6.19-10.16-4.2-10.16,2.69,0,5.26,1.28,9.23,1.99v-10.16c-6.66.23-7.12,1.87-8.53,1.87-2.69,0-6.19-10.16-4.2-10.16,3.27,0,6.66,2.1,12.73,2.45v-3.15c0-7.47-3.5-10.86-2.1-12.73,1.99-2.57,17.52,3.27,17.52,6.77,0,1.99-2.45,2.69-2.45,5.96v1.98c3.04-1.98,4.32-5.84,6.77-5.84.35,0,.82.23,1.4.47-.47-1.75-.58-3.27.23-3.27,3.5,0,7.13,2.45,14.13,2.45h7.24c4.9,0,6.07-7.01,8.88-7.01,2.45,0,10.28,7.82,10.28,10.86ZM225.46,157.69v-35.74h-5.37c-.35.58-.47,1.28-.47,2.22v33.52h5.84ZM297.16,108.05h-3.74c1.52,1.17,2.45,2.33,2.33,3.03-.23,1.63-2.57,1.87-2.92,4.56-.93,7.12-3.04,15.65-6.89,22.54,5.96,1.05,7.94-.23,9.46-5.37,1.99-7.12,2.1-21.02,1.75-24.76Z"/>
          <path class="cls-3" d="M365.49,122.54c-2.33,1.63-6.19,2.22-9.11,2.22-1.75,0-3.27-.23-3.62-.58-1.52-.93,0-2.33,0-7.94v-2.8h-10.51c-8.06,0-8.53,1.87-10.04,1.87-2.69,0-6.19-10.16-4.2-10.16,3.5,0,7.12,2.45,14.25,2.45h10.39c-.35-6.77-3.85-9.81-2.33-11.56,2.22-2.57,19.85,3.27,19.85,6.77,0,1.75-1.99,2.45-2.57,4.79h14.13v-1.17c0-7.47-3.97-10.86-2.45-12.73,2.22-2.57,19.97,3.27,19.97,6.77,0,1.99-2.8,2.69-2.8,5.96v1.17h7.01c5.84,0,7.13-7.01,10.4-7.01,2.8,0,7.83,7.94,7.83,10.16s-3.39,2.69-5.96,2.69h-19.27v5.6c0,4.32-6.66,5.72-10.98,5.72-1.4,0-2.45-.12-3.15-.23-.23.7-.82,1.05-1.4,1.52,6.54,7.47,24.06,14.13,42.28,14.13,0,0-3.97,2.22-8.06,7.59-4.09,5.26-3.85,8.41-6.31,7.94-13.2-3.04-25.34-12.5-31.06-25.11-2.22,4.09-5.02,7.71-8.29,10.98,5.96.93,15.18,4.67,15.18,7.24,0,1.99-2.69,2.69-2.69,5.96v3.97h3.97c5.72,0,7.12-7.01,10.39-7.01,2.8,0,7.83,7.94,7.83,10.28s-3.5,2.57-5.96,2.57h-16.23v26.16c0,4.32-6.66,5.72-11.1,5.72-1.75,0-3.27-.23-3.62-.58-1.4-1.05,0-2.33,0-7.94v-23.36h-7.47c-8.06,0-8.53,1.87-10.04,1.87-2.69,0-6.19-10.16-4.2-10.16,3.62,0,7.12,2.45,14.25,2.45h7.47v-3.97c0-4.32-1.29-7.24-2.1-9.34-11.8,9.46-27.1,13.78-39.24,8.87,17.29-5.49,35.39-19.15,39.59-31.77ZM350.2,169.6c7.24,2.33,14.95,7.59,13.9,10.98-.47,1.52-2.34,1.98-3.62,1.75-1.05-.12-1.75.35-2.45,1.28-4.32,7.01-12.85,11.8-24.76,7.83,7.71-5.37,10.86-9.93,13.2-18.92.7-2.8.47-3.97,3.74-2.92ZM367.48,113.43v1.87c3.04-.47,10.74,3.15,13.78,6.31.12-1.17.47-2.8.47-5.37v-2.8h-14.25ZM410.22,181.28c1.29,5.72-1.87,12.61-8.88,12.73-3.03,0-4.55-3.86-6.07-8.76-1.99-6.89-3.04-9.58-8.06-12.61,10.63-3.74,21.37,1.75,23.01,8.64Z"/>
        </g>
        <g>
          <path class="cls-3" d="M110.39,65.13c-.93.34-2.37.75-4.22,1-1.65.31-1.79,1.03-2.37,1.13-1.03.14-4.4-5.05-3.71-5.81.48-.55,2.68,1.37,5.53.96l.83-.1v-.72c-.04-.58-.1-1.75-.45-2.3-.31-.48-1-.65-1.68-.65,0,0-.48-.89,2.44-1.44,3.02-.62,4.29,1,4.5,2.1.1.65-.38.83-.48,2.2l.28-.07c.72-.93,1.13-1.24,2.47-.89,2.64.76,4.91,2.95,4.4,4.09-.31.69-1.58.38-1.86,1.31-.89,2.64-2.95,5.26-5.63,7.28.79.38,1.38.83,1.38,1.17,0,.58-.79.79-.79,1.75v.62c0,2.16.31,2.99.31,3.81,0,1.61-1.1,3.37-2.37,3.37-.76,0-2.58-.96-2.99-2.06-.52-1.31.69-2.13.69-5.12v-.62c0-.24,0-.48-.03-.69-3.27,1.48-6.91,1.99-10.24.86,8.25-2.47,12.95-7.49,14.02-11.16ZM118.98,73.47c.69,1.44.17,3.78-1.37,4.19-.76.21-1.58-.89-2.23-2.13-.82-1.65-1.89-2.4-3.81-2.78,3.26-1.99,6.49-1.2,7.42.72Z"/>
          <path class="cls-3" d="M182.12,68.29c.21-.55-.38-1.34-1.24-1.58,0,0,.17-1.34,3.37-.1,1.41.55,2.16,1.24,2.54,1.89v-2.95h-7.73c-2.37,0-2.51.55-2.95.55-.79,0-1.82-2.99-1.24-2.99,1.03,0,2.1.72,4.19.72h7.73v-1.03s.07-1.89-.45-2.68c-.31-.48-.96-.65-1.65-.62,0,0-.51-.89,2.44-1.48,3.02-.58,4.26,1.03,4.46,2.1.14.72-.48.86-.48,2.68v1.03h.52c1.72,0,2.1-2.06,3.06-2.06.82,0,2.3,2.34,2.3,2.99s-1,.79-1.75.79h-4.12v12.47c0,4.71-1.99,5.91-4.91,5.91-1.06,0-1.34-.45-1.41-1.03-.14-1.55-1.82-2.23-3.85-2.78l.21-.72c3.64.72,5.63.38,5.63-1.38v-6.97c-.34.41-1.1.24-1.68,1.51-2.06,4.4-8.42,8.04-13.84,6.15,6.05-2.16,9.38-6.15,10.85-10.41Z"/>
          <path class="cls-3" d="M268.82,64.71l-6.01.21.69,5.67,1.58-.14c1.72-.1,1.96-2.2,2.92-2.27.83-.03,2.47,2.16,2.54,2.85.03.65-1,.83-1.72.89l-5.12.34.38,3.23c.28,2.33.76,3.54.86,4.47.21,1.78-.62,3.81-1.92,3.98-.72.07-2.68-.75-3.23-1.92-.65-1.37.51-1.78.1-5.08l-.52-4.36-4.12.31c-2.37.17-2.47.72-2.89.76-.83.07-2.03-2.85-1.44-2.89,1.03-.07,2.13.59,4.19.41l4.05-.28-.69-5.84-3.92.14c-2.33.1-2.47.65-2.92.65-.79.03-1.89-2.92-1.34-2.92,1.07-.03,2.13.62,4.23.55l3.74-.14-.07-.38s-.17-1.89-.76-2.61c-.38-.41-1.06-.52-1.72-.41,0,0-.62-.82,2.23-1.75,2.92-.93,4.36.51,4.71,1.55.21.69-.38.89-.17,2.71l.1.76,2.54-.1c1.72-.03,2.03-2.13,2.99-2.13.83-.03,2.4,2.23,2.4,2.92.03.65-1,.79-1.72.82Z"/>
          <path class="cls-3" d="M328.87,70.45c-.28-1.61-.69-2.68-2.06-3.57,3.02-.28,5.39,1.37,5.46,3.16.07,1.31-1.1,2.95-2.41,2.78-.65-.1-.82-1.24-1-2.37ZM345.77,67.39c-.03.62-.55.58-.96,2.06-1.99,7.25-6.25,15.39-15.25,14.22,7.28-3.2,9.82-9.65,11.2-15.22.28-1.1.45-1.51.21-2.23-.14-.48-.65-.76-1.2-.86,0,0-.21-.86,2.27-.69,2.58.17,3.81,1.82,3.74,2.71ZM337.77,68.39c.07,1.34-1.1,2.95-2.4,2.78-.69-.07-.86-1.2-1.03-2.37-.24-1.58-.69-2.65-2.06-3.57,3.06-.28,5.39,1.41,5.5,3.16Z"/>
          <path class="cls-3" d="M405.82,65.33v-1.58c0-2.23-1.17-3.23-.69-3.78.65-.76,5.84.96,5.84,1.99,0,.59-.83.79-.83,1.79v1.48l4.71-.1c0-.79.04-1.55.04-2.34,0,0,.03-1.92-.45-2.68-.31-.48-1-.65-1.68-.62,0,0-.48-.89,2.44-1.48,3.02-.58,4.29,1.03,4.47,2.1.14.72-.45.83-.45,2.68,0,.72-.03,1.48-.03,2.2,1.48-.24,1.82-2.1,2.75-2.1.83-.03,2.37,2.27,2.37,2.92.04.69-1,.82-1.72.82l-3.47.1c-.48,9.41-3.02,17.18-12.4,17.18,6.42-3.92,7.8-10.24,8.11-17.07l-4.64.11c0,1.55.34,2.54.34,3.4,0,1.82-.83,3.3-2.13,3.3-.76,0-2.13-.89-2.54-2.1-.51-1.44-.03-1.24-.03-4.5l-1.34.03c-2.37.07-2.51.62-2.92.65-.82,0-1.89-2.95-1.3-2.99,1.03,0,2.1.69,4.19.62l1.38-.03Z"/>
        </g>
      </g>
    </g>
  </g>
</svg>