<?xml version="1.0" encoding="UTF-8"?>
<svg id="_レイヤー_2" data-name="レイヤー_2" xmlns="http://www.w3.org/2000/svg" viewBox="0 0 293.72 106.43">
  <defs>
    <style>
      .cls-1, .cls-2 {
        stroke-miterlimit: 10;
      }

      .cls-1, .cls-2, .cls-3 {
        stroke: #e5ff00;
      }

      .cls-1, .cls-3 {
        fill: #ff2f00;
      }

      .cls-2 {
        fill: #3b3d1b;
      }
    </style>
  </defs>
  <g id="_レイヤー_1-2" data-name="レイヤー_1">
    <g>
      <path class="cls-2" d="M293.16,28.18l-1.86,21.1c-.7,8.07-7.37,14.18-15.5,14.18h-26.74l-1.63,18.53c-.79,8-7.45,14.04-15.48,14.04h-19.67c-2.26,5.86-7.9,9.9-14.51,9.9h-11.69c-4.35,0-8.53-1.84-11.47-5.05-1.31-1.43-2.33-3.08-3.02-4.85h-41.61c-2.23,0-4.42-.48-6.42-1.39h-.01c-1.96.89-4.12,1.39-6.39,1.39h-44.14c-2.06,0-4.08-.41-5.95-1.19-1.85.77-3.88,1.19-6.01,1.19H16.06c-4.35,0-8.54-1.84-11.47-5.05-2.94-3.2-4.41-7.53-4.03-11.87l1.86-21.1c.71-8.08,7.37-14.19,15.5-14.19h19.01l.24-2.8c.7-8.09,7.36-14.21,15.5-14.21h11.68c1.42,0,2.81.19,4.15.56.01-.32.03-.64.06-.95l.12-1.16c.35-3.55,1.86-6.72,4.15-9.14l.11-1.39c.7-8.11,7.37-14.23,15.5-14.23h11.69c4.35,0,8.52,1.84,11.46,5.04,1.64,1.78,2.81,3.9,3.46,6.18,1.21-.3,2.48-.46,3.79-.46h45.01c2.05,0,4.08.41,5.94,1.19,1.85-.77,3.88-1.19,6.01-1.19h45.01c2.03,0,4.04.4,5.89,1.17,1.83-.76,3.84-1.17,5.95-1.17h45.01c4.35,0,8.54,1.84,11.47,5.05,2.94,3.2,4.41,7.53,4.03,11.87Z"/>
      <g>
        <path class="cls-3" d="M100.13,14.5h-11.69c-.81,0-1.48.62-1.55,1.42l-.68,7.91c-.07.8-.74,1.42-1.55,1.42h-.51c-.8,0-1.47.61-1.55,1.4l-.12,1.16c-.09.92.63,1.71,1.55,1.71h0c.91,0,1.63.78,1.55,1.69l-1.42,16.56c-.08.91.64,1.69,1.55,1.69h19.94c.81,0,1.48-.62,1.55-1.43l.1-1.16c.08-.91-.64-1.68-1.55-1.68h-4.87c-.91,0-1.63-.78-1.55-1.69l1.07-12.55c.07-.8.74-1.42,1.55-1.42h5.4c.81,0,1.48-.62,1.55-1.43l.1-1.16c.08-.91-.64-1.68-1.55-1.68h-4.87c-.91,0-1.63-.78-1.55-1.69l.63-7.38c.08-.91-.64-1.69-1.55-1.69Z"/>
        <path class="cls-3" d="M163.85,25.26h-45.01c-.8,0-1.48.61-1.55,1.41l-1.86,21.1c-.08.91.64,1.69,1.55,1.69h45.01c.81,0,1.48-.61,1.55-1.41l1.86-21.1c.08-.91-.64-1.69-1.55-1.69ZM149.11,43.77c-.07.81-.75,1.42-1.55,1.42h-15.39c-.92,0-1.63-.78-1.55-1.69l1.11-12.55c.07-.81.74-1.42,1.55-1.42h15.38c.92,0,1.63.78,1.55,1.69l-1.1,12.55Z"/>
        <path class="cls-3" d="M220.81,25.26h-45.01c-.8,0-1.48.61-1.55,1.41l-1.86,21.1c-.08.91.64,1.69,1.55,1.69h45.01c.81,0,1.48-.61,1.55-1.41l1.86-21.1c.08-.91-.64-1.69-1.55-1.69ZM206.07,43.77c-.07.81-.75,1.42-1.55,1.42h-15.39c-.91,0-1.63-.78-1.55-1.69l1.11-12.55c.07-.81.74-1.42,1.55-1.42h15.39c.91,0,1.62.78,1.54,1.69l-1.1,12.55Z"/>
        <path class="cls-3" d="M277.66,25.26h-45.01c-.8,0-1.47.61-1.55,1.41l-1.86,21.1c-.08.91.64,1.69,1.55,1.69h45.01c.81,0,1.48-.61,1.55-1.41l1.86-21.1c.08-.91-.63-1.69-1.55-1.69ZM262.92,43.77c-.07.81-.75,1.42-1.55,1.42h-15.39c-.91,0-1.63-.78-1.55-1.69l1.11-12.55c.07-.81.74-1.42,1.55-1.42h15.39c.91,0,1.63.78,1.55,1.69l-1.11,12.55Z"/>
        <path class="cls-3" d="M64.35,40.81h-11.68c-.81,0-1.48.61-1.55,1.42l-1.23,14.17c-.07.81-.74,1.42-1.55,1.42h-30.42c-.81,0-1.48.62-1.55,1.42l-1.86,21.1c-.08.91.63,1.69,1.55,1.69h45c.81,0,1.48-.62,1.55-1.42l3.29-38.12c.08-.9-.64-1.68-1.55-1.68ZM48.17,76.34c-.07.8-.74,1.42-1.55,1.42h-15.38c-.91,0-1.63-.78-1.55-1.69l1.11-12.56c.07-.8.74-1.42,1.55-1.42h15.35c.92,0,1.63.79,1.55,1.69l-1.08,12.56Z"/>
        <path class="cls-3" d="M119.82,57.82h-44.94c-.81,0-1.48.62-1.55,1.42l-1.86,21.1c-.08.91.63,1.69,1.55,1.69h44.14c.81,0,1.49-.62,1.55-1.43l.1-1.16c.08-.9-.64-1.68-1.55-1.68h-29.06c-.91,0-1.63-.78-1.55-1.69l.29-3.23c.07-.8.74-1.42,1.55-1.42h30.45c.81,0,1.49-.62,1.55-1.42l.88-10.49c.08-.91-.64-1.69-1.55-1.69ZM106.04,65.72c-.07.81-.74,1.43-1.55,1.43h-15.35c-.91,0-1.63-.78-1.55-1.69l.17-1.95c.07-.8.74-1.42,1.55-1.42h15.35c.91,0,1.62.78,1.55,1.69l-.17,1.94Z"/>
        <path class="cls-3" d="M176.78,57.82h-44.94c-.81,0-1.48.62-1.55,1.42l-1.86,21.1c-.08.91.63,1.69,1.55,1.69h44.14c.81,0,1.49-.62,1.55-1.43l.1-1.16c.08-.9-.64-1.68-1.55-1.68h-29.06c-.91,0-1.63-.78-1.55-1.69l.29-3.23c.07-.8.74-1.42,1.55-1.42h30.45c.81,0,1.49-.62,1.55-1.42l.88-10.49c.08-.91-.64-1.69-1.55-1.69ZM163,65.72c-.06.81-.74,1.43-1.55,1.43h-15.35c-.91,0-1.63-.78-1.55-1.69l.17-1.95c.07-.8.74-1.42,1.55-1.42h15.35c.91,0,1.62.78,1.55,1.69l-.17,1.94Z"/>
        <path class="cls-1" d="M233.81,57.82h-45.01c-.81,0-1.48.62-1.55,1.42l-1.9,21.71-.11,1.08h.01l-.72,8.21c-.08.91.64,1.69,1.55,1.69h11.69c.81,0,1.48-.62,1.55-1.42l.62-7.06c.07-.8.74-1.42,1.55-1.42h30.46c.8,0,1.47-.61,1.55-1.42l1.87-21.24c0-.85-.69-1.55-1.56-1.55ZM217.51,77.76h-15.38c-.91,0-1.63-.78-1.55-1.69l1.11-12.56c.07-.8.74-1.42,1.54-1.42h15.39c.43,0,.82.18,1.1.46.14.13.26.3.34.49h0c.09.24.13.49.11.75l-.61,6.88-.5,5.67c-.07.8-.74,1.42-1.55,1.42Z"/>
      </g>
    </g>
  </g>
</svg>