<?xml version="1.0" encoding="UTF-8"?>
<svg id="_レイヤー_2" data-name="レイヤー_2" xmlns="http://www.w3.org/2000/svg" xmlns:xlink="http://www.w3.org/1999/xlink" viewBox="0 0 475.25 216.84">
  <defs>
    <style>
      .cls-1 {
        fill: #6695ff;
      }

      .cls-2 {
        fill: #00ff95;
      }

      .cls-3 {
        fill: #fff;
      }

      .cls-4 {
        fill: none;
      }

      .cls-5 {
        clip-path: url(#clippath-1);
      }

      .cls-6 {
        fill: #003bff;
      }

      .cls-7 {
        clip-path: url(#clippath);
      }
    </style>
    <clipPath id="clippath">
      <path class="cls-4" d="M465.43,137.46c.57-11.12.01-22.42.02-33.56,0-14,.01-28,.02-42,0-11.76,2.61-27.2-1.76-38.35-4.14-10.5-14.99-17.55-27-17.55-3.9,0-7.71.72-11.33,2.14l-.16.06c-9.83,3.96-16.21,12.36-17.51,21.65-20.02,5.87-42.75,8.84-67.84,8.84h-.61c-30.36,0-60.64-3.72-92.69-7.67l-6.46-.79-.26-.02-.19-.02c-.49-.06-.99-.12-1.49-.17l-4.73-.55c-28.05-3.28-57.05-6.67-86.75-6.67-5.33,0-10.62.11-15.61.33-19.29.75-38.12,3.16-55.99,7.16l-.21.05c-19.4,4.57-37.45,11.52-53.64,20.66C1.01,62.39,6.75,88.93,6.74,108.44c0,14.03-.01,28.06-.02,42.09,0,7.17,0,14.34,0,21.51,0,6.22-.62,12.57,1.8,18.46,4.2,10.38,14.99,17.34,26.9,17.34,3.97,0,7.85-.75,11.52-2.23,9.85-3.97,16.23-12.37,17.52-21.65,19.95-5.83,42.69-8.78,67.82-8.78h.61c30.35,0,60.62,3.72,92.67,7.66l6.47.79.25.02.19.02c.5.07,1.01.13,1.52.18l4.69.55c28.05,3.28,57.06,6.67,86.77,6.67,5.34,0,10.62-.11,15.62-.33,19.28-.75,38.12-3.16,55.99-7.16,0,0,.21-.05.21-.05,12.13-2.79,23.82-7.18,35.18-12.24,7.55-3.37,17.53-6.85,24.02-12,6.53-5.18,8.54-13.88,8.95-21.85Z"/>
    </clipPath>
    <clipPath id="clippath-1">
      <rect class="cls-4" x="-41.54" y="1.78" width="546.83" height="217.09" rx="24.6" ry="24.6"/>
    </clipPath>
  </defs>
  <g id="_レイヤー_1-2" data-name="レイヤー_1">
    <g>
      <g>
        <path class="cls-6" d="M465.43,137.46c.57-11.12.01-22.42.02-33.56,0-14,.01-28,.02-42,0-11.76,2.61-27.2-1.76-38.35-4.14-10.5-14.99-17.55-27-17.55-3.9,0-7.71.72-11.33,2.14l-.16.06c-9.83,3.96-16.21,12.36-17.51,21.65-20.02,5.87-42.75,8.84-67.84,8.84h-.61c-30.36,0-60.64-3.72-92.69-7.67l-6.46-.79-.26-.02-.19-.02c-.49-.06-.99-.12-1.49-.17l-4.73-.55c-28.05-3.28-57.05-6.67-86.75-6.67-5.33,0-10.62.11-15.61.33-19.29.75-38.12,3.16-55.99,7.16l-.21.05c-19.4,4.57-37.45,11.52-53.64,20.66C1.01,62.39,6.75,88.93,6.74,108.44c0,14.03-.01,28.06-.02,42.09,0,7.17,0,14.34,0,21.51,0,6.22-.62,12.57,1.8,18.46,4.2,10.38,14.99,17.34,26.9,17.34,3.97,0,7.85-.75,11.52-2.23,9.85-3.97,16.23-12.37,17.52-21.65,19.95-5.83,42.69-8.78,67.82-8.78h.61c30.35,0,60.62,3.72,92.67,7.66l6.47.79.25.02.19.02c.5.07,1.01.13,1.52.18l4.69.55c28.05,3.28,57.06,6.67,86.77,6.67,5.34,0,10.62-.11,15.62-.33,19.28-.75,38.12-3.16,55.99-7.16,0,0,.21-.05.21-.05,12.13-2.79,23.82-7.18,35.18-12.24,7.55-3.37,17.53-6.85,24.02-12,6.53-5.18,8.54-13.88,8.95-21.85Z"/>
        <path class="cls-1" d="M439.71,9c12.02,0,22.87,7.05,27,17.55,4.37,11.15,1.76,26.59,1.76,38.35,0,14-.02,28-.02,42,0,11.14.55,22.44-.02,33.56-.41,7.97-2.42,16.67-8.95,21.85-6.49,5.15-16.46,8.63-24.02,12-11.35,5.06-23.05,9.45-35.18,12.24,0,0-.21.05-.21.05-17.87,4-36.71,6.41-55.99,7.16-4.99.22-10.28.33-15.62.33-29.71,0-58.72-3.39-86.77-6.67l-4.69-.55c-.52-.05-1.02-.11-1.52-.18l-.19-.02-.25-.02-6.47-.79c-32.05-3.94-62.32-7.66-92.67-7.66h-.61c-25.13,0-47.87,2.95-67.82,8.78-1.29,9.28-7.67,17.68-17.52,21.65-3.67,1.48-7.54,2.23-11.52,2.23-11.91,0-22.71-6.96-26.9-17.34-2.42-5.89-1.8-12.23-1.8-18.46,0-7.17,0-14.34,0-21.51,0-14.03.02-28.06.02-42.09,0-19.52-5.73-46.05,14.49-57.46,16.19-9.14,34.23-16.09,53.64-20.66l.21-.05c17.87-4,36.71-6.41,55.99-7.16,5-.22,10.28-.33,15.61-.33,29.7,0,58.7,3.39,86.75,6.67l4.73.55c.51.05,1,.11,1.49.17l.19.02.26.02,6.46.79c32.05,3.94,62.33,7.67,92.69,7.67h.61c25.08,0,47.82-2.97,67.84-8.84,1.3-9.29,7.68-17.69,17.51-21.65l.16-.06c3.62-1.42,7.43-2.14,11.33-2.14M439.71,3c-4.65,0-9.2.86-13.52,2.55h-.02s-.02.02-.02.02l-.16.06c-10.14,4.08-17.67,12.47-20.39,22.43-18.62,5.06-39.7,7.62-62.71,7.62h-.62c-29.97,0-60.07-3.7-91.93-7.62l-6.49-.8-.12-.02h-.12s-.13-.02-.13-.02h-.05c-.52-.07-1.06-.14-1.61-.19l-4.67-.55c-28.21-3.3-57.39-6.71-87.45-6.71-5.42,0-10.76.11-15.87.33-19.62.76-38.82,3.22-57.04,7.3h-.03s-.03.01-.03.01l-.21.05c-19.96,4.7-38.54,11.86-55.23,21.28C1.41,59.97,2.51,82.64,3.39,100.86c.18,3.74.35,7.28.35,10.58,0,9.37,0,18.74-.01,28.11v13.98s-.01,10.76-.01,10.76v10.76c0,1.02-.02,2.03-.04,3.05-.09,5.46-.2,11.65,2.29,17.69,5.09,12.58,18.13,21.05,32.45,21.05,4.74,0,9.37-.9,13.76-2.66,10.15-4.09,17.68-12.47,20.41-22.42,18.56-5.03,39.63-7.57,62.69-7.57h.61c29.99,0,60.08,3.7,91.94,7.62l6.47.79h.11s.11.02.11.02h.13s.07.02.07.02c.52.07,1.07.13,1.64.19l4.63.54c28.23,3.3,57.41,6.71,87.47,6.71,5.42,0,10.76-.11,15.88-.33,19.47-.76,38.52-3.18,56.61-7.2h.02l.65-.15h0s.02,0,.02,0c11.27-2.6,22.8-6.6,36.27-12.61,1.63-.73,3.38-1.46,5.24-2.24,6.74-2.83,14.38-6.03,20.07-10.54,6.82-5.41,10.6-14.24,11.21-26.24.39-7.62.27-15.34.14-22.8-.06-3.64-.12-7.41-.12-11.06l.02-42c0-2.93.18-6.15.36-9.55.55-10.1,1.17-21.55-2.53-30.99-5.04-12.78-18.13-21.36-32.59-21.36h0Z"/>
        <path class="cls-2" d="M436.71,6c12.02,0,22.87,7.05,27,17.55,4.37,11.15,1.76,26.59,1.76,38.35,0,14-.02,28-.02,42,0,11.14.55,22.44-.02,33.56-.41,7.97-2.42,16.67-8.95,21.85-6.49,5.15-16.46,8.63-24.02,12-11.35,5.06-23.05,9.45-35.18,12.24,0,0-.21.05-.21.05-17.87,4-36.71,6.41-55.99,7.16-4.99.22-10.28.33-15.62.33-29.71,0-58.72-3.39-86.77-6.67l-4.69-.55c-.52-.05-1.02-.11-1.52-.18l-.19-.02-.25-.02-6.47-.79c-32.05-3.94-62.32-7.66-92.67-7.66h-.61c-25.13,0-47.87,2.95-67.82,8.78-1.29,9.28-7.67,17.68-17.52,21.65-3.67,1.48-7.54,2.23-11.52,2.23-11.91,0-22.71-6.96-26.9-17.34-2.42-5.89-1.8-12.23-1.8-18.46,0-7.17,0-14.34,0-21.51,0-14.03.02-28.06.02-42.09,0-19.52-5.73-46.05,14.49-57.46,16.19-9.14,34.23-16.09,53.64-20.66l.21-.05c17.87-4,36.71-6.41,55.99-7.16,5-.22,10.28-.33,15.61-.33,29.7,0,58.7,3.39,86.75,6.67l4.73.55c.51.05,1,.11,1.49.17l.19.02.26.02,6.46.79c32.05,3.94,62.33,7.67,92.69,7.67h.61c25.08,0,47.82-2.97,67.84-8.84,1.3-9.29,7.68-17.69,17.51-21.65l.16-.06c3.62-1.42,7.43-2.14,11.33-2.14M436.71,0c-4.65,0-9.2.86-13.52,2.55h-.02s-.02.02-.02.02l-.16.06c-10.14,4.08-17.67,12.47-20.39,22.43-18.62,5.06-39.7,7.62-62.71,7.62h-.62c-29.97,0-60.07-3.7-91.93-7.62l-6.49-.8-.12-.02h-.12s-.13-.02-.13-.02h-.05c-.52-.07-1.06-.14-1.61-.19l-4.67-.55c-28.21-3.3-57.39-6.71-87.45-6.71-5.42,0-10.76.11-15.87.33-19.62.76-38.82,3.22-57.04,7.3h-.03s-.03.01-.03.01l-.21.05c-19.96,4.7-38.54,11.86-55.23,21.28C-1.59,56.97-.49,79.64.39,97.86c.18,3.74.35,7.28.35,10.58,0,9.37,0,18.74-.01,28.11v13.98s-.01,10.76-.01,10.76v10.76c0,1.02-.02,2.03-.04,3.05-.09,5.46-.2,11.65,2.29,17.69,5.09,12.58,18.13,21.05,32.45,21.05,4.74,0,9.37-.9,13.76-2.66,10.15-4.09,17.68-12.47,20.41-22.42,18.56-5.03,39.63-7.57,62.69-7.57h.61c29.99,0,60.08,3.7,91.94,7.62l6.47.79h.11s.11.02.11.02h.13s.07.02.07.02c.52.07,1.07.13,1.64.19l4.63.54c28.23,3.3,57.41,6.71,87.47,6.71,5.42,0,10.76-.11,15.88-.33,19.47-.76,38.52-3.18,56.61-7.2h.02l.65-.15h0s.02,0,.02,0c11.27-2.6,22.8-6.6,36.27-12.61,1.63-.73,3.38-1.46,5.24-2.24,6.74-2.83,14.38-6.03,20.07-10.54,6.82-5.41,10.6-14.24,11.21-26.24.39-7.62.27-15.34.14-22.8-.06-3.64-.12-7.41-.12-11.06l.02-42c0-2.93.18-6.15.36-9.55.55-10.1,1.17-21.55-2.53-30.99-5.04-12.78-18.13-21.36-32.59-21.36h0Z"/>
      </g>
      <g class="cls-7">
        <g class="cls-5">
          <g>
            <path class="cls-1" d="M271.9,128.39c.81,1.12,1.63,2.24,2.44,3.37.3.42.82.85.84,1.3.1,2.36.32,4.76,0,7.08-.16,1.14-1.31,2.2-2.16,3.17-1.27,1.44-2.97,1.9-4.87,1.78-.3-.02-.8.27-.88.52-.08.26.2.67.4.97.13.2.49.28.58.49,1.04,2.5,2.86,4.73,2.15,7.78-.33,1.41-2.59,4.18-3.69,5.06-1.96,1.57-4.17,2.08-6.26,1.34-1.93-.68-3.88-1.47-5.23-3.69-1.29-2.12-1.51-4.07-1.25-6.22.12-.98,1.14-1.82,1.46-2.82.41-1.27,1.21-1.65,2.37-2.14,1.3-.55,2.28-1.83,3.93-1.63.05,0,.39-.95.24-1.09-.82-.8-1.89-1.37-2.58-2.25-.45-.58-.36-1.57-.6-2.35-.25-.8-.41-2-.96-2.25-.7-.31-2.02-.38-2.22,1.12-.02.17-.53.27-.82.4-.98.42-1.94.86-2.94,1.24-.35.13-.84.27-1.14.13-1.79-.83-3.96-.79-5.37-2.53-.65-.8-1.7-1.28-2.35-2.08-.44-.54-.44-1.41-.76-2.08-.24-.51-.6-1.24-1.02-1.33-.68-.15-1.53-.01-2.16.3-1.82.91-3.56,1.98-5.33,2.99-.4.23-.78.5-1.17.74.28.34.6.67.84,1.04.25.39.58.82.6,1.25.09,2.17-.04,4.36.17,6.52.18,1.82-1.26,2.72-2.14,3.6-2.92,2.92-6.73,1.84-10.27,1.53-.79-.07-1.84-.89-2.16-1.63-.61-1.4-2.46-2.22-1.94-4.2.14-.51-.34-1.18-.63-2.07-3.27,4.42-7.64,3.41-11.8,3.04-.62-.06-1.38-.81-1.7-1.44-.69-1.35-2.59-1.89-2.36-3.88.18-1.56.14-3.17-.01-4.74-.23-2.37,1.5-3.36,2.75-4.89,1.35-1.66,2.88-1.25,4.41-1.58.39-.08.74-.37,1.11-.57-.26-.31-.56-.59-.78-.93-.88-1.38-1.73-2.77-2.59-4.16-.72-1.17-1.44-2.34-2.27-3.69-.8.82-1.59,1.74-2.51,2.51-.4.34-1.1.29-1.58.55-.56.31-1.41.72-1.46,1.17-.08.64.44,1.36.73,2.03.18.44.56.86.58,1.3.08,2.44.26,4.9,0,7.3-.11,1.02-1.1,2.08-1.93,2.86-3.02,2.82-6.73,2.06-10.26,1.56-.94-.13-1.86-1.18-2.59-1.99-2.69-2.96-1.72-6.61-1.56-10.03.04-.87,1.04-1.89,1.85-2.49,1.34-.99,2.89-1.68,4.67-2.68,0,.07.13-.37-.02-.67-1.03-2.08-2.07-4.15-3.24-6.15-.15-.26-1.53-.14-1.54-.1-.17,1.43-1.33,1.13-2.14,1.18-1.7.1-3.42-.06-5.12.08-2.25.17-3.18-1.42-4.54-2.75-3.01-2.95-1.21-6.43-1.38-9.66-.04-.83,1.19-1.83,1.99-2.6,3-2.87,6.72-1.74,10.18-1.55.91.05,1.67,1.57,2.63,2.21,2.08,1.4,1.55,3.68,1.97,5.76,1.11-.14,2.47.87,2.85-1.07.03-.13.26-.28.42-.33,1.75-.54,3.53-1,5.25-1.63.34-.12.75-1.07.6-1.32-.42-.69-1.01-1.46-1.72-1.77-2.22-.96-1.32-3.32-2.3-4.89-.89-1.42,2.35-5.82,3.56-7.17,1.57-1.74,4.05-1.27,5.43-2.94.29-.35.52-1.22.33-1.44-.8-.9-1.9-1.54-2.63-2.49-.46-.6-.51-1.56-.66-2.37-.21-1.16-.35-2.34-.73-3.5-1.54,3.42-4.27,4.49-7.6,4.67-.54.03-1.07.44-1.6.67.36.35.88.64,1.05,1.06.55,1.38,2.4,1.88,2.31,3.7-.09,1.84-.19,3.72.05,5.54.27,2.06-1.47,2.74-2.4,3.82-2.52,2.9-6.11,1.76-9.28,1.72-1.04-.01-2.16-1.27-3.07-2.15-2.7-2.63-2.13-6.02-1.67-9.2.18-1.24,1.5-2.32,2.34-3.45,1.84-2.47,4.55-1.7,7-1.86.61-.04,1.23-.14,1.8-.2,0-.37.04-.59,0-.61-1.64-.64-2.45-1.88-3.51-3.3-1.43-1.92-1.48-3.83-.99-5.36.64-2.01,1.02-4.41,3.75-5.53,1.67-.68,3.17-1.51,4.94-1.24,2.67.4,4.94,1.15,6.34,4.07.6,1.25,1.11,2.39,1.34,3.73.04.22.42.51.67.53.26.03.78-.25.78-.37-.12-1.89,1.84-1.67,2.69-2.57,1.3-1.38,7.21-.38,8.85.63,4.07,2.5,3.66,6.32,3.29,10.13-.22,2.18-3.66,5.07-5.94,5.2-1.51.09-3.03.07-4.54.18-.35.03-.67.43-1,.65.32.24.66.71.95.68,2.25-.23,2.9,1.79,4.3,2.76,1.4.98,1.35,2.06,1.54,3.34.05.32.58.81.87.79.78-.04,1.6-.2,2.32-.51.71-.31,1.31-.88,1.97-1.32.91-.62,1.87-1.19,2.72-1.88.18-.14.1-1.03-.02-1.06-1.97-.6-1.36-2.3-1.43-3.57-.11-1.83-.13-3.72.2-5.5.19-1,1.04-2.01,1.83-2.75,3.01-2.78,6.69-2.04,10.19-1.53.97.14,1.73,1.52,2.63,2.27,2.4,1.99,1.48,4.79,1.85,7.28.08.54.2,1.08.37,2,.4-.53.68-.73.66-.89-.31-2.3,1.98-2.89,2.81-4.41,1.18-2.17,3.74-1.14,5.24-2.53.27-.26,1.11,0,1.65.15.66.18,1.3.77,1.9.7,1.88-.22,2.64,1.43,3.52,2.35,2.01,2.09,2.73,4.96,3.35,7.77-.48.32-1.27.57-1.36.98-.18.78.04,1.66.09,2.5-.58.05-1.51-.1-1.67.19-1.15,2-2.66,3.12-5.06,3.2-.63.02-1.31.95-1.82,1.59-.19.24-.03,1.19.11,1.22,2.34.56,1.15,3.58,3.1,4.39.33.14.52.6.78.92.35-.3.72-.59,1.05-.91.18-.16.27-.47.46-.55,1.64-.71,3.29-1.41,4.96-2.05,1.01-.39,1.07-.85.22-1.46-.25-.18-.74-.26-.79-.47-.51-2.03-.95-4.07-1.4-6.11.37-.39.92-.73,1.06-1.19.22-.72.16-1.52.21-2.29,1.09-.8,2.19-1.59,3.28-2.4.36-.27.66-.65,1.06-.83,1.27-.58,2.61-1.02,3.84-1.67.23-.12.27-1.31.07-1.42-4.38-2.44-3.42-6.52-3.01-10.28.22-2.03,3.95-4.72,6.06-4.8,1.25-.05,2.5-.04,3.75,0,2.18.06,3.36,1.53,4.82,2.97,2.31,2.28,1.59,4.84,1.55,7.35-.05,3-3.32,6.04-6.35,6.18-1.31.06-2.63.04-3.94.16-.42.04-.81.43-1.21.65.38.24.77.72,1.13.69,2.06-.15,2.71,1.72,4.04,2.59,1.6,1.05,1.42,2.47,1.63,4,1.26.1,2.61.88,3.17-1.08.05-.18.56-.34.85-.34,2.61-.03,5.25-.25,7.83.07,1.04.13,1.97,1.4,2.87,2.24,3.11,2.89,1.59,6.59,1.53,9.98-.02.8-.98,1.92-1.79,2.31-1.47.7-2.44,2.3-4.49,2.1-1.54-.15-2.42,1.45-1.68,2.46.55.76,1.16,1.77,1.94,2,1.2.35.95,1.16,1.22,1.91.38,1.06.89,2.09,1.52,3.02.15.22,1.41.05,1.44-.09.19-.89,1.3-1.15,1.4-1.42.87-2.18,2.89-1.2,4.28-1.82.28-.12.57-.23,1.11-.45-4.45-3.04-3.5-7.42-3.18-11.52.07-.92,1.17-1.88,1.99-2.59,2.99-2.6,6.57-1.82,10.01-1.49.75.07,1.59.83,2.11,1.49.87,1.12,1.9,2.33,2.16,3.65.37,1.9.07,3.93.13,5.91.06,1.83-1.67,2.43-2.43,3.69-1.03,1.72-2.91,1.66-4.65,1.81-.31.03-.59.37-.89.57.23.26.51.48.68.78.84,1.45,2.72,2.26,2.39,4.44-.23,1.48-.15,3.04-.02,4.54.18,2.18-1.49,3.02-2.65,4.37-2.34,2.72-5.28,1.55-8.04,1.69-2.04.11-2.89-1.68-4.27-2.66-2.51-1.78-1.49-4.36-1.79-6.65-.09-.68-.1-1.38-.36-2.16-1.72,5.59-6.28,7.07-11.12,8.14-.25-.52-.42-1.43-.76-1.5-1.17-.22-2.01-.42-2.97-1.49-1.28-1.43-2.73-2.45-3.01-4.6-.12-.89-1.23-1.65-1.88-2.48-.45.43-.89.88-1.37,1.28-.19.15-.48.16-.71.26-1.79.79-3.58,1.59-5.64,2.52,2.01,1.58,3.71,3,3.72,5.56,0,.58.77,1.29,1.35,1.69.34.23,1.45.05,1.48-.11.31-1.45,1.48-1.17,2.37-1.2,2.49-.07,4.99,0,7.49,0ZM206.58,112.24c.57-.17.93-.16,1.05-.33,1.55-2.1,3.89-2.62,6.17-3.34.28-.09.59-1.34.38-1.56-1.6-1.62-2.39-3.62-3.1-5.7-.11-.33-.38-.6-.58-.9-.3.25-.63.48-.9.75-.84.83-1.53,1.94-2.53,2.45-1.51.76-3.26,1.04-4.84,1.67-.32.13-.38.91-.56,1.39,2.1.62,2.6,2.39,3.22,4.2.21.62,1.19.98,1.69,1.36ZM270.37,101.58c-1.31.5-2.21.81-3.07,1.2-.51.23-.93.67-1.44.91-.7.34-2.02.52-2.06.9-.15,1.25-.33,3.1.38,3.72,1.11.98,1.03,1.98,1.19,3.09.07.46.02,1.03.28,1.32.22.26,1.12.37,1.18.26,1-1.8,2.3-2.93,4.51-3.06.73-.04,1.48-.93,2.08-1.57.17-.18-.05-1.09-.33-1.27-1.79-1.13-3.07-2.5-2.71-5.5ZM249.48,120.14c-.11-.15-.21-.31-.32-.46-.04-.26,0-.7-.13-.75-1.65-.62-1.39-2.21-1.9-3.44-.32-.77-1.23-1.4-2.01-1.81-.21-.11-.91.88-1.46,1.26-.3.2-.78.11-1.12.28-1.16.58-2.33,1.15-3.4,1.87-.19.13-.13,1.2.1,1.34,2.01,1.19,1.8,3.67,3.14,5.22.28.32.45.73.67,1.1.28-.27.52-.63.86-.8,1.3-.66,1.85-2.37,3.67-2.4.65-.01,1.28-.92,1.92-1.42ZM220.21,126.51c-1.53.56-3.42,1.23-5.28,1.96-.23.09-.49.46-.5.7,0,.24.25.58.48.71,1.81,1.02,3.04,2.38,2.98,4.63-.02.6.2,1.2.29,1.73,2.07-1.08,3.3-3.24,5.85-2.9.25.03.52-.04.78-.1,1.09-.24,1.16-.65.55-1.63-.98-1.58-1.71-3.31-2.55-4.98-.29-.57-.58-1.13-.87-1.69-.5.45-1,.9-1.73,1.57ZM231.53,98.93c1.02-.3,2.08-.34,2.19-.68.49-1.59,1.73-1.06,2.73-1.19.52-.07,1.07.02,1.56-.11.36-.1.65-.43.98-.66-.22-.26-.44-.53-.67-.78-1.08-1.15-2.56-1.93-2.72-3.86-.07-.91-.82-1.82-1.44-2.59-.18-.22-1.28-.1-1.46.18-.99,1.58-2.16,2.77-4.13,2.98-1.27.14-1.05.82-.52,1.63.46.72.78,1.53,1.27,2.23.71,1.02,1.52,1.98,2.21,2.87ZM220.97,110.8c.02.11-.03.84.3,1.12,1.77,1.51,2.28,3.59,2.94,5.66.14.45.77.74,1.17,1.11.76-1.67,2.39-1.77,3.86-2.23.51-.16,1-.72,1.27-1.22.23-.43.13-1.03.18-1.55-1.72.05-1.33-1.44-1.67-2.36-.84-2.28-2.84-3.46-4.45-2.56-1.1.61-2.19,1.23-3.6,2.03Z"/>
            <path class="cls-1" d="M145.71,116.71c.49,3.41-2.79,3.02-4.05,4.76-.73,1.01-5.55.22-6.47-.77-.13-.14-.27-.34-.43-.36-1.72-.26-2.95-.94-2.78-2.97-2.65-1.41-1.16-3.86-1.38-5.85-.05-.44.57-.95.86-1.44.21-.36.54-.72.57-1.1.1-1.3.65-2.01,2.02-2.13.44-.04.83-.58,1.27-.85.4-.25.83-.59,1.26-.61,1.37-.08,2.76-.11,4.13.01.48.04.92.59,1.37.92.04.03.04.18.06.18,2.29.08,3.09,1.76,3.78,3.56.34.89.67,1.79,1.04,2.66.16.37.38.78.69,1.01.15.11.75-.07.84-.27,1.43-3.04,4.06-3.48,6.99-3.37.45.02.91-.3,1.36-.46-.35-.35-.77-.66-1.04-1.06-.77-1.13-1.92-2.23-2.13-3.47-.35-2.04-.25-4.21-.03-6.3.16-1.54,1.55-2.38,2.59-3.47,2.42-2.55,5.31-1.34,8.02-1.5,1.99-.12,2.91,1.55,4.18,2.75,2.82,2.68,1.34,5.99,1.47,9.01.04.94-1.28,2.02-2.11,2.91-1.8,1.92-4.2,1.76-6.55,1.79-.42,0-.84.4-1.25.61.31.33.64.65.93.99.73.84,1.55,1.63,2.14,2.56,1.02,1.62-.19,7.29-.86,8.91-.62,1.5-2.25,1.49-2.77,2.83-.13.34-1.03.5-1.58.52-1.51.07-3.03-.03-4.53.05-2.28.12-3.3-1.5-4.75-2.86-1.73-1.62-1.48-3.48-1.8-5.35-.09-.52-.27-1.03-.41-1.54-.22-.1-.44-.21-.66-.31Z"/>
            <path class="cls-1" d="M285.05,90.36c-2.36.56-4.39-.31-5.95-1.82-.99-.96-1.64-2.5-1.97-3.89-.33-1.44-.1-3.01-.09-4.53.01-2.12,1.48-3.2,2.79-4.63,1.76-1.9,3.76-1.31,5.72-1.61.5-.08.96-.43,1.43-.66-.34-.3-.73-.55-1.02-.89-1.21-1.4-2.73-2.66-3.49-4.28-.84-1.79-.44-3.6.56-5.67,1.11-2.29,3.27-2.92,4.64-4.61.78-.97,4.56-.17,5.52.77.71.7,1.51,1.31,2.32,1.89,1.92,1.38,2.8,3.25,2.74,5.6-.05,2.02-1.24,3.32-2.57,4.71-1.51,1.58-3.03,2.88-5.23,3.28-.16.03-.36,1.28-.21,1.36,4.33,2.36,3.03,6.38,2.96,10.01-.02.94-1.96,2.39-2.71,3.41-1.54,2.1-3.61,1.32-5.48,1.55Z"/>
            <path class="cls-1" d="M254.76,76.67c-.81.6-1.62,1.22-2.45,1.8-.25.17-.58.31-.87.33-1.58.07-3.16.14-4.73.09-.41-.01-.81-.46-1.19-.73-.09-.06-.09-.35-.13-.35-2.43-.08-2.75-2.49-4.09-3.77-.31-.3-.43-.87-.48-1.34-.11-.98-.08-1.98-.18-2.96-.03-.24-.32-.6-.55-.64-.23-.04-.72.2-.75.37-.25,1.83-1.97,2.16-2.92,3.19-1.62,1.75-3.35,1.43-4.95,1.21-2.39-.34-4.54-1.49-5.67-3.93-.42-.91-1.18-1.68-1.47-2.62-.86-2.8.68-5.04,2.07-7.22,1.14-1.78,7.21-3.79,8.7-2.46,1.4,1.25,3.36,1.7,4.38,3.89.77,1.64,1.12,3.17,1.44,4.84.06.29.42.53.65.79.22-.19.61-.38.62-.58.07-1.72,1.5-2.02,2.53-2.93,1.69-1.48,3.44-1.46,5.21-1.25,2.56.31,4.63,1.3,6.08,3.93.84,1.53,1.36,2.86,1.27,4.47-.07,1.32.54,2.85-1.28,3.74-.53.26-.56,1.53-.82,2.34-.13-.07-.27-.15-.4-.22Z"/>
            <path class="cls-1" d="M176.99,144.77c2.53-4.65,6.4-5.58,10.9-4.56,1.21.27,2.4,1.28,3.25,2.26.83.95,1.51,2.23,1.74,3.47.29,1.59.39,3.38-.04,4.9-.38,1.35-1.41,2.68-2.49,3.63-1.03.91-2.45,1.52-3.79,1.93-2.91.89-5.72-.36-7.55-2.14-1.87-1.82-3.02-4.61-2.68-7.51-.46-.03-.7-.05-.7-.04-.32,2.45-2.58,3.19-4.16,4.29-1.07.74-2.92.61-4.37.42-1.13-.15-2.12-1.2-3.25-1.45-1.54-.34-1.58-1.78-2.32-2.51-1.83-1.81-1.37-3.79-1.32-5.78.02-.65.66-1.29,1.04-1.93.09-.16.36-.28.36-.41-.01-1.92,1.76-2.05,2.65-2.99,1.99-2.09,4.06-1,6.07-1.25.42-.05.93.55,1.39.87.09.06.11.34.14.34,2.76-.37,2.77,2.47,4.15,3.69.5.44.4,1.56.56,2.37.16.8.29,1.6.43,2.4Z"/>
            <path class="cls-1" d="M329.62,126.77c-.1.81-.23,1.5,1.01,1.67.59.08,1.06.94,1.63,1.39,1.74,1.38,3.26,6.29,1.91,7.77-1.31,1.43-2.16,3.22-4.07,4.37-1.5.91-2.79,1.11-4.32,1.34-2.04.31-3.05-1.35-4.42-2.2-1.14-.71-1.99-1.97-2.8-3.1-.34-.47-.26-1.25-.39-1.89-.18-.83-.38-1.66-.57-2.49-.2,0-.4.02-.6.03-.27.9-.55,1.81-.69,2.3-4.27,3.12-8.44,3.3-12.76-.04-1.2-2.08-2.82-4.79-1.76-7.75.63-1.76,1.11-3.76,3.29-4.93,1.73-.93,3.33-1.3,5.19-1.56,2.45-.34,3.69,2.04,5.85,2.11.07,0,.19.2.2.31.27,2.17,2.51,3.72,1.91,6.2-.1.4.39.95.61,1.43.29-.4.56-.82.89-1.18.62-.71,1.21-1.48,1.94-2.06,1.76-1.4,3.75-2.13,6.06-1.72.64.11,1.31.04,1.97.06l-.06-.07Z"/>
            <path class="cls-1" d="M329.72,96.9c-.96.11-1.59.36-1.79,1.57-.12.69-1.11,1.25-1.75,1.83-1.77,1.63-4.05,2.28-6.16,1.53-2.05-.72-4.14-1.41-5.57-3.82-1.28-2.16-1.32-4.08-1.26-6.23.04-1.38,3.09-3.98,3.79-4.82,2.04-2.44,5.14-.67,7.67-2.35-.7-.29-1.06-.49-1.44-.58-1.93-.47-3.1-1.64-3.56-3.59-.12-.51-.75-.91-.84-1.42-.2-1.13-.46-2.35-.22-3.44.22-1.01,1.05-1.89,1.62-2.83-.15-.15-.3-.29-.45-.44,1.53-.78,3.2-1.38,4.57-2.4,1.43-1.06,2.57-1.3,3.89-.01.21.21.54.38.83.41,2.34.27,3.41,1.8,4.08,3.88.26.83,1.12,1.53,1.19,2.34.22,2.32-1.16,4.04-2.49,5.8-1.56,2.07-3.93,2.32-6.05,3.15-.35.14-.6.53-.9.8.31.25.61.7.92.71,1.39.05,1.58,1.26,2.3,2.03,2.22,2.39,1.27,5.25,1.57,7.92l.05-.06Z"/>
            <path class="cls-1" d="M173.54,116.72c1.38.08,2.84-.11,4.1.32.88.3,1.43,1.51,2.22,2.19,2.69,2.29,1.46,5.39,1.71,8.17.07.76.13,1.89-.31,2.26-2.35,2-4.35,4.16-8.16,4.07-4.68-.11-8.66-3.78-8.32-8.76.39-5.69,2.76-8.23,8.75-8.24Z"/>
            <path class="cls-1" d="M243.92,156.52c-5.52,0-7.94-2.78-8.27-8.41-.26-4.5,3.95-8.47,8.55-8.45,4.54.02,8.35,4.06,8.29,8.75-.06,4.42-3.72,8.93-8.57,8.11Z"/>
            <path class="cls-1" d="M314.12,120.17c-1.71.5-3.66-.5-5.34-1.88-.89-.73-1.75-1.95-1.9-3.05-.31-2.19-.45-4.52-.04-6.67.23-1.21,1.76-2.13,2.59-3.26,1.77-2.41,4.34-1.6,6.63-1.61,4.07-.02,6.86,2.86,6.95,6.96.03,1.25-.03,2.5-.05,3.76-.04,1.96-1.71,2.77-2.73,4.07-1.53,1.95-3.53,1.51-6.11,1.68Z"/>
            <path class="cls-1" d="M297.39,94.97c-3.45-4.05-3.51-8.8-.17-12.2,3.4-3.45,8.17-3.56,12.36.15,2.89,3.75,2.78,7.92-.25,12.04-3.87,2.95-8.04,2.97-11.94,0Z"/>
            <path class="cls-1" d="M151.87,95.39c0,4.44-3.81,8.01-8.16,8.39-3.67.32-8.67-4.79-8.42-8.3.33-4.53,3.86-8.34,8.4-8.34,4.48,0,8.18,3.73,8.18,8.25Z"/>
            <path class="cls-1" d="M211.12,154.86c0,4.44-3.82,8.26-8.25,8.26-4.34,0-8.25-3.96-8.24-8.35,0-4.39,3.87-8.2,8.32-8.2,4.45,0,8.17,3.77,8.17,8.28Z"/>
            <path class="cls-1" d="M293.4,141.65c.57,4.44-3.74,8.35-8.19,8.32-4.52-.03-8.52-3.74-8.34-8.9.14-3.83,4.01-7.88,8.41-7.82,4.38.07,8.72,3.91,8.12,8.4Z"/>
            <path class="cls-1" d="M158.56,80.46c.73-.85,1.46-1.69,2.55-2.94,1.62.14,3.04-2.14,5.64-2.15,2.55-.01,3.88,2.31,5.75,2.08.79,1.18,1.43,2.08,2.01,3.02.19.31.23.72.3,1.09.54,2.97-.24,5.67-1.73,8.2-.89,1.5-8.03,3.05-9.48,2.07-1.1-.74-2.54-1.25-3.25-2.27-1.88-2.73-2.2-5.91-1.73-9.16l-.05.05Z"/>
            <path class="cls-1" d="M142.02,136.59c0-4.12,4.11-8.16,8.29-8.16,4.18,0,8.21,4.13,8.2,8.4-.01,3.98-4.24,8.07-8.34,8.07-4.1,0-8.15-4.13-8.15-8.3Z"/>
            <path class="cls-1" d="M329.69,126.84c-.01-.86.11-1.7-1.24-1.75-.46-.02-.83-.9-1.33-1.28-2.62-2.06-3-4.98-2.08-7.73.56-1.68,2.56-2.83,3.78-4.33,1.46-1.81,3.4-1.47,5.33-1.56,1.86-.09,2.64,1.47,3.87,2.29,1.1.74,1.91,1.94,2.83,2.95.76.84.16,5.59-.68,6.37-.67.62-1.27,1.37-1.76,2.15-1.72,2.75-4.33,3.07-7.2,2.78-.52-.05-1.05.02-1.57.04,0,0,.06.07.06.07Z"/>
            <path class="cls-1" d="M300.03,156.43c-.16-.5-.21-1.34-.5-1.44-1.54-.53-2-2.03-3-2.96-1.65-1.55-1.38-3.22-1.35-4.96.04-2.42,1.99-3.87,3.45-5.3,1.33-1.31,3.21-2.1,5.46-1.93,1.89.14,2.88,1.44,4.2,2.26,1.15.71,1.91,2.04,2.86,3.08.74.82.25,5.47-.57,6.23-.71.65-1.44,1.36-1.91,2.19-1.69,2.99-4.44,3.02-7.31,2.83-.46-.03-.92-.04-1.38-.07l.05.06Z"/>
            <path class="cls-1" d="M158.61,80.41c-.95-.25-1.26.09-1.88.98-1.01,1.47-2.53,2.88-4.15,3.58-1.76.76-3.6.47-5.65-.61-2.13-1.12-2.81-3.22-4.53-4.48-.94-.69-.22-4.92.64-5.77.36-.35.41-1.01.68-1.48,1.35-2.38,5.68-4.28,8.35-3.39,1.18.39,2.17,1.44,3.17,2.28.62.53,1.04,1.3,1.66,1.83,2.32,1.97,1.29,4.7,1.66,7.11,0,0,.05-.05.05-.05Z"/>
            <path class="cls-1" d="M173.29,57.48c3.79,0,8.14,4.43,8.14,8.27,0,3.64-4.57,8.14-8.24,8.13-3.6-.02-8.12-4.61-8.11-8.24.01-3.71,4.49-8.17,8.21-8.16Z"/>
            <path class="cls-1" d="M120.48,116.78c-3.79-.01-8.05-4.41-8.04-8.31,0-3.63,4.52-8.12,8.17-8.12,3.67,0,8.22,4.58,8.21,8.27-.01,3.84-4.44,8.17-8.33,8.16Z"/>
            <path class="cls-1" d="M329.67,96.96c.5-.11,1.3-.05,1.47-.34,1.74-3.06,4.2-4.87,7.79-4.37,1.25.17,2.67.79,3.55,1.67,1.98,1.99,4.39,4.02,3.56,7.33-.36,1.45-1.19,2.87-2.1,4.09-.82,1.1-1.92,2.42-3.12,2.7-1.86.44-3.98.37-5.85-.06-1.06-.24-1.9-1.6-2.78-2.52-1.29-1.35-2.8-2.57-2.54-4.8.14-1.24.05-2.5.06-3.75,0,0-.05.06-.05.06Z"/>
            <path class="cls-1" d="M220.86,167.99c-3.98-.01-8.06-4.27-8.03-8.38.02-3.96,4.26-8.02,8.35-8.01,3.95.01,8.04,4.25,8.02,8.32-.01,3.96-4.28,8.09-8.34,8.08Z"/>
            <path class="cls-1" d="M280.09,167.94c-3.76-.02-8.01-4.46-7.96-8.32.04-3.79,4.35-7.97,8.21-7.95,3.94.01,8.11,4.31,8.06,8.3-.05,3.75-4.48,8-8.31,7.98Z"/>
            <path class="cls-1" d="M308.16,78.76c-3.79-.02-8.09-4.46-8.07-8.34.02-3.72,4.47-7.95,8.33-7.92,3.72.03,8.05,4.45,8.02,8.19-.03,3.69-4.53,8.07-8.27,8.06Z"/>
            <path class="cls-1" d="M214.6,67.66c-2.49-.11-3.88-1.52-5.22-2.98-.84-.92-2.05-1.79-2.31-2.87-.42-1.75-.81-3.97-.09-5.42.96-1.92,2.81-3.61,4.66-4.78,1.2-.75,3.28-.87,4.64-.38,1.12.41,2.7.82,3.35,2.46.39.99,2.03,1.55,2.25,2.51.41,1.75.57,3.75.13,5.46-.34,1.34-1.57,2.65-2.73,3.54-1.37,1.06-3.1,1.65-4.67,2.45Z"/>
            <path class="cls-1" d="M132.23,123.59c3.86.01,8.06,4.24,8.06,8.12,0,3.95-4.25,8.13-8.26,8.12-3.86-.01-8.06-4.24-8.06-8.12,0-3.95,4.25-8.13,8.26-8.12Z"/>
            <path class="cls-1" d="M239.17,158.25c3.25.03,8.13,4.93,8.12,8.17,0,3.2-4.96,8.1-8.18,8.1-3.4,0-8.17-4.85-8.13-8.26.04-3.29,4.89-8.03,8.19-8Z"/>
            <path class="cls-1" d="M120.73,96.99c-.85-1.52-1.62-3.1-2.58-4.55-.93-1.41-.63-2.48-.01-4.02,1.1-2.74,2.7-4.62,5.52-5.37,1.11-.3,2.91-.88,3.31-.41,1.11,1.33,2.97.92,4.07,2.56,1.15,1.71,2.11,3.41,2.53,5.34.15.67-1.17,1.63-1.09,2.37.22,1.85-1.63,2.34-2.06,3.71-.07.22-.64.27-.97.43-.71.35-1.39.87-2.14,1.03-1.08.23-2.29.47-3.32.22-1.06-.26-1.97-1.12-2.95-1.71-.11.14-.22.27-.33.41Z"/>
            <path class="cls-1" d="M349.05,88.24c-1.19.61-2.18,1.3-3.29,1.64-.81.25-1.82.24-2.63,0-1.1-.34-2.1-1.02-3.4-1.69-.28-.3-.83-.87-1.38-1.46-.52-1.02-1.22-2.08-1.59-3.25-.25-.81-.24-1.82,0-2.64.34-1.11,1.02-2.11,1.68-3.41.3-.28.87-.83,1.45-1.38,1.02-.52,2.08-1.23,3.24-1.6.81-.25,1.82-.24,2.63.01,1.1.34,2.11,1.02,3.4,1.68.28.3.83.87,1.38,1.45.52,1.03,1.23,2.09,1.6,3.26.25.81.24,1.82-.01,2.64-.34,1.11-1.02,2.11-1.68,3.4-.3.29-.87.83-1.4,1.34Z"/>
            <path class="cls-1" d="M251.09,48.03c1.04-.59,2.02-1.33,3.13-1.72.8-.28,1.85-.34,2.64-.07,1.1.38,2.06,1.16,3.17,1.5.58.63,1.17,1.26,1.65,1.78,2.28,3.21,2.21,6.67-.25,9.39-1.76,1.95-4.29,3.81-7.36,2.76-2.93-1-5.1-2.91-6.05-6.05-1.05-3.43,1.53-5.45,3.07-7.61Z"/>
            <path class="cls-1" d="M282.14,58.96c-.45.71-.8,1.25-1.14,1.78-.2.31-.54.61-.57.93-.19,2.53-1.72,3.66-4.02,4.21-.84.2-1.52,1.03-2.36,1.27-.92.26-4.54-2.21-5.49-2.59-2.15-.85-1.1-3.44-2.78-4.53-.29-.19.28-1.81.54-2.75.13-.48.51-.89.65-1.37.56-1.95,1.75-3.21,3.73-3.73.46-.12.85-.62,1.3-.66,1.11-.11,2.25-.12,3.36-.03.45.04.83.56,1.29.71,2.04.65,3.38,1.81,3.8,4.07.16.9,1.02,1.67,1.67,2.68Z"/>
            <path class="cls-1" d="M346.62,117.36c1-.62,1.94-1.44,3.03-1.81.84-.28,1.91-.13,2.81.1.84.21,1.63.73,2.39,1.21.87.55,2.02,1.02,2.42,1.83.84,1.68,2.09,3.82,1.65,5.31-.43,1.45-1.24,3.19-2.34,4.67-1.29,1.75-3.51,1-4.6,2.68-.18.28-1.79-.32-2.72-.58-.48-.14-.9-.49-1.38-.63-1.87-.53-3.1-1.68-3.64-3.58-.13-.48-.43-.9-.6-1.37-.26-.75-.9-1.87-.62-2.23,1.13-1.44.67-3.79,2.73-4.68.33-.14.42-.86.62-1.31.08.13.16.25.24.38Z"/>
            <path class="cls-1" d="M347.69,105.06c.32-.43.71-.93,1.08-1.44.18-.25.46-.51.47-.78.11-2.64,1.64-3.89,4.06-4.35.33-.06.66-.34.92-.59,1-1.02,2.51-1.04,3.45-.06.28.29.68.6,1.06.65,2.28.35,3.53,1.67,3.98,3.9.09.47.64.87.68,1.32.08,1.08.04,2.18-.07,3.26-.04.4-.49.75-.59,1.16-.51,2.14-1.74,3.51-3.92,4.01-.45.1-.82.63-1.27.71-.97.17-2,.36-2.94.19-.89-.16-1.84-.61-2.5-1.22-.99-.91-2.41-1.42-2.75-3.01-.15-.71-.74-1.32-1.07-2.01-.21-.45-.32-.94-.58-1.74Z"/>
            <path class="cls-1" d="M122.31,125.46c-.26.37-.58.85-.91,1.32-.2.3-.56.57-.6.89-.28,2.61-1.82,3.89-4.28,4.33-.38.07-.68.66-1.05.71-.97.13-2.28.51-2.88.04-1.37-1.08-3.47-.94-4.35-2.74-.17-.35-.57-.59-.75-.93-.47-.87-.89-1.77-1.3-2.66-.11-.23-.24-.53-.18-.75.58-2.03,1.37-3.89,2.5-5.75,1.13-1.88,3.62-.79,4.38-2.83.1-.26,1.93-.33,2.17.03.82,1.24,2.11,1.02,3.13,1.53,1,.49,1.68,1.71,2.38,2.69.52.72.88,1.57,1.25,2.38.2.45.28.97.49,1.75Z"/>
            <path class="cls-1" d="M321.86,145.11c.13.09.61.42,1.09.74.3.2.59.56.9.58,2.75.13,3.95,1.75,4.33,4.29.05.36.64.63.74,1,.22.88.67,2.4.37,2.59-1.24.77-1.02,1.96-1.41,3-.31.83-1,1.73-1.77,2.14-1.36.74-2.87,1.27-4.38,1.62-.58.14-1.34-.42-2.01-.68-.41-.16-.79-.43-1.21-.52-2.08-.47-3.39-1.68-3.89-3.79-.11-.47-.48-.88-.6-1.35-.21-.83-.7-2.26-.41-2.45,1.62-1.1.41-3.87,2.79-4.49.59-.15,4.33-2.69,5.45-2.69Z"/>
            <path class="cls-1" d="M299.98,156.37c-.31,1.17.07,1.63,1.34,1.72,1.73.11,3.32,1.82,3.71,3.49.17.71.6,1.36.89,2.04.12.29.36.72.25.91-.98,1.64-1.09,3.56-2.31,5.26-1.29,1.8-3.47,1.09-4.52,2.67-.1.15-.59.23-.74.12-1.61-1.2-3.68-1.08-5.43-2.43-1.75-1.34-.76-3.8-2.76-4.59-.06-.02-.1-.27-.06-.37.66-1.77.92-3.91,2.09-5.23,1.9-2.16,4.79-2.92,7.6-3.52,0,0-.06-.06-.06-.06Z"/>
            <path class="cls-1" d="M143.52,163.34c-1.21-2.21-3.36-1.67-4.98-3.04-1.64-1.39-.96-3.57-2.66-4.53-.14-.08-.2-.59-.09-.74,1.15-1.63,1.19-3.67,2.43-5.42,1.27-1.79,3.7-.65,4.45-2.7.08-.21,1.78-.23,1.95.08.72,1.33,1.98.97,3.01,1.36.71.27,1.51.89,1.82,1.56.86,1.85,1.49,3.82,2.21,5.74-2.14.67-1.18,3.14-2.74,4.58-1.73,1.59-4.06.84-5.41,3.13Z"/>
            <path class="cls-1" d="M180,158.55c3.31.09,7.77,4.62,7.74,7.86-.03,3.34-4.79,8.11-7.98,7.75-1.59-.18-3.45-.55-4.58-1.54-1.8-1.57-2.43-4.07-3.32-6.28-.14-.34.51-.93.63-1.45.91-4.03,3.86-5.6,7.51-6.34Z"/>
            <path class="cls-1" d="M155.55,156.91c.44-.46.82-1.18,1.39-1.41,1.86-.75,3.75-1.6,5.71-1.86,1.07-.14,2.36.7,3.41,1.33.75.45,1.26,1.31,1.97,2.09.42,1.03.98,2.24,1.39,3.49.17.53.17,1.21,0,1.74-.41,1.26-.97,2.46-1.45,3.65-.44.46-.82,1.18-1.39,1.41-1.86.75-3.75,1.6-5.71,1.86-1.07.14-2.36-.7-3.41-1.33-.75-.45-1.26-1.31-1.97-2.09-.42-1.03-.98-2.24-1.39-3.49-.17-.53-.17-1.21,0-1.74.41-1.26.97-2.47,1.45-3.65Z"/>
            <path class="cls-1" d="M138.39,76.7c-.51.53-.97,1.04-1.47,1.5-.25.24-.57.43-.89.57-.96.43-1.93.83-2.9,1.24-.18.07-.37.12-.57.15-.74.14-4.76-2.2-5.36-2.37-2.48-.73-1.22-3.4-2.61-4.67-.29-.27-.2-1.15-.05-1.68.38-1.27.9-2.5,1.32-3.62.51-.53.97-1.04,1.47-1.51.25-.24.57-.43.89-.57.96-.43,1.93-.84,2.9-1.24.18-.07.37-.12.57-.15.74-.14,4.76,2.2,5.36,2.37,2.47.73,1.23,3.4,2.61,4.67.29.27.21,1.15.05,1.68-.38,1.27-.9,2.51-1.32,3.62Z"/>
            <path class="cls-1" d="M350.45,136.93c.65,1.32,1.31,2.39,1.71,3.56.23.69.23,1.58,0,2.27-.4,1.17-1.06,2.24-1.74,3.62-.28.27-.85.82-1.34,1.31-4.04,2.88-8.23,1.89-10.79-1.49-2.64-3.47-1.86-7.71,1.15-10.4,1.69-.85,2.82-1.54,4.03-1.99.62-.22,1.46-.18,2.09.05,1.16.42,2.23,1.07,3.63,1.77.3.3.9.91,1.27,1.29Z"/>
            <path class="cls-1" d="M251.04,164.78c2.22,1.02,4.26-3.27,6.69-.2,2.85.2,4.38,1.74,4.58,4.6,3.05,2.44-1.2,4.49-.37,6.37-.65.77-.98,1.53-1.52,1.74-1.87.72-3.8,1.57-5.75,1.74-1.12.1-2.35-1.02-3.52-1.59.36-.3.72-.61,1.08-.91-.61-.6-1.22-1.2-1.83-1.81-.3.36-.61.72-.91,1.08-.53-1.13-1.06-2.26-1.58-3.39-.08-.18-.16-.36-.21-.55-.2-.8,1.78-4.92,2.48-5.5.39-.32.53-.93.88-1.57Z"/>
            <path class="cls-1" d="M192,47.99c1.08-.55,2.12-1.2,3.25-1.62.62-.23,1.45-.28,2.05-.06,1.19.44,2.29,1.12,3.45,1.48.59.63,1.17,1.26,1.6,1.72.61,1.26,1.16,2.38,1.7,3.5.08.17.23.4.18.54-.37.98-.76,1.96-1.19,2.92-.39.88-.41,1.77-1.07,2.74-1.3,1.9-3.79.8-4.72,2.68-.05.11-.4.17-.55.11-1.8-.76-3.63-1.41-5.39-2.33-2.15-1.12-.92-3.69-2.73-4.65-.11-.06-.11-.36-.15-.55-.13-.78,1.85-4.8,2.48-5.34.38-.33.55-.91.82-1.38.1.08.2.17.3.25Z"/>
            <path class="cls-1" d="M374.07,118.75c-5.04.09-6.86-1.81-6.85-6.86,0-5.06,1.82-6.88,6.86-6.88,5.04,0,6.85,1.83,6.85,6.89,0,5.05-1.83,6.94-6.86,6.85Z"/>
            <path class="cls-1" d="M109.17,97.56v8.64c-3.64,3.5-7.81,3.87-11.35,1.64-3.77-2.38-2.02-6.73-1.79-10.37,4.27-3.39,8.57-3.43,13.13.09Z"/>
            <path class="cls-1" d="M131.67,156.47h-8.78c-3.48-3.47-3.29-7.53-1.67-11.31.88-2.05,3.66-2.28,5.93-2.18,1.56.06,3.73-.18,4.54.7,3.61,3.95,3.3,8.29-.03,12.79Z"/>
            <path class="cls-1" d="M102.04,126.71h-8.74c-3.49-3.55-3.23-7.54-1.63-11.27.89-2.08,3.58-2.19,5.78-2.11,1.56.05,3.74-.24,4.57.64,3.72,3.97,3.23,8.32.02,12.75Z"/>
            <path class="cls-1" d="M369.3,88.89c-.04.72-.07,1.45-.12,2.17-.16,2.71-1.6,4.2-4.33,4.37-1.5.09-3.02.09-4.52,0-2.84-.17-4.13-1.45-4.34-4.34-.11-1.5-.13-3.01,0-4.51.24-2.93,1.51-4.2,4.42-4.49,1.23-.12,2.5-.19,3.73-.08,3.77.35,4.91,1.58,5.12,5.3.03.53,0,1.05,0,1.58.02,0,.03,0,.05,0Z"/>
            <path class="cls-1" d="M162.06,60.69c-.2,1.55.04,3.38-.71,4.58-1.31,2.11-3.74,2.15-6.11,2.25-5.63.22-6.92-2.01-6.93-6.75-.02-5.31,1.46-6.95,6.82-6.95,4.69,0,7.16,1.23,6.92,6.87Z"/>
            <path class="cls-1" d="M193.52,166.29c2.02,0,4.05-.07,6.08.02,3.53.15,4.66,1.16,4.93,4.68.15,1.88.17,3.85-.26,5.66-.25,1.04-1.42,2.49-2.33,2.62-2.56.36-5.24.43-7.78.01-1.21-.2-2.71-1.33-2.78-3.14-.05-1.38-.26-2.79-.09-4.14.18-1.5-.7-3.54,1.7-4.22.24-.07.3-.81.53-1.48Z"/>
            <path class="cls-1" d="M104.8,77.09c1.72,0,3.62-.06,5.51.01,4.04.16,5,1,5.39,5.1.17,1.8.14,3.73-.33,5.45-.28,1.01-1.52,2.32-2.49,2.47-2.42.36-4.98.43-7.39.04-1.36-.22-2.88-1.33-2.97-3.17-.1-1.97-.09-3.95-.04-5.92.03-.91-.16-2.01,1.31-2.23.34-.05.55-.93,1-1.74Z"/>
            <path class="cls-1" d="M230.72,47.59c.04-.79.07-1.58.12-2.37.16-2.6,1.77-4.28,4.35-4.44,1.44-.09,2.89-.1,4.33-.01,2.86.17,4.27,1.56,4.51,4.47.12,1.5.12,3.02,0,4.51-.24,2.91-1.66,4.26-4.52,4.48-.65.05-1.32.17-1.97.1-1.55-.17-3.32-.01-4.58-.73-2.18-1.25-2.45-3.63-2.24-6.01Z"/>
            <path class="cls-1" d="M367.51,136.82c-.72-.04-1.44-.07-2.16-.11-2.66-.15-4.32-1.71-4.48-4.35-.09-1.51-.09-3.03,0-4.53.16-2.72,1.57-4.15,4.26-4.33,1.49-.1,3-.12,4.49,0,2.95.23,4.23,1.49,4.52,4.41.12,1.24.19,2.5.08,3.73-.34,3.81-1.57,4.95-5.33,5.15-.46.02-.92,0-1.38,0,0,.01,0,.03,0,.04Z"/>
            <path class="cls-1" d="M109.22,136.53c.72.04,1.44.06,2.17.11,2.42.14,4.08,1.7,4.24,4.1.1,1.57.11,3.16,0,4.73-.18,2.85-1.51,4.19-4.32,4.38-1.43.09-2.88.1-4.32,0-2.95-.2-4.37-1.7-4.53-4.62-.03-.59-.12-1.19-.06-1.78.14-1.55-.12-3.39.62-4.58,1.33-2.12,3.66-2.79,6.2-2.34Z"/>
            <path class="cls-1" d="M221.13,177.86c-.04.9-.07,1.56-.1,2.22-.13,2.41-1.94,4.33-4.35,4.48-1.5.09-3.02.09-4.52,0-2.48-.16-4.12-1.84-4.26-4.32-.08-1.44-.09-2.9,0-4.34.15-2.86,1.62-4.32,4.51-4.61.52-.05,1.05-.09,1.57-.13,4.51-.32,7.76,1.64,7.17,6.71Z"/>
            <path class="cls-1" d="M84.35,103.77c-3.95,0-6.65-2.76-6.64-6.79,0-3.98,2.74-6.7,6.74-6.69,4.09,0,6.62,2.64,6.6,6.89-.01,4.03-2.62,6.59-6.71,6.59Z"/>
            <path class="cls-1" d="M91,144.98c-4.18,0-6.67-2.52-6.66-6.76,0-4.03,2.64-6.62,6.73-6.61,3.86,0,6.6,2.79,6.59,6.69,0,4.05-2.63,6.68-6.66,6.68Z"/>
            <path class="cls-1" d="M114.01,59c4.17,0,6.66,2.53,6.66,6.75,0,3.96-2.7,6.6-6.73,6.6-3.84,0-6.58-2.79-6.58-6.68,0-4.03,2.63-6.67,6.65-6.67Z"/>
            <path class="cls-1" d="M171.56,47.43c0-4.09,2.58-6.7,6.63-6.7,4.22,0,6.64,2.53,6.63,6.93-.02,4.15-2.54,6.61-6.76,6.6-3.97-.01-6.5-2.67-6.5-6.83Z"/>
            <path class="cls-1" d="M342.68,63.95c0-3.91,2.76-6.6,6.77-6.59,3.99,0,6.65,2.7,6.65,6.72,0,4-2.67,6.54-6.87,6.53-3.96-.01-6.55-2.65-6.55-6.65Z"/>
            <path class="cls-1" d="M379.09,87.06c4.04,0,6.65,2.62,6.65,6.66,0,4.2-2.55,6.65-6.91,6.63-4.11-.02-6.57-2.57-6.56-6.79.02-3.95,2.69-6.51,6.81-6.5Z"/>
            <path class="cls-1" d="M369.2,146.62c0,4.09-2.58,6.71-6.61,6.71-4.21,0-6.66-2.54-6.64-6.91.01-4.14,2.54-6.62,6.74-6.61,3.97.01,6.52,2.68,6.51,6.81Z"/>
            <path class="cls-1" d="M339.47,166.46c-4.12,0-6.71-2.58-6.7-6.69,0-4.19,2.51-6.63,6.79-6.63,4.23,0,6.71,2.49,6.7,6.72,0,4.06-2.62,6.6-6.79,6.6Z"/>
            <path class="cls-1" d="M290.08,47.31c.01-3.92,2.7-6.56,6.68-6.56,4.09,0,6.56,2.62,6.55,6.93-.02,4.04-2.61,6.57-6.72,6.56-3.96-.01-6.52-2.73-6.51-6.93Z"/>
            <path class="cls-1" d="M280.33,177.96c0,4.25-2.51,6.47-6.77,6.76-3.46.23-6.96-3.24-6.58-6.92.41-4.06,2.61-6.6,6.72-6.6,4.07,0,6.64,2.62,6.63,6.76Z"/>
            <path class="cls-1" d="M219.38,49.23c-4.2,0-6.7-2.53-6.69-6.77,0-4.09,2.54-6.61,6.65-6.61,4.1,0,6.73,2.6,6.73,6.67,0,4.09-2.61,6.71-6.69,6.71Z"/>
            <path class="cls-1" d="M339.57,58.99c0,4.18-2.52,6.74-6.62,6.75-4.25,0-6.63-2.44-6.62-6.81,0-4.05,2.55-6.59,6.58-6.6,4.01,0,6.66,2.65,6.66,6.66Z"/>
            <path class="cls-1" d="M120.53,173.07c-3.77,0-6.52-2.88-6.52-6.81,0-3.8,2.86-6.57,6.76-6.56,3.58,0,6.44,2.99,6.44,6.71,0,3.77-2.92,6.67-6.69,6.66Z"/>
            <path class="cls-1" d="M232.66,177.9c4.04.01,6.51,2.62,6.5,6.84-.01,3.83-2.76,6.48-6.72,6.48-3.72,0-6.56-2.91-6.55-6.7,0-3.96,2.74-6.63,6.78-6.62Z"/>
            <path class="cls-1" d="M392.33,110.03c1.02.15,2.54-.08,2.99.51,1.51,1.97,3.98,3.3,3.58,6.61-.45,3.72-2.96,6.43-6.95,6.41-3.67-.02-6.33-2.88-6.32-6.8,0-3.94,2.73-6.63,6.71-6.73Z"/>
            <path class="cls-1" d="M260.59,29.32c3.81,0,6.59,2.88,6.57,6.79-.01,3.54-3.05,6.44-6.74,6.43-3.62,0-6.58-2.97-6.57-6.6,0-3.85,2.84-6.64,6.74-6.63Z"/>
            <path class="cls-1" d="M90.85,85.51c-4-.01-6.5-2.66-6.49-6.85.01-3.75,2.84-6.46,6.72-6.45,3.71,0,6.54,2.91,6.53,6.69,0,3.88-2.81,6.62-6.77,6.61Z"/>
            <path class="cls-1" d="M72.83,113.52c0-3.98,2.62-6.62,6.57-6.62,4.07,0,6.64,2.56,6.64,6.63,0,4.16-2.43,6.61-6.56,6.62-4.09,0-6.64-2.54-6.64-6.63Z"/>
            <path class="cls-1" d="M161.62,49.15c-3.71-.01-6.53-2.93-6.52-6.75.01-3.67,2.96-6.48,6.8-6.47,3.71.01,6.52,2.93,6.51,6.75-.01,3.67-2.96,6.48-6.8,6.47Z"/>
            <path class="cls-1" d="M102.49,154.84c3.72,0,6.65,2.93,6.65,6.63,0,3.62-3.02,6.57-6.72,6.56-3.53,0-6.55-3.01-6.55-6.53,0-3.73,2.91-6.66,6.63-6.66Z"/>
            <path class="cls-1" d="M72.79,138.31c-3.67,0-6.57-2.96-6.56-6.7,0-3.62,3-6.52,6.74-6.52,3.67,0,6.57,2.96,6.56,6.7,0,3.62-3,6.52-6.74,6.52Z"/>
            <path class="cls-1" d="M250.52,196.1c-3.56,0-6.53-3-6.53-6.6,0-3.75,2.89-6.54,6.75-6.53,3.68,0,6.53,2.87,6.53,6.56,0,3.68-2.98,6.57-6.75,6.57Z"/>
            <path class="cls-1" d="M367.8,77.24c-4.25,0-6.93-2.74-6.92-6.71,0-3.99,2.63-6.5,6.77-6.49,3.78,0,6.5,2.76,6.45,6.61-.02,1.09.1,2.74-.51,3.16-1.92,1.31-2.88,4.57-5.78,3.42Z"/>
            <path class="cls-1" d="M385.64,128.38c3.99,0,6.51,2.63,6.51,6.76,0,3.8-2.75,6.56-6.55,6.51-1.09-.01-2.66.13-3.17-.49-1.48-1.8-3.86-2.99-3.53-6.17.42-3.96,2.73-6.61,6.75-6.61Z"/>
            <path class="cls-1" d="M163.42,177.84c0,3.96-2.66,6.72-6.51,6.72-3.95,0-6.68-2.67-6.69-6.55,0-3.86,2.75-6.7,6.51-6.71,3.85-.01,6.68,2.76,6.69,6.53Z"/>
            <path class="cls-1" d="M278.92,47.52c-4.29,0-6.93-2.72-6.92-6.73,0-4,2.62-6.49,6.79-6.48,3.8.01,6.51,2.76,6.45,6.64-.02,1.09.1,2.74-.51,3.16-1.92,1.32-2.91,4.56-5.8,3.41Z"/>
            <path class="cls-1" d="M143.7,54.08c0,3.92-2.65,6.6-6.56,6.61-4.1,0-6.7-2.58-6.7-6.66,0-3.96,2.69-6.57,6.75-6.56,3.8,0,6.5,2.76,6.5,6.61Z"/>
            <path class="cls-1" d="M202.93,29.33c3.86,0,6.57,2.8,6.56,6.78-.01,3.64-2.94,6.45-6.71,6.43-3.56-.01-6.47-3.03-6.46-6.68.01-3.7,2.88-6.54,6.61-6.53Z"/>
            <path class="cls-1" d="M291.44,176.28c4.24.01,6.95,2.83,6.93,6.74-.01,3.83-2.77,6.43-6.8,6.42-3.67-.01-6.42-2.84-6.37-6.63.02-1.03-.11-2.61.45-2.98,1.99-1.3,2.86-4.75,5.78-3.55Z"/>
            <path class="cls-1" d="M308.17,171.16c.01-3.97,2.74-6.52,6.93-6.5,3.83.02,6.39,2.78,6.38,6.86-.01,3.97-2.74,6.52-6.93,6.5-3.83-.02-6.39-2.78-6.38-6.86Z"/>
            <path class="cls-1" d="M397.36,106.95c-4.14,0-6.84-2.8-6.83-6.72.01-3.86,2.74-6.45,6.77-6.44,3.66.01,6.44,2.85,6.39,6.6-.01,1.03.13,2.59-.44,2.99-1.95,1.36-2.93,4.59-5.89,3.57Z"/>
            <path class="cls-1" d="M67.84,97.02c-3.61,0-6.46-2.9-6.46-6.57,0-3.85,2.75-6.55,6.66-6.54,3.69,0,6.46,2.82,6.46,6.54,0,3.75-2.87,6.57-6.66,6.56Z"/>
            <path class="cls-1" d="M132.12,173.3c0-4.22,2.82-6.94,6.7-6.93,3.77,0,6.44,2.8,6.43,6.72,0,3.94-2.62,6.49-6.68,6.44-1.03-.01-2.61.17-2.99-.39-1.34-1.97-4.63-2.96-3.46-5.84Z"/>
            <path class="cls-1" d="M314.84,45.77c4.01,0,6.64,2.63,6.64,6.65,0,4.11-2.63,6.72-6.78,6.71-3.93,0-6.55-2.71-6.54-6.75,0-3.99,2.66-6.61,6.68-6.61Z"/>
            <path class="cls-1" d="M339.5,176.25c0,3.66-2.94,6.68-6.51,6.69-3.7,0-6.55-2.87-6.55-6.61,0-3.68,2.91-6.68,6.48-6.69,3.61,0,6.58,2.98,6.58,6.61Z"/>
            <path class="cls-1" d="M191.31,196.08c-3.54,0-6.54-3.01-6.54-6.55,0-3.62,3-6.55,6.69-6.54,3.56,0,6.54,2.97,6.54,6.49,0,3.62-3.02,6.6-6.69,6.6Z"/>
            <path class="cls-1" d="M349.39,164.99c0-4.06,2.82-6.86,6.57-6.86,3.91,0,6.54,2.72,6.53,6.75-.01,3.7-2.85,6.49-6.63,6.42-1.02-.02-2.56.05-2.96-.53-1.31-1.93-4.52-2.85-3.51-5.78Z"/>
            <path class="cls-1" d="M379.03,75.46c0-3.71,2.86-6.49,6.65-6.48,3.78,0,6.43,2.76,6.42,6.69,0,3.68-2.88,6.5-6.61,6.48-3.62-.02-6.47-2.96-6.46-6.69Z"/>
            <path class="cls-1" d="M179.85,184.55c0,3.76-2.85,6.59-6.63,6.58-3.5,0-6.5-2.99-6.5-6.49,0-3.8,2.81-6.69,6.53-6.69,3.83,0,6.61,2.77,6.61,6.6Z"/>
            <path class="cls-1" d="M95.74,67.28c-3.52-.02-6.31-2.98-6.3-6.69.02-3.64,2.84-6.39,6.55-6.38,3.72,0,6.5,2.88,6.48,6.7-.02,3.49-3.08,6.38-6.73,6.37Z"/>
            <path class="cls-1" d="M380.59,146.59c3.76,0,6.63,2.86,6.63,6.61,0,3.75-2.75,6.48-6.52,6.49-3.77,0-6.59-2.8-6.58-6.57,0-3.54,2.97-6.53,6.47-6.53Z"/>
            <path class="cls-1" d="M191.33,31.01c0,3.43-3.15,6.53-6.61,6.52-3.4-.01-6.35-3.02-6.36-6.47-.01-3.7,2.78-6.54,6.43-6.54,3.57,0,6.55,2.95,6.54,6.49Z"/>
            <path class="cls-1" d="M408.65,116.88c3.53,0,6.6,3.09,6.59,6.62-.01,3.57-3.01,6.44-6.7,6.43-3.53-.01-6.48-2.95-6.49-6.45,0-3.52,3.08-6.61,6.61-6.61Z"/>
            <path class="cls-1" d="M92.6,154.97c0,3.5-3.02,6.42-6.62,6.41-3.6-.01-6.42-2.89-6.42-6.55,0-3.86,2.78-6.6,6.66-6.57,3.55.02,6.39,3.01,6.38,6.71Z"/>
            <path class="cls-1" d="M250.59,29.31c0,3.56-2.96,6.56-6.47,6.57-3.72.01-6.54-2.87-6.53-6.66,0-3.58,2.9-6.42,6.51-6.41,3.46,0,6.49,3.04,6.49,6.49Z"/>
            <path class="cls-1" d="M62.95,126.85c0,3.27-3.22,6.49-6.47,6.5-3.52.01-6.51-3.02-6.51-6.6,0-3.58,2.99-6.61,6.51-6.6,3.35.01,6.48,3.26,6.47,6.7Z"/>
            <path class="cls-1" d="M61.36,115.17c-3.66,0-6.56-2.9-6.57-6.56,0-3.72,2.93-6.6,6.7-6.59,3.56.02,6.42,2.97,6.41,6.61-.01,3.63-2.92,6.55-6.54,6.54Z"/>
            <path class="cls-1" d="M120.7,42.61c3.47.01,6.44,3.02,6.43,6.54,0,3.72-2.92,6.59-6.66,6.56-3.57-.03-6.41-3.01-6.39-6.7.02-3.51,3.02-6.41,6.63-6.4Z"/>
            <path class="cls-1" d="M305.26,193.59c.24-1.69-3.16-2.89-1.44-5.85,2.74-4.74,5.97-6.16,9.89-3.19,3.57,3.38,3.08,6.94.66,9.43-2.43,2.5-5.96,3.03-9.11-.39Z"/>
            <path class="cls-1" d="M360.74,43.32c.02,1.85,2.7,3.3,1.35,5.98-1.08,2.13-2.79,3.34-4.62,4.46-2.51,1.54-3.92-1.7-5.7-1.58-.78-1.17-1.64-2.01-1.94-3.02-.3-1.03-.29-2.29.01-3.33.27-.94,1.11-1.72,1.91-2.89.63-.41,1.6-1.29,2.74-1.69.89-.32,2.08-.28,2.98.04,1.07.37,1.98,1.2,3.27,2.04Z"/>
            <path class="cls-1" d="M323.94,31.1c.83,1.31,1.66,2.25,2.03,3.35.31.91.33,2.09.02,2.99-.36,1.07-1.22,1.96-2.03,3.2q-4.26,1.09-8.39,0c-.83-1.25-1.69-2.14-2.05-3.21-.31-.9-.27-2.08.04-2.99.38-1.1,1.2-2.04,1.99-3.3,1.13-.46,2.62-1.55,4.12-1.57,1.5-.02,3.01,1.04,4.27,1.53Z"/>
            <path class="cls-1" d="M214.17,200.32c-1.24.83-2.13,1.69-3.19,2.05-.9.31-2.08.28-2.98-.03-1.09-.38-2.03-1.21-3.13-1.91-2.16-2.7-2.54-5.73,1.01-9.51,1.9-1.58,5.02-2.01,8.33,1.1q1.06,4.1-.03,8.31Z"/>
            <path class="cls-1" d="M77.6,76.92c-1.72.66-3.27,1.73-4.83,1.73-1.48,0-2.96-1.1-4.53-1.76-1.26-4.37-1.26-4.4-.04-9.3,1.59-.63,3.14-1.71,4.7-1.73,1.48-.02,2.97,1.07,4.55,1.72q1.37,3.91.16,9.33Z"/>
            <path class="cls-1" d="M410.33,110.01c.36-2.47-2.99-3.87-1.28-6.49,1.17-1.79,2.43-3.34,4.39-4.43,2.71-1.5,4.13,1.66,6.52,1.26-.03,2.4,2.78,3.97,1.42,6.61-1.02,1.97-2.55,3.3-4.42,4.43-2.71,1.65-4.17-1.5-6.64-1.39Z"/>
            <path class="cls-1" d="M342.57,45.04c-1.29.89-2.14,1.81-3.17,2.1-.99.27-2.17-.11-3.26-.24-.12-.01-.18-.46-.3-.47-2.22-.22-2.84-1.95-3.78-3.61-.82-1.43-1.03-2.42.03-3.77.6-.76.78-1.85,1.16-2.84,1.48-.56,3.06-1.6,4.65-1.62,1.49-.02,2.99,1.05,4.53,1.66q1.22,4.82.13,8.8Z"/>
            <path class="cls-1" d="M230.06,19.7c.88,1.32,1.72,2.25,2.14,3.34.3.78.27,1.88-.03,2.67-.41,1.08-1.23,2.01-2.14,3.41q-3.72,1-8.2.03c-.83-1.32-1.64-2.27-2.03-3.36-.3-.85-.32-1.97-.03-2.81.36-1.04,1.17-1.93,1.89-3.03.78-.52,1.76-1.5,2.91-1.83.92-.26,2.1.19,3.11.51,1,.31,1.92.86,2.38,1.07Z"/>
            <path class="cls-1" d="M72.28,154.32c-.85.59-1.71,1.47-2.75,1.81-.98.32-2.22.3-3.21-.02-1.04-.34-1.91-1.21-2.85-1.84-.54-.86-1.35-1.75-1.7-2.81-.31-.93-.38-2.11-.08-3.03.36-1.1,1.23-2.02,2.14-3.43.99-.38,2.55-1.44,4.12-1.44,1.56,0,3.12,1.07,4.09,1.44.93,1.42,1.8,2.35,2.15,3.44.3.91.21,2.09-.11,3.02-.33.99-1.13,1.82-1.8,2.84Z"/>
            <path class="cls-1" d="M264.33,200.51c-.66-1.07-1.43-1.95-1.76-2.97-.29-.87-.32-1.98-.03-2.84.36-1.08,1.15-2.02,1.73-2.98.97-.6,1.95-1.43,3.08-1.85.85-.31,1.94-.32,2.82-.07.9.25,1.66.97,2.49,1.47.16.1.49.04.55.15.64,1.15,1.43,2.26,1.81,3.49.38,1.23-.75,2.55-.79,3.44-.14,3.02-3.19,2.43-4.27,4.12-.25.39-1.79.22-2.58-.09-1.13-.45-2.1-1.27-3.05-1.86Z"/>
            <path class="cls-1" d="M399.52,146.45c-.84-1.28-1.66-2.12-1.96-3.11-.31-1.06-.39-2.34-.09-3.38.3-1.05,1.19-1.92,1.8-2.84.84-.53,1.69-1.35,2.69-1.62,1.09-.29,2.39-.3,3.48-.01,1,.27,1.84,1.1,2.97,1.82,1.91,2.68,2.66,5.81.04,8.93-1.58.63-3.15,1.74-4.74,1.77-1.51.02-3.04-1.09-4.19-1.55Z"/>
            <path class="cls-1" d="M399.55,87.01c-2.7-3.32-3.01-6.43.11-9.75,2.4-1.7,5.53-2.54,9.07,1.05,1.56,2.21,2.39,5.35-.29,8.48-1.59.63-3.18,1.74-4.77,1.75-1.52.01-3.05-1.11-4.11-1.55Z"/>
            <path class="cls-1" d="M378.45,167.06c.57.91,1.37,1.84,1.78,2.93.3.79.34,1.87.05,2.64-.41,1.08-1.23,2-1.68,3.15-1,.66-2.6.24-3.42,1.85-.17.33-1.68.24-2.4-.06-1.07-.44-2-1.24-3.14-1.69-.66-1-.24-2.61-1.84-3.43-.33-.17-.24-1.68.06-2.41.44-1.08,1.24-2,1.69-3.15,1-.66,2.6-.24,3.42-1.85.17-.33,1.68-.24,2.4.06,1.07.44,1.99,1.24,3.08,1.96Z"/>
            <path class="cls-1" d="M378.42,48.08c.64,1.02,1.43,1.9,1.79,2.94.3.85.33,1.97.03,2.82-.38,1.09-1.21,2.03-1.85,3.02-.86.54-1.8,1.35-2.9,1.74-.85.3-1.97.33-2.81.03-1.09-.39-2.02-1.22-3.01-1.85-.54-.87-1.35-1.81-1.74-2.91-.3-.85-.33-1.97-.03-2.82.38-1.09,1.21-2.03,1.85-3.02.86-.54,1.81-1.35,2.9-1.74.85-.3,1.97-.33,2.81-.03,1.09.39,2.02,1.22,2.96,1.82Z"/>
            <path class="cls-1" d="M139.74,31.04c1.03-.4,2.56-1.46,4.1-1.46,1.48,0,3.34.73,4.35,1.79,1.06,1.12,1.77,3,1.79,4.56.02,1.46-1.07,2.94-1.59,4.19-3.01,2.61-6.63,2.84-9.1.33-2.39-2.42-2.84-6.05.45-9.41Z"/>
            <path class="cls-1" d="M38.81,106.16c-.47-.8-1.24-1.75-1.63-2.84-.28-.79-.31-1.85-.02-2.63.41-1.15,1.21-2.16,1.63-2.88,1.21-.79,2.14-1.6,3.22-2.04.72-.29,1.74-.31,2.46-.02,1.08.44,2,1.25,3.29,2.1.37.64,1.16,1.66,1.57,2.81.29.79.31,1.85.02,2.63-.41,1.15-1.21,2.16-1.63,2.88-1.22.79-2.15,1.6-3.22,2.04-.72.29-1.74.31-2.46.02-1.08-.44-2-1.25-3.23-2.06Z"/>
            <path class="cls-1" d="M297.32,25.04c1.05-.67,1.97-1.47,3.03-1.85.79-.28,1.81-.19,2.65.05.86.24,1.61.88,2.42,1.31.22.12.64.06.72.21.56,1.02,1.11,2.05,1.55,3.13.48,1.18.77,2.37-.64,3.26-.27.17-.26.84-.33,1.28-.16,1.08-.63,1.75-1.82,1.97-.67.12-1.27.67-1.91,1-.23.12-.48.21-.73.26-1.75.38-5.09-1.69-5.59-3.38-.15-.51-.69-.92-.8-1.43-.21-.94-.53-2.01-.28-2.88.31-1.07,1.15-1.99,1.74-2.93Z"/>
            <path class="cls-1" d="M54.07,89.79c-.9.54-1.89,1.3-3.01,1.76-.67.28-1.58.29-2.27.07-1.04-.33-1.99-.97-2.98-1.47-.62-.32-2.8-5.03-2.36-5.33,1.78-1.22,1.01-4.82,4.35-4.59.62.04,1.33-1.04,1.91-.96,1.12.15,2.16.89,3.28,1.14,1.47.32,1.54,1.4,1.96,2.52.47,1.25,1.8,2.25,1.07,3.77-.49,1.03-1.22,1.95-1.95,3.1Z"/>
            <path class="cls-1" d="M426.39,87.11c.01,2.5-3.66,6.26-6.19,6.33-2.39.07-6.31-3.83-6.32-6.3-.01-2.46,3.87-6.38,6.29-6.34,2.53.04,6.21,3.77,6.22,6.3Z"/>
            <path class="cls-1" d="M227.58,207.67c-.5-.3-.97-.55-1.4-.86-.2-.14-.32-.6-.45-.59-2.4.15-3.12-1.32-3.35-3.34-.02-.16-.47-.23-.64-.41-.88-.95-.89-1.9.03-2.84.29-.3.71-.64.75-.99.18-1.65.83-2.7,2.69-2.63.3.01.68-.3.9-.57,1.04-1.26,1.99-1.17,2.98.06.21.26.62.53.93.51,1.81-.08,2.5.83,2.67,2.54.06.58.88,1.05,1.15,1.66.61,1.4-1.81,5.55-3.27,5.88-.6.14-1.13.61-1.7.92-.38.2-.76.39-1.28.66Z"/>
            <path class="cls-1" d="M44.75,120.23c-.15.33-.29.75-.51,1.13-1.08,1.9-2.07,3.68-4.45,4.54-1.23.44-1.89,1.07-2.91-.09-.29-.34-.84-.5-1.3-.63-1.3-.35-2.27-.91-2.3-2.49,0-.41-.56-.78-.68-1.22-.21-.73-.51-1.56-.35-2.25.21-.92.91-1.72,1.23-2.62.56-1.57,4.96-2.29,6.38-2.08,2.97.44,3.15,3.04,4.54,4.67.19.23.21.6.35,1.04Z"/>
            <path class="cls-1" d="M291.72,24.33c-.24.45-.44.9-.7,1.31-.09.15-.48.2-.48.29.05,2.66-1.91,3.38-3.87,4.12-.22.08-.33.42-.55.53-1.26.62-5.55-1.7-5.9-3.08-.17-.68-.67-1.26-.92-1.93-.22-.58-.55-1.29-.38-1.8.4-1.21.83-2.54,1.67-3.43.81-.86,2.24-1.08,3.22-1.82,1.39-1.04,2.29-.76,3.17.6.15.23.73.17,1.1.26,1.23.3,2,.89,2.19,2.34.11.87.9,1.66,1.46,2.61Z"/>
            <path class="cls-1" d="M357.26,182.84c0,2.6-3.71,6.41-6.28,6.37-.47,0-.94-.27-1.41-.42-2.89-.91-4.16-3.32-4.73-5.92-.46-2.13,3.91-6.43,6.09-6.41.48,0,.98.19,1.42.4,2.55,1.23,4.37,3.08,4.91,5.98Z"/>
            <path class="cls-1" d="M403.63,158c-.57,1.13-1.33,2.11-1.54,3.2-.31,1.58-1.28,1.88-2.6,2.11-.67.12-1.21.92-1.89,1.05-1.92.38-5.05-1.86-5.63-3.77-.21-.69-.89-1.24-1.07-1.92-.47-1.79,1.69-5.05,3.49-5.54.45-.12.84-.47,1.25-.74.26-.17.46-.46.74-.54,1.57-.48,5.22,1.84,5.73,3.43.3.94.97,1.76,1.51,2.72Z"/>
            <path class="cls-1" d="M56.23,143.09c-.59,1.34-1.18,2.33-1.45,3.4-.38,1.46-1.4,1.7-2.63,1.84-.34.04-.64.37-.96.57-.37.22-.73.57-1.13.64-1.54.25-4.82-2.1-5.26-3.62-.14-.5-.59-.91-.78-1.41-.24-.62-.66-1.4-.47-1.92.42-1.14,1.08-2.22,1.82-3.2.39-.52,1.14-.77,1.74-1.13.46-.27,1.02-.43,1.38-.8.94-.93,1.76-.92,2.64.06.28.31.68.64,1.05.69,1.64.22,2.53.98,2.74,2.75.1.81.92,1.54,1.3,2.14Z"/>
            <path class="cls-1" d="M396.76,59.09c-.07,2.77-3.81,6.36-6.46,6.21-2.46-.14-6.07-3.92-6.05-6.34.02-2.37,3.92-6.23,6.26-6.21,2.52.02,6.31,3.87,6.25,6.34Z"/>
            <path class="cls-1" d="M109.4,184.61c.01-1.83,2.26-4.67,3.98-5.18.71-.21,1.32-.84,2.03-.99,1.72-.36,4.85,1.85,5.28,3.59.09.36.16.83.42,1.01,1.52,1.11,1.57,2.1-.07,3.14-.24.15-.28.67-.35,1.03-.25,1.29-.91,2.11-2.3,2.31-.51.08-.95.52-1.44.78-.33.18-.76.53-1,.44-1.63-.62-3.5-1.04-4.74-2.14-1-.89-1.24-2.65-1.81-4.01Z"/>
            <path class="cls-1" d="M432.96,128.07c.03,1.99-2.21,4.93-3.89,5.45-.81.25-1.55.95-2.34.99-2.06.11-4.45-1.9-5.1-3.97-.29-.93-1.22-2.23-.9-2.69,1.11-1.61.7-4.71,3.93-4.49.25.02.51-.67.81-.7.87-.11,1.77-.16,2.63-.03.55.09,1.01.69,1.56.81,1.18.25,1.72.91,2.04,2.06.27.97.89,1.84,1.26,2.57Z"/>
            <path class="cls-1" d="M59.96,67.38c-.01,3.83-1.35,5.03-5.2,5.19-3.44.15-5.2-2.01-5.18-5.32.02-3.29,1.81-5.37,5.31-5.19,3.8.19,5.08,1.4,5.07,5.32Z"/>
            <path class="cls-1" d="M145.02,196.03c.01-3.85,1.38-5.1,5.25-5.22,3.64-.11,5.24,1.97,5.21,5.37-.03,3.4-1.67,5.36-5.36,5.22-3.85-.15-5.11-1.39-5.1-5.37Z"/>
            <path class="cls-1" d="M408.56,58.88c3.94-.01,5.26,1.24,5.28,5.03.03,3.8-1.48,5.34-5.22,5.33-3.64,0-5.16-1.52-5.18-5.17-.02-3.9,1.24-5.18,5.12-5.19Z"/>
            <path class="cls-1" d="M322.81,194.28c.04-3.96,1.25-4.92,5.46-5.08,3.33-.13,4.94,2.12,4.91,5.33-.03,3.5-1.68,5.13-5.17,5.12-3.32,0-5.63-1.59-5.2-5.37Z"/>
            <path class="cls-1" d="M207.84,12.58c3.74,0,5.15,1.4,5.18,5.11.03,3.85-1.38,5.28-5.21,5.28-3.84,0-5.07-1.27-5.06-5.21,0-3.95,1.22-5.18,5.09-5.18Z"/>
            <path class="cls-1" d="M426.92,146.53c0,3.94-1.25,5.25-5.06,5.26-3.83.01-5.31-1.47-5.29-5.28.02-3.67,1.52-5.16,5.2-5.17,3.93,0,5.13,1.2,5.14,5.18Z"/>
            <path class="cls-1" d="M102.62,37.41c3.66-.42,5.25,2.12,5.21,5.25-.04,3.02-1.61,5.13-5.44,5.11-3.65-.02-5.25-2.22-5.21-5.35.04-3.02,1.62-5.47,5.44-5.02Z"/>
            <path class="cls-1" d="M132.13,196.27c-3.96,0-5.24-1.23-5.26-5.07-.01-3.91,1.3-5.18,5.36-5.17,3.87.01,5.17,1.31,5.16,5.17-.01,3.84-1.29,5.07-5.26,5.07Z"/>
            <path class="cls-1" d="M79.39,48.89c3.83-.3,5.45,1.99,5.47,5.23.02,3.36-2.11,5.43-5.44,5.39-3.16-.04-5.21-1.68-5.2-5.36.01-3.62,1.63-5.49,5.17-5.25Z"/>
            <path class="cls-1" d="M74.35,173.04c-.01-4.1,1.01-5.16,5-5.19,3.97-.02,5.3,1.24,5.33,5.06.03,3.59-1.58,5.26-5.11,5.3-3.76.04-5.21-1.39-5.22-5.18Z"/>
            <path class="cls-1" d="M270.08,22.64c-2.86.45-6.19,1.12-7.73-2.17-.75-1.59-.44-4.29.45-5.91,1.59-2.89,5.31-2.88,7.2-1.46,3.4,2.55,3.23,6.26.08,9.54Z"/>
            <path class="cls-1" d="M121.94,28.91c.52-.51,1.04-1.03,1.55-1.54-.38-.41-.75-.81-1.13-1.22,2.9-.42,6.21-1.15,7.88,1.93.86,1.59.57,4.26-.1,6.11-.64,1.77-5.6,2.77-7.38,1.68-3.09-1.89-2.41-5.01-2.07-7.94.42.33.84.65,1.25.98Z"/>
            <path class="cls-1" d="M287.13,195.94c3.56.04,5.07,1.6,5.02,5.22-.05,3.7-1.58,5.07-5.62,5.01-3.85-.05-4.88-1.18-4.84-5.32.04-3.97,1.15-4.97,5.44-4.92Z"/>
            <path class="cls-1" d="M92.47,179.69c-.01-3.88,1.37-5.38,5.02-5.41,3.65-.04,5.17,1.51,5.18,5.26.01,4.17-1.03,5.24-5.12,5.23-4.03,0-5.07-1.04-5.08-5.08Z"/>
            <path class="cls-1" d="M161.59,24.43c0-4.17,1.03-5.23,5.14-5.22,4.04,0,5.05,1.02,5.07,5.1.01,3.89-1.37,5.38-5.04,5.41-3.62.03-5.16-1.55-5.16-5.28Z"/>
            <path class="cls-1" d="M251.62,17.74h-5.48c-3.2-3.32-3.25-6.55,0-9.79,2.67-.16,6.04-1.06,7.44,2.01,1.09,2.41,1.03,5.51-1.95,7.78Z"/>
            <path class="cls-1" d="M339.61,203.91v-5.7c.38.35.76.69,1.14,1.04.63-.64,1.26-1.27,1.89-1.91-.34-.38-.69-.76-1.03-1.14h5.68c-.35.38-.69.76-1.04,1.15l1.9,1.9,1.13-1.04v5.7c-.38-.35-.76-.7-1.14-1.04-.63.64-1.26,1.27-1.89,1.91.34.38.69.76,1.03,1.13h-5.68c.35-.38.69-.77,1.04-1.15-.63-.63-1.27-1.26-1.9-1.9-.38.35-.76.69-1.13,1.04Z"/>
            <path class="cls-1" d="M173.53,202.74c-.19,1.07-.01,2.52-.64,3.14-1.18,1.16-2.55,2.48-4.61,1.92-1.05-.28-2.55.09-3.17-.53-1.14-1.14-2.3-2.55-1.85-4.53.24-1.07-.12-2.52.47-3.22,1.13-1.35,2.69-2.36,4.72-1.91,1,.22,2.42-.11,2.99.46,1.18,1.2,2.71,2.51,2.09,4.66Z"/>
            <path class="cls-1" d="M181.57,205.01c1.48-1.69,2.97-2.35,5.01-2.41,2.1-.07,3.25,1.14,4.92,2.25-.1,1.86.28,4.11-.5,5.82-.48,1.06-2.01,2.72-4.11,2.13-1.16-.33-2.69.06-3.56-.56-2.61-1.86-1.87-4.77-1.77-7.22Z"/>
            <path class="cls-1" d="M349.4,20.29c0,.65.02,1.7,0,2.75-.02.85-.08,1.7-.13,2.55l-1.13-1.06c-.63.62-1.27,1.25-1.9,1.87.36.36.71.72,1.07,1.08-2.84.47-5.94.78-7.5-2.1-.78-1.44-.83-4.36.12-5.45,2.76-3.19,6.17-3.25,9.47.36Z"/>
            <path class="cls-1" d="M438.44,112.04c-.02,4.06-.99,4.99-5.16,4.98-4.15,0-5.09-.99-5.07-5.28.02-4.11,1.01-5.03,5.36-4.98,3.96.04,4.89,1.05,4.87,5.28Z"/>
            <path class="cls-1" d="M66.44,168.15c-.17,1.02,0,2.33-.57,3.01-1.14,1.34-2.57,2.54-4.66,2.01-.99-.25-2.37.05-2.97-.53-1.25-1.2-2.55-2.6-2-4.72.26-.99-.08-2.39.5-2.98,1.22-1.26,2.73-2.39,4.79-1.89.99.24,2.26-.03,2.99.5,1.45,1.06,2.25,2.65,1.93,4.61Z"/>
            <path class="cls-1" d="M426.69,75.77c-1.02-.16-2.33.01-2.99-.56-1.31-1.14-2.6-2.5-2.07-4.63.25-1-.16-2.51.41-3.03,1.29-1.18,2.71-2.59,4.87-2,.98.27,2.36-.06,2.95.52,1.23,1.2,2.05,2.66,1.9,4.71-.28,3.9-1.08,4.87-5.08,4.99Z"/>
            <path class="cls-1" d="M244.14,212.91c-1.09-.15-2.62.09-3.17-.54-1.1-1.25-2.54-2.59-2-4.7.27-1.05-.08-2.51.52-3.16,1.1-1.21,2.54-2.02,4.5-1.92,4.12.21,5.14,1.01,5.09,5.03-.01,1.09.1,2.47-.48,3.2-1.04,1.31-2.37,2.69-4.47,2.1Z"/>
            <path class="cls-1" d="M20.43,120.16c-4.21-.01-5.26-1.03-5.21-4.94.02-1.07-.02-2.37.53-3.17,1.04-1.5,2.61-2.37,4.63-1.97.95.19,2.41-.16,2.82.37,1.06,1.37,2.69,2.65,2.05,4.85-.28.98.1,2.5-.47,2.97-1.28,1.04-2.55,2.72-4.35,1.88Z"/>
            <path class="cls-1" d="M415.16,169.79c-1.03-.14-2.41.08-3.02-.51-1.18-1.14-2.42-2.51-1.94-4.53.24-1-.11-2.4.45-3.01,1.16-1.25,2.47-2.66,4.6-2.11,1,.26,2.58-.13,2.99.43.98,1.34,2.6,2.55,2,4.69-.28.99.13,2.34-.4,3.07-1.26,1.75-1.97,1.86-4.69,1.96Z"/>
            <path class="cls-1" d="M31.39,133.32c4.42,0,5.34.87,5.3,4.89,0,1.1.13,2.48-.44,3.23-1.03,1.33-2.46,2.17-4.47,2.06-3.97-.22-5.17-1.2-5.13-5.11,0-1.09-.14-2.57.47-3.18,1.17-1.16,2.51-2.66,4.28-1.89Z"/>
            <path class="cls-1" d="M29.12,83.8c-3-2.3-3.31-5.33-1.87-8.05.97-1.83,6.12-2.46,7.44-1.63,1.53.95,2.83,5.48,1.79,7.42-1.73,3.22-4.83,2.49-7.37,2.26Z"/>
            <path class="cls-1" d="M387.01,176.36c.19-1.07.02-2.51.65-3.13,1.18-1.17,2.49-2.6,4.59-2.04.99.27,2.47-.09,2.99.5,1.07,1.2,2.56,2.43,1.98,4.51-.29,1.04.02,2.4-.55,3.17-1.01,1.38-2.49,2.36-4.44,2.01-1.07-.19-2.66.07-3.14-.56-.95-1.23-2.79-2.33-2.09-4.46Z"/>
            <path class="cls-1" d="M23.91,92.19c2.8-.44,6.1-1.06,7.63,2.22.73,1.56.49,4.23-.4,5.77-1.59,2.78-5.28,2.93-7.19,1.5-3.38-2.53-3.25-6.23-.05-9.49Z"/>
            <path class="cls-1" d="M443.35,96.16c-2.56,3.2-5.46,3.37-8.23,1.99-1.15-.58-2.38-2.09-1.99-3.99.23-1.15-.06-2.49.42-3.48.81-1.66,5.45-2.75,7.39-1.83.82.39,1.91,1.14,2.05,1.88.37,1.97.29,4.02.36,5.43Z"/>
            <path class="cls-1" d="M43.06,58.02c.58,4.56.07,6.76-2.41,7.32-1.68.38-3.72.06-5.35-.59-.67-.26-2.36-1-1.96-2.79.29-1.32-.39-3.27.32-4.02,2.91-3.04,6.2-3.28,9.4.08Z"/>
            <path class="cls-1" d="M303.2,212.81c-.97-.13-2.36.1-2.82-.46-1.11-1.34-2.6-2.68-2.06-4.84.24-.94-.13-2.37.42-2.83,1.27-1.08,2.59-2.49,4.66-1.95.99.26,2.35-.06,2.99.51,1.25,1.11,2.35,2.55,1.9,4.54-.21.94.07,2.24-.47,2.81-1.18,1.24-2.38,2.95-4.61,2.22Z"/>
            <path class="cls-1" d="M267.29,212.78c-.13.97.07,2.45-.46,2.8-1.43.94-2.64,2.71-4.83,2.05-.92-.27-2.3.13-2.82-.41-1.22-1.27-2.48-2.73-1.94-4.84.24-.93-.08-2.26.46-2.81,1.2-1.24,2.59-2.19,4.69-2.01,3.63.31,4.84,1.37,4.92,5.23Z"/>
            <path class="cls-1" d="M148.49,24.62c-1.01-.18-2.46-.01-2.96-.62-1.07-1.32-2.54-2.66-1.95-4.79.26-.93-.08-2.26.46-2.81,1.16-1.19,2.52-2.4,4.53-1.93,1.01.23,2.48-.17,3.03.4,1.15,1.2,2.54,2.54,1.99,4.62-.26.98.05,2.45-.53,2.95-1.25,1.06-2.32,3.02-4.57,2.19Z"/>
            <path class="cls-1" d="M447.48,130.11c2.81,2.45,3.33,5.4,1.64,8.06-1.69,2.63-4.85,2.32-7.33,1.32-1.8-.72-2.72-5.12-1.73-7.01,1.69-3.21,4.75-2.69,7.42-2.37Z"/>
            <path class="cls-1" d="M364.33,185.11c2.35-2.68,5.13-2.97,7.99-1.56,2.03,1,1.98,3.12,1.85,5.08-.05.78,0,1.73-.41,2.28-1.33,1.76-5.04,2.66-7.17,1.89-.26-.09-.43-.4-.66-.58-2.47-2.03-1.94-4.69-1.6-7.1Z"/>
            <path class="cls-1" d="M47.34,156.58c3.21,2.18,3.47,5.28,2.13,7.74-1.44,2.65-4.6,2.51-7.47,1.82-2.57-1.98-2.82-5.08-1.64-7.56,1.34-2.83,4.57-2.41,6.98-2.01Z"/>
            <path class="cls-1" d="M186.96,17.67c-3.27-3.27-3.28-6.48.12-9.74h5.19c2.99,2.28,3.16,5.34,1.94,7.85-1.44,2.95-4.71,2.03-7.25,1.89Z"/>
            <path class="cls-1" d="M15.18,136.77c-.97-.13-2.37.1-2.81-.46-1.06-1.32-2.57-2.63-2-4.75.25-.92-.03-2.24.51-2.79,1.14-1.14,2.28-2.31,4.4-2.12,3.6.33,5.04,1.48,4.99,5.09-.01.96.07,2.19-.45,2.84-1.69,2.11-1.91,2.09-4.63,2.18Z"/>
            <path class="cls-1" d="M379.05,39.39c-1.01-.18-2.48,0-2.95-.61-.97-1.26-2.65-2.35-2.07-4.44.27-.99-.07-2.48.52-3,1.21-1.07,2.4-2.66,4.51-2.05.92.27,2.34-.09,2.8.46,1.05,1.24,2.68,2.36,2.13,4.48-.26,1,.07,2.44-.52,3.01-1.12,1.09-2.7,1.7-4.09,2.51-.11-.12-.23-.24-.34-.36Z"/>
            <path class="cls-1" d="M360.98,24.26c1,.19,2.29.06,2.94.65,1.21,1.1,2.58,2.35,2.05,4.42-.26.99.06,2.45-.53,2.96-1.26,1.11-2.47,2.72-4.64,2.13-.93-.26-2.43.14-2.82-.39-.99-1.36-2.6-2.61-2.01-4.75.27-.99-.11-2.45.47-2.99,1.18-1.1,2.42-2.72,4.54-2.03Z"/>
            <path class="cls-1" d="M61.37,44.22c3.84,0,4.93,1.07,4.88,4.93-.01,1.02.11,2.39-.46,2.98-1.12,1.16-2.3,2.66-4.39,2.09-.98-.27-2.4.07-2.97-.5-1.19-1.21-2.68-2.5-2.13-4.65.25-.99-.06-2.37.52-2.98,1.84-1.96,2.02-1.88,4.55-1.88Z"/>
            <path class="cls-1" d="M89.55,37.49c-.14,1.03.08,2.55-.51,2.98-1.34,1-2.49,2.73-4.65,2.15-.99-.27-2.41.06-2.98-.53-1.13-1.16-2.48-2.45-1.95-4.49.26-.99-.11-2.45.47-2.98,1.18-1.09,2.39-2.58,4.44-2.06,1,.25,2.54-.06,2.97.53.93,1.28,3.06,2.17,2.21,4.4Z"/>
            <path class="cls-1" d="M444.75,116.85c.15-1.03-.07-2.47.52-2.99,1.2-1.06,2.36-2.62,4.43-2.06,1.04.28,2.52,0,3.13.62,1.11,1.14,2.65,2.32,2.04,4.42-.28.98.1,2.45-.48,2.97-1.25,1.13-2.55,2.61-4.66,2.09-1-.25-2.47.06-2.97-.53-1.03-1.22-2.66-2.43-2.01-4.52Z"/>
            <path class="cls-1" d="M202.76,219.17c-3.61-.01-4.77-1.21-4.72-4.97.01-.96-.11-2.27.43-2.82,1.2-1.22,2.42-2.43,4.62-2.22,3.48.34,4.86,1.58,4.83,5.36-.02,3.42-1.41,4.66-5.16,4.65Z"/>
            <path class="cls-1" d="M331.39,17.98c-.15.9.02,2.15-.51,2.63-1.26,1.13-2.5,2.34-4.6,2.19-3.53-.25-4.89-1.46-4.88-5.12.01-3.54,1.42-4.93,5.06-4.85.96.02,2.4-.06,2.79.49.95,1.36,3.04,2.39,2.15,4.66Z"/>
            <path class="cls-1" d="M438.2,158.26c-.96-.17-2.34,0-2.79-.57-1.03-1.31-2.4-2.44-2.18-4.64.34-3.49,1.51-4.86,5.17-4.84,3.4.02,4.84,1.45,4.78,4.93-.02,1.02.06,2.42-.54,2.99-1.13,1.08-2.71,1.69-4.11,2.49-.11-.12-.22-.24-.34-.37Z"/>
            <path class="cls-1" d="M401.99,40.62c0,4-1.25,5.24-4.94,5.23-3.51-.01-4.99-1.49-4.92-5.06.02-.96-.05-2.37.51-2.79,1.29-.96,2.35-2.73,4.48-2.09.97.29,2.49-.05,2.94.54.97,1.26,2.85,2.34,1.93,4.17Z"/>
            <path class="cls-1" d="M230.86,11.22c-.96-.15-2.35.04-2.81-.53-1.01-1.27-2.37-2.36-2.19-4.49.29-3.51,1.56-5.02,5.03-5.02,3.46,0,4.97,1.51,4.91,5.04-.02,1.02.01,2.4-.59,2.97-1.11,1.05-2.67,1.62-4.04,2.39-.11-.12-.21-.25-.32-.37Z"/>
            <path class="cls-1" d="M449.9,75.6c-.16.96.02,2.35-.55,2.8-1.25,1.01-2.34,2.33-4.46,2.14-3.57-.32-4.97-1.4-4.98-4.86-.01-3.56,1.52-5.14,4.99-5.13,3.44,0,4.88,1.49,5,5.05Z"/>
            <path class="cls-1" d="M112.37,24.59c-.02,3.32-1.58,4.75-5.13,4.73-3.31-.02-4.74-1.58-4.73-5.13.02-3.19,1.73-4.78,5.13-4.75,3.12.03,4.75,1.8,4.72,5.15Z"/>
            <path class="cls-1" d="M13.6,90.54c-.01,2.98-1.96,4.84-5.06,4.81-2.92-.02-4.79-2.02-4.76-5.11.02-3.05,1.8-4.74,4.97-4.73,3.2,0,4.88,1.74,4.86,5.03Z"/>
            <path class="cls-1" d="M456.59,93.64c.94.2,2.16.09,2.75.65,1.22,1.16,2.11,2.54,1.97,4.55-.25,3.53-1.48,4.88-5.1,4.86-3.33-.02-4.86-1.67-4.84-5.2.02-3.41,1.48-4.73,5.22-4.86Z"/>
            <path class="cls-1" d="M308.35,6.23c3.47.01,4.77,1.41,4.74,5.12-.02,3.24-1.61,4.77-4.93,4.75-3.18-.02-4.91-1.76-4.9-4.94,0-3.37,1.63-4.95,5.1-4.93Z"/>
            <path class="cls-1" d="M173.28,11.07c-3.38,0-4.85-1.46-4.85-4.84,0-3.21,1.74-5.02,4.82-5.01,3.01,0,4.99,1.98,5,4.99,0,3.11-1.78,4.86-4.97,4.87Z"/>
            <path class="cls-1" d="M21.88,156.39c.01-3.31,1.6-4.84,5-4.83,3.16.02,4.84,1.76,4.83,5.01-.01,3.16-1.77,4.85-5.01,4.83-3.31-.02-4.84-1.61-4.83-5.01Z"/>
            <path class="cls-1" d="M290.21,11.08c-3.33,0-4.95-1.53-4.97-4.73-.02-3.31,1.73-5.14,4.92-5.13,3.07,0,4.87,1.84,4.87,4.98,0,3.3-1.54,4.87-4.82,4.88Z"/>
            <path class="cls-1" d="M6.93,108.71c-.02,2.13-2.87,4.9-4.98,4.86-1.95-.03-4.84-3.12-4.8-5.14.03-2.06,2.96-4.72,5.16-4.68,2.09.04,4.65,2.79,4.63,4.96Z"/>
            <path class="cls-1" d="M86.03,196.09c0-2,2.99-4.88,5.04-4.86,2.01.02,4.74,2.84,4.74,4.89,0,2.03-2.76,4.85-4.76,4.86-2.05.01-5.02-2.88-5.02-4.89Z"/>
            <path class="cls-1" d="M122.3,207.61c0-1.85,2.96-4.76,4.84-4.77,2,0,4.95,2.9,4.94,4.87-.01,1.79-3.08,4.9-4.84,4.91-1.92.01-4.94-3.06-4.94-5.01Z"/>
            <path class="cls-1" d="M415.2,40.86c1.97,0,4.91,2.93,4.92,4.91.01,2.15-2.82,4.93-5.01,4.91-2.07-.02-4.78-2.73-4.78-4.8,0-2.14,2.79-5.02,4.87-5.02Z"/>
            <path class="cls-1" d="M74.46,196.06c-1.89,0-4.76-3.04-4.74-5,.02-1.79,2.98-4.8,4.75-4.8,1.89,0,4.99,3.04,4.99,4.91,0,1.86-3.11,4.9-5,4.9Z"/>
            <path class="cls-1" d="M321.24,217.5c-1.86-.03-4.68-3.13-4.63-5.1.05-1.93,3.01-4.71,4.97-4.67,1.82.05,4.79,3.17,4.76,5.01-.03,1.79-3.25,4.8-5.11,4.76Z"/>
            <path class="cls-1" d="M13.58,78.8c-1.8,0-4.8-3.11-4.78-4.95.01-1.88,2.92-4.81,4.78-4.82,1.95-.01,4.9,2.96,4.88,4.92-.01,1.87-3.02,4.86-4.88,4.85Z"/>
            <path class="cls-1" d="M467.82,140.01c0,1.66-3.15,4.79-4.82,4.81-1.78.01-4.92-3.13-4.91-4.92.02-1.64,3.26-4.8,4.91-4.79,1.69.01,4.82,3.19,4.81,4.9Z"/>
            <path class="cls-1" d="M385.54,189.52c1.67-.01,4.9,3.21,4.91,4.9.02,1.88-2.98,4.85-4.89,4.84-1.75,0-4.79-2.92-4.83-4.62-.04-1.88,2.98-5.11,4.8-5.13Z"/>
            <path class="cls-1" d="M405.49,182.78c.02-1.87,3.02-4.8,4.89-4.76,1.79.04,4.84,3.14,4.84,4.91,0,1.76-3.18,4.85-4.98,4.85-1.84,0-4.77-3.08-4.74-5Z"/>
            <path class="cls-1" d="M428.46,169.41c.06-1.6,3.47-4.64,5.14-4.59,1.68.06,4.66,3.37,4.61,5.12-.05,1.69-3.3,4.65-5.04,4.61-1.86-.05-4.78-3.23-4.7-5.14Z"/>
            <path class="cls-1" d="M426.83,52.37c.02-1.69,3.22-4.82,4.92-4.81,1.74.01,4.78,3.1,4.78,4.87,0,1.84-3.11,4.93-4.94,4.91-1.63-.02-4.78-3.3-4.76-4.96Z"/>
            <path class="cls-1" d="M108.94,207.6c-1.87-.03-4.78-3.15-4.73-5.09.05-1.92,3.06-4.74,5.03-4.69,1.92.04,4.77,3.11,4.72,5.1-.04,1.69-3.28,4.71-5.02,4.69Z"/>
            <path class="cls-1" d="M461.33,87.05c-1.72,0-4.86-3.13-4.87-4.85,0-1.68,3.14-4.9,4.8-4.91,1.79-.01,4.9,3.14,4.88,4.95-.02,1.75-3.09,4.81-4.82,4.81Z"/>
            <path class="cls-1" d="M145.36,209.35c1.66.01,4.77,3.22,4.78,4.93.01,1.73-3.06,4.78-4.82,4.78-1.78,0-4.88-3.07-4.86-4.82.02-1.68,3.25-4.9,4.9-4.89Z"/>
            <path class="cls-1" d="M56.43,179.63c1.64,0,4.8,3.19,4.82,4.87.03,1.77-2.98,4.81-4.76,4.83-1.75.02-4.91-3.06-4.91-4.77,0-1.67,3.21-4.93,4.85-4.94Z"/>
            <path class="cls-1" d="M8.8,154.7c-1.63.04-4.9-3.05-4.95-4.67-.05-1.59,3.15-4.96,4.73-4.98,1.62-.03,4.94,3.17,4.95,4.76.01,1.64-3.1,4.85-4.73,4.89Z"/>
            <path class="cls-1" d="M467.89,118.58c1.83,0,4.83,3.07,4.81,4.92-.02,1.73-3.1,4.82-4.81,4.82-1.71,0-4.8-3.09-4.81-4.82-.02-1.86,2.98-4.92,4.81-4.92Z"/>
            <path class="cls-1" d="M132.04,17.72c-1.78-.02-4.74-3.11-4.73-4.94,0-1.86,3.14-4.89,5.01-4.86,1.69.03,4.66,3.26,4.63,5.04-.03,1.78-3.12,4.77-4.91,4.76Z"/>
            <path class="cls-1" d="M43.12,47.37c-1.48-.04-4.62-3.48-4.56-5.01.05-1.44,3.32-4.66,4.72-4.65,1.55,0,4.69,3.32,4.66,4.91-.03,1.58-3.28,4.78-4.82,4.75Z"/>
            <path class="cls-1" d="M1.99,126.8c-.01,1.67-3.23,4.76-4.92,4.74-1.63-.03-4.74-3.2-4.73-4.82.01-1.53,3.26-4.73,4.81-4.73,1.7,0,4.85,3.13,4.83,4.82Z"/>
            <path class="cls-1" d="M479.66,105.42c-.94,1.24-1.63,2.3-2.49,3.2-.56.59-1.31,1.14-2.08,1.35-1.79.51-2.72-1.16-3.97-1.94-.63-.39-1.09-1.33-1.29-2.1-.47-1.78,1.07-2.79,1.94-3.98.5-.68,1.54-1.4,2.29-1.35,1.06.07,2.27.62,3.08,1.35,1,.91,1.64,2.21,2.53,3.46Z"/>
            <path class="cls-1" d="M70.97,31.04c.13,1.45-3.37,4.87-4.84,4.67-1.53-.21-4.62-3.27-4.6-4.79.01-1.57,3.37-4.79,4.92-4.72,1.49.07,4.56,3.35,4.52,4.84Z"/>
            <path class="cls-1" d="M461.03,158.11c-.01,1.56-3.07,4.65-4.59,4.66-1.59,0-4.67-3.05-4.7-4.65-.03-1.63,3.13-4.72,4.78-4.67,1.43.04,4.52,3.23,4.5,4.65Z"/>
            <path class="cls-1" d="M95.63,19.3c.04,1.52-2.97,4.57-4.47,4.79-1.34.2-4.79-3.26-4.81-4.55-.02-1.61,3.01-4.77,4.67-4.77,1.41,0,4.57,3.11,4.61,4.54Z"/>
            <path class="cls-1" d="M24.93,55.9c-.04,1.42-3.41,4.57-4.84,4.52-1.6-.05-4.55-3.21-4.41-4.78.17-1.82,2.99-4.47,4.56-4.49,1.5-.02,4.73,3.31,4.69,4.75Z"/>
            <path class="cls-1" d="M362.51,201.31c1.62,0,4.73,3.1,4.72,4.72,0,1.63-3.13,4.71-4.76,4.69-1.42-.02-4.67-3.22-4.69-4.62-.03-1.5,3.22-4.78,4.73-4.79Z"/>
            <path class="cls-1" d="M43.22,179.79c-.69,1.01-1.34,2.15-2.17,3.14-.41.49-1.13.73-1.72,1.06-1.07.59-3.83-.61-4.34-1.83-.18-.43-.57-.77-.75-1.2-.27-.65-.83-1.58-.58-1.99.98-1.63,2.35-3,3.96-4.02.42-.27,1.42-.14,1.83.2,1.22,1.01,2.29,2.19,3.37,3.35.23.25.24.71.41,1.28Z"/>
            <path class="cls-1" d="M118.67,7.78c.04,1.49-2.99,4.66-4.53,4.73-1.55.07-4.75-2.98-4.79-4.57-.03-1.56,3.07-4.73,4.62-4.73,1.49,0,4.65,3.08,4.69,4.57Z"/>
            <path class="cls-1" d="M354.04,6.26c0,1.55-3.14,4.66-4.69,4.65-1.6-.01-4.65-3.13-4.62-4.72.03-1.53,3.09-4.65,4.59-4.67,1.6-.03,4.71,3.1,4.72,4.74Z"/>
            <path class="cls-1" d="M449.82,62.01c-1.48.04-4.65-3.05-4.67-4.57-.02-1.5,3.09-4.65,4.59-4.65,1.47,0,4.57,2.98,4.64,4.47.08,1.52-2.98,4.71-4.56,4.75Z"/>
            <path class="cls-1" d="M209.77-.29h9.23c1.15,2.6-.06,4.65-1.98,5.73-1.32.75-3.61.83-4.99.18-2.11-1-3.2-3.12-2.26-5.91Z"/>
            <path class="cls-1" d="M225.58,220.77h-9.79c.43-1.71.45-3.42,1.24-4.62,1.6-2.43,4.42-2.6,6.57-1.43,1.91,1.03,3.15,3.27,1.98,6.05Z"/>
            <path class="cls-1" d="M150.71-.32c2.58,0,5.38-.05,8.17.05.39.01,1.03.71,1.1,1.16.3,1.86-2.68,5.35-4.57,5.17-1.11-.11-2.58-.61-3.15-1.44-.92-1.34-2.95-2.49-1.55-4.94Z"/>
            <path class="cls-1" d="M275.68,220.68c-1.33-3.22,1.49-4.4,2.99-6.05.51-.56,2.59-.6,3.09-.07,1.53,1.64,4.3,2.81,3.12,6.12h-9.19Z"/>
            <path class="cls-1" d="M166.31,220.71h-8.91c-1.48-2.29.48-3.6,1.46-4.67.88-.96,2.27-2.55,4.15-1.54,1.88,1.01,3.58,4.11,3.3,6.21Z"/>
            <path class="cls-1" d="M16.92,169.65h6.51v6.57h-6.51v-6.57Z"/>
            <path class="cls-1" d="M364.22,14.46v-6.51h6.59v6.51h-6.59Z"/>
            <path class="cls-1" d="M400.44,196.18h6.27c.12.64.24,1.14.3,1.65.57,4.58-.71,5.81-5.2,4.86-.53-.11-1.25-.9-1.31-1.44-.17-1.6-.06-3.23-.06-5.08Z"/>
            <path class="cls-1" d="M398.83,25.9v-6.28c.96-.1,1.85-.3,2.73-.28,4.12.06,3.89-.09,3.93,3.84.03,2.67-.23,2.89-2.87,2.94-1.16.02-2.33-.12-3.79-.21Z"/>
            <path class="cls-1" d="M53.16,25.95c.01,3.15-.23,3.41-3.22,3.42-3.01.02-3.49-.44-3.5-3.31,0-2.77.58-3.38,3.29-3.4,3.03-.03,3.42.35,3.44,3.29Z"/>
            <path class="cls-1" d="M417.02,26.16h5.95c1.59,6.23.17,7.47-5.95,6.06v-6.06Z"/>
            <path class="cls-1" d="M-6.02,64.15H.41v6.25h-6.43v-6.25Z"/>
            <path class="cls-1" d="M382.32,20.9v-6.28h6.44v6.28h-6.44Z"/>
            <path class="cls-1" d="M464.78,67.17v-6.37h6.23v6.37h-6.23Z"/>
            <path class="cls-1" d="M423.53,184.59h6.38v6.43h-6.38v-6.43Z"/>
            <path class="cls-1" d="M380.61,215.94c-2.83,0-3.27-.46-3.27-3.36,0-2.71.68-3.38,3.4-3.35,2.43.02,3.24.87,3.24,3.4,0,2.83-.5,3.32-3.37,3.31Z"/>
            <path class="cls-1" d="M448.27,179.32v-6.04c1.19-.1,2.22-.26,3.25-.27,3.05-.02,3.34.3,3.34,3.35,0,2.89-.33,3.23-3.27,3.22-1.03,0-2.07-.16-3.31-.26Z"/>
            <path class="cls-1" d="M.48,167.99c0-3.1.22-3.32,3.33-3.31,2.98,0,3.23.28,3.21,3.43-.02,2.89-.41,3.29-3.24,3.3-2.92,0-3.31-.4-3.31-3.42Z"/>
            <path class="cls-1" d="M25.06,40.85c-2.76,0-3.25-.53-3.23-3.42.02-2.62.55-3.11,3.35-3.1,2.67.01,3.28.61,3.29,3.22,0,2.71-.61,3.3-3.42,3.3Z"/>
            <path class="cls-1" d="M267.4-.34c2.86,0,5.74-.04,8.62.05.32,0,.93.77.87,1.08-.27,1.49-3.9,3.92-5.45,3.79-1.61-.13-4.17-3.13-4.04-4.93Z"/>
            <path class="cls-1" d="M49.92,199.39c1.53.02,3.18,1.77,3.18,3.36,0,1.59-1.78,3.26-3.42,3.23-1.51-.03-3.18-1.82-3.16-3.38.02-1.54,1.81-3.24,3.4-3.22Z"/>
            <path class="cls-1" d="M67.98,206.04c1.66,0,3.22,1.58,3.23,3.25,0,1.7-1.56,3.36-3.2,3.37-1.79.01-3.35-1.61-3.33-3.44.02-1.63,1.64-3.19,3.3-3.18Z"/>
            <path class="cls-1" d="M438.18,37.59c-1.95-.01-3.16-1.33-3.14-3.4.01-1.96,1.36-3.3,3.32-3.28,1.87.01,3.16,1.43,3.14,3.46-.02,2.01-1.29,3.24-3.32,3.23Z"/>
            <path class="cls-1" d="M408.55,7.87c-2.01-.01-3.16-1.26-3.15-3.41.01-2.03,1.3-3.3,3.33-3.28,1.94.02,3.17,1.37,3.15,3.46-.02,2.08-1.22,3.24-3.33,3.23Z"/>
            <path class="cls-1" d="M86.12,217.58c-1.85,0-3.37-1.46-3.37-3.27,0-1.82,1.45-3.33,3.22-3.35,1.89-.02,3.41,1.4,3.44,3.2.03,1.89-1.44,3.41-3.29,3.42Z"/>
            <path class="cls-1" d="M336.01,215.92h6.89c-.11,1.7-.21,3.25-.31,4.79-2.01.02-4.03.05-6.04.07-.17-1.54-.34-3.07-.54-4.86Z"/>
            <path class="cls-1" d="M99.24,4.62h-6.56c-.09-1.69-.17-3.18-.27-5,2.2,0,4.21-.05,6.21.05.3.01.8.67.81,1.05.04,1.18-.1,2.36-.2,3.9Z"/>
            <path class="cls-1" d="M76.12,12.9c-.01,2.01-1.31,3.25-3.37,3.23-2-.02-3.13-1.3-3.1-3.5.03-1.92,1.29-3.14,3.27-3.13,1.99,0,3.21,1.31,3.2,3.4Z"/>
            <path class="cls-1" d="M331.22-.45c1.31.06,2.63.09,3.93.21.32.03.6.37.9.57-.21.27-.39.58-.63.82-.84.84-1.75,1.61-2.54,2.48-1.1,1.23-2.13,1.19-3.3-.13-.74-.83-1.6-1.56-2.39-2.35-.24-.24-.4-.56-.6-.84.3-.2.58-.54.9-.57,1.24-.12,2.49-.14,3.73-.2Z"/>
            <path class="cls-1" d="M457.73,37.82c.74,1.5,3.26,2.63,1.34,4.66-1.02,1.07-2.39,2.88-3.98,1.44-.99-.89-3.07-2.26-1.76-4.06.92-1.26,2.06-3.22,4.41-2.04Z"/>
            <path class="cls-1" d="M477.76,164.89c-.02,1.65-1.68,3.16-3.45,3.13-1.59-.03-3.19-1.69-3.18-3.31.01-1.63,1.68-3.25,3.35-3.25,1.69,0,3.3,1.68,3.28,3.43Z"/>
            <path class="cls-1" d="M469.14,7.75h-2.44c-.39-1.57-3.25-2.45-1.56-4.49.84-1.01,2.02-3.12,3.94-1.73.91.66,1.75,2.05,1.78,3.13.03.99-1.07,2.01-1.72,3.08Z"/>
            <path class="cls-1" d="M58,7.96c-.02,1.6-1.73,3.14-3.44,3.1-1.52-.03-3.07-1.77-3.04-3.39.03-1.49,1.8-3.05,3.42-3,1.46.04,3.08,1.78,3.06,3.29Z"/>
            <path class="cls-1" d="M5.37,49.23c-.02,1.55-1.73,3.2-3.29,3.18-1.61-.02-3.24-1.73-3.23-3.38.02-1.68,1.72-3.21,3.51-3.16,1.38.04,3.03,1.88,3.01,3.36Z"/>
            <path class="cls-1" d="M33.37,194.56c1.34,0,3.12,1.75,3.14,3.08.02,1.52-1.73,3.29-3.22,3.27-1.34-.02-3.05-1.85-3.03-3.25.01-1.35,1.77-3.1,3.12-3.1Z"/>
            <path class="cls-1" d="M398.79,214.5c1.15.01,3.01,1.97,2.96,3.12-.04,1.04-1.99,2.92-3.02,2.91-1.1-.01-2.94-1.86-2.96-2.97-.02-1.17,1.86-3.07,3.02-3.06Z"/>
            <path class="cls-1" d="M33.65-.28h6.08c1.09,2.2-.22,3.62-1.6,4.66-.66.5-2.33.49-2.97-.01-1.33-1.06-2.59-2.51-1.52-4.65Z"/>
            <path class="cls-1" d="M419.5,205.68c.35-.76.69-1.53,1.04-2.29.03-.06.08-.16.1-.16.85.12,1.97-.03,2.49.45,1.01.97,3.15,1.96.93,3.82-.29.24-.51.6-.83.74-.74.31-2.11.85-2.2.7-.77-1.34-3.36-1.69-2.17-4.1.21.28.43.56.64.83Z"/>
            <path class="cls-1" d="M447.91,195.35c-.71.67-1.18,1.24-1.77,1.62-.49.32-1.35.74-1.66.53-.98-.64-2.01-1.42-2.56-2.4-.45-.79.03-1.58,1-2.36.94-.76,1.93-2.01,2.75-1.09.93,1.04,3.38,1.52,2.25,3.7Z"/>
            <path class="cls-1" d="M468.33,184.49c-1.66-.37-3.48-2.19-3.43-3.35.05-1.05,1.91-2.78,3-2.78,1.22,0,3.34,1.96,2.91,2.96-.52,1.19-1.62,2.13-2.47,3.17Z"/>
            <path class="cls-1" d="M15.28,194.14c-1.21.02-3.1-1.78-3.11-2.96-.01-1.18,1.85-3.01,3.06-3.01,1.1,0,3.01,1.79,3.05,2.86.05,1.24-1.73,3.09-3,3.11Z"/>
            <path class="cls-1" d="M472.78,42.89c1.14-.02,2.93,1.83,2.92,3.02,0,1.13-2.05,3.37-2.88,2.91-1.13-.63-2.2-1.72-2.78-2.87-.47-.92,1.65-3.05,2.74-3.07Z"/>
            <path class="cls-1" d="M393.59,2.91h-6.1c-.12-.66-.17-1.17-.31-1.66-.32-1.21.08-1.73,1.35-1.65.91.06,1.84.01,2.75.01q2.93,0,2.3,3.3Z"/>
            <path class="cls-1" d="M446.67-.39c1.85,0,3.56-.07,5.25.05.41.03,1.12.71,1.1,1.06-.07,1.28-2.33,2.45-4.02,2.21-1.17-.16-2.42-1.82-2.33-3.32Z"/>
            <path class="cls-1" d="M10.49,30.9c.22,1.31-.21,1.95-1.66,1.94-1.35,0-2.04-.28-2.01-1.85.03-1.39.47-1.84,1.83-1.8,1.23.04,2.13.17,1.84,1.72Z"/>
            <path class="cls-1" d="M33.36,21.04h-3.23v-3.24h3.23v3.24Z"/>
            <path class="cls-1" d="M426.82,9.31c1.61-.32,1.75.64,1.78,1.94.03,1.43-.46,1.98-1.91,1.95-1.47-.03-1.95-.7-1.94-2.05,0-1.43.63-2.06,2.08-1.84Z"/>
            <path class="cls-1" d="M441.62,17.62v-2.91h3.09v2.91h-3.09Z"/>
            <path class="cls-1" d="M441.24,212.41h-2.76v-2.88h2.76v2.88Z"/>
            <path class="cls-1" d="M461.91,21.06c.27.62.66,1.22.78,1.87.19,1.08-.6,1.49-1.43,1.21-.55-.18-1.24-.91-1.26-1.41-.02-.56.65-1.15,1.02-1.72.3.02.59.04.89.06Z"/>
            <path class="cls-1" d="M462.47,201.07c-.33-.53-.83-1.03-.94-1.61-.21-1.08.49-1.68,1.48-1.4.55.16,1.28.85,1.32,1.36.04.52-.64,1.11-1.01,1.66-.28,0-.56,0-.85-.01Z"/>
          </g>
        </g>
      </g>
      <g>
        <g>
          <path class="cls-3" d="M92.1,90.11c.65.35,1.46.69,2.42,1.01.96.32,1.93.59,2.94.81,1,.22,1.85.33,2.54.33.3,0,.58-.06.82-.16s.36-.31.36-.62c0-.22-.06-.39-.2-.52-.22-.18-.45-.35-.69-.52-.24-.18-.47-.35-.69-.53-1-.78-1.95-1.66-2.87-2.64-.91-.98-1.74-2.01-2.48-3.1-.44-.65-.85-1.34-1.24-2.06-.39-.72-.78-1.42-1.17-2.12-.18-.27-.32-.56-.46-.88-.13-.33-.3-.62-.52-.88-.18-.3-.44-.46-.79-.46-.22,0-.62.18-1.21.52-.59.35-1.24.76-1.96,1.24-.72.48-1.38.94-1.99,1.38-.61.44-1.05.74-1.31.91.87,1.74,2.08,3.34,3.62,4.8,1.54,1.46,3.17,2.62,4.86,3.49Z"/>
          <path class="cls-3" d="M114.3,87.66c-1.35,3.95-3.07,7.77-5.16,11.46-2.09,3.7-4.54,7.05-7.34,10.05-1.61,1.73-3.33,3.25-5.15,4.57-2.82-4.28-7.01-7.71-12.22-9.51-8.43-2.91-17.39-.85-23.68,4.62-.57-.49-1.24-.89-2-1.15-3.21-1.11-6.71.59-7.82,3.8-1,2.91.31,6.05,2.96,7.44-.02.06-.05.11-.07.17-.94,2.73-1.38,5.54-1.32,8.34-5.99.28-11.5,4.13-13.57,10.13-1.32,3.81-1.08,7.91.68,11.53,1.77,3.63,4.83,6.35,8.65,7.67,1.61.56,3.28.84,4.94.84,2.26,0,4.5-.52,6.59-1.53,3.13-1.52,5.58-4.02,7.04-7.12.61.27,1.23.53,1.87.75,2.59.9,5.24,1.32,7.84,1.32,9.98,0,19.33-6.25,22.77-16.19,2.11-6.1,1.61-12.48-.9-17.92.94-.46,1.86-.95,2.77-1.49,1.92-1.13,3.63-2.24,5.16-3.33,3.57-2.61,6.65-5.68,9.27-9.2,2.6-3.53,4.76-7.34,6.46-11.43s2.95-8.26,3.78-12.53l-8.68-2.74c-.57,3.7-1.52,7.52-2.87,11.45ZM59.19,154.86c-3.3,1.61-7.02,1.83-10.49.63-3.46-1.2-6.26-3.67-7.86-6.97-1.6-3.3-1.83-7.03-.63-10.5,1.2-3.46,3.68-6.25,6.98-7.86,1.71-.83,3.53-1.27,5.37-1.35.23,2.98,1.02,5.92,2.36,8.69,2.31,4.75,6.05,8.51,10.68,10.87-1.33,2.83-3.56,5.11-6.41,6.49ZM66.22,146.84c-4.25-2.21-7.69-5.68-9.81-10.07-1.24-2.53-1.95-5.22-2.18-7.95,1.16.09,2.32.33,3.45.72,3.46,1.2,6.26,3.67,7.86,6.97,1.58,3.25,1.81,6.91.68,10.33ZM97.75,134.31c-4.04,11.68-16.83,17.9-28.51,13.85-.61-.21-1.2-.46-1.79-.71,1.32-3.81,1.08-7.91-.68-11.53-1.77-3.63-4.84-6.35-8.65-7.67-1.3-.45-2.63-.7-3.95-.78-.06-2.63.33-5.27,1.21-7.82.02-.05.04-.09.06-.14,3,.65,6.08-1.02,7.11-4,.65-1.88.33-3.87-.7-5.41,4.05-3.52,9.29-5.54,14.74-5.54,2.42,0,4.89.4,7.3,1.23,4.87,1.69,8.78,4.89,11.4,8.89-.93.6-1.88,1.17-2.85,1.67,0-1.13-.39-2.13-1.15-3s-1.73-1.3-2.9-1.3c-1.01,0-1.89.4-2.65,1.2-.76.81-1.14,1.71-1.14,2.71,0,1.22.53,2.11,1.6,2.65,1.07.54,2.1.81,3.1.81,1.96,0,3.95-.38,5.97-1.14.55-.21,1.1-.43,1.64-.67,2.34,5.07,2.81,11.02.84,16.7Z"/>
          <path class="cls-3" d="M195.37,88.35c-.83,0-1.55.24-2.16.72-.61.48-.91,1.15-.91,2.02,0,.44.16.86.49,1.27.32.41.69.69,1.07.82-.74.56-1.69.95-2.87,1.14-1.18.2-2.22.29-3.13.29-2,0-3.99-.2-5.98-.59-1.98-.39-3.95-.78-5.91-1.17-2.39-.48-4.83-.93-7.31-1.37-2.48-.44-4.96-.65-7.44-.65-3.18,0-6.32.15-9.43.46-3.11.31-6.24.7-9.37,1.18l.33,6.33c2.57-.43,5.14-.8,7.73-1.1,2.59-.31,5.19-.46,7.8-.46,1.39,0,2.81.05,4.24.16,1.43.11,2.85.32,4.24.62,2.26.48,4.53.9,6.79,1.27,2.26.37,4.55.55,6.85.55,2.66,0,5.34-.38,8.06-1.14,2.72-.76,5.17-1.9,7.35-3.43.61-.44,1.2-1.04,1.76-1.8.56-.76.84-1.51.84-2.25,0-.87-.3-1.57-.91-2.09-.61-.52-1.33-.79-2.15-.79Z"/>
          <path class="cls-3" d="M255.45,69.32c-.59-.8-1.18-1.48-1.8-2.02-.61-.54-1.13-.81-1.57-.81-.22,0-.63.23-1.24.69-.61.46-1.18.95-1.7,1.47-.52.53-.78.91-.78,1.18,0,.17.07.3.23.39.15.09.29.18.43.26.35.13.89.39,1.63.79.74.39,1.56.81,2.45,1.24.89.44,1.68.82,2.38,1.14.7.33,1.15.49,1.37.49.13,0,.27-.08.43-.23.15-.15.23-.3.23-.43,0-.44-.2-1.04-.59-1.8-.39-.76-.88-1.55-1.47-2.35Z"/>
          <path class="cls-3" d="M228.76,75.39c-1.33-.54-2.75-1.05-4.28-1.54-1,3.96-2.44,7.82-4.31,11.59-1.87,3.76-4.11,7.26-6.72,10.48-.05.04-.12.16-.23.36-.11.2-.16.34-.16.43,0,.18.04.34.13.49.08.15.21.23.39.23,1.22,0,2.49-.38,3.82-1.14,1.33-.76,2.43-1.49,3.3-2.18,1.34-1.13,2.67-2.5,3.98-4.11,1.31-1.61,2.5-3.31,3.59-5.09s1.98-3.46,2.68-5.03h15.34c-.74,2.92-1.67,5.81-2.78,8.68-1.11,2.87-2.4,5.66-3.88,8.36-.65-.65-1.49-1.37-2.51-2.15-1.03-.79-2.06-1.54-3.1-2.25-1.04-.72-1.98-1.32-2.8-1.8-.52-.26-.95-.37-1.27-.33-.32.05-.66.22-1.01.53-.13.17-.42.56-.88,1.17-.46.61-.95,1.27-1.47,1.99-.53.72-.98,1.36-1.38,1.92-.39.57-.58.89-.58.98,0,.44.26.7.78.79.48.08,1.2.22,2.16.39.96.17,1.94.35,2.97.52,1.02.18,1.82.32,2.38.46.74.18,1.55.37,2.42.58.87.22,1.65.44,2.35.65-2.14,3.39-4.59,6.51-7.38,9.34-2.78,2.83-5.96,5.2-9.53,7.11-.61.3-1.21.59-1.8.85s-1.18.52-1.8.78c.04-1.04-.37-2.02-1.24-2.94-.87-.91-1.83-1.37-2.87-1.37s-1.89.37-2.65,1.11c-.76.74-1.14,1.61-1.14,2.61,0,1.17.4,2.05,1.21,2.61.8.56,1.73.85,2.77.85,1.48,0,2.93-.14,4.34-.42,1.41-.28,2.84-.64,4.28-1.08,5.48-1.74,10.33-4.38,14.55-7.93,4.22-3.54,7.84-7.73,10.84-12.56,1.26-2.05,2.47-4.36,3.62-6.95,1.15-2.59,2.17-5.23,3.07-7.93.89-2.7,1.51-5.2,1.86-7.51h-23.63c-.96-.48-2.1-.99-3.43-1.54Z"/>
          <path class="cls-3" d="M262.86,66.42c-.61-.83-1.24-1.52-1.9-2.09-.65-.56-1.22-.84-1.69-.84-.22,0-.62.23-1.21.69-.59.46-1.14.96-1.64,1.5-.5.55-.75.92-.75,1.14,0,.18.2.36.59.56.39.2.8.37,1.24.52.44.15.72.27.85.36.39.18,1,.52,1.83,1.04.82.53,1.65,1.01,2.48,1.47.82.46,1.39.69,1.69.69.13,0,.26-.07.39-.23s.2-.3.2-.43c0-.48-.2-1.12-.59-1.93-.39-.8-.89-1.62-1.5-2.44Z"/>
          <path class="cls-3" d="M313.02,78.46c-3.16-1.46-6.69-2.19-10.61-2.19-3.18,0-6.28.56-9.3,1.66-3.02,1.11-5.75,2.68-8.19,4.7-2.44,2.02-4.37,4.44-5.81,7.25-1.43,2.81-2.15,5.89-2.15,9.24,0,1.52.27,3.12.81,4.8.55,1.68,1.41,3.08,2.58,4.21,1.17,1.13,2.68,1.69,4.5,1.69,1.57,0,3.03-.37,4.4-1.11,1.37-.74,2.65-1.61,3.82-2.61,1.39-1.17,2.79-2.6,4.21-4.28,1.41-1.67,2.75-3.42,4.01-5.22,1.26-1.81,2.31-3.52,3.13-5.13l-6.59-4.37c-.3.7-.8,1.76-1.47,3.2-.68,1.43-1.46,3.02-2.35,4.76-.89,1.74-1.84,3.42-2.84,5.03-1,1.61-1.97,2.94-2.91,3.98-.93,1.04-1.77,1.57-2.51,1.57-.53,0-.95-.26-1.27-.79-.32-.52-.58-1.17-.78-1.95-.2-.79-.33-1.54-.39-2.25-.06-.72-.1-1.27-.1-1.67,0-2.31.46-4.61,1.37-6.92s2.17-4.43,3.78-6.36c1.61-1.94,3.48-3.5,5.61-4.67,2.13-1.17,4.41-1.76,6.85-1.76,2.96,0,5.51.7,7.64,2.09,2.13,1.39,3.78,3.26,4.93,5.61,1.15,2.35,1.73,4.94,1.73,7.77,0,3.3-.59,6.54-1.8,9.69-1.2,3.16-3.08,5.82-5.64,8-1.14.96-2.35,1.78-3.66,2.48-1.3.7-2.63,1.35-3.98,1.95-.22.09-.48.21-.79.36-.3.15-.46.4-.46.75,0,.39.22.59.65.59.83,0,1.74-.11,2.74-.33,1-.22,1.9-.44,2.68-.65,1.13-.39,2.27-.84,3.43-1.37,1.15-.52,2.25-1.08,3.3-1.69,3.7-2.26,6.56-4.94,8.58-8.03,2.02-3.09,3.03-6.81,3.03-11.16s-.91-7.61-2.74-10.44c-1.83-2.83-4.32-4.97-7.47-6.43Z"/>
          <path class="cls-3" d="M347.72,92.85s.08.01.13.03c.04.03.08.04.13.04.35,0,.66-.14.95-.43.29-.29.43-.6.43-.95s-.24-.89-.72-1.63c-.48-.74-1.1-1.54-1.86-2.41-.76-.87-1.56-1.71-2.39-2.51-.82-.81-1.59-1.47-2.28-1.99-.7-.53-1.2-.79-1.5-.79-.44,0-.8.16-1.08.49-.28.33-.53.66-.75,1.01l-3.59,6.33c2.09.44,4.18.89,6.26,1.37,2.09.48,4.18.96,6.27,1.43Z"/>
          <path class="cls-3" d="M352.74,77.38c0-.56-.32-1.42-.98-2.58-.65-1.15-1.46-2.34-2.42-3.56-.96-1.22-1.91-2.26-2.87-3.13-.96-.87-1.74-1.31-2.35-1.31-.26,0-.47.07-.62.2-.15.13-.31.31-.49.53-.26.3-.5.64-.72,1.01s-.44.73-.65,1.08c-.52.78-1.03,1.57-1.53,2.35-.5.79-.99,1.57-1.47,2.35.44.09,1.13.29,2.09.59.96.3,2.02.65,3.2,1.05,1.18.39,2.34.77,3.5,1.14,1.15.37,2.13.67,2.94.91.8.24,1.29.36,1.47.36.61,0,.91-.32.91-.98Z"/>
          <path class="cls-3" d="M386.45,105.71c2.4.56,4.89.87,7.46.87,17.77,0,32.23-14.26,32.23-31.8,0-5.6-1.48-10.86-4.06-15.43,3.05-1.67,5.11-4.88,5.11-8.56,0-5.4-4.45-9.79-9.93-9.79-3.87,0-7.22,2.2-8.86,5.4-4.36-2.18-9.28-3.41-14.49-3.41-14.2,0-26.28,9.11-30.56,21.72-.52-.13-.87-.21-1.02-.24-.74,2.7-1.64,5.36-2.68,7.99-1.05,2.63-2.24,5.17-3.59,7.61-.57.96-1.17,1.89-1.83,2.8-.65.91-1.29,1.85-1.89,2.81-.13.13-.2.3-.2.52,0,.18.1.29.29.36.2.07.36.1.49.1.35,0,.83-.14,1.43-.43.61-.28,1.07-.51,1.37-.69,1.78-.96,3.38-2.12,4.8-3.49.56-.54,1.11-1.11,1.65-1.67.2,1.11.46,2.2.77,3.27h-3.31l-2.42,14.29h-6.4v2.68h5.94c-.44,2.22-.88,4.45-1.34,6.69-.46,2.24-.92,4.47-1.4,6.69-.04.08-.06.24-.06.46,0,.3.14.48.43.52.28.04.53.06.75.06,3.74,0,7.48-.01,11.22-.03,3.75-.02,7.46-.03,11.17-.03-.18.78-.48,1.62-.91,2.51-.44.89-1,1.64-1.7,2.25-.7.61-1.52.91-2.48.91-1.35,0-2.61-.11-3.78-.33-1.18-.22-2.4-.54-3.66-.98-.17-.09-.35-.13-.52-.13-.22,0-.32.08-.32.26,0,.13.06.27.2.43.13.15.21.27.26.36.7.79,1.55,1.6,2.58,2.45,1.02.85,2.11,1.57,3.26,2.16,1.15.58,2.25.88,3.3.88,3.35,0,5.86-.92,7.54-2.77,1.68-1.85,2.84-4.3,3.5-7.34.04-.09.06-.2.06-.33s.02-.24.06-.32h6.27c1,0,1.82-.23,2.45-.69.63-.46.95-1.23.95-2.32,0-.87-.36-1.56-1.08-2.06-.72-.5-1.47-.75-2.25-.75s-1.49.33-2.12.98c-.63.65-.95,1.37-.95,2.15h-2.68c.3-1.96.58-3.9.85-5.84.03-.25.06-.5.09-.75ZM417.27,42.74c4.5,0,8.17,3.61,8.17,8.05,0,3.04-1.72,5.7-4.25,7.07-2.8-4.38-6.66-8.04-11.22-10.64,1.34-2.65,4.11-4.48,7.31-4.48ZM409.34,48.88c4.11,2.39,7.6,5.7,10.18,9.65-.72.2-1.47.32-2.26.32-4.5,0-8.16-3.61-8.16-8.06,0-.66.09-1.3.24-1.91ZM379.15,106.49c-.24,1.96-.56,3.9-.95,5.81h-16.52l2.09-11.68h4.83c-.26,1.56-.56,3.16-.91,4.8-.35,1.63-.78,3.21-1.31,4.73-.08.17-.13.35-.13.52,0,.3.11.46.32.46.57,0,1.1-.15,1.6-.46.5-.3.97-.7,1.41-1.17.61-.65,1.23-1.51,1.86-2.58.63-1.06,1.22-2.17,1.76-3.33.54-1.15.99-2.15,1.33-2.97h.63c1.37.97,2.81,1.83,4.32,2.58-.11,1.1-.21,2.19-.34,3.29ZM364.23,97.95l1.34-8.05c1.09,1.98,2.39,3.82,3.86,5.52-.11.84-.23,1.69-.36,2.53h-4.83ZM379.69,101.35c-.44-.23-.88-.47-1.31-.73h1.39c-.02.24-.05.48-.08.73ZM380.49,92.04c-.13,1.98-.31,3.95-.53,5.91h-4.5c.27-1,.6-2.15,1.01-3.43.41-1.29.62-2.41.62-3.36,0-.48-.15-.85-.46-1.11-.18-.13-.73-.31-1.67-.56-.93-.24-1.9-.48-2.91-.72-1-.24-1.69-.43-2.09-.55-.04,1.58-.14,3.17-.28,4.76-1.44-1.86-2.66-3.89-3.63-6.05l.13-.8h14.62c-.08,1.95-.2,3.93-.32,5.91ZM364.81,83.65c-.5-1.58-.85-3.22-1.08-4.89.3-.33.61-.65.9-.98h25.98c.96,0,1.8-.32,2.51-.95.72-.63,1.08-1.43,1.08-2.39s-.4-1.8-1.21-2.51c-.81-.72-1.67-1.08-2.58-1.08s-1.83.35-2.61,1.05c-.79.7-1.17,1.55-1.17,2.54,0,.09.01.19.03.29.02.11.03.21.03.3h-20.04c.21-.27.59-.75,1.14-1.47.54-.72,1.12-1.5,1.73-2.35.61-.85,1.13-1.62,1.57-2.32.44-.7.65-1.18.65-1.44,0-.22-.11-.44-.32-.65-1.7-.48-3.1-.86-4.21-1.14-.75-.19-1.45-.37-2.13-.54,4.09-11.85,15.47-20.41,28.85-20.41,4.98,0,9.68,1.19,13.84,3.29-.26.88-.41,1.81-.41,2.78,0,5.4,4.45,9.79,9.93,9.79,1.12,0,2.19-.19,3.19-.53,2.49,4.36,3.92,9.38,3.92,14.72,0,16.58-13.67,30.06-30.46,30.06-2.5,0-4.92-.3-7.25-.87.14-1.12.29-2.23.41-3.35h7.18c1.13,0,2.09-.28,2.87-.82.79-.54,1.17-1.42,1.17-2.65,0-.96-.41-1.8-1.24-2.51-.83-.72-1.7-1.08-2.61-1.08-1.26,0-2.23.43-2.91,1.27-.67.85-1.03,1.88-1.07,3.1h-3.07c.35-2.4.62-4.78.82-7.15.2-2.37.38-4.75.55-7.14h-23.97Z"/>
          <path class="cls-3" d="M348.57,97.88c-.31,0-.59.18-.85.53-.39.52-.76,1.07-1.11,1.66-.35.59-.72,1.16-1.11,1.73-1.69,2.48-3.52,4.88-5.48,7.21-1.96,2.33-4.03,4.54-6.2,6.62.3.26.78.7,1.43,1.31.65.61,1.37,1.23,2.16,1.86.78.63,1.51,1.17,2.18,1.63.67.46,1.21.69,1.6.69.48,0,1.01-.47,1.6-1.4.59-.93,1.2-2.17,1.83-3.69.63-1.52,1.23-3.16,1.8-4.92.57-1.76,1.08-3.48,1.54-5.16.46-1.67.82-3.14,1.08-4.4.26-1.26.39-2.14.39-2.61,0-.26-.06-.5-.16-.72-.11-.22-.34-.33-.69-.33Z"/>
          <path class="cls-3" d="M429.2,97.6c-3.21-1.11-6.71.59-7.82,3.8-1.11,3.21.59,6.71,3.8,7.82,3.21,1.11,6.71-.59,7.82-3.8,1.11-3.21-.59-6.71-3.8-7.82Z"/>
        </g>
        <path class="cls-3" d="M424.43,119.43c1.69,4.73-.27,10.12-4.41,12.57v.05c-13.11,8.16-27.58,14.14-42.48,18-15.01,3.7-30.41,5.77-45.69,6.42-30.79,1.47-61.19-2.72-90.89-6.53-.6-.05-1.14-.16-1.74-.22-29.86-4.03-59.34-8.27-88.83-8.21-26.49,0-53.09,3.81-77.46,14.2.82.92,1.47,2.01,1.9,3.26,1.85,5.11-.54,10.99-5.33,13.11-4.79,2.12-10.17-.33-12.02-5.44-.44-1.14-.6-2.34-.6-3.54,0-3.7,1.85-7.23,5-9.08,13.11-8.16,27.58-14.14,42.48-18,15.01-3.7,30.41-5.77,45.69-6.42,30.79-1.47,61.19,2.72,90.89,6.53.6.05,1.14.16,1.74.22,29.86,4.03,59.34,8.27,88.83,8.21,26.49,0,53.09-3.86,77.46-14.25-.82-.87-1.47-1.96-1.9-3.21-1.85-5.17.54-11.04,5.33-13.16,4.79-2.07,10.17.33,12.02,5.49Z"/>
      </g>
      <g>
        <g>
          <path class="cls-2" d="M88.93,87.75c.65.35,1.46.69,2.42,1.01.96.32,1.93.59,2.94.81,1,.22,1.85.33,2.54.33.3,0,.58-.06.82-.16s.36-.31.36-.62c0-.22-.06-.39-.2-.52-.22-.18-.45-.35-.69-.52-.24-.18-.47-.35-.69-.53-1-.78-1.95-1.66-2.87-2.64-.91-.98-1.74-2.01-2.48-3.1-.44-.65-.85-1.34-1.24-2.06-.39-.72-.78-1.42-1.17-2.12-.18-.27-.32-.56-.46-.88-.13-.33-.3-.62-.52-.88-.18-.3-.44-.46-.79-.46-.22,0-.62.18-1.21.52-.59.35-1.24.76-1.96,1.24-.72.48-1.38.94-1.99,1.38-.61.44-1.05.74-1.31.91.87,1.74,2.08,3.34,3.62,4.8,1.54,1.46,3.17,2.62,4.86,3.49Z"/>
          <path class="cls-2" d="M111.13,85.29c-1.35,3.95-3.07,7.77-5.16,11.46-2.09,3.7-4.54,7.05-7.34,10.05-1.61,1.73-3.33,3.25-5.15,4.57-2.82-4.28-7.01-7.71-12.22-9.51-8.43-2.91-17.39-.85-23.68,4.62-.57-.49-1.24-.89-2-1.15-3.21-1.11-6.71.59-7.82,3.8-1,2.91.31,6.05,2.96,7.44-.02.06-.05.11-.07.17-.94,2.73-1.38,5.54-1.32,8.34-5.99.28-11.5,4.13-13.57,10.13-1.32,3.81-1.08,7.91.68,11.53,1.77,3.63,4.83,6.35,8.65,7.67,1.61.56,3.28.84,4.94.84,2.26,0,4.5-.52,6.59-1.53,3.13-1.52,5.58-4.02,7.04-7.12.61.27,1.23.53,1.87.75,2.59.9,5.24,1.32,7.84,1.32,9.98,0,19.33-6.25,22.77-16.19,2.11-6.1,1.61-12.48-.9-17.92.94-.46,1.86-.95,2.77-1.49,1.92-1.13,3.63-2.24,5.16-3.33,3.57-2.61,6.65-5.68,9.27-9.2,2.6-3.53,4.76-7.34,6.46-11.43s2.95-8.26,3.78-12.53l-8.68-2.74c-.57,3.7-1.52,7.52-2.87,11.45ZM56.02,152.49c-3.3,1.61-7.02,1.83-10.49.63-3.46-1.2-6.26-3.67-7.86-6.97-1.6-3.3-1.83-7.03-.63-10.5,1.2-3.46,3.68-6.25,6.98-7.86,1.71-.83,3.53-1.27,5.37-1.35.23,2.98,1.02,5.92,2.36,8.69,2.31,4.75,6.05,8.51,10.68,10.87-1.33,2.83-3.56,5.11-6.41,6.49ZM63.05,144.47c-4.25-2.21-7.69-5.68-9.81-10.07-1.24-2.53-1.95-5.22-2.18-7.95,1.16.09,2.32.33,3.45.72,3.46,1.2,6.26,3.67,7.86,6.97,1.58,3.25,1.81,6.91.68,10.33ZM94.58,131.94c-4.04,11.68-16.83,17.9-28.51,13.85-.61-.21-1.2-.46-1.79-.71,1.32-3.81,1.08-7.91-.68-11.53-1.77-3.63-4.84-6.35-8.65-7.67-1.3-.45-2.63-.7-3.95-.78-.06-2.63.33-5.27,1.21-7.82.02-.05.04-.09.06-.14,3,.65,6.08-1.02,7.11-4,.65-1.88.33-3.87-.7-5.41,4.05-3.52,9.29-5.54,14.74-5.54,2.42,0,4.89.4,7.3,1.23,4.87,1.69,8.78,4.89,11.4,8.89-.93.6-1.88,1.17-2.85,1.67,0-1.13-.39-2.13-1.15-3s-1.73-1.3-2.9-1.3c-1.01,0-1.89.4-2.65,1.2-.76.81-1.14,1.71-1.14,2.71,0,1.22.53,2.11,1.6,2.65,1.07.54,2.1.81,3.1.81,1.96,0,3.95-.38,5.97-1.14.55-.21,1.1-.43,1.64-.67,2.34,5.07,2.81,11.02.84,16.7Z"/>
          <path class="cls-2" d="M192.2,85.98c-.83,0-1.55.24-2.16.72-.61.48-.91,1.15-.91,2.02,0,.44.16.86.49,1.27.32.41.69.69,1.07.82-.74.56-1.69.95-2.87,1.14-1.18.2-2.22.29-3.13.29-2,0-3.99-.2-5.98-.59-1.98-.39-3.95-.78-5.91-1.17-2.39-.48-4.83-.93-7.31-1.37-2.48-.44-4.96-.65-7.44-.65-3.18,0-6.32.15-9.43.46-3.11.31-6.24.7-9.37,1.18l.33,6.33c2.57-.43,5.14-.8,7.73-1.1,2.59-.31,5.19-.46,7.8-.46,1.39,0,2.81.05,4.24.16,1.43.11,2.85.32,4.24.62,2.26.48,4.53.9,6.79,1.27,2.26.37,4.55.55,6.85.55,2.66,0,5.34-.38,8.06-1.14,2.72-.76,5.17-1.9,7.35-3.43.61-.44,1.2-1.04,1.76-1.8.56-.76.84-1.51.84-2.25,0-.87-.3-1.57-.91-2.09-.61-.52-1.33-.79-2.15-.79Z"/>
          <path class="cls-2" d="M252.28,66.95c-.59-.8-1.18-1.48-1.8-2.02-.61-.54-1.13-.81-1.57-.81-.22,0-.63.23-1.24.69-.61.46-1.18.95-1.7,1.47-.52.53-.78.91-.78,1.18,0,.17.07.3.23.39.15.09.29.18.43.26.35.13.89.39,1.63.79.74.39,1.56.81,2.45,1.24.89.44,1.68.82,2.38,1.14.7.33,1.15.49,1.37.49.13,0,.27-.08.43-.23.15-.15.23-.3.23-.43,0-.44-.2-1.04-.59-1.8-.39-.76-.88-1.55-1.47-2.35Z"/>
          <path class="cls-2" d="M225.58,73.03c-1.33-.54-2.75-1.05-4.28-1.54-1,3.96-2.44,7.82-4.31,11.59-1.87,3.76-4.11,7.26-6.72,10.48-.05.04-.12.16-.23.36-.11.2-.16.34-.16.43,0,.18.04.34.13.49.08.15.21.23.39.23,1.22,0,2.49-.38,3.82-1.14,1.33-.76,2.43-1.49,3.3-2.18,1.34-1.13,2.67-2.5,3.98-4.11,1.31-1.61,2.5-3.31,3.59-5.09s1.98-3.46,2.68-5.03h15.34c-.74,2.92-1.67,5.81-2.78,8.68-1.11,2.87-2.4,5.66-3.88,8.36-.65-.65-1.49-1.37-2.51-2.15-1.03-.79-2.06-1.54-3.1-2.25-1.04-.72-1.98-1.32-2.8-1.8-.52-.26-.95-.37-1.27-.33-.32.05-.66.22-1.01.53-.13.17-.42.56-.88,1.17-.46.61-.95,1.27-1.47,1.99-.53.72-.98,1.36-1.38,1.92-.39.57-.58.89-.58.98,0,.44.26.7.78.79.48.08,1.2.22,2.16.39.96.17,1.94.35,2.97.52,1.02.18,1.82.32,2.38.46.74.18,1.55.37,2.42.58.87.22,1.65.44,2.35.65-2.14,3.39-4.59,6.51-7.38,9.34-2.78,2.83-5.96,5.2-9.53,7.11-.61.3-1.21.59-1.8.85s-1.18.52-1.8.78c.04-1.04-.37-2.02-1.24-2.94-.87-.91-1.83-1.37-2.87-1.37s-1.89.37-2.65,1.11c-.76.74-1.14,1.61-1.14,2.61,0,1.17.4,2.05,1.21,2.61.8.56,1.73.85,2.77.85,1.48,0,2.93-.14,4.34-.42,1.41-.28,2.84-.64,4.28-1.08,5.48-1.74,10.33-4.38,14.55-7.93,4.22-3.54,7.84-7.73,10.84-12.56,1.26-2.05,2.47-4.36,3.62-6.95,1.15-2.59,2.17-5.23,3.07-7.93.89-2.7,1.51-5.2,1.86-7.51h-23.63c-.96-.48-2.1-.99-3.43-1.54Z"/>
          <path class="cls-2" d="M259.69,64.05c-.61-.83-1.24-1.52-1.9-2.09-.65-.56-1.22-.84-1.69-.84-.22,0-.62.23-1.21.69-.59.46-1.14.96-1.64,1.5-.5.55-.75.92-.75,1.14,0,.18.2.36.59.56.39.2.8.37,1.24.52.44.15.72.27.85.36.39.18,1,.52,1.83,1.04.82.53,1.65,1.01,2.48,1.47.82.46,1.39.69,1.69.69.13,0,.26-.07.39-.23s.2-.3.2-.43c0-.48-.2-1.12-.59-1.93-.39-.8-.89-1.62-1.5-2.44Z"/>
          <path class="cls-2" d="M309.85,76.1c-3.16-1.46-6.69-2.19-10.61-2.19-3.18,0-6.28.56-9.3,1.66-3.02,1.11-5.75,2.68-8.19,4.7-2.44,2.02-4.37,4.44-5.81,7.25-1.43,2.81-2.15,5.89-2.15,9.24,0,1.52.27,3.12.81,4.8.55,1.68,1.41,3.08,2.58,4.21,1.17,1.13,2.68,1.69,4.5,1.69,1.57,0,3.03-.37,4.4-1.11,1.37-.74,2.65-1.61,3.82-2.61,1.39-1.17,2.79-2.6,4.21-4.28,1.41-1.67,2.75-3.42,4.01-5.22,1.26-1.81,2.31-3.52,3.13-5.13l-6.59-4.37c-.3.7-.8,1.76-1.47,3.2-.68,1.43-1.46,3.02-2.35,4.76-.89,1.74-1.84,3.42-2.84,5.03-1,1.61-1.97,2.94-2.91,3.98-.93,1.04-1.77,1.57-2.51,1.57-.53,0-.95-.26-1.27-.79-.32-.52-.58-1.17-.78-1.95-.2-.79-.33-1.54-.39-2.25-.06-.72-.1-1.27-.1-1.67,0-2.31.46-4.61,1.37-6.92s2.17-4.43,3.78-6.36c1.61-1.94,3.48-3.5,5.61-4.67,2.13-1.17,4.41-1.76,6.85-1.76,2.96,0,5.51.7,7.64,2.09,2.13,1.39,3.78,3.26,4.93,5.61,1.15,2.35,1.73,4.94,1.73,7.77,0,3.3-.59,6.54-1.8,9.69-1.2,3.16-3.08,5.82-5.64,8-1.14.96-2.35,1.78-3.66,2.48-1.3.7-2.63,1.35-3.98,1.95-.22.09-.48.21-.79.36-.3.15-.46.4-.46.75,0,.39.22.59.65.59.83,0,1.74-.11,2.74-.33,1-.22,1.9-.44,2.68-.65,1.13-.39,2.27-.84,3.43-1.37,1.15-.52,2.25-1.08,3.3-1.69,3.7-2.26,6.56-4.94,8.58-8.03,2.02-3.09,3.03-6.81,3.03-11.16s-.91-7.61-2.74-10.44c-1.83-2.83-4.32-4.97-7.47-6.43Z"/>
          <path class="cls-2" d="M344.55,90.49s.08.01.13.03c.04.03.08.04.13.04.35,0,.66-.14.95-.43.29-.29.43-.6.43-.95s-.24-.89-.72-1.63c-.48-.74-1.1-1.54-1.86-2.41-.76-.87-1.56-1.71-2.39-2.51-.82-.81-1.59-1.47-2.28-1.99-.7-.53-1.2-.79-1.5-.79-.44,0-.8.16-1.08.49-.28.33-.53.66-.75,1.01l-3.59,6.33c2.09.44,4.18.89,6.26,1.37,2.09.48,4.18.96,6.27,1.43Z"/>
          <path class="cls-2" d="M349.57,75.02c0-.56-.32-1.42-.98-2.58-.65-1.15-1.46-2.34-2.42-3.56-.96-1.22-1.91-2.26-2.87-3.13-.96-.87-1.74-1.31-2.35-1.31-.26,0-.47.07-.62.2-.15.13-.31.31-.49.53-.26.3-.5.64-.72,1.01s-.44.73-.65,1.08c-.52.78-1.03,1.57-1.53,2.35-.5.79-.99,1.57-1.47,2.35.44.09,1.13.29,2.09.59.96.3,2.02.65,3.2,1.05,1.18.39,2.34.77,3.5,1.14,1.15.37,2.13.67,2.94.91.8.24,1.29.36,1.47.36.61,0,.91-.32.91-.98Z"/>
          <path class="cls-2" d="M383.28,103.35c2.4.56,4.89.87,7.46.87,17.77,0,32.23-14.26,32.23-31.8,0-5.6-1.48-10.86-4.06-15.43,3.05-1.67,5.11-4.88,5.11-8.56,0-5.4-4.45-9.79-9.93-9.79-3.87,0-7.22,2.2-8.86,5.4-4.36-2.18-9.28-3.41-14.49-3.41-14.2,0-26.28,9.11-30.56,21.72-.52-.13-.87-.21-1.02-.24-.74,2.7-1.64,5.36-2.68,7.99-1.05,2.63-2.24,5.17-3.59,7.61-.57.96-1.17,1.89-1.83,2.8-.65.91-1.29,1.85-1.89,2.81-.13.13-.2.3-.2.52,0,.18.1.29.29.36.2.07.36.1.49.1.35,0,.83-.14,1.43-.43.61-.28,1.07-.51,1.37-.69,1.78-.96,3.38-2.12,4.8-3.49.56-.54,1.11-1.11,1.65-1.67.2,1.11.46,2.2.77,3.27h-3.31l-2.42,14.29h-6.4v2.68h5.94c-.44,2.22-.88,4.45-1.34,6.69-.46,2.24-.92,4.47-1.4,6.69-.04.08-.06.24-.06.46,0,.3.14.48.43.52.28.04.53.06.75.06,3.74,0,7.48-.01,11.22-.03,3.75-.02,7.46-.03,11.17-.03-.18.78-.48,1.62-.91,2.51-.44.89-1,1.64-1.7,2.25-.7.61-1.52.91-2.48.91-1.35,0-2.61-.11-3.78-.33-1.18-.22-2.4-.54-3.66-.98-.17-.09-.35-.13-.52-.13-.22,0-.32.08-.32.26,0,.13.06.27.2.43.13.15.21.27.26.36.7.79,1.55,1.6,2.58,2.45,1.02.85,2.11,1.57,3.26,2.16,1.15.58,2.25.88,3.3.88,3.35,0,5.86-.92,7.54-2.77,1.68-1.85,2.84-4.3,3.5-7.34.04-.09.06-.2.06-.33s.02-.24.06-.32h6.27c1,0,1.82-.23,2.45-.69.63-.46.95-1.23.95-2.32,0-.87-.36-1.56-1.08-2.06-.72-.5-1.47-.75-2.25-.75s-1.49.33-2.12.98c-.63.65-.95,1.37-.95,2.15h-2.68c.3-1.96.58-3.9.85-5.84.03-.25.06-.5.09-.75ZM414.1,40.37c4.5,0,8.17,3.61,8.17,8.05,0,3.04-1.72,5.7-4.25,7.07-2.8-4.38-6.66-8.04-11.22-10.64,1.34-2.65,4.11-4.48,7.31-4.48ZM406.17,46.51c4.11,2.39,7.6,5.7,10.18,9.65-.72.2-1.47.32-2.26.32-4.5,0-8.16-3.61-8.16-8.06,0-.66.09-1.3.24-1.91ZM375.98,104.13c-.24,1.96-.56,3.9-.95,5.81h-16.52l2.09-11.68h4.83c-.26,1.56-.56,3.16-.91,4.8-.35,1.63-.78,3.21-1.31,4.73-.08.17-.13.35-.13.52,0,.3.11.46.32.46.57,0,1.1-.15,1.6-.46.5-.3.97-.7,1.41-1.17.61-.65,1.23-1.51,1.86-2.58.63-1.06,1.22-2.17,1.76-3.33.54-1.15.99-2.15,1.33-2.97h.63c1.37.97,2.81,1.83,4.32,2.58-.11,1.1-.21,2.19-.34,3.29ZM361.06,95.58l1.34-8.05c1.09,1.98,2.39,3.82,3.86,5.52-.11.84-.23,1.69-.36,2.53h-4.83ZM376.52,98.99c-.44-.23-.88-.47-1.31-.73h1.39c-.02.24-.05.48-.08.73ZM377.32,89.67c-.13,1.98-.31,3.95-.53,5.91h-4.5c.27-1,.6-2.15,1.01-3.43.41-1.29.62-2.41.62-3.36,0-.48-.15-.85-.46-1.11-.18-.13-.73-.31-1.67-.56-.93-.24-1.9-.48-2.91-.72-1-.24-1.69-.43-2.09-.55-.04,1.58-.14,3.17-.28,4.76-1.44-1.86-2.66-3.89-3.63-6.05l.13-.8h14.62c-.08,1.95-.2,3.93-.32,5.91ZM361.63,81.29c-.5-1.58-.85-3.22-1.08-4.89.3-.33.61-.65.9-.98h25.98c.96,0,1.8-.32,2.51-.95.72-.63,1.08-1.43,1.08-2.39s-.4-1.8-1.21-2.51c-.81-.72-1.67-1.08-2.58-1.08s-1.83.35-2.61,1.05c-.79.7-1.17,1.55-1.17,2.54,0,.09.01.19.03.29.02.11.03.21.03.3h-20.04c.21-.27.59-.75,1.14-1.47.54-.72,1.12-1.5,1.73-2.35.61-.85,1.13-1.62,1.57-2.32.44-.7.65-1.18.65-1.44,0-.22-.11-.44-.32-.65-1.7-.48-3.1-.86-4.21-1.14-.75-.19-1.45-.37-2.13-.54,4.09-11.85,15.47-20.41,28.85-20.41,4.98,0,9.68,1.19,13.84,3.29-.26.88-.41,1.81-.41,2.78,0,5.4,4.45,9.79,9.93,9.79,1.12,0,2.19-.19,3.19-.53,2.49,4.36,3.92,9.38,3.92,14.72,0,16.58-13.67,30.06-30.46,30.06-2.5,0-4.92-.3-7.25-.87.14-1.12.29-2.23.41-3.35h7.18c1.13,0,2.09-.28,2.87-.82.79-.54,1.17-1.42,1.17-2.65,0-.96-.41-1.8-1.24-2.51-.83-.72-1.7-1.08-2.61-1.08-1.26,0-2.23.43-2.91,1.27-.67.85-1.03,1.88-1.07,3.1h-3.07c.35-2.4.62-4.78.82-7.15.2-2.37.38-4.75.55-7.14h-23.97Z"/>
          <path class="cls-2" d="M345.4,95.51c-.31,0-.59.18-.85.53-.39.52-.76,1.07-1.11,1.66-.35.59-.72,1.16-1.11,1.73-1.69,2.48-3.52,4.88-5.48,7.21-1.96,2.33-4.03,4.54-6.2,6.62.3.26.78.7,1.43,1.31.65.61,1.37,1.23,2.16,1.86.78.63,1.51,1.17,2.18,1.63.67.46,1.21.69,1.6.69.48,0,1.01-.47,1.6-1.4.59-.93,1.2-2.17,1.83-3.69.63-1.52,1.23-3.16,1.8-4.92.57-1.76,1.08-3.48,1.54-5.16.46-1.67.82-3.14,1.08-4.4.26-1.26.39-2.14.39-2.61,0-.26-.06-.5-.16-.72-.11-.22-.34-.33-.69-.33Z"/>
          <path class="cls-2" d="M426.03,95.23c-3.21-1.11-6.71.59-7.82,3.8-1.11,3.21.59,6.71,3.8,7.82,3.21,1.11,6.71-.59,7.82-3.8,1.11-3.21-.59-6.71-3.8-7.82Z"/>
        </g>
        <path class="cls-2" d="M421.26,117.06c1.69,4.73-.27,10.12-4.41,12.57v.05c-13.11,8.16-27.58,14.14-42.48,18-15.01,3.7-30.41,5.77-45.69,6.42-30.79,1.47-61.19-2.72-90.89-6.53-.6-.05-1.14-.16-1.74-.22-29.86-4.03-59.34-8.27-88.83-8.21-26.49,0-53.09,3.81-77.46,14.2.82.92,1.47,2.01,1.9,3.26,1.85,5.11-.54,10.99-5.33,13.11-4.79,2.12-10.17-.33-12.02-5.44-.44-1.14-.6-2.34-.6-3.54,0-3.7,1.85-7.23,5-9.08,13.11-8.16,27.58-14.14,42.48-18,15.01-3.7,30.41-5.77,45.69-6.42,30.79-1.47,61.19,2.72,90.89,6.53.6.05,1.14.16,1.74.22,29.86,4.03,59.34,8.27,88.83,8.21,26.49,0,53.09-3.86,77.46-14.25-.82-.87-1.47-1.96-1.9-3.21-1.85-5.17.54-11.04,5.33-13.16,4.79-2.07,10.17.33,12.02,5.49Z"/>
      </g>
    </g>
  </g>
</svg>