<?xml version="1.0" encoding="UTF-8"?>
<svg id="_レイヤー_2" data-name="レイヤー_2" xmlns="http://www.w3.org/2000/svg" viewBox="0 0 150.88 150.88">
  <defs>
    <style>
      .cls-1 {
        fill: #fff;
      }
    </style>
  </defs>
  <g id="_レイヤー_1-2" data-name="レイヤー_1">
    <g>
      <path class="cls-1" d="M75.44,150.88c41.66,0,75.44-33.78,75.44-75.44S117.1,0,75.44,0,0,33.77,0,75.44s33.77,75.44,75.44,75.44Z"/>
      <path d="M75.46,52.46c-4.54,0-8.98,1.35-12.76,3.87-3.78,2.52-6.72,6.11-8.46,10.3-1.74,4.2-2.19,8.81-1.31,13.27.89,4.45,3.07,8.55,6.28,11.76,3.21,3.21,7.3,5.4,11.76,6.28,4.45.89,9.07.43,13.27-1.31s7.78-4.68,10.3-8.46c2.52-3.78,3.87-8.22,3.87-12.76,0-3.02-.59-6-1.74-8.79-1.15-2.79-2.84-5.32-4.98-7.45-2.13-2.13-4.67-3.82-7.45-4.98-2.79-1.15-5.78-1.74-8.79-1.74ZM75.46,90.35c-2.95,0-5.84-.88-8.29-2.52-2.45-1.64-4.37-3.97-5.5-6.7-1.13-2.73-1.43-5.73-.85-8.62.58-2.9,2-5.56,4.09-7.64,2.09-2.09,4.75-3.51,7.64-4.09,2.9-.58,5.9-.28,8.62.85,2.73,1.13,5.06,3.04,6.7,5.5,1.64,2.45,2.52,5.34,2.52,8.29,0,3.96-1.59,7.75-4.38,10.54-2.8,2.8-6.59,4.37-10.54,4.38h0ZM104.69,51.52c0,1.06-.31,2.1-.9,2.98s-1.43,1.57-2.4,1.97c-.98.41-2.06.51-3.1.3-1.04-.21-1.99-.72-2.74-1.47s-1.26-1.71-1.46-2.74-.1-2.12.31-3.1c.41-.98,1.09-1.81,1.98-2.4.88-.59,1.92-.9,2.98-.9.7,0,1.4.14,2.05.41.65.27,1.24.66,1.74,1.16.5.5.89,1.09,1.16,1.74.27.65.4,1.35.4,2.05ZM119.91,56.96c.15-6.96-2.45-13.7-7.23-18.77-5.07-4.77-11.8-7.38-18.76-7.26-7.39-.42-29.56-.42-36.95,0-6.95-.13-13.68,2.47-18.75,7.24-4.78,5.06-7.39,11.8-7.26,18.77-.42,7.39-.42,29.56,0,36.95-.14,6.97,2.47,13.71,7.26,18.77,5.07,4.76,11.81,7.36,18.77,7.23,7.39.42,29.56.42,36.95,0,6.96.15,13.7-2.45,18.76-7.23,4.77-5.07,7.36-11.81,7.23-18.77.42-7.39.42-29.54,0-36.93h-.02ZM110.35,101.82c-.76,1.92-1.9,3.67-3.36,5.14-1.46,1.46-3.2,2.61-5.13,3.38-5.89,2.36-19.89,1.8-26.4,1.8s-20.52.52-26.4-1.8c-1.93-.76-3.68-1.91-5.14-3.37-1.46-1.47-2.61-3.22-3.37-5.14-2.36-5.89-1.8-19.89-1.8-26.4s-.52-20.52,1.8-26.4c.76-1.93,1.91-3.67,3.37-5.14,1.46-1.46,3.21-2.61,5.14-3.37,5.89-2.36,19.89-1.8,26.4-1.8s20.52-.52,26.4,1.8c1.92.76,3.67,1.91,5.13,3.38,1.46,1.46,2.6,3.21,3.36,5.13,2.36,5.89,1.8,19.89,1.8,26.4s.56,20.52-1.8,26.4Z"/>
    </g>
  </g>
</svg>