<?xml version="1.0" encoding="UTF-8"?>
<svg id="_レイヤー_2" data-name="レイヤー_2" xmlns="http://www.w3.org/2000/svg" viewBox="0 0 150.88 150.88">
  <defs>
    <style>
      .cls-1 {
        fill: #fff;
      }
    </style>
  </defs>
  <g id="_レイヤー_1-2" data-name="レイヤー_1">
    <g>
      <path class="cls-1" d="M150.88,75.44c0,14.92-4.42,29.51-12.71,41.91-8.29,12.41-20.07,22.07-33.86,27.79-13.78,5.71-28.95,7.2-43.59,4.29-14.63-2.91-28.08-10.1-38.63-20.65-10.55-10.55-17.73-23.99-20.65-38.63C-1.46,75.52.03,60.35,5.74,46.57c5.71-13.78,15.38-25.57,27.78-33.86C45.93,4.42,60.52,0,75.44,0c20.01,0,39.19,7.95,53.34,22.1,14.15,14.15,22.1,33.34,22.1,53.34Z"/>
      <path d="M125.74,71.04c0-22.54-22.59-40.87-50.35-40.87s-50.37,18.33-50.37,40.87c0,20.2,17.92,37.12,42.12,40.32,1.65.35,3.88,1.08,4.44,2.49.4,1.49.45,3.04.17,4.55,0,0-.59,3.56-.72,4.31-.22,1.27-1.01,4.98,4.37,2.72,14.59-7.68,27.93-17.54,39.56-29.23,6.74-6.66,10.61-15.68,10.8-25.14"/>
      <path class="cls-1" d="M109.01,84.06c.25,0,.49-.1.67-.28.18-.18.28-.42.28-.67v-3.57c0-.25-.1-.49-.28-.67-.18-.18-.42-.28-.67-.28h-9.61v-3.71h9.61c.25,0,.49-.1.67-.28.18-.18.28-.42.28-.67v-3.57c0-.25-.1-.49-.28-.67-.18-.18-.42-.28-.67-.28h-9.61v-3.71h9.61c.25,0,.49-.1.67-.28.18-.18.28-.42.28-.67v-3.57c0-.25-.1-.49-.28-.67-.18-.18-.42-.28-.67-.28h-14.14c-.25,0-.49.1-.67.28-.18.18-.28.42-.28.67v21.87c0,.25.1.49.28.67.18.18.42.28.67.28h14.14v.04Z"/>
      <path class="cls-1" d="M56.67,84.06c.25,0,.49-.1.67-.28.18-.18.28-.42.28-.67v-3.57c0-.25-.1-.49-.28-.67-.18-.18-.42-.28-.67-.28h-9.61v-17.45c0-.25-.1-.49-.28-.67-.18-.18-.42-.28-.67-.28h-3.59c-.25,0-.49.1-.67.28-.18.18-.28.42-.28.67v21.92c0,.25.1.49.28.67.18.18.42.28.67.28h14.14v.04Z"/>
      <path class="cls-1" d="M65.16,60.15h-3.57c-.25,0-.49.1-.67.28-.18.18-.28.42-.28.67v21.98c0,.25.1.49.28.67.18.18.42.28.67.28h3.57c.25,0,.49-.1.67-.28.18-.18.28-.42.28-.67v-21.96c0-.25-.1-.49-.28-.67-.18-.18-.42-.28-.67-.28"/>
      <path class="cls-1" d="M89.49,60.15h-3.57c-.25,0-.49.1-.67.28-.18.18-.28.42-.28.67v13.06l-10.06-13.58-.08-.1-.06-.06-.05-.05h-.03l-.05-.03h-.03l-.05-.03h-.03l-.06-.02h-3.95c-.25,0-.49.1-.67.28-.18.18-.28.42-.28.67v21.98c0,.25.1.49.28.67.18.18.42.28.67.28h3.57c.25,0,.49-.1.67-.28.18-.18.28-.42.28-.67v-13.15l10.07,13.59c.07.09.15.17.25.24l.06.03h.22c.08.02.17.03.25.03h3.55c.25,0,.49-.1.67-.28.18-.18.28-.42.28-.67v-21.89c0-.25-.1-.49-.28-.67-.18-.18-.42-.28-.67-.28"/>
    </g>
  </g>
</svg>