<?xml version="1.0" encoding="UTF-8"?>
<svg id="_レイヤー_2" data-name="レイヤー_2" xmlns="http://www.w3.org/2000/svg" viewBox="0 0 149.93 150.4">
  <defs>
    <style>
      .cls-1 {
        fill: #fff;
      }
    </style>
  </defs>
  <g id="_レイヤー_1-2" data-name="レイヤー_1">
    <g>
      <path class="cls-1" d="M75.44,150.4c-5.19,0-10.37-.47-15.09-1.41-14.62-2.83-27.82-9.9-38.19-20.75-3.3-3.3-6.6-7.07-9.43-11.32-5.66-8.01-9.43-17.44-11.32-26.87-1.89-9.9-1.89-20.27,0-30.18,1.89-9.43,5.66-18.86,11.32-26.87,8.02-12.26,19.8-21.69,33-27.35,4.71-1.89,9.43-3.3,14.14-4.24,9.9-1.89,20.27-1.89,30.18,0,9.43,1.89,18.86,5.66,26.88,11.32,12.26,8.02,21.69,19.8,27.35,33,1.89,4.71,3.3,9.43,4.24,14.14,1.89,9.9,1.89,20.27,0,30.18-1.89,9.43-5.66,18.86-11.32,26.87-13.2,21.22-36.78,33.48-61.77,33.48Z"/>
      <path d="M84.41,71.66l29.23-33.95h-7.07l-24.99,29.23-20.27-29.23h-23.57l30.65,44.32-30.65,35.36h7.07l26.4-31.12,21.22,31.12h23.1l-31.12-45.73ZM74.98,82.51l-3.3-4.24-24.52-35.36h10.84l19.8,28.29,3.3,4.24,25.93,36.78h-11.32l-20.75-29.7Z"/>
    </g>
  </g>
</svg>